<?xml version="1.0" encoding="UTF-8"?>
<svg id="Layer_1" xmlns="http://www.w3.org/2000/svg" version="1.1" viewBox="0 0 800 800">
  <!-- Generator: Adobe Illustrator 30.2.1, SVG Export Plug-In . SVG Version: 2.1.1 Build 1)  -->
  <defs>
    <style>
      .st0 {
        fill: none;
        isolation: isolate;
        opacity: .5;
      }

      .st1 {
        fill: #5c9eff;
      }

      .st2 {
        fill: #006bc4;
      }

      .st3 {
        fill: #02dfff;
      }

      .st4 {
        fill: #f0567a;
      }
    </style>
  </defs>
  <circle class="st0" cx="400" cy="400" r="400"/>
  <g>
    <path class="st3" d="M400,123v259.4l271.9-61.5c-1.6-6.4-10.3-10.5-25.5-10.8l-118.5-2.4c-31.8-2.2-59.5-22.4-71.4-51.9l-38.9-111.9c-4.8-14-11.2-21-17.6-21h0Z"/>
    <path class="st3" d="M400,382.4l166.9,258.2c6.2-3.2,7.6-12.8,3.1-27.9l-34.2-113.5c-7.8-30.9,2.8-63.4,27.2-83.9l94.4-71.7c11.5-8.7,16.2-16.7,14.6-22.8l-271.9,61.5h0Z"/>
    <path class="st3" d="M128.1,321l271.9,61.5V123c-6.4,0-12.8,7-17.6,21l-38.9,111.9c-11.9,29.5-39.6,49.7-71.4,51.9l-118.5,2.4c-15.2.4-23.9,4.4-25.5,10.8Z"/>
    <path class="st3" d="M400,382.4l-166.9,258.2c5.3,2.8,14.1.7,25.5-7.2l97.3-67.6c27-17,61.2-17,88.2,0l97.3,67.6c11.3,7.9,20.2,10,25.5,7.2l-166.9-258.2h0Z"/>
    <path class="st3" d="M400,382.4l-271.9-61.5c-1.7,6.1,3.1,14,14.6,22.8l94.4,71.7c24.4,20.4,35,53,27.2,83.9l-34.2,113.5c-4.6,15.1-3.1,24.8,3.1,27.9l166.9-258.2h0Z"/>
    <path class="st1" d="M474.8,435.7c-6.9,0-12.5-5.5-12.5-12.4,0-6.9,5.5-12.5,12.4-12.5h.1c6.9,0,12.5,5.6,12.5,12.5s-5.6,12.5-12.5,12.5Z"/>
    <path class="st4" d="M356.3,536.5c-7.5,0-13.6-6-13.6-13.5s6-13.6,13.5-13.6h.1c7.5,0,13.5,6.1,13.5,13.5s-6.1,13.5-13.5,13.5h0Z"/>
    <path class="st4" d="M315.1,419.1c-5.7,0-10.3-4.6-10.4-10.2,0-5.7,4.6-10.3,10.2-10.4h.1c5.7,0,10.3,4.6,10.3,10.3s-4.6,10.3-10.3,10.3h0Z"/>
    <path class="st1" d="M337.7,344.5c-9.2,0-16.6-7.4-16.7-16.5s7.4-16.6,16.5-16.7h.2c9.2,0,16.6,7.4,16.6,16.6s-7.4,16.6-16.6,16.6h0Z"/>
    <path class="st4" d="M514.9,400.8c-4.9,0-8.8-3.9-8.8-8.7,0-4.9,3.9-8.8,8.7-8.8h0c4.8,0,8.8,3.9,8.8,8.8s-3.9,8.8-8.8,8.8h0Z"/>
    <path class="st2" d="M561.7,650.7c-9.3-.7-18.1-4.2-25.3-10l-97.3-67.7c-24-14.8-54.2-14.8-78.2,0l-97.3,67.7c-19.3,13.4-30.6,10.9-36.8,6.5-6.1-4.5-12-14.5-5.2-37l34.3-113.4c6.6-27.4-2.7-56.1-24.2-74.4l-94.4-71.6c-18.7-14.2-19.8-25.8-17.5-33,2.3-7.2,10.1-15.9,33.5-16.4l118.5-2.4c28.1-2.2,52.5-20,63.3-46l38.9-111.9h0c7.7-22.2,18.4-26.8,25.9-26.8s18.2,4.7,25.9,26.8l38.9,111.9c10.7,26,35.2,43.8,63.3,46l118.5,2.4c23.5.5,31.2,9.2,33.5,16.4,2.3,7.2,1.2,18.8-17.5,33l-94.4,71.6c-21.5,18.2-30.8,47-24.2,74.4l34.3,113.4c6.8,22.5.9,32.5-5.2,37-3.3,2.4-7.3,3.6-11.4,3.6h0ZM400,544.4c17.4-.3,34.5,4.6,49.1,14.1l97.3,67.7c10.8,7.5,15.8,7.1,16.4,6.7.5-.4,2.5-5.1-1.3-17.7l-34.3-113.4c-8.7-34.4,3.1-70.7,30.4-93.5l94.4-71.6c10.5-8,11.6-12.9,11.4-13.5-.2-.6-4-4-17.2-4.2l-118.5-2.4c-35.4-2.4-66.3-24.9-79.5-57.8l-38.9-111.9c-4.3-12.4-8.7-15-9.4-15s-5,2.6-9.4,15l-38.9,111.9c-13.2,32.9-44.1,55.4-79.5,57.8l-118.5,2.4c-13.2.3-17,3.6-17.2,4.2-.2.6.9,5.6,11.4,13.5l94.4,71.6c27.2,22.8,39,59.1,30.4,93.5l-34.3,113.4c-3.8,12.6-1.8,17.3-1.3,17.7.6.4,5.6.9,16.4-6.7l97.3-67.7c14.6-9.5,31.7-14.5,49.1-14.2h0Z"/>
    <path class="st2" d="M400,391.2c-4.9,0-8.8-3.9-8.8-8.8s2.9-7.7,6.9-8.6l271.9-61.5c4.7-1.1,9.4,1.9,10.5,6.6s-1.9,9.4-6.6,10.5h0l-271.9,61.5c-.6.1-1.3.2-2,.2h0Z"/>
    <path class="st2" d="M400,391.2c-4.9,0-8.8-3.9-8.8-8.8h0V123c0-4.8,3.9-8.8,8.8-8.8s8.8,3.9,8.8,8.8v259.4c0,4.9-3.9,8.8-8.8,8.8h0Z"/>
    <path class="st2" d="M400,391.2c-.6,0-1.3,0-2-.2l-271.9-61.5c-4.7-1.1-7.7-5.8-6.6-10.5,1.1-4.7,5.8-7.7,10.5-6.6l271.9,61.5c4.7,1.1,7.7,5.8,6.6,10.5-.9,4-4.5,6.8-8.6,6.9Z"/>
    <path class="st2" d="M233.1,649.4c-4.9,0-8.8-3.9-8.8-8.8,0-1.7.5-3.3,1.4-4.8l166.9-258.2c2.6-4.1,8.1-5.2,12.1-2.6s5.2,8.1,2.6,12.1h0l-166.9,258.2c-1.6,2.5-4.4,4-7.4,4h0Z"/>
    <path class="st2" d="M566.9,649.4c-3,0-5.8-1.5-7.4-4l-166.9-258.2c-2.6-4.1-1.5-9.5,2.6-12.1s9.5-1.5,12.1,2.6l166.9,258.2c2.6,4.1,1.5,9.5-2.6,12.1-1.4.9-3.1,1.4-4.8,1.4h0Z"/>
  </g>
</svg>