<?xml version="1.0" encoding="UTF-8"?>
<svg id="Layer_1" xmlns="http://www.w3.org/2000/svg" version="1.1" viewBox="0 0 800 800">
  <!-- Generator: Adobe Illustrator 30.2.1, SVG Export Plug-In . SVG Version: 2.1.1 Build 1)  -->
  <defs>
    <style>
      .st0 {
        opacity: .4;
      }

      .st0, .st1 {
        fill: #fff;
      }

      .st0, .st1, .st2 {
        isolation: isolate;
      }

      .st1 {
        opacity: .7;
      }

      .st3, .st2 {
        fill: #5c9eff;
      }

      .st2 {
        opacity: .5;
      }
    </style>
  </defs>
  <circle class="st2" cx="400" cy="400" r="400"/>
  <circle class="st3" cx="183.2" cy="520" r="38.7"/>
  <circle class="st3" cx="604.3" cy="537" r="56"/>
  <circle class="st3" cx="319.8" cy="732.3" r="23.2"/>
  <path class="st1" d="M146.7,244c-3.6,0-7.2-.7-10.7-2.3-13.3-5.9-19.2-21.5-13.3-34.8,22.1-49.5,83.6-113.5,154-134.5,14-4.1,28.6,3.8,32.8,17.7,4.2,13.9-3.8,28.6-17.7,32.8-53.3,15.9-103.4,66.1-120.9,105.5-4.4,9.8-14,15.6-24.1,15.6h0Z"/>
  <path class="st0" d="M558.2,741.9c-10.8,0-20.9-6.7-24.8-17.4-5-13.7,2.1-28.8,15.8-33.8,62.4-22.6,118.1-78.6,152.8-153.5,6.1-13.2,21.8-19,35-12.9,13.2,6.1,19,21.8,12.8,35-40.5,87.6-107.1,153.5-182.6,180.9-3,1.1-6,1.6-9,1.6h0Z"/>
</svg>