<?xml version="1.0" encoding="UTF-8"?>
<svg id="Layer_1" xmlns="http://www.w3.org/2000/svg" version="1.1" viewBox="0 0 800 800">
  <!-- Generator: Adobe Illustrator 30.2.1, SVG Export Plug-In . SVG Version: 2.1.1 Build 1)  -->
  <defs>
    <style>
      .st0 {
        fill: none;
        isolation: isolate;
        opacity: .5;
      }

      .st1 {
        fill: #5c9eff;
      }

      .st2 {
        fill: #006bc4;
      }

      .st3 {
        fill: #02dfff;
      }

      .st4 {
        fill: #f0567a;
      }
    </style>
  </defs>
  <circle class="st0" cx="400" cy="400" r="400"/>
  <g>
    <path class="st1" d="M566.9,681.1c-101.8,0-184.4-82.4-184.4-184.2v-61.8h35.1v61.5c0,101.8,82.4,184.3,184.2,184.4h.3-35.1Z"/>
    <path class="st1" d="M487.8,461.5c-9.7,0-17.5-7.8-17.6-17.4h0v-8.9h17.6c77.5,0,140.4-62.7,140.4-140.2v-16.6l26.4,16.4c0,92.1-74.6,166.8-166.7,166.9h-.1c0,0,0,0,0,0Z"/>
    <path class="st1" d="M329.7,435.2v8.8c0,9.7-7.8,17.5-17.4,17.6h-.1c-92.1.1-166.8-74.5-166.9-166.6h0c0-.1,26.4-16.6,26.4-16.6v16.4c0,77.5,62.7,140.4,140.2,140.4h17.8Z"/>
    <path class="st3" d="M400,435.2V136.6l228.2,141.7v16.4c0,77.5-62.7,140.4-140.2,140.4h-88Z"/>
    <path class="st4" d="M382.4,435.2v61.5c-29.1,0-52.7-23.5-52.7-52.5h0v-8.9h52.7Z"/>
    <path class="st4" d="M470.3,435.2v8.8c0,29.1-23.5,52.7-52.5,52.7h-.1v-61.5h52.7Z"/>
    <path class="st3" d="M400,136.6v298.6h-87.8c-77.5,0-140.4-62.7-140.4-140.2v-16.6l228.2-141.8h0Z"/>
    <path class="st2" d="M602,689.8c-106.7-.1-193.1-86.5-193.2-193.2,0-4.9,3.9-8.8,8.8-8.8s8.8,3.9,8.8,8.8c.1,97,78.7,175.5,175.7,175.7,4.8,0,8.8,3.9,8.8,8.8s-3.9,8.8-8.8,8.8h0Z"/>
    <path class="st2" d="M566.9,689.8c-106.7-.1-193.1-86.5-193.2-193.2,0-4.9,3.9-8.8,8.8-8.8s8.8,3.9,8.8,8.8c.1,97,78.7,175.5,175.7,175.7,4.8,0,8.8,3.9,8.8,8.8s-3.9,8.8-8.8,8.8h0Z"/>
    <path class="st2" d="M602,689.8h-35.1c-4.8,0-8.8-3.9-8.8-8.8s3.9-8.8,8.8-8.8h35.1c4.8,0,8.8,3.9,8.8,8.8s-3.9,8.8-8.8,8.8Z"/>
    <path class="st2" d="M417.6,505.4c-4.9,0-8.8-3.9-8.8-8.8s3.9-8.8,8.8-8.8c24.2,0,43.9-19.7,43.9-43.9,0-4.9,3.9-8.8,8.8-8.8s8.8,3.9,8.8,8.8c0,33.9-27.5,61.4-61.5,61.5h0Z"/>
    <path class="st2" d="M487.8,470.3c-14.5,0-26.3-11.8-26.4-26.4,0-4.9,3.9-8.8,8.8-8.8s8.8,3.9,8.8,8.8,3.9,8.8,8.8,8.8,8.8,3.9,8.8,8.8-3.9,8.8-8.8,8.8h0Z"/>
    <path class="st2" d="M487.8,470.4c-4.9,0-8.8-3.9-8.8-8.8s3.9-8.8,8.8-8.8c87.3-.1,158-70.8,158.1-158.1,0-4.9,3.9-8.8,8.8-8.8s8.8,3.9,8.8,8.8c-.1,97-78.7,175.5-175.7,175.6h0Z"/>
    <path class="st2" d="M487.8,443.9c-4.9,0-8.8-3.9-8.8-8.8s3.9-8.8,8.8-8.8c72.7,0,131.6-59,131.6-131.6,0-4.9,3.9-8.8,8.8-8.8s8.8,3.9,8.8,8.8c0,82.4-66.8,149.1-149.2,149.2h0Z"/>
    <path class="st2" d="M654.7,303.5c-1.6,0-3.2-.5-4.6-1.3l-254.7-158.2c-4.1-2.5-5.5-7.9-2.9-12.1,2.5-4.1,7.9-5.4,12.1-2.9,0,0,0,0,.1,0l254.7,158.2c4.1,2.6,5.4,8,2.8,12.1-1.6,2.6-4.4,4.2-7.5,4.1h0Z"/>
    <path class="st2" d="M382.4,505.4c-33.9,0-61.4-27.5-61.5-61.5,0-4.9,3.9-8.8,8.8-8.8s8.8,3.9,8.8,8.8c0,24.2,19.7,43.9,43.9,43.9,4.9,0,8.8,3.9,8.8,8.8s-3.9,8.8-8.8,8.8h0Z"/>
    <path class="st2" d="M312.2,470.3c-4.9,0-8.8-3.9-8.8-8.8s3.9-8.8,8.8-8.8,8.8-3.9,8.8-8.8,3.9-8.8,8.8-8.8,8.8,3.9,8.8,8.8c0,14.5-11.8,26.3-26.4,26.4h0Z"/>
    <path class="st2" d="M312.2,470.4c-97-.1-175.5-78.7-175.7-175.6,0-4.9,3.9-8.8,8.8-8.8s8.8,3.9,8.8,8.8c.1,87.3,70.8,158,158.1,158.1,4.9,0,8.8,3.9,8.8,8.8s-3.9,8.8-8.8,8.8h0Z"/>
    <path class="st2" d="M145.3,303.5c-4.9,0-8.8-3.9-8.8-8.8s1.6-5.9,4.1-7.5l254.7-158.2c4.1-2.6,9.5-1.4,12.1,2.7,2.6,4.1,1.4,9.5-2.7,12.1,0,0,0,0-.1,0l-254.7,158.2c-1.4.9-3,1.3-4.6,1.3h0Z"/>
    <path class="st2" d="M400,443.9c-4.9,0-8.8-3.9-8.8-8.8h0V136.6c0-4.9,3.9-8.8,8.8-8.8s8.8,3.9,8.8,8.8v298.6c0,4.9-3.9,8.8-8.8,8.8h0Z"/>
    <path class="st2" d="M426.4,233.2c-4.9,0-8.8-3.9-8.8-8.8h0v-17.6c0-4.9,3.9-8.8,8.8-8.8s8.8,3.9,8.8,8.8v17.6c0,4.9-3.9,8.8-8.8,8.8h0Z"/>
    <path class="st2" d="M373.6,233.2c-4.9,0-8.8-3.9-8.8-8.8h0v-17.6c0-4.9,3.9-8.8,8.8-8.8s8.8,3.9,8.8,8.8v17.6c0,4.9-3.9,8.8-8.8,8.8h0Z"/>
    <path class="st2" d="M470.3,452.7c-4.9,0-8.8-3.9-8.8-8.8h0v-8.8c0-4.9,3.9-8.8,8.8-8.8s8.8,3.9,8.8,8.8v8.8c0,4.9-3.9,8.8-8.8,8.8h0Z"/>
    <path class="st2" d="M628.2,303.5c-4.8,0-8.8-3.9-8.8-8.8h0v-16.4c0-4.9,3.9-8.8,8.8-8.8s8.8,3.9,8.8,8.8v16.4c0,4.9-3.9,8.8-8.8,8.8h0Z"/>
    <path class="st2" d="M312.2,443.9c-82.4,0-149.1-66.8-149.2-149.2,0-4.9,3.9-8.8,8.8-8.8s8.8,3.9,8.8,8.8c0,72.7,59,131.6,131.7,131.6,4.9,0,8.8,3.9,8.8,8.8s-3.9,8.8-8.8,8.8h0Z"/>
    <path class="st2" d="M329.7,452.7c-4.9,0-8.8-3.9-8.8-8.8h0v-8.8c0-4.9,3.9-8.8,8.8-8.8s8.8,3.9,8.8,8.8v8.8c0,4.9-3.9,8.8-8.8,8.8h0Z"/>
    <path class="st2" d="M487.8,443.9h-175.6c-4.9,0-8.8-3.9-8.8-8.8s3.9-8.8,8.8-8.8h175.6c4.9,0,8.8,3.9,8.8,8.8s-3.9,8.8-8.8,8.8Z"/>
    <path class="st2" d="M171.8,303.5c-4.9,0-8.8-3.9-8.8-8.8h0v-16.4c0-4.9,3.9-8.8,8.8-8.8s8.8,3.9,8.8,8.8v16.4c0,4.9-3.9,8.8-8.8,8.8h0Z"/>
    <path class="st2" d="M382.4,505.4c-4.9,0-8.8-3.9-8.8-8.8h0v-61.5c0-4.9,3.9-8.8,8.8-8.8s8.8,3.9,8.8,8.8v61.5c0,4.9-3.9,8.8-8.8,8.8h0Z"/>
    <path class="st2" d="M417.6,505.4c-4.9,0-8.8-3.9-8.8-8.8h0v-61.5c0-4.9,3.9-8.8,8.8-8.8s8.8,3.9,8.8,8.8v61.5c0,4.9-3.9,8.8-8.8,8.8h0Z"/>
  </g>
</svg>