<?xml version="1.0" encoding="UTF-8"?>
<svg id="Layer_1" xmlns="http://www.w3.org/2000/svg" version="1.1" viewBox="0 0 800 800">
  <!-- Generator: Adobe Illustrator 30.2.1, SVG Export Plug-In . SVG Version: 2.1.1 Build 1)  -->
  <defs>
    <style>
      .st0 {
        fill: none;
        isolation: isolate;
        opacity: .5;
      }

      .st1 {
        fill: #5c9eff;
      }

      .st2 {
        fill: #006bc4;
      }

      .st3 {
        fill: #02dfff;
      }

      .st4 {
        fill: #f0567a;
      }
    </style>
  </defs>
  <circle class="st0" cx="400" cy="400" r="400"/>
  <g>
    <path class="st1" d="M198,373.7v-70.3h70.3c0,38.8-31.4,70.2-70.2,70.3h0Z"/>
    <path class="st1" d="M198,303.4v70.3c-37.4,0-68.3-29.3-70.2-66.7,0-1.2,0-2.4,0-3.6v-70.3c38.8,0,70.2,31.4,70.3,70.2h0s0,0,0,0Z"/>
    <path class="st1" d="M452.7,373.7h-70.3v-70.3c38.8,0,70.2,31.4,70.3,70.2h0Z"/>
    <path class="st3" d="M127.9,310.6c3.8,74.7,65.5,133.3,140.3,133.3h131.7c38.8,0,70.3,31.5,70.3,70.3s-31.5,70.3-70.3,70.3v-70.3h-61.5c-113.6.1-206.9-90-210.6-203.6h0Z"/>
    <path class="st4" d="M637.1,452.7l16.3-8.8c-25.1,43.5-71.5,70.3-121.7,70.3h-61.5c0-38.8-31.4-70.2-70.2-70.3h0,114.2l17.6,8.8,17.6-8.8,17.6,8.8,17.6-8.8,17.6,8.8,17.6-8.8,17.6,8.8h0Z"/>
    <path class="st3" d="M531.7,373.7h140.5c0,24.7-6.4,48.9-18.8,70.3l-16.3,8.8-17.6-8.8-17.6,8.8-17.6-8.8-17.6,8.8-17.6-8.8-17.6,8.8-17.6-8.8h-245.9c-74.8,0-136.5-58.6-140.3-133.3,0-1.2,0-2.4,0-3.6,1.9,37.4,32.8,66.7,70.2,66.7h333.7,0Z"/>
    <path class="st2" d="M531.7,523c-4.8,0-8.8-3.9-8.8-8.8s3.9-8.8,8.8-8.8c72.7,0,131.7-59,131.7-131.7,0-4.9,3.9-8.8,8.8-8.8s8.8,3.9,8.8,8.8c0,82.4-66.9,149.2-149.3,149.3h0Z"/>
    <path class="st2" d="M672.2,382.4H198c-4.9,0-8.8-3.9-8.8-8.8s3.9-8.8,8.8-8.8h474.3c4.8,0,8.8,3.9,8.8,8.8s-3.9,8.8-8.8,8.8h0Z"/>
    <path class="st2" d="M198,382.4c-43.6,0-79-35.4-79-79,0-4.9,3.9-8.8,8.8-8.8s8.8,3.9,8.8,8.8c0,33.9,27.5,61.4,61.5,61.5,4.9,0,8.8,3.9,8.8,8.8s-3.9,8.8-8.8,8.8Z"/>
    <path class="st2" d="M198,312.2c-4.9,0-8.8-3.9-8.8-8.8h0c0-34-27.5-61.4-61.5-61.5-4.8,0-8.8-3.9-8.8-8.8s3.9-8.8,8.8-8.8c43.6,0,79,35.4,79,79,0,4.9-3.9,8.8-8.8,8.8h0Z"/>
    <path class="st2" d="M198,382.4c-4.9,0-8.8-3.9-8.8-8.8s3.9-8.8,8.8-8.8c33.9,0,61.4-27.5,61.5-61.5,0-4.9,3.9-8.8,8.8-8.8s8.8,3.9,8.8,8.8c0,43.6-35.4,79-79,79h0Z"/>
    <path class="st2" d="M452.7,382.4c-4.9,0-8.8-3.9-8.8-8.8h0c0-34-27.5-61.5-61.5-61.5-4.9,0-8.8-3.9-8.8-8.8s3.9-8.8,8.8-8.8c43.6,0,79,35.4,79,79,0,4.9-3.9,8.8-8.8,8.8h0Z"/>
    <path class="st2" d="M268.3,452.7c-82.4,0-149.2-66.9-149.3-149.3,0-4.9,3.9-8.8,8.8-8.8s8.8,3.9,8.8,8.8c0,72.7,59,131.7,131.7,131.7,4.9,0,8.8,3.9,8.8,8.8s-3.9,8.8-8.8,8.8h0Z"/>
    <path class="st2" d="M338.5,523c-121.2-.1-219.4-98.4-219.6-219.6,0-4.9,3.9-8.8,8.8-8.8s8.8,3.9,8.8,8.8c.1,111.5,90.5,201.9,202,202,4.9,0,8.8,3.9,8.8,8.8s-3.9,8.8-8.8,8.8h0Z"/>
    <path class="st2" d="M400,523h-61.5c-4.9,0-8.8-3.9-8.8-8.8s3.9-8.8,8.8-8.8h61.5c4.9,0,8.8,3.9,8.8,8.8s-3.9,8.8-8.8,8.8Z"/>
    <path class="st2" d="M637.1,461.5c-1.4,0-2.7-.3-3.9-.9l-13.6-6.8-13.6,6.8c-2.5,1.2-5.4,1.2-7.9,0l-13.6-6.8-13.6,6.8c-2.5,1.2-5.4,1.2-7.9,0l-13.6-6.8-13.6,6.8c-2.5,1.2-5.4,1.2-7.9,0l-15.7-7.9h-243.8c-4.9,0-8.8-3.9-8.8-8.8s3.9-8.8,8.8-8.8h245.9c1.4,0,2.7.3,3.9.9l13.6,6.8,13.6-6.8c2.5-1.2,5.4-1.2,7.9,0l13.6,6.8,13.6-6.8c2.5-1.2,5.4-1.2,7.9,0l13.6,6.8,13.6-6.8c2.5-1.2,5.4-1.2,7.9,0l13.5,6.8,12.3-6.6c4.3-2.3,9.6-.7,11.9,3.6,2.3,4.3.7,9.6-3.6,11.9l-16.3,8.8c-1.3.7-2.7,1-4.2,1h0Z"/>
    <path class="st2" d="M198,382.4c-4.9,0-8.8-3.9-8.8-8.8h0v-70.3c0-4.9,3.9-8.8,8.8-8.8s8.8,3.9,8.8,8.8v70.3c0,4.9-3.9,8.8-8.8,8.8h0Z"/>
    <path class="st2" d="M127.8,329.7c-4.8,0-8.8-3.9-8.8-8.8h0v-87.8c0-4.9,3.9-8.8,8.8-8.8s8.8,3.9,8.8,8.8v87.8c0,4.9-3.9,8.8-8.8,8.8,0,0,0,0,0,0Z"/>
    <path class="st2" d="M198,312.2c-4.9,0-8.8-3.9-8.8-8.8s3.9-8.8,8.8-8.8h70.3c4.9,0,8.8,3.9,8.8,8.8s-3.9,8.8-8.8,8.8h-70.3,0Z"/>
    <path class="st2" d="M400,593.2c-4.9,0-8.8-3.9-8.8-8.8s3.9-8.8,8.8-8.8c34,0,61.5-27.5,61.5-61.5s-27.5-61.5-61.5-61.5-8.8-3.9-8.8-8.8,3.9-8.8,8.8-8.8c43.6,0,79,35.4,79,79s-35.4,79-79,79h0Z"/>
    <path class="st2" d="M400,593.2c-4.9,0-8.8-3.9-8.8-8.8h0v-70.3c0-4.9,3.9-8.8,8.8-8.8s8.8,3.9,8.8,8.8v70.3c0,4.8-3.9,8.8-8.8,8.8h0Z"/>
    <path class="st2" d="M531.7,523h-61.5c-4.9,0-8.8-3.9-8.8-8.8s3.9-8.8,8.8-8.8h61.5c4.8,0,8.8,3.9,8.8,8.8s-3.9,8.8-8.8,8.8Z"/>
    <path class="st2" d="M382.4,382.4c-4.9,0-8.8-3.9-8.8-8.8h0v-70.3c0-4.9,3.9-8.8,8.8-8.8s8.8,3.9,8.8,8.8v70.3c0,4.9-3.9,8.8-8.8,8.8h0Z"/>
    <path class="st2" d="M531.7,391.2c-4.8,0-8.8-3.9-8.8-8.8h0v-8.8c0-4.9,3.9-8.8,8.8-8.8s8.8,3.9,8.8,8.8v8.8c0,4.9-3.9,8.8-8.8,8.8h0Z"/>
  </g>
</svg>