<?xml version="1.0" encoding="UTF-8"?>
<svg id="Layer_1" xmlns="http://www.w3.org/2000/svg" version="1.1" viewBox="0 0 800 800">
  <!-- Generator: Adobe Illustrator 30.2.1, SVG Export Plug-In . SVG Version: 2.1.1 Build 1)  -->
  <defs>
    <style>
      .st0 {
        fill: none;
        isolation: isolate;
        opacity: .5;
      }

      .st1 {
        fill: #5c9eff;
      }

      .st2 {
        fill: #006bc4;
      }

      .st3 {
        fill: #02dfff;
      }

      .st4 {
        fill: #f0567a;
      }
    </style>
  </defs>
  <circle class="st0" cx="400" cy="400" r="400"/>
  <g>
    <path class="st4" d="M285.8,610.8c-4.9,0-8.8-3.9-8.8-8.8s.3-2.7.9-3.9l6.8-13.6-6.8-13.6c-1.2-2.5-1.2-5.4,0-7.9l6.8-13.6-6.8-13.6c-1.2-2.5-1.2-5.4,0-7.9l6.8-13.6-6.8-13.6c-1.2-2.5-1.2-5.4,0-7.9l6.8-13.6-6.8-13.6c-1.2-2.5-1.2-5.4,0-7.9l6.8-13.6-6.8-13.6c-1.2-2.5-1.2-5.4,0-7.9l6.8-13.6-6.8-13.6c-1.2-2.5-1.2-5.4,0-7.9l8.8-17.6c2.2-4.3,7.4-6.1,11.8-4,4.3,2.2,6.1,7.4,4,11.8,0,0,0,0,0,0l-6.8,13.6,6.8,13.6c1.2,2.5,1.2,5.4,0,7.9l-6.8,13.6,6.8,13.6c1.2,2.5,1.2,5.4,0,7.9l-6.8,13.6,6.8,13.6c1.2,2.5,1.2,5.4,0,7.9l-6.8,13.6,6.8,13.6c1.2,2.5,1.2,5.4,0,7.9l-6.8,13.6,6.8,13.6c1.2,2.5,1.2,5.4,0,7.9l-6.8,13.6,6.8,13.6c1.2,2.5,1.2,5.4,0,7.9l-8.8,17.6c-1.5,3-4.5,4.9-7.9,4.8h0Z"/>
    <path class="st4" d="M338.5,663.5c-3.3,0-6.4-1.9-7.9-4.8l-8.8-17.6c-1.2-2.5-1.2-5.4,0-7.9l6.8-13.6-6.8-13.6c-1.2-2.5-1.2-5.4,0-7.9l6.8-13.6-6.8-13.6c-1.2-2.5-1.2-5.4,0-7.9l6.8-13.6-6.8-13.6c-1.2-2.5-1.2-5.4,0-7.9l6.8-13.6-6.8-13.6c-1.2-2.5-1.2-5.4,0-7.9l6.8-13.6-6.8-13.6c-1.2-2.5-1.2-5.4,0-7.9l6.8-13.6-6.8-13.6c-1.2-2.5-1.2-5.4,0-7.9l6.8-13.6-6.8-13.6c-1.2-2.5-1.2-5.4,0-7.9l8.8-17.6c2.2-4.3,7.4-6.1,11.8-4,4.3,2.2,6.1,7.4,4,11.8,0,0,0,0,0,0l-6.8,13.6,6.8,13.6c1.2,2.5,1.2,5.4,0,7.9l-6.8,13.6,6.8,13.6c1.2,2.5,1.2,5.4,0,7.9l-6.8,13.6,6.8,13.6c1.2,2.5,1.2,5.4,0,7.9l-6.8,13.6,6.8,13.6c1.2,2.5,1.2,5.4,0,7.9l-6.8,13.6,6.8,13.6c1.2,2.5,1.2,5.4,0,7.9l-6.8,13.6,6.8,13.6c1.2,2.5,1.2,5.4,0,7.9l-6.8,13.6,6.8,13.6c1.2,2.5,1.2,5.4,0,7.9l-6.8,13.6,6.8,13.6c2.2,4.3.4,9.6-3.9,11.8-1.2.6-2.6.9-3.9.9h0Z"/>
    <path class="st4" d="M373.6,681c-4.9,0-8.8-3.9-8.8-8.8s.3-2.7.9-3.9l6.8-13.6-6.8-13.6c-1.2-2.5-1.2-5.4,0-7.9l6.8-13.6-6.8-13.6c-1.2-2.5-1.2-5.4,0-7.9l6.8-13.6-6.8-13.6c-1.2-2.5-1.2-5.4,0-7.9l6.8-13.6-6.8-13.6c-1.2-2.5-1.2-5.4,0-7.9l6.8-13.6-6.8-13.6c-1.2-2.5-1.2-5.4,0-7.9l6.8-13.6-6.8-13.6c-1.2-2.5-1.2-5.4,0-7.9l6.8-13.6-6.8-13.6c-1.2-2.5-1.2-5.4,0-7.9l6.8-13.6-6.8-13.6c-1.2-2.5-1.2-5.4,0-7.9l8.8-17.6c2.2-4.3,7.4-6.1,11.8-4,4.3,2.2,6.1,7.4,4,11.8,0,0,0,0,0,0l-6.8,13.6,6.8,13.6c1.2,2.5,1.2,5.4,0,7.9l-6.8,13.6,6.8,13.6c1.2,2.5,1.2,5.4,0,7.9l-6.8,13.6,6.8,13.6c1.2,2.5,1.2,5.4,0,7.9l-6.8,13.6,6.8,13.6c1.2,2.5,1.2,5.4,0,7.9l-6.8,13.6,6.8,13.6c1.2,2.5,1.2,5.4,0,7.9l-6.8,13.6,6.8,13.6c1.2,2.5,1.2,5.4,0,7.9l-6.8,13.6,6.8,13.6c1.2,2.5,1.2,5.4,0,7.9l-6.8,13.6,6.8,13.6c1.2,2.5,1.2,5.4,0,7.9l-8.8,17.6c-1.5,3-4.5,4.9-7.9,4.8h0Z"/>
    <path class="st4" d="M417.6,681c-4.9,0-8.8-3.9-8.8-8.8s.3-2.7.9-3.9l6.8-13.6-6.8-13.6c-1.2-2.5-1.2-5.4,0-7.9l6.8-13.6-6.8-13.6c-1.2-2.5-1.2-5.4,0-7.9l6.8-13.6-6.8-13.6c-1.2-2.5-1.2-5.4,0-7.9l6.8-13.6-6.8-13.6c-1.2-2.5-1.2-5.4,0-7.9l6.8-13.6-6.8-13.6c-1.2-2.5-1.2-5.4,0-7.9l6.8-13.6-6.8-13.6c-1.2-2.5-1.2-5.4,0-7.9l6.8-13.6-6.8-13.6c-1.2-2.5-1.2-5.4,0-7.9l6.8-13.6-6.8-13.6c-1.2-2.5-1.2-5.4,0-7.9l8.8-17.6c2.2-4.3,7.4-6.1,11.8-4s6.1,7.4,4,11.8c0,0,0,0,0,0l-6.8,13.6,6.8,13.6c1.2,2.5,1.2,5.4,0,7.9l-6.8,13.6,6.8,13.6c1.2,2.5,1.2,5.4,0,7.9l-6.8,13.6,6.8,13.6c1.2,2.5,1.2,5.4,0,7.9l-6.8,13.6,6.8,13.6c1.2,2.5,1.2,5.4,0,7.9l-6.8,13.6,6.8,13.6c1.2,2.5,1.2,5.4,0,7.9l-6.8,13.6,6.8,13.6c1.2,2.5,1.2,5.4,0,7.9l-6.8,13.6,6.8,13.6c1.2,2.5,1.2,5.4,0,7.9l-6.8,13.6,6.8,13.6c1.2,2.5,1.2,5.4,0,7.9l-8.8,17.6c-1.5,3-4.5,4.9-7.9,4.8h0Z"/>
    <path class="st4" d="M470.3,663.5c-3.3,0-6.4-1.9-7.9-4.8l-8.8-17.6c-1.2-2.5-1.2-5.4,0-7.9l6.8-13.6-6.8-13.6c-1.2-2.5-1.2-5.4,0-7.9l6.8-13.6-6.8-13.6c-1.2-2.5-1.2-5.4,0-7.9l6.8-13.6-6.8-13.6c-1.2-2.5-1.2-5.4,0-7.9l6.8-13.6-6.8-13.6c-1.2-2.5-1.2-5.4,0-7.9l6.8-13.6-6.8-13.6c-1.2-2.5-1.2-5.4,0-7.9l6.8-13.6-6.8-13.6c-1.2-2.5-1.2-5.4,0-7.9l6.8-13.6-6.8-13.6c-1.2-2.5-1.2-5.4,0-7.9l8.8-17.6c2.2-4.3,7.4-6.1,11.8-4s6.1,7.4,4,11.8c0,0,0,0,0,0l-6.8,13.6,6.8,13.6c1.2,2.5,1.2,5.4,0,7.9l-6.8,13.6,6.8,13.6c1.2,2.5,1.2,5.4,0,7.9l-6.8,13.6,6.8,13.6c1.2,2.5,1.2,5.4,0,7.9l-6.8,13.6,6.8,13.6c1.2,2.5,1.2,5.4,0,7.9l-6.8,13.6,6.8,13.6c1.2,2.5,1.2,5.4,0,7.9l-6.8,13.6,6.8,13.6c1.2,2.5,1.2,5.4,0,7.9l-6.8,13.6,6.8,13.6c1.2,2.5,1.2,5.4,0,7.9l-6.8,13.6,6.8,13.6c2.2,4.3.4,9.6-3.9,11.8-1.2.6-2.6.9-3.9.9h0Z"/>
    <path class="st4" d="M505.4,610.8c-4.9,0-8.8-3.9-8.8-8.8s.3-2.7.9-3.9l6.8-13.6-6.8-13.6c-1.2-2.5-1.2-5.4,0-7.9l6.8-13.6-6.8-13.6c-1.2-2.5-1.2-5.4,0-7.9l6.8-13.6-6.8-13.6c-1.2-2.5-1.2-5.4,0-7.9l6.8-13.6-6.8-13.6c-1.2-2.5-1.2-5.4,0-7.9l6.8-13.6-6.8-13.6c-1.2-2.5-1.2-5.4,0-7.9l6.8-13.6-6.8-13.6c-1.2-2.5-1.2-5.4,0-7.9l8.8-17.6c2.2-4.3,7.5-6.1,11.8-3.9,4.3,2.2,6.1,7.4,3.9,11.8l-6.8,13.6,6.8,13.6c1.2,2.5,1.2,5.4,0,7.9l-6.8,13.6,6.8,13.6c1.2,2.5,1.2,5.4,0,7.9l-6.8,13.6,6.8,13.6c1.2,2.5,1.2,5.4,0,7.9l-6.8,13.6,6.8,13.6c1.2,2.5,1.2,5.4,0,7.9l-6.8,13.6,6.8,13.6c1.2,2.5,1.2,5.4,0,7.9l-6.8,13.6,6.8,13.6c1.2,2.5,1.2,5.4,0,7.9l-8.8,17.6c-1.5,3-4.5,4.9-7.9,4.8h0Z"/>
    <path class="st3" d="M400,127.8c82.5,0,149.3,66.8,149.3,149.3v61.5c0,19.4-15.7,35.1-35.1,35.1h-228.4c-19.4,0-35.1-15.7-35.1-35.1v-61.5c0-82.4,66.8-149.3,149.3-149.3h0,0Z"/>
    <path class="st2" d="M549.3,285.8c-4.8,0-8.8-3.9-8.8-8.8h0c0-77.6-62.9-140.5-140.5-140.5s-140.5,62.9-140.5,140.5-3.9,8.8-8.8,8.8-8.8-3.9-8.8-8.8c0-87.3,70.8-158.1,158.1-158.1s158.1,70.8,158.1,158.1-3.9,8.8-8.8,8.8h0Z"/>
    <path class="st1" d="M523,285.8c-4.8,0-8.8-3.9-8.8-8.8h0c0-63.1-51.1-114.2-114.2-114.2s-114.2,51.1-114.2,114.2-3.9,8.8-8.8,8.8-8.8-3.9-8.8-8.8c0-72.8,59-131.7,131.7-131.7s131.7,59,131.7,131.7-3.9,8.8-8.8,8.8h0Z"/>
    <path class="st2" d="M285.8,382.4c-24.2,0-43.9-19.7-43.9-43.9,0-4.9,3.9-8.8,8.8-8.8s8.8,3.9,8.8,8.8c0,14.5,11.8,26.3,26.4,26.4,4.9,0,8.8,3.9,8.8,8.8s-3.9,8.8-8.8,8.8Z"/>
    <path class="st2" d="M514.2,382.4c-4.9,0-8.8-3.9-8.8-8.8s3.9-8.8,8.8-8.8c14.5,0,26.3-11.8,26.3-26.4,0-4.9,3.9-8.8,8.8-8.8s8.8,3.9,8.8,8.8c0,24.2-19.7,43.9-43.9,43.9h0Z"/>
    <path class="st2" d="M250.7,347.3c-4.9,0-8.8-3.9-8.8-8.8h0v-61.5c0-4.9,3.9-8.8,8.8-8.8s8.8,3.9,8.8,8.8v61.5c0,4.9-3.9,8.8-8.8,8.8h0Z"/>
    <path class="st2" d="M549.3,349.8c-4.8,0-8.8-3.9-8.8-8.8h0v-63.9c0-4.9,3.9-8.8,8.8-8.8s8.8,3.9,8.8,8.8v63.9c0,4.9-3.9,8.8-8.8,8.8h0Z"/>
    <path class="st2" d="M514.2,382.4h-228.3c-4.9,0-8.8-3.9-8.8-8.8s3.9-8.8,8.8-8.8h228.3c4.8,0,8.8,3.9,8.8,8.8s-3.9,8.8-8.8,8.8Z"/>
  </g>
</svg>