<?xml version="1.0" encoding="UTF-8"?>
<svg id="Layer_1" xmlns="http://www.w3.org/2000/svg" version="1.1" viewBox="0 0 800 800">
  <!-- Generator: Adobe Illustrator 30.2.1, SVG Export Plug-In . SVG Version: 2.1.1 Build 1)  -->
  <defs>
    <style>
      .st0 {
        fill: none;
        isolation: isolate;
        opacity: .5;
      }

      .st1 {
        fill: #5c9eff;
      }

      .st2 {
        fill: #006bc4;
      }

      .st3 {
        fill: #02dfff;
      }

      .st4 {
        fill: #f0567a;
      }
    </style>
  </defs>
  <circle class="st0" cx="400" cy="400" r="400"/>
  <g>
    <path class="st4" d="M540.5,347.3c0,43.6-35.3,79-78.9,79h-.1v-35.1c24.2,0,43.9-19.7,43.9-43.9v-4.8c5.3,3.1,11.4,4.7,17.6,4.7,5.9,0,11.8-.8,17.6-2.2v2.3h0Z"/>
    <path class="st1" d="M338.5,558.1c0,19.4,15.7,35.1,35.1,35.1h52.7c19.4,0,35.1-15.7,35.1-35.1h0s0,44,0,44c0,19.4-15.7,35.1-35.1,35.1h-52.7c-19.4,0-35.1-15.7-35.1-35.1v-44Z"/>
    <path class="st1" d="M338.5,470.3c0,19.4,15.7,35.1,35.1,35.1h52.7c19.4,0,35.1-15.7,35.1-35.1h0s0,43.9,0,43.9c0,19.4-15.7,35.1-35.1,35.1h-52.7c-19.4,0-35.1-15.7-35.1-35.1v-43.9h0Z"/>
    <path class="st4" d="M294.6,347.3c0,24.2,19.7,43.9,43.9,43.9v35.1c-43.6,0-79-35.3-79-78.9h0v-2.4c5.7,1.5,11.6,2.2,17.6,2.2,6.2,0,12.2-1.6,17.6-4.7v4.8h0Z"/>
    <path class="st3" d="M523,189.2v-61.5c38.8,0,70.2,31.4,70.3,70.2v79.1h0c0,32-21.6,59.9-52.6,68-5.7,1.5-11.6,2.2-17.6,2.2-19.4,0-35.1-15.8-35.1-35.1v-87.7c0-19.4,15.6-35.1,35-35.1h.1Z"/>
    <path class="st3" d="M338.5,514.2c0,19.4,15.7,35.1,35.1,35.1h52.7c19.4,0,35.1-15.7,35.1-35.1h0s0,43.9,0,43.9c0,19.4-15.7,35.1-35.1,35.1h-52.7c-19.4,0-35.1-15.7-35.1-35.1v-43.9Z"/>
    <path class="st3" d="M461.5,602.1c19.4,0,35.1,15.7,35.1,35.1s-15.7,35.1-35.1,35.1h-122.9c-19.4,0-35.1-15.7-35.1-35.1,0-19.4,15.7-35.1,35.1-35.1h0c0,19.4,15.7,35.1,35.1,35.1h52.7c19.4,0,35.1-15.7,35.1-35.1h0Z"/>
    <path class="st3" d="M461.5,470.3c0,19.4-15.7,35.1-35.1,35.1h-52.7c-19.4,0-35.1-15.7-35.1-35.1v-119.5c0-31.6,19.7-71.5,43.9-95.2,5.2-5.3,11.1-9.9,17.6-13.7h0c6.4,3.9,12.2,8.4,17.5,13.6h0c24.2,23.8,43.9,63.7,43.9,95.3v119.4h0Z"/>
    <path class="st3" d="M277,189.2c19.4,0,35.1,15.6,35.1,35h0v87.9c0,19.4-15.8,35.1-35.1,35.1-5.9,0-11.8-.8-17.6-2.2-31-8-52.6-36-52.6-68h0v-79c0-38.8,31.4-70.2,70.2-70.3h0v61.5h0Z"/>
    <path class="st2" d="M461.5,681.1h-123c-4.9,0-8.8-3.9-8.8-8.8s3.9-8.8,8.8-8.8h123c4.9,0,8.8,3.9,8.8,8.8s-3.9,8.8-8.8,8.8Z"/>
    <path class="st2" d="M338.5,610.9c-4.9,0-8.8-3.9-8.8-8.8h0v-251.2c0-4.9,3.9-8.8,8.8-8.8s8.8,3.9,8.8,8.8v251.2c0,4.8-3.9,8.8-8.8,8.8h0Z"/>
    <path class="st2" d="M461.5,610.9c-4.9,0-8.8-3.9-8.8-8.8h0v-251.2c0-4.9,3.9-8.8,8.8-8.8s8.8,3.9,8.8,8.8v251.2c0,4.8-3.9,8.8-8.8,8.8h0Z"/>
    <path class="st2" d="M373.7,646c-24.2,0-43.9-19.7-43.9-43.9,0-4.8,3.9-8.8,8.8-8.8s8.8,3.9,8.8,8.8c0,14.5,11.8,26.3,26.3,26.3,4.9,0,8.8,3.9,8.8,8.8s-3.9,8.8-8.8,8.8h0Z"/>
    <path class="st2" d="M426.4,646c-4.9,0-8.8-3.9-8.8-8.8s3.9-8.8,8.8-8.8c14.5,0,26.3-11.8,26.3-26.3,0-4.8,3.9-8.8,8.8-8.8s8.8,3.9,8.8,8.8c0,24.2-19.7,43.9-43.9,43.9h0Z"/>
    <path class="st2" d="M426.4,646h-52.7c-4.9,0-8.8-3.9-8.8-8.8s3.9-8.8,8.8-8.8h52.7c4.9,0,8.8,3.9,8.8,8.8s-3.9,8.8-8.8,8.8Z"/>
    <path class="st2" d="M373.7,602c-24.2,0-43.9-19.7-43.9-43.9,0-4.8,3.9-8.8,8.8-8.8s8.8,3.9,8.8,8.8c0,14.5,11.8,26.3,26.3,26.3,4.9,0,8.8,3.9,8.8,8.8s-3.9,8.8-8.8,8.8h0Z"/>
    <path class="st2" d="M426.4,602c-4.9,0-8.8-3.9-8.8-8.8s3.9-8.8,8.8-8.8c14.5,0,26.3-11.8,26.3-26.3,0-4.8,3.9-8.8,8.8-8.8s8.8,3.9,8.8,8.8c0,24.2-19.7,43.9-43.9,43.9h0Z"/>
    <path class="st2" d="M426.4,602h-52.7c-4.9,0-8.8-3.9-8.8-8.8s3.9-8.8,8.8-8.8h52.7c4.9,0,8.8,3.9,8.8,8.8s-3.9,8.8-8.8,8.8Z"/>
    <path class="st2" d="M373.7,514.1c-24.2,0-43.9-19.7-43.9-43.9,0-4.9,3.9-8.8,8.8-8.8s8.8,3.9,8.8,8.8c0,14.5,11.8,26.3,26.3,26.3,4.9,0,8.8,3.9,8.8,8.8s-3.9,8.8-8.8,8.8Z"/>
    <path class="st2" d="M426.4,514.1c-4.9,0-8.8-3.9-8.8-8.8s3.9-8.8,8.8-8.8c14.5,0,26.3-11.8,26.3-26.3,0-4.9,3.9-8.8,8.8-8.8s8.8,3.9,8.8,8.8c0,24.2-19.7,43.9-43.9,43.9Z"/>
    <path class="st2" d="M426.4,514.1h-52.7c-4.9,0-8.8-3.9-8.8-8.8s3.9-8.8,8.8-8.8h52.7c4.9,0,8.8,3.9,8.8,8.8s-3.9,8.8-8.8,8.8Z"/>
    <path class="st2" d="M373.7,558c-24.2,0-43.9-19.7-43.9-43.9,0-4.9,3.9-8.8,8.8-8.8s8.8,3.9,8.8,8.8c0,14.5,11.8,26.3,26.3,26.3,4.9,0,8.8,3.9,8.8,8.8s-3.9,8.8-8.8,8.8h0Z"/>
    <path class="st2" d="M426.4,558c-4.9,0-8.8-3.9-8.8-8.8s3.9-8.8,8.8-8.8c14.5,0,26.3-11.8,26.3-26.3,0-4.9,3.9-8.8,8.8-8.8s8.8,3.9,8.8,8.8c0,24.2-19.7,43.9-43.9,43.9h0Z"/>
    <path class="st2" d="M426.4,558h-52.7c-4.9,0-8.8-3.9-8.8-8.8s3.9-8.8,8.8-8.8h52.7c4.9,0,8.8,3.9,8.8,8.8s-3.9,8.8-8.8,8.8Z"/>
    <path class="st2" d="M338.5,681.1c-24.2,0-43.9-19.7-43.8-43.9,0-24.2,19.6-43.8,43.8-43.8,4.9,0,8.8,3.9,8.8,8.8s-3.9,8.8-8.8,8.8c-14.5,0-26.3,11.8-26.3,26.4,0,14.5,11.8,26.2,26.3,26.3,4.9,0,8.8,3.9,8.8,8.8s-3.9,8.8-8.8,8.8h0Z"/>
    <path class="st2" d="M461.5,681.1c-4.9,0-8.8-3.9-8.8-8.8s3.9-8.8,8.8-8.8c14.5,0,26.3-11.8,26.3-26.4,0-14.5-11.8-26.2-26.3-26.3-4.9,0-8.8-3.9-8.8-8.8s3.9-8.8,8.8-8.8c24.2,0,43.9,19.7,43.8,43.9,0,24.2-19.6,43.8-43.8,43.8h0Z"/>
    <path class="st2" d="M338.5,359.6c-4.9,0-8.8-3.9-8.8-8.8h0c0-41.8,30.8-96.2,65.9-116.5,4.2-2.4,9.6-1,12,3.2s1,9.6-3.2,12h0c-29.4,17-57.1,66.2-57.1,101.3s-3.9,8.8-8.8,8.8h0Z"/>
    <path class="st2" d="M461.5,359.6c-4.9,0-8.8-3.9-8.8-8.8h0c0-35.1-27.7-84.3-57-101.2-4.2-2.4-5.6-7.8-3.2-12s7.8-5.6,12-3.2c35,20.3,65.8,74.7,65.8,116.4s-3.9,8.8-8.8,8.8h0Z"/>
    <path class="st2" d="M417.8,294.6c-4.9,0-8.8-3.9-8.8-8.7,0-4.9,3.9-8.8,8.7-8.8h0c4.9,0,8.8,3.9,8.8,8.8s-3.9,8.8-8.8,8.8h0Z"/>
    <path class="st2" d="M382.6,294.6c-4.9,0-8.8-3.9-8.8-8.7,0-4.9,3.9-8.8,8.7-8.8h0c4.9,0,8.8,3.9,8.8,8.8s-3.9,8.8-8.8,8.8h0Z"/>
    <path class="st2" d="M417.6,264.4c-4.9,0-8.8-3.9-8.8-8.8h0v-101.5c0-4.9,3.9-8.8,8.8-8.8s8.8,3.9,8.8,8.8v101.5c0,4.9-3.9,8.8-8.8,8.8h0Z"/>
    <path class="st2" d="M382.4,264.4h0c-4.9,0-8.8-3.9-8.8-8.8h0v-101.5c0-4.9,3.9-8.8,8.8-8.8h0c4.9,0,8.8,3.9,8.8,8.8h0v101.5c0,4.9-3.9,8.8-8.8,8.8Z"/>
    <path class="st2" d="M593.2,206.8c-4.8,0-8.8-3.9-8.8-8.8h0c0-33.9-27.5-61.4-61.5-61.5-4.8,0-8.8-3.9-8.8-8.8s3.9-8.8,8.8-8.8c43.6,0,79,35.4,79,79.1,0,4.9-3.9,8.8-8.8,8.8h0Z"/>
    <path class="st2" d="M487.8,233.1c-4.9,0-8.8-3.9-8.8-8.8h0c0-24.2,19.7-43.9,43.9-43.9,4.8,0,8.8,3.9,8.8,8.8s-3.9,8.8-8.8,8.8c-14.5,0-26.3,11.8-26.4,26.4,0,4.9-3.9,8.8-8.8,8.8h0Z"/>
    <path class="st2" d="M522.9,356c-24.2,0-43.9-19.7-43.9-43.9,0-4.9,3.9-8.8,8.8-8.8s8.8,3.9,8.8,8.8c0,14.5,11.8,26.3,26.4,26.4,4.8,0,8.8,3.9,8.8,8.8s-3.9,8.8-8.8,8.8Z"/>
    <path class="st2" d="M522.9,294.6c-4.8,0-8.8-3.9-8.8-8.8h0V127.7c0-4.8,3.9-8.8,8.8-8.8s8.8,3.9,8.8,8.8v158.1c0,4.9-3.9,8.8-8.8,8.8h0Z"/>
    <path class="st2" d="M593.2,285.8c-4.8,0-8.8-3.9-8.8-8.8h0v-79.1c0-4.9,3.9-8.8,8.8-8.8s8.8,3.9,8.8,8.8v79.1c0,4.9-3.9,8.8-8.8,8.8h0Z"/>
    <path class="st2" d="M522.9,356c-4.8,0-8.8-3.9-8.8-8.8s3.9-8.8,8.8-8.8c33.9,0,61.3-27.5,61.4-61.4,0-4.9,3.9-8.8,8.8-8.8s8.8,3.9,8.8,8.8c0,43.6-35.4,78.9-79,79h0Z"/>
    <path class="st2" d="M487.8,320.9c-4.9,0-8.8-3.9-8.8-8.8h0v-87.8c0-4.9,3.9-8.8,8.8-8.8s8.8,3.9,8.8,8.8v87.8c0,4.9-3.9,8.8-8.8,8.8h0Z"/>
    <path class="st2" d="M461.5,435.1c-4.9,0-8.8-3.9-8.8-8.8s3.9-8.8,8.8-8.8c38.8,0,70.2-31.5,70.3-70.2,0-4.9,3.9-8.8,8.8-8.8s8.8,3.9,8.8,8.8c0,48.5-39.3,87.8-87.8,87.8h0Z"/>
    <path class="st2" d="M461.5,400c-4.9,0-8.8-3.9-8.8-8.8s3.9-8.8,8.8-8.8c19.4,0,35.1-15.7,35.1-35.1,0-4.9,3.9-8.8,8.8-8.8s8.8,3.9,8.8,8.8c0,29.1-23.6,52.7-52.7,52.7Z"/>
    <path class="st2" d="M505.4,356.1c-4.9,0-8.8-3.9-8.8-8.8h0v-4.8c0-4.9,3.9-8.8,8.8-8.8s8.8,3.9,8.8,8.8v4.7c0,4.9-3.9,8.8-8.8,8.8h0Z"/>
    <path class="st2" d="M540.5,356.1c-4.8,0-8.7-3.9-8.8-8.7v-2.3c0-4.9,3.8-8.8,8.7-8.9h0c4.8,0,8.7,3.9,8.8,8.7v2.3c0,4.9-3.8,8.8-8.7,8.9h0Z"/>
    <path class="st2" d="M206.8,206.8c-4.9,0-8.8-3.9-8.8-8.8h0c0-43.6,35.4-79,79-79.1,4.9,0,8.8,3.9,8.8,8.8s-3.9,8.8-8.8,8.8c-33.9,0-61.4,27.5-61.5,61.5,0,4.9-3.9,8.8-8.8,8.8h0Z"/>
    <path class="st2" d="M312.2,233.1c-4.9,0-8.8-3.9-8.8-8.8h0c0-14.6-11.8-26.3-26.4-26.4-4.9,0-8.8-3.9-8.8-8.8s3.9-8.8,8.8-8.8c24.2,0,43.9,19.7,43.9,43.9,0,4.9-3.9,8.8-8.8,8.8h0Z"/>
    <path class="st2" d="M277.1,356c-4.9,0-8.8-3.9-8.8-8.8s3.9-8.8,8.8-8.8c14.5,0,26.3-11.8,26.4-26.4,0-4.9,3.9-8.8,8.8-8.8s8.8,3.9,8.8,8.8c0,24.2-19.7,43.9-43.9,43.9Z"/>
    <path class="st2" d="M277.1,294.6c-4.9,0-8.8-3.9-8.8-8.8h0V127.7c0-4.8,3.9-8.8,8.8-8.8s8.8,3.9,8.8,8.8v158.1c0,4.9-3.9,8.8-8.8,8.8h0Z"/>
    <path class="st2" d="M206.8,285.8c-4.9,0-8.8-3.9-8.8-8.8h0v-79.1c0-4.9,3.9-8.8,8.8-8.8s8.8,3.9,8.8,8.8v79.1c0,4.9-3.9,8.8-8.8,8.8h0Z"/>
    <path class="st2" d="M277.1,356c-43.6,0-78.9-35.4-78.9-78.9,0-4.9,3.9-8.8,8.8-8.8s8.8,3.9,8.8,8.8c0,33.9,27.5,61.3,61.4,61.4,4.9,0,8.8,3.9,8.8,8.8s-3.9,8.8-8.8,8.8h0Z"/>
    <path class="st2" d="M312.2,320.9c-4.9,0-8.8-3.9-8.8-8.8h0v-87.8c0-4.9,3.9-8.8,8.8-8.8s8.8,3.9,8.8,8.8v87.8c0,4.9-3.9,8.8-8.8,8.8h0Z"/>
    <path class="st2" d="M338.5,435.1c-48.5,0-87.8-39.3-87.8-87.8,0-4.9,3.9-8.8,8.8-8.8s8.8,3.9,8.8,8.8c0,38.8,31.5,70.2,70.3,70.2,4.9,0,8.8,3.9,8.8,8.8s-3.9,8.8-8.8,8.8h0Z"/>
    <path class="st2" d="M338.5,400c-29.1,0-52.7-23.6-52.7-52.7,0-4.9,3.9-8.8,8.8-8.8s8.8,3.9,8.8,8.8c0,19.4,15.7,35.1,35.1,35.1,4.9,0,8.8,3.9,8.8,8.8s-3.9,8.8-8.8,8.8Z"/>
    <path class="st2" d="M294.6,356.1c-4.9,0-8.8-3.9-8.8-8.8h0v-4.8c0-4.9,3.9-8.8,8.8-8.8s8.8,3.9,8.8,8.8v4.7c0,4.9-3.9,8.8-8.8,8.8h0Z"/>
    <path class="st2" d="M259.5,356.1h0c-4.9,0-8.8-4-8.7-8.9v-2.3c0-4.8,4-8.7,8.8-8.7h0c4.9,0,8.8,4,8.7,8.9v2.3c0,4.8-4,8.7-8.8,8.7Z"/>
    <path class="st2" d="M514.2,461.4c-4.9,0-8.8-3.9-8.8-8.8s3.9-8.8,8.8-8.8c9.7,0,17.5-7.8,17.5-17.5,0-4.9,3.9-8.8,8.8-8.8s8.8,3.9,8.8,8.8c0,19.3-15.7,35-35,35h0Z"/>
    <path class="st2" d="M514.2,461.4h-52.7c-4.9,0-8.8-3.9-8.8-8.8s3.9-8.8,8.8-8.8h52.7c4.8,0,8.8,3.9,8.8,8.8s-3.9,8.8-8.8,8.8Z"/>
    <path class="st2" d="M285.8,461.4c-19.3,0-35-15.7-35-35,0-4.9,3.9-8.8,8.8-8.8s8.8,3.9,8.8,8.8c0,9.6,7.8,17.5,17.5,17.5,4.9,0,8.8,3.9,8.8,8.8s-3.9,8.8-8.8,8.8Z"/>
    <path class="st2" d="M338.5,461.4h-52.7c-4.9,0-8.8-3.9-8.8-8.8s3.9-8.8,8.8-8.8h52.7c4.9,0,8.8,3.9,8.8,8.8s-3.9,8.8-8.8,8.8Z"/>
  </g>
</svg>