<?xml version="1.0" encoding="UTF-8"?>
<svg id="Layer_1" xmlns="http://www.w3.org/2000/svg" version="1.1" viewBox="0 0 800 800">
  <!-- Generator: Adobe Illustrator 30.2.1, SVG Export Plug-In . SVG Version: 2.1.1 Build 1)  -->
  <defs>
    <style>
      .st0 {
        fill: none;
        isolation: isolate;
        opacity: .5;
      }

      .st1 {
        fill: #5c9eff;
      }

      .st2 {
        fill: #006bc4;
      }

      .st3 {
        fill: #02dfff;
      }

      .st4 {
        fill: #f0567a;
      }
    </style>
  </defs>
  <circle class="st0" cx="400" cy="400" r="400"/>
  <g>
    <path class="st3" d="M572.3,285.8c24.8,26.1,38.5,60.7,38.5,96.6,0,29.1,23.5,52.7,52.5,52.7h.1l8.8,35.1h-35.1l-131.7,70.3h-96.6l-131.7-114.2h-35.1l-70.3,70.3-43.9-149.3,114.2,26.4h35.1c6,0,11.9-1,17.6-3.1,21.1-7.4,35.2-27.3,35.1-49.6,0-19.4,15.7-35.1,35.1-35.1h207.5,0ZM562.5,391.2c12.1,0,22-9.8,22-22s-9.8-22-22-22-22,9.8-22,22,9.8,22,22,22Z"/>
    <circle class="st1" cx="562.5" cy="369.3" r="22"/>
    <path class="st4" d="M470.3,241.9c38.6,0,75.5,15.8,102,43.9h-207.4c-19.4,0-35.1,15.7-35.1,35.1h0c0,22.3-14,42.3-35.1,49.6v-102.3c0-14.5,11.8-26.3,26.3-26.4h149.4Z"/>
    <path class="st1" d="M408.8,540.5h-43.9c-63,0-114.1-51-114.2-113.9v-.2h26.3l131.7,114.2h0Z"/>
    <path class="st2" d="M663.5,443.9c-33.9,0-61.4-27.5-61.5-61.5,0-4.9,3.9-8.8,8.8-8.8s8.8,3.9,8.8,8.8c0,24.2,19.7,43.9,43.9,43.9,4.8,0,8.8,3.9,8.8,8.8s-3.9,8.8-8.8,8.8h0Z"/>
    <path class="st2" d="M610.8,391.2c-4.8,0-8.8-3.9-8.8-8.8h0c0-72.7-59-131.7-131.7-131.7-4.9,0-8.8-3.9-8.8-8.8s3.9-8.8,8.8-8.8c82.4,0,149.2,66.9,149.3,149.3,0,4.9-3.9,8.8-8.8,8.8h0Z"/>
    <path class="st2" d="M470.3,250.7h-149.3c-4.9,0-8.8-3.9-8.8-8.8s3.9-8.8,8.8-8.8h149.3c4.9,0,8.8,3.9,8.8,8.8s-3.9,8.8-8.8,8.8Z"/>
    <path class="st2" d="M294.6,379.4c-4.9,0-8.8-3.9-8.8-8.8h0v-102.4c0-4.9,3.9-8.8,8.8-8.8s8.8,3.9,8.8,8.8v102.4c0,4.9-3.9,8.8-8.8,8.8h0Z"/>
    <path class="st2" d="M277,382.4c-4.9,0-8.8-3.9-8.8-8.8s3.9-8.8,8.8-8.8c24.2,0,43.9-19.7,43.9-43.9,0-4.9,3.9-8.8,8.8-8.8s8.8,3.9,8.8,8.8c0,33.9-27.5,61.4-61.5,61.5h0Z"/>
    <path class="st2" d="M329.7,329.7c-4.9,0-8.8-3.9-8.8-8.8h0c0-24.2,19.7-43.9,43.9-43.9,4.9,0,8.8,3.9,8.8,8.8s-3.9,8.8-8.8,8.8c-14.5,0-26.3,11.8-26.4,26.4,0,4.9-3.9,8.8-8.8,8.8h0Z"/>
    <path class="st2" d="M572.3,294.6h-207.5c-4.9,0-8.8-3.9-8.8-8.8s3.9-8.8,8.8-8.8h207.5c4.8,0,8.8,3.9,8.8,8.8s-3.9,8.8-8.8,8.8Z"/>
    <path class="st2" d="M672.2,479c-4,0-7.5-2.8-8.5-6.7l-8.8-35.1c-1.2-4.7,1.7-9.5,6.4-10.6,4.7-1.2,9.4,1.7,10.6,6.4l8.8,35.1c1.2,4.7-1.7,9.5-6.4,10.6-.7.2-1.4.3-2.1.3h0Z"/>
    <path class="st2" d="M505.4,549.3c-4.9,0-8.8-3.9-8.8-8.8,0-3.2,1.8-6.2,4.6-7.8l131.7-70.3c4.3-2.3,9.6-.6,11.9,3.6,2.3,4.3.7,9.6-3.6,11.9l-131.7,70.3c-1.3.7-2.7,1-4.1,1h0Z"/>
    <path class="st2" d="M505.4,549.3h-140.5c-4.9,0-8.8-3.9-8.8-8.8s3.9-8.8,8.8-8.8h140.5c4.9,0,8.8,3.9,8.8,8.8s-3.9,8.8-8.8,8.8h0Z"/>
    <path class="st2" d="M364.9,549.3c-67.9,0-122.9-55.1-122.9-123,0-4.9,3.9-8.8,8.8-8.8s8.8,3.9,8.8,8.8c0,58.2,47.2,105.3,105.4,105.4,4.9,0,8.8,3.9,8.8,8.8s-3.9,8.8-8.8,8.8h0Z"/>
    <path class="st2" d="M408.8,549.3c-2.1,0-4.2-.8-5.8-2.1l-131.7-114.2c-3.7-3.2-4.1-8.7-.9-12.4,3.2-3.7,8.7-4.1,12.4-.9l131.7,114.2c3.7,3.2,4.1,8.7.9,12.4-1.7,1.9-4.1,3-6.6,3h0Z"/>
    <path class="st2" d="M277,435.1h-35.1c-4.9,0-8.8-3.9-8.8-8.8s3.9-8.8,8.8-8.8h35.1c4.9,0,8.8,3.9,8.8,8.8s-3.9,8.8-8.8,8.8Z"/>
    <path class="st2" d="M277,382.4h-35.1c-4.9,0-8.8-3.9-8.8-8.8s3.9-8.8,8.8-8.8h35.1c4.9,0,8.8,3.9,8.8,8.8s-3.9,8.8-8.8,8.8Z"/>
    <path class="st2" d="M241.9,382.4c-.7,0-1.3,0-2-.2l-114.2-26.4c-4.7-1.1-7.7-5.8-6.6-10.5,1.1-4.7,5.8-7.6,10.5-6.6l114.2,26.4c4.7,1.1,7.7,5.8,6.6,10.5-.9,4-4.5,6.8-8.6,6.8h0Z"/>
    <path class="st2" d="M171.7,505.4c-4.9,0-8.8-3.9-8.8-8.8s.9-4.6,2.6-6.2l70.3-70.3c3.5-3.4,9-3.4,12.4.1,3.4,3.4,3.4,8.9,0,12.3l-70.3,70.3c-1.6,1.6-3.9,2.6-6.2,2.6h0Z"/>
    <path class="st2" d="M171.7,505.4c-3.9,0-7.3-2.6-8.4-6.3l-43.9-149.3c-1.4-4.6,1.3-9.5,5.9-10.9,4.6-1.4,9.5,1.3,10.9,5.9l43.9,149.3c1.4,4.6-1.3,9.5-5.9,10.9h0c-.8.2-1.6.4-2.5.4h0Z"/>
    <path class="st2" d="M562.5,400c-17,0-30.7-13.8-30.7-30.7s13.8-30.7,30.7-30.7,30.7,13.8,30.7,30.7c0,17-13.8,30.7-30.7,30.7ZM562.5,356.1c-7.3,0-13.2,5.9-13.2,13.2s5.9,13.2,13.2,13.2,13.2-5.9,13.2-13.2-5.9-13.2-13.2-13.2Z"/>
    <path class="st2" d="M294.6,277.1c-4.9,0-8.8-3.9-8.8-8.8h0c0-19.4,15.7-35.1,35.1-35.1,4.9,0,8.8,3.9,8.8,8.8s-3.9,8.8-8.8,8.8c-9.7,0-17.5,7.9-17.6,17.6,0,4.9-3.9,8.8-8.8,8.8h0Z"/>
    <path class="st2" d="M672.2,479h-35.1c-4.8,0-8.8-3.9-8.8-8.8s3.9-8.8,8.8-8.8h35.1c4.8,0,8.8,3.9,8.8,8.8s-3.9,8.8-8.8,8.8Z"/>
  </g>
</svg>