<?xml version="1.0" encoding="UTF-8"?>
<svg id="Layer_1" xmlns="http://www.w3.org/2000/svg" version="1.1" viewBox="0 0 800 800">
  <!-- Generator: Adobe Illustrator 30.2.1, SVG Export Plug-In . SVG Version: 2.1.1 Build 1)  -->
  <defs>
    <style>
      .st0 {
        fill: none;
        isolation: isolate;
        opacity: .5;
      }

      .st1 {
        fill: #5c9eff;
      }

      .st2 {
        fill: #006bc4;
      }

      .st3 {
        fill: #02dfff;
      }

      .st4 {
        fill: #f0567a;
      }
    </style>
  </defs>
  <circle class="st0" cx="400" cy="400" r="400"/>
  <g>
    <path class="st3" d="M575.7,531.7v52.7c0,48.5-39.3,87.8-87.8,87.8s-87.8-39.3-87.8-87.8v-167h35.1v167c0,29.1,23.6,52.7,52.7,52.7s52.7-23.6,52.7-52.7v-17.6c0-19.4,15.7-35.1,35.1-35.1h0Z"/>
    <path class="st3" d="M259.5,584.4c0,29.1,23.6,52.7,52.7,52.7s52.7-23.6,52.7-52.7v-167h35.1v167c0,48.5-39.3,87.8-87.8,87.8s-87.8-39.3-87.8-87.8v-52.7c19.4,0,35.1,15.7,35.1,35.1v17.6Z"/>
    <path class="st1" d="M540.5,566.9v17.6c0,29.1-23.6,52.7-52.7,52.7s-52.7-23.6-52.7-52.7v-167h8.8c9.1,0,18.1-2,26.4-6v172.9c0,9.7,7.9,17.6,17.6,17.6s17.6-7.9,17.6-17.6v-70.3c0-19.4,15.7-35.1,35.1-35.1h0v87.8h0Z"/>
    <path class="st1" d="M364.9,417.5v166.9c0,29.1-23.6,52.7-52.7,52.7s-52.7-23.6-52.7-52.7v-105.4c19.4,0,35.1,15.7,35.1,35.1v70.3c0,9.7,7.9,17.6,17.6,17.6s17.6-7.9,17.6-17.6v-172.8c8.2,3.9,17.1,5.9,26.2,5.9h9Z"/>
    <path class="st3" d="M487.8,356.1c9.7,0,17.6-7.9,17.6-17.5h0v17.5c0,23.8-13.6,45.4-35.1,55.5-8.2,4-17.2,6-26.4,6h-88c-9,0-18-2-26.2-5.9h0c-21.5-10.2-35.2-31.8-35.1-55.5v-17.6c0,9.7,7.9,17.6,17.6,17.6s17.6-7.9,17.6-17.6-7.9-17.6-17.6-17.6-17.6,7.9-17.6,17.5h0v-105.4c0-58.2,47.2-105.4,105.4-105.4s105.4,47.2,105.4,105.4v105.4c0-9.7-7.9-17.6-17.6-17.6s-17.6,7.9-17.6,17.6,7.9,17.6,17.6,17.6h0Z"/>
    <circle class="st4" cx="332.8" cy="332.8" r="28.6"/>
    <path class="st2" d="M505.4,241.9c-4.9,0-8.8-3.9-8.8-8.8h0c0-53.4-43.2-96.6-96.6-96.6s-96.6,43.2-96.6,96.6-3.9,8.8-8.8,8.8-8.8-3.9-8.8-8.8c0-63.1,51.1-114.2,114.2-114.2s114.2,51.1,114.2,114.2-3.9,8.8-8.8,8.8h0Z"/>
    <path class="st2" d="M355.9,426.2c-38.7,0-70.1-31.4-70.1-70.1,0-4.9,3.9-8.8,8.8-8.8s8.8,3.9,8.8,8.8c0,29,23.5,52.5,52.5,52.6,4.9,0,8.8,3.9,8.8,8.8s-3.9,8.8-8.8,8.8Z"/>
    <path class="st2" d="M443.9,426.2c-4.9,0-8.8-3.9-8.8-8.8s3.9-8.8,8.8-8.8c29.1,0,52.7-23.6,52.7-52.7,0-4.9,3.9-8.8,8.8-8.8s8.8,3.9,8.8,8.8c0,38.8-31.5,70.2-70.3,70.3h0Z"/>
    <path class="st2" d="M294.6,364.9c-4.9,0-8.8-3.9-8.8-8.8h0v-123c0-4.9,3.9-8.8,8.8-8.8s8.8,3.9,8.8,8.8v123c0,4.9-3.9,8.8-8.8,8.8h0Z"/>
    <path class="st2" d="M505.4,364.8c-4.9,0-8.8-3.9-8.8-8.8h0v-122.9c0-4.9,3.9-8.8,8.8-8.8s8.8,3.9,8.8,8.8v122.9c0,4.9-3.9,8.8-8.8,8.8h0Z"/>
    <path class="st2" d="M332.8,375.9c-23.7,0-43-19.2-43-43s19.2-43,43-43,43,19.2,43,43c0,23.7-19.2,42.9-43,43ZM332.8,318.6c-7.9,0-14.3,6.4-14.3,14.3s6.4,14.3,14.3,14.3,14.3-6.4,14.3-14.3-6.4-14.3-14.3-14.3Z"/>
    <circle class="st4" cx="465.5" cy="332.8" r="28.6"/>
    <path class="st2" d="M465.5,375.9c-23.7,0-43-19.2-43-43s19.2-43,43-43,43,19.2,43,43c0,23.7-19.2,42.9-43,43ZM465.5,318.6c-7.9,0-14.3,6.4-14.3,14.3s6.4,14.3,14.3,14.3,14.3-6.4,14.3-14.3-6.4-14.3-14.3-14.3Z"/>
    <path class="st2" d="M487.8,610.8c-14.5,0-26.3-11.8-26.4-26.3,0-4.8,3.9-8.8,8.8-8.8s8.8,3.9,8.8,8.8,3.9,8.8,8.8,8.8,8.8-3.9,8.8-8.8,3.9-8.8,8.8-8.8,8.8,3.9,8.8,8.8c0,14.5-11.8,26.3-26.4,26.3h0Z"/>
    <path class="st2" d="M487.8,645.9c-33.9,0-61.4-27.5-61.5-61.5,0-4.8,3.9-8.8,8.8-8.8s8.8,3.9,8.8,8.8c0,24.2,19.7,43.9,43.9,43.9s43.9-19.7,43.9-43.9,3.9-8.8,8.8-8.8,8.8,3.9,8.8,8.8c0,33.9-27.5,61.4-61.5,61.5h0Z"/>
    <path class="st2" d="M487.8,681.1c-53.3,0-96.5-43.3-96.6-96.6,0-4.8,3.9-8.8,8.8-8.8s8.8,3.9,8.8,8.8c0,43.7,35.4,79,79,79s79-35.4,79-79,3.9-8.8,8.8-8.8,8.8,3.9,8.8,8.8c0,53.3-43.3,96.5-96.6,96.6h0Z"/>
    <path class="st2" d="M505.4,593.3c-4.9,0-8.8-3.9-8.8-8.8h0v-70.3c0-4.9,3.9-8.8,8.8-8.8s8.8,3.9,8.8,8.8v70.3c0,4.8-3.9,8.8-8.8,8.8h0Z"/>
    <path class="st2" d="M443.9,426.2h-88c-4.9,0-8.8-3.9-8.8-8.8s3.9-8.8,8.8-8.8h88c4.9,0,8.8,3.9,8.8,8.8s-3.9,8.8-8.8,8.8Z"/>
    <path class="st2" d="M435.1,593.3c-4.9,0-8.8-3.9-8.8-8.8h0v-167c0-4.9,3.9-8.8,8.8-8.8s8.8,3.9,8.8,8.8v167c0,4.8-3.9,8.8-8.8,8.8h0Z"/>
    <path class="st2" d="M470.3,593.3c-4.9,0-8.8-3.9-8.8-8.8h0v-172.9c0-4.9,3.9-8.8,8.8-8.8s8.8,3.9,8.8,8.8v172.9c0,4.8-3.9,8.8-8.8,8.8h0Z"/>
    <path class="st2" d="M505.4,523c-4.9,0-8.8-3.9-8.8-8.8h0c0-24.2,19.7-43.9,43.9-43.9,4.8,0,8.8,3.9,8.8,8.8s-3.9,8.8-8.8,8.8c-14.5,0-26.3,11.8-26.3,26.3,0,4.8-3.9,8.8-8.8,8.8h0Z"/>
    <path class="st2" d="M540.5,593.3c-4.8,0-8.8-3.9-8.8-8.8h0v-105.4c0-4.9,3.9-8.8,8.8-8.8s8.8,3.9,8.8,8.8v105.4c0,4.8-3.9,8.8-8.8,8.8h0Z"/>
    <path class="st2" d="M540.5,575.7c-4.8,0-8.8-3.9-8.8-8.8h0c0-24.2,19.7-43.9,43.9-43.9,4.8,0,8.8,3.9,8.8,8.8s-3.9,8.8-8.8,8.8c-14.5,0-26.3,11.8-26.3,26.3,0,4.8-3.9,8.8-8.8,8.8h0,0Z"/>
    <path class="st2" d="M575.7,593.3c-4.8,0-8.8-3.9-8.8-8.8h0v-52.7c0-4.8,3.9-8.8,8.8-8.8s8.8,3.9,8.8,8.8v52.7c0,4.8-3.9,8.8-8.8,8.8h0Z"/>
    <path class="st2" d="M312.2,610.8c-14.5,0-26.3-11.8-26.4-26.3,0-4.8,3.9-8.8,8.8-8.8s8.8,3.9,8.8,8.8,3.9,8.8,8.8,8.8,8.8-3.9,8.8-8.8,3.9-8.8,8.8-8.8,8.8,3.9,8.8,8.8c0,14.5-11.8,26.3-26.4,26.3h0Z"/>
    <path class="st2" d="M312.2,645.9c-33.9,0-61.4-27.5-61.5-61.5,0-4.8,3.9-8.8,8.8-8.8s8.8,3.9,8.8,8.8c0,24.2,19.7,43.9,43.9,43.9s43.9-19.7,43.9-43.9,3.9-8.8,8.8-8.8,8.8,3.9,8.8,8.8c0,33.9-27.5,61.4-61.5,61.5h0Z"/>
    <path class="st2" d="M312.2,681.1c-53.3,0-96.6-43.3-96.6-96.6,0-4.8,3.9-8.8,8.8-8.8s8.8,3.9,8.8,8.8c0,43.7,35.4,79,79,79s79-35.4,79-79,3.9-8.8,8.8-8.8,8.8,3.9,8.8,8.8c0,53.3-43.3,96.5-96.6,96.6h0Z"/>
    <path class="st2" d="M294.6,593.3c-4.9,0-8.8-3.9-8.8-8.8h0v-70.3c0-4.9,3.9-8.8,8.8-8.8s8.8,3.9,8.8,8.8v70.3c0,4.8-3.9,8.8-8.8,8.8h0Z"/>
    <path class="st2" d="M364.9,593.3c-4.9,0-8.8-3.9-8.8-8.8h0v-167c0-4.9,3.9-8.8,8.8-8.8s8.8,3.9,8.8,8.8v167c0,4.8-3.9,8.8-8.8,8.8h0Z"/>
    <path class="st2" d="M329.7,593.3c-4.9,0-8.8-3.9-8.8-8.8h0v-172.9c0-4.9,3.9-8.8,8.8-8.8s8.8,3.9,8.8,8.8v172.9c0,4.8-3.9,8.8-8.8,8.8h0Z"/>
    <path class="st2" d="M294.6,523c-4.9,0-8.8-3.9-8.8-8.8h0c0-14.5-11.8-26.3-26.4-26.4-4.9,0-8.8-3.9-8.8-8.8s3.9-8.8,8.8-8.8c24.2,0,43.9,19.7,43.9,43.9,0,4.8-3.9,8.8-8.8,8.8h0Z"/>
    <path class="st2" d="M259.5,593.3c-4.9,0-8.8-3.9-8.8-8.8h0v-105.4c0-4.9,3.9-8.8,8.8-8.8s8.8,3.9,8.8,8.8v105.4c0,4.8-3.9,8.8-8.8,8.8h0Z"/>
    <path class="st2" d="M259.5,575.7c-4.9,0-8.8-3.9-8.8-8.8h0c0-14.5-11.8-26.3-26.4-26.4-4.9,0-8.8-3.9-8.8-8.8s3.9-8.8,8.8-8.8c24.2,0,43.9,19.7,43.9,43.9,0,4.8-3.9,8.8-8.8,8.8h0Z"/>
    <path class="st2" d="M224.4,593.3c-4.9,0-8.8-3.9-8.8-8.8h0v-52.7c0-4.8,3.9-8.8,8.8-8.8s8.8,3.9,8.8,8.8v52.7c0,4.8-3.9,8.8-8.8,8.8h0Z"/>
    <path class="st2" d="M400,593.3c-4.9,0-8.8-3.9-8.8-8.8h0v-167c0-4.9,3.9-8.8,8.8-8.8s8.8,3.9,8.8,8.8v167c0,4.8-3.9,8.8-8.8,8.8h0Z"/>
  </g>
</svg>