<?xml version="1.0" encoding="UTF-8"?>
<svg id="Layer_1" xmlns="http://www.w3.org/2000/svg" version="1.1" viewBox="0 0 49.13 42.42" fill="white">
  <!-- Generator: Adobe Illustrator 30.2.1, SVG Export Plug-In . SVG Version: 2.1.1 Build 1)  -->
  <path d="M10.84,37.67c-6.99,0-10.84-4.03-10.84-11.35,0-.29.24-.53.53-.53h6.16c.29,0,.53.24.53.53,0,3.77,1.79,4.29,3.73,4.29,1.8,0,2.97-1.68,2.97-4.29,0-3.65-1.87-4.13-9.28-4.13-.29,0-.53-.24-.53-.53v-5.16c0-.17.08-.33.22-.43l7.82-5.73H1.45c-.29,0-.53-.24-.53-.53v-5.35c0-.29.24-.53.53-.53h17.39c.29,0,.53.24.53.53v7.72c0,.17-.08.34-.23.44l-5.72,4.02c2.56.48,4.47,1.43,5.81,2.87.09.1.14.23.14.36v13.61c0,.11-.03.22-.1.31-1.85,2.58-4.68,3.89-8.42,3.89h-.01Z"/>
  <path d="M38.95,42.42h-17.88c-.29,0-.53-.24-.53-.53v-4.7c.08-6.54.99-9.62,9.83-13.73l.22-.11c2.31-1.1,3.94-2.08,3.94-4.76,0-3.02-1.69-3.66-3.11-3.67l-.51.04c-1.53.09-3.09.66-3.09,4.2,0,.29-.24.53-.53.53h-6.14c-.29,0-.53-.24-.53-.53,0-7.09,3.64-11.12,10.24-11.34h.52c3.45,0,6.13.98,7.97,2.91.09.1.15.23.15.37v14.51c0,.14-.05.27-.15.37-1.67,1.76-3.83,2.79-5.92,3.79-.81.39-1.58.76-2.28,1.15-2.28,1.29-3.24,2.6-3.27,4.5h11.1c.29,0,.53.24.53.53v5.92c0,.29-.24.53-.53.53l-.03.02Z"/>
  <path d="M48.59,34.04h-6.48c-.29,0-.53-.24-.53-.53V7.12h-4.31c-.29,0-.53-.24-.53-.53V1.6c0-.25.18-.47.42-.52L42.31,0s.07,0,.11,0h6.17c.29,0,.53.24.53.53v32.97c0,.29-.24.53-.53.53h0Z"/>
</svg>