<?xml version="1.0" encoding="UTF-8"?>
<svg id="Layer_1" xmlns="http://www.w3.org/2000/svg" version="1.1" viewBox="0 0 372 321">
  <!-- Generator: Adobe Illustrator 30.2.1, SVG Export Plug-In . SVG Version: 2.1.1 Build 1)  -->
  <defs>
    <style>
      .st0 {
        fill: #0f0f0f;
      }
    </style>
  </defs>
  <path class="st0" d="M88.8,271.9c-24.1,0-42.6-7.1-55.1-21.1-11.7-13.1-17.6-31.6-17.6-55s2.2-5,5-5h40.5c2.8,0,5,2.2,5,5,0,22.1,9.2,26.7,23,26.7s18-14.4,18-26.7c0-21.6-9.5-25.6-59.5-25.6s-5-2.2-5-5v-33.9c0-1.6.8-3.1,2-4l47.7-34.9H27c-2.8,0-5-2.2-5-5v-35.2c0-2.8,2.2-5,5-5h114.2c2.8,0,5,2.2,5,5v50.7c0,1.6-.8,3.2-2.1,4.1l-34.8,24.4c15.5,3.4,27.2,9.6,35.6,18.6.9.9,1.3,2.1,1.3,3.4v89.4c0,1-.3,2.1-.9,2.9-12.4,17.4-31.5,26.2-56.6,26.2ZM26.1,200.8c1.2,29,13.6,61.1,62.6,61.1s37-7,47.5-20.8v-85.8c-8.8-8.7-22.1-14-40.3-16.2-2.1-.2-3.8-1.7-4.3-3.7s.3-4.1,2-5.3l42.6-29.9v-43.1H32v25.2h76c2.2,0,4.1,1.4,4.8,3.4s0,4.3-1.8,5.6l-58,42.5v26.4c41.3.2,64.5,2.9,64.5,35.6s-11.3,36.7-28,36.7-15.6-.7-22.7-7c-6-5.3-9.4-13.4-10.1-24.7h-30.6Z"/>
  <path class="st0" d="M273.4,303.1h-117.5c-2.8,0-5-2.2-5-5v-30.9c.5-43.7,6.6-64.2,65.5-91.6l1.4-.7s0,0,0,0c15.1-7.2,25-13.1,25-29.9s-6.5-22.5-18.9-22.6l-3.3.2c-9.9.6-18.9,4.1-18.9,26.1s-2.2,5-5,5h-40.3c-2.8,0-5-2.2-5-5,0-47.5,24.4-74.5,68.7-76,0,0,.1,0,.2,0h3.3c23.1,0,41.1,6.6,53.5,19.6.9.9,1.4,2.2,1.4,3.4v95.3c0,1.3-.5,2.5-1.4,3.4-11.2,11.8-26.1,18.9-39.4,25.3-5.3,2.5-10.3,4.9-14.9,7.5-13.8,7.8-20,15.7-20.7,26.8h71.3c2.8,0,5,2.2,5,5v38.9c0,2.8-2.2,5-5,5ZM160.9,293.1h107.5v-28.9h-71.4c-2.8,0-5-2.2-5-5v-2.8c0-20.5,13.8-30.9,25.8-37.7,0,0,0,0,0,0,4.9-2.7,10-5.2,15.5-7.8,12.4-6,25.3-12.1,35-21.7v-91.2c-10.4-10-25.5-15.1-44.9-15.1h-3.2c-19.9.7-35.1,7-44.9,18.8-8.5,10.2-13.2,24.4-13.9,42.3h30.4c1.3-19.9,10.5-30.1,28.1-31.1l3.4-.2c.1,0,.2,0,.4,0,18.2,0,29,12.2,29,32.6s-17.7,32.7-30.6,38.9l-1.5.7s0,0-.1,0c-54.3,25.2-59.3,41.8-59.7,82.6v25.8Z"/>
  <path class="st0" d="M336.8,248h-42.6c-2.8,0-5-2.2-5-5V71.1h-26.8c-2.8,0-5-2.2-5-5v-32.8c0-2.4,1.7-4.4,4-4.9l33.8-7c.3,0,.7-.1,1-.1h40.6c2.8,0,5,2.2,5,5v216.6c0,2.8-2.2,5-5,5ZM299.2,238h32.6V31.4h-35l-29.3,6.1v23.7h26.8c2.8,0,5,2.2,5,5v171.9Z"/>
</svg>