<svg id="Layer_1" data-name="Layer 1" xmlns="http://www.w3.org/2000/svg" xmlns:xlink="http://www.w3.org/1999/xlink"
     viewBox="0 0 694.11 164.66">
    <defs>
        <style>.cls-1{fill:none;}.cls-2{fill:#ffffff;}.cls-3{clip-path:url(#clip-path);}</style>
        <clipPath id="clip-path">
            <rect class="cls-1" width="694.08" height="164.66"/>
        </clipPath>
    </defs>
    <title>Artboard 16</title>
    <path class="cls-2"
          d="M86.18,108.9a34.89,34.89,0,0,1-9,21.73,30.13,30.13,0,0,1-21.68,9.09,29.35,29.35,0,0,1-21.68-9.09c-5.59-6.06-8.86-14.45-8.86-24v-.23c.06-9.7,3.31-18,8.86-23.78a28.09,28.09,0,0,1,21.68-9.56,28.8,28.8,0,0,1,21.68,9.56,33.85,33.85,0,0,1,9,21.68v4.61Zm14.89-60.79h-5A9.92,9.92,0,0,0,86.18,58v.15a53.05,53.05,0,0,0-30.7-10A53.71,53.71,0,0,0,15.85,65.59C5.88,76,.06,90.39,0,106.39v.23a59.66,59.66,0,0,0,15.85,41,54.13,54.13,0,0,0,39.63,17,52.86,52.86,0,0,0,30.7-9.81,9.91,9.91,0,0,0,9.89,9.81h5a9.92,9.92,0,0,0,9.89-9.89V58a9.92,9.92,0,0,0-9.89-9.89Z"/>
    <g class="cls-3">
        <path class="cls-2"
              d="M281.81,48.11H150.15A9.92,9.92,0,0,0,140.26,58v96.77a9.92,9.92,0,0,0,9.89,9.89h5a9.92,9.92,0,0,0,9.89-9.89V72.89h38.55v81.88a9.92,9.92,0,0,0,9.89,9.89h5a9.92,9.92,0,0,0,9.89-9.89V72.89h38.55v81.88a9.92,9.92,0,0,0,9.88,9.89h5a9.92,9.92,0,0,0,9.89-9.89V58a9.92,9.92,0,0,0-9.89-9.89Z"/>
        <path class="cls-2"
              d="M669.33,108.91a34.87,34.87,0,0,1-9,21.72,30.11,30.11,0,0,1-21.68,9.09A29.35,29.35,0,0,1,617,130.63c-5.59-6.06-8.85-14.45-8.85-24v-.23c0-9.7,3.3-18,8.85-23.78a28.09,28.09,0,0,1,21.68-9.56,28.79,28.79,0,0,1,21.68,9.56,33.8,33.8,0,0,1,9,21.67v4.63Zm14.89-60.8h-5A9.92,9.92,0,0,0,669.33,58v.15a53.05,53.05,0,0,0-30.7-10A53.71,53.71,0,0,0,599,65.59c-10,10.44-15.79,24.8-15.84,40.8,0,.07,0,.15,0,.23a59.66,59.66,0,0,0,15.85,41,54.13,54.13,0,0,0,39.63,17,52.84,52.84,0,0,0,30.7-9.81,9.92,9.92,0,0,0,9.89,9.81h5a9.92,9.92,0,0,0,9.89-9.89V58a9.92,9.92,0,0,0-9.89-9.89Z"/>
    </g>
    <path class="cls-2"
          d="M470.42,48.11h-5A9.92,9.92,0,0,0,455.53,58v96.77a9.92,9.92,0,0,0,9.89,9.89h5a9.92,9.92,0,0,0,9.89-9.89V58a9.92,9.92,0,0,0-9.89-9.89Z"/>
    <path class="cls-2"
          d="M398.93,129.7A30.19,30.19,0,0,1,377,139.26a29.81,29.81,0,0,1-21.92-9.56,32.83,32.83,0,0,1-9.32-23.08v-.23a33.12,33.12,0,0,1,9.32-23.32A29.8,29.8,0,0,1,377,73.52a30.18,30.18,0,0,1,21.91,9.55,33.08,33.08,0,0,1,9.32,23.32v.23a32.79,32.79,0,0,1-9.32,23.08Zm34.73-23.31c-.12-31.84-25.25-58.28-56.64-58.28a55.19,55.19,0,0,0-31.24,9.79V11.38a9.91,9.91,0,0,0-9.88-9.89h-5A9.92,9.92,0,0,0,321,11.38V154.77a9.92,9.92,0,0,0,9.89,9.89h5a9.91,9.91,0,0,0,9.88-9.71A56.87,56.87,0,0,0,377,164.66c31.47,0,56.64-26.57,56.64-58v-.23Z"/>
    <path class="cls-2"
          d="M565.79,48.11H550.55V11.38a9.92,9.92,0,0,0-9.89-9.89h-5a9.92,9.92,0,0,0-9.89,9.89V48.11H510.53A9.92,9.92,0,0,0,500.64,58v5a9.92,9.92,0,0,0,9.89,9.89h15.24v81.88a9.92,9.92,0,0,0,9.89,9.89h5a9.92,9.92,0,0,0,9.89-9.89V72.89h15.24A9.92,9.92,0,0,0,575.68,63V58a9.92,9.92,0,0,0-9.89-9.89Z"/>
    <path class="cls-2" d="M481.8,13.88A13.88,13.88,0,1,1,467.92,0,13.89,13.89,0,0,1,481.8,13.88Z"/>
</svg>