<svg xmlns="http://www.w3.org/2000/svg" id="Layer_2" version="1.1"
     viewBox="-0.08 0 715.08 109.08">  <!-- Generator: Adobe Illustrator 29.3.1, SVG Export Plug-In . SVG Version: 2.1.0 Build 151)  -->
    <g id="Layer_1-2">
        <path fill="#ffffff" d="M103,6C95.2-1.9,14.1-2.1,6,6-2.1,14.1-2.1,94.9,6,103s88.9,8.1,97,0,8-89,0-97ZM91,66.4h-24.5v24.6h-24.2v-24.6h-24.6v-24.2h24.6v-24.6h24.2v24.6h24.5v24.2Z"></path>
        <path fill="#ffffff" d="M715,81.7h-10.5c-3.1,0-5.3-.3-6.6-1.4-1.8-1.5-1.6-5-1.8-10.4V9.7h-14.6c-5.1,9.1-13.3,10.5-23.5,11v10c5.6.4,11.7,1.1,13.9,2.2,0,0,2.5.4,2.8,4.8,1.3,19.1,1.1,24,.5,34.3-.2,4.1-.8,7.3-2.2,8.4-1.7,1.4-4.2,1.5-6.7,1.5h-9.7v14.5h58.4v-14.7h0Z"></path>
        <path fill="#ffffff" d="M266.5,27.8h-15.3v25.2h15.3c7.8,0,14.9-2.2,14.9-12.3s-7.1-12.9-14.9-12.9M271.9,68.6h-20.7v27.7h-20.3V13.4h41c15.1,0,27.3,11.8,27.3,26.9s-10.4,28.3-27.3,28.3"></path>
        <path fill="#ffffff" d="M352.6,80.1c-14.9,0-25.7-10.6-25.7-25.2s10.8-25.2,25.7-25.2,25.8,10.6,25.8,25.2-10.8,25.2-25.8,25.2M352.6,12.5c-25.2,0-44.2,18.2-44.2,42.4s18.9,42.4,44,42.4,44.5-21.3,44.5-42.4-18.7-42.4-44.3-42.4"></path>
        <polygon fill="#ffffff" points="400.3 13.5 400.3 30.5 426.5 30.5 426.5 96.3 444.6 96.3 444.6 30.5 470.7 30.5 470.7 13.5 400.3 13.5"></polygon>
        <path fill="#ffffff" d="M173.5,42.5c2.6,5.9,9.5,21.3,9.5,21.3h-18.4s6.4-15.4,8.9-21.3M197.7,96.3h19L179.7,13.4h-12.4l-35.6,82.9h19s5.2-10.8,8-17.3h30.7c3,6.5,8.3,17.3,8.3,17.3"></path>
        <polygon fill="#ffffff" points="505.2 63.1 539.8 63.1 539.8 46 505.2 46 505.2 30.5 540.9 30.5 540.9 13.5 487.1 13.5 487.1 96.3 541.9 96.3 541.9 79.3 505.2 79.3 505.2 63.1"></polygon>
        <path fill="#ffffff" d="M591,52.7c4.1-4.5,36.1-39.3,36.1-39.3h-23.4s-18.5,20.1-26.6,28.9V13.5h-18.1v82.8h18.1v-32.4c8.7,8.4,33.4,32.4,33.4,32.4h25.4s-40.5-39.2-44.9-43.6"></path>
    </g>
</svg>