<svg xmlns="http://www.w3.org/2000/svg" xmlns:xlink="http://www.w3.org/1999/xlink" id="Layer_1" version="1.1"
     viewBox="0 0.5 300 36.2">  <!-- Generator: Adobe Illustrator 29.3.1, SVG Export Plug-In . SVG Version: 2.1.0 Build 151)  -->
    <g>
        <path fill="#ffffff" d="M58.8,31.6h-7V14.3h6.7c3.2,0,5.2,1.8,5.2,4.7s-1.2,3.2-2.3,3.7c1.3.5,2.6,1.8,2.6,4,0,3.2-2.2,4.9-5.2,4.9ZM58.3,16.7h-3.9v4.9h3.9c1.7,0,2.8-.9,2.8-2.5s-1.1-2.5-2.8-2.5ZM58.5,24h-4.1v5.3h4.1c1.8,0,2.8-1.1,2.8-2.6,0-1.5-1-2.6-2.8-2.6Z"></path>
        <path fill="#ffffff" d="M74.1,22.2c-.6-.6-1-.8-1.8-.8-1.3,0-2.4,1.1-2.4,2.8v7.5h-2.5v-12.3h2.4v1.3c.6-.9,1.9-1.5,3.3-1.5s2.1.3,2.9,1.2l-1.9,1.9Z"></path>
        <path fill="#ffffff" d="M85.2,30.3c-.8.8-2,1.5-3.7,1.5s-1.8-.2-2.5-.6l-.3.5h-1.7l.8-1.4c-1.2-1.2-1.4-2.8-1.4-4.8s.3-3.6,1.5-4.8c.8-.8,2-1.5,3.7-1.5s1.9.2,2.5.6l.3-.5h1.7l-.8,1.3c1.2,1.2,1.5,2.8,1.5,4.8,0,2.1-.3,3.6-1.5,4.8ZM81.5,21.3c-.7,0-1.3.2-1.8.7-.7.8-.8,2-.8,3.4s0,1.9.4,2.6l3.7-6.3c-.4-.3-.9-.4-1.5-.4ZM83.8,22.8l-3.7,6.3c.4.3.9.4,1.4.4s1.4-.3,1.8-.7c.8-.8.8-2,.8-3.4,0-1,0-1.9-.4-2.6Z"></path>
        <path fill="#ffffff" d="M97.3,31.6v-7.5c0-1.9-1.1-2.7-2.5-2.7s-2.5.8-2.5,2.7v7.5h-2.5v-12.3h2.4v1.2c.8-.9,2-1.4,3.3-1.4s2.3.4,3,1.1c.9.9,1.2,2.1,1.2,3.5v7.9h-2.5Z"></path>
        <path fill="#ffffff" d="M110.8,31.6v-7.5c0-1.9-1.1-2.7-2.5-2.7s-2.5.8-2.5,2.7v7.5h-2.5v-12.3h2.4v1.2c.8-.9,2-1.4,3.3-1.4s2.3.4,3,1.1c.9.9,1.2,2.1,1.2,3.5v7.9h-2.5Z"></path>
        <path fill="#ffffff" d="M125,30.3c-.8.8-2,1.5-3.7,1.5s-1.8-.2-2.5-.6l-.3.5h-1.7l.8-1.4c-1.2-1.2-1.4-2.8-1.4-4.8s.3-3.6,1.5-4.8c.8-.8,2-1.5,3.7-1.5s1.9.2,2.5.6l.3-.5h1.7l-.8,1.3c1.2,1.2,1.5,2.8,1.5,4.8,0,2.1-.3,3.6-1.5,4.8ZM121.4,21.3c-.7,0-1.3.2-1.8.7-.7.8-.8,2-.8,3.4s0,1.9.4,2.6l3.7-6.3c-.4-.3-.9-.4-1.5-.4ZM123.7,22.8l-3.7,6.3c.4.3.9.4,1.4.4s1.4-.3,1.8-.7c.8-.8.8-2,.8-3.4,0-1,0-1.9-.4-2.6Z"></path>
        <path fill="#ffffff" d="M133.5,34c-.2.7-.5,1.2-.9,1.5-.7.7-1.6.9-2.5.9h-1v-2.2h.6c1,0,1.4-.3,1.8-1.3l.7-1.9-4.3-11.7h2.6l2.9,8.7,2.9-8.7h2.6l-5.4,14.7Z"></path>
        <path fill="#ffffff" d="M144.7,31.7c-2,0-3.7-.3-5.2-1.8l1.6-1.6c1,1,2.3,1.3,3.5,1.3s2.7-.5,2.7-1.7-.5-1.4-1.6-1.5l-2-.2c-2.3-.2-3.6-1.2-3.6-3.4s2.1-3.8,4.6-3.8,3.4.4,4.6,1.4l-1.6,1.6c-.8-.7-1.9-.9-3-.9s-2.2.7-2.2,1.6.4,1.3,1.7,1.4l1.9.2c2.3.2,3.7,1.3,3.7,3.5,0,2.6-2.2,3.9-5.1,3.9Z"></path>
        <path fill="#ffffff" d="M160,31.6v-1.2c-.8.9-2,1.4-3.3,1.4s-2.3-.4-3-1.1c-.9-.9-1.2-2.1-1.2-3.5v-7.9h2.5v7.5c0,1.9,1.1,2.7,2.5,2.7s2.5-.8,2.5-2.7v-7.5h2.5v12.3s-2.4,0-2.4,0Z"></path>
        <path fill="#ffffff" d="M173.6,31.6v-7.5c0-1.9-1.1-2.7-2.5-2.7s-2.5.8-2.5,2.7v7.5h-2.5v-12.3h2.4v1.2c.9-.9,2-1.4,3.3-1.4s2.3.4,3,1.1c.9.9,1.2,2.1,1.2,3.5v7.9h-2.5Z"></path>
        <path fill="#ffffff" d="M186.7,31.6v-1.3c-.9,1.1-1.9,1.5-3.2,1.5s-2.3-.4-3-1.1c-1.2-1.2-1.4-3.3-1.4-5.2s.1-4,1.4-5.2c.7-.7,1.7-1.1,3-1.1s2.3.3,3.2,1.4v-6.2h2.5v17.3h-2.4ZM184.1,21.3c-2.2,0-2.6,1.9-2.6,4.1s.3,4.1,2.6,4.1,2.5-1.9,2.5-4.1-.3-4.1-2.5-4.1Z"></path>
        <path fill="#ffffff" d="M199.6,22.2c-.6-.6-1-.8-1.8-.8-1.3,0-2.4,1.1-2.4,2.8v7.5h-2.5v-12.3h2.4v1.3c.6-.9,1.9-1.5,3.3-1.5s2.1.3,2.9,1.2l-1.9,1.9Z"></path>
        <path fill="#ffffff" d="M204.3,26.1c0,2.1,1.1,3.4,3.1,3.4s2.1-.4,3-1.3l1.6,1.5c-1.3,1.3-2.4,1.9-4.6,1.9-3.1,0-5.5-1.6-5.5-6.3s2.1-6.3,5.2-6.3,5.2,2.4,5.2,5.9v1.1h-8ZM209.5,22.7c-.4-.9-1.3-1.6-2.4-1.6s-2.1.6-2.4,1.6c-.2.6-.3.9-.3,1.7h5.5c0-.8,0-1.1-.3-1.7Z"></path>
        <path fill="#ffffff" d="M219.4,36.7c-1.9,0-3.1-.4-4.3-1.6l1.6-1.6c.8.7,1.5,1.1,2.7,1.1,2.1,0,2.9-1.5,2.9-3.1v-1.6c-.9,1.1-1.9,1.4-3.2,1.4s-2.3-.4-2.9-1.1c-1.2-1.2-1.4-2.9-1.4-5s.2-3.8,1.4-5c.7-.7,1.7-1.1,3-1.1s2.3.3,3.2,1.5v-1.3h2.4v12.2c0,3-2,5.2-5.3,5.2ZM219.7,21.3c-2.2,0-2.5,1.9-2.5,3.9s.3,3.9,2.5,3.9,2.5-1.9,2.5-3.9c0-1.9-.3-3.9-2.5-3.9Z"></path>
        <path fill="#ffffff" d="M228.3,16.9v-2.6h2.6v2.6h-2.6ZM228.3,31.6v-12.3h2.5v12.3s-2.5,0-2.5,0Z"></path>
        <path fill="#ffffff" d="M238.5,31.7c-2,0-3.7-.3-5.2-1.8l1.6-1.6c1,1,2.3,1.3,3.5,1.3s2.7-.5,2.7-1.7-.5-1.4-1.6-1.5l-2-.2c-2.3-.2-3.6-1.2-3.6-3.4s2.1-3.8,4.6-3.8,3.4.4,4.6,1.4l-1.6,1.6c-.8-.7-1.9-.9-3-.9s-2.2.7-2.2,1.6.4,1.3,1.7,1.4l1.9.2c2.3.2,3.7,1.3,3.7,3.5,0,2.6-2.2,3.9-5.1,3.9Z"></path>
        <path fill="#ffffff" d="M249.8,31.6c-2.3,0-3.4-1.6-3.4-3.4v-6.8h-1.4v-1.9h1.4v-3.7h2.5v3.7h2.4v1.9h-2.4v6.6c0,.9.4,1.4,1.4,1.4h1v2.1h-1.5Z"></path>
        <path fill="#ffffff" d="M260.9,22.2c-.6-.6-1-.8-1.8-.8-1.3,0-2.4,1.1-2.4,2.8v7.5h-2.5v-12.3h2.4v1.3c.6-.9,1.9-1.5,3.3-1.5s2.1.3,2.9,1.2l-1.9,1.9Z"></path>
        <path fill="#ffffff" d="M265.6,26.1c0,2.1,1.1,3.4,3.1,3.4s2.1-.4,3-1.3l1.6,1.5c-1.3,1.3-2.4,1.9-4.6,1.9-3.1,0-5.5-1.6-5.5-6.3s2.1-6.3,5.2-6.3,5.2,2.4,5.2,5.9v1.1h-8ZM270.8,22.7c-.4-.9-1.3-1.6-2.4-1.6s-2.1.6-2.4,1.6c-.2.6-.3.9-.3,1.7h5.5c0-.8,0-1.1-.3-1.7Z"></path>
        <path fill="#ffffff" d="M284.1,31.6v-7.5c0-1.9-1.1-2.7-2.5-2.7s-2.5.8-2.5,2.7v7.5h-2.5v-12.3h2.4v1.2c.8-.9,2-1.4,3.3-1.4s2.3.4,3,1.1c.9.9,1.2,2.1,1.2,3.5v7.9h-2.5Z"></path>
        <path fill="#ffffff" d="M292,26.1c0,2.1,1.1,3.4,3.1,3.4s2.1-.4,3-1.3l1.6,1.5c-1.3,1.3-2.4,1.9-4.6,1.9-3.1,0-5.5-1.6-5.5-6.3s2.1-6.3,5.2-6.3,5.2,2.4,5.2,5.9v1.1h-8ZM297.2,22.7c-.4-.9-1.3-1.6-2.4-1.6s-2.1.6-2.4,1.6c-.2.6-.3.9-.3,1.7h5.5c0-.8,0-1.1-.3-1.7Z"></path>
    </g>
    <rect fill="#ffffff" y=".5" width="10.4" height="3.5"></rect>
    <rect fill="#ffffff" x="13.8" y=".5" width="10.4" height="3.5"></rect>
    <rect fill="#ffffff" x="27.6" y=".5" width="10.4" height="3.5"></rect>
    <rect fill="#ffffff" y="7.4" width="10.4" height="3.5"></rect>
    <rect fill="#ffffff" x="13.8" y="7.4" width="10.4" height="3.5"></rect>
    <rect fill="#ffffff" x="27.6" y="7.4" width="10.4" height="3.5"></rect>
    <rect fill="#ffffff" y="14.3" width="10.4" height="3.5"></rect>
    <rect fill="#ffffff" x="13.8" y="14.3" width="10.4" height="3.5"></rect>
    <rect fill="#ffffff" y="21.2" width="10.4" height="3.5"></rect>
    <rect fill="#ffffff" x="13.8" y="21.2" width="10.4" height="3.5"></rect>
    <rect fill="#ffffff" y="28.1" width="10.4" height="3.5"></rect>
    <rect fill="#ffffff" x="13.8" y="28.1" width="10.4" height="3.5"></rect>
</svg>