<?xml version="1.0" encoding="UTF-8"?>
<svg id="logo-simple" xmlns="http://www.w3.org/2000/svg" version="1.1" viewBox="0 0 841.9 595.3">  <!-- Generator: Adobe Illustrator 29.3.1, SVG Export Plug-In . SVG Version: 2.1.0 Build 151)  -->
  <path fill="#ffffff" d="M25.5,322.2c16.3,16.3,37.6,24.4,59,24.4s42.7-8.1,59-24.4l76.3-76.3-19.1-19.1-76.3,76.3c-22,22-57.8,22-79.8,0l-1.1-1.1c-22-22-22-57.8,0-79.8l1-1c22-22,57.8-22,79.8,0l6.6,6.6,19.1-19.1-6.6-6.6c-32.5-32.5-85.5-32.5-118,0l-1,1c-32.5,32.5-32.5,85.5,0,118l1.1,1.1h0Z"/>
  <path fill="#ffffff" d="M289.9,202.1c-16.3-16.3-37.6-24.4-59-24.4s-42.7,8.1-59,24.4l-76.3,76.3,19.1,19.1,76.3-76.3c22-22,57.8-22,79.8,0l1.1,1.1c22,22,22,57.8,0,79.8l-1,1c-22,22-57.8,22-79.8,0l-6.6-6.6-19.1,19.1,6.6,6.6c32.5,32.5,85.5,32.5,118,0l1-1c32.5-32.5,32.5-85.5,0-118l-1.1-1.1h0Z"/>
  <path fill="#ffffff" d="M682.7,241.6l-43.8,104.7h-15.4l12-29.6-31-75.2h15.6l23.3,56.9,23.7-56.9h15.6Z"/>
  <path fill="#ffffff" d="M355.9,262.1c0-32.3,25.7-58.4,57.9-58.4s32.8,7.5,42.9,19.4l-10.9,9.3c-7.6-8.9-19.2-14.7-31.9-14.7-24,0-42.9,20-42.9,44.5s18.9,44.5,42.9,44.5,24.3-5.8,31.9-14.7l10.9,9.3c-10.1,11.9-25.3,19.4-42.9,19.4-32.3,0-57.9-26.2-57.9-58.4"/>
  <path fill="#ffffff" d="M516.6,242.9l-2.3,13.6c-4.1-2-8.3-2.6-11.3-2.6-15.4,0-21.5,16.4-21.5,36.7v28.3h-14.6v-77.3h14.6v17.5c4-13.6,11.4-19.2,21.7-19.2s11.1,1.5,13.4,3"/>
  <path fill="#ffffff" d="M582.5,280c0-16.7-13.6-26.5-26.3-26.5s-25.3,10.9-25.3,26.5,11.3,27,25.3,27,26.3-10.4,26.3-27ZM596.9,241.6v77.3h-14.4v-12.2c-5.1,8.9-16.4,13.9-27.5,13.9-21.2,0-38.7-16.1-38.7-40.4s17.4-40.2,38.6-40.2,22.5,4.6,27.6,13.7v-12.1h14.4Z"/>
  <path fill="#ffffff" d="M748.2,280c0-15.9-11.9-26.5-26.2-26.5s-25.8,10.6-25.8,26.5,11.8,27,25.8,27,26.2-10.9,26.2-27ZM681.6,280c0-24.5,18.4-40.1,40.4-40.1s40.6,15.6,40.6,40.1-18.5,40.6-40.6,40.6-40.4-16.1-40.4-40.6Z"/>
  <path fill="#ffffff" d="M841.9,274.2v44.7h-14.4v-43.9c0-12.9-7.9-20.9-18.7-20.9s-23.7,6.1-23.7,22.8v41.9h-14.4v-77.3h14.4v11.8c4.6-9.4,17.2-13.4,25.7-13.4,19.2,0,31.3,12.6,31.1,34.3"/>
  <path fill="#ffffff" d="M469.7,393.5c0-11.4,9.1-21,20.5-21s12,2.8,15.6,7.3l-4.5,3.6c-2.6-3.2-6.6-5.2-11-5.2-8.2,0-14.6,7-14.6,15.4s6.3,15.2,14.6,15.2,8.5-2.1,11-5.2l4.5,3.6c-3.6,4.5-9.2,7.3-15.6,7.3-11.4,0-20.5-9.4-20.5-20.8h0Z"/>
  <path fill="#ffffff" d="M511.3,393.5c0-11.5,8.9-21,20.4-21s20.5,9.5,20.5,21-9,20.8-20.5,20.8-20.4-9.4-20.4-20.8ZM546.3,393.5c0-8.3-6.2-15.4-14.5-15.4s-14.4,7-14.4,15.4,6.2,15.2,14.4,15.2,14.5-6.9,14.5-15.2Z"/>
  <path fill="#ffffff" d="M584.4,373.2h6v40.4h-5.7l-17.7-29.5v29.5h-6v-40.4h5.9l17.5,29.2v-29.2h0Z"/>
  <path fill="#ffffff" d="M601.5,402h6c.1,3.5,3.3,6.8,8.4,6.8s7.6-3.1,7.6-6.4-3.2-5.3-6.5-6.2l-5.2-1.3c-8.6-2.2-10-7.3-10-10.6,0-7.1,6.3-11.9,13.4-11.9s13,4.6,13,12h-6c0-3.8-3-6.5-7.2-6.5s-7.2,2.5-7.2,6.2.4,3.9,5.5,5.3l5.1,1.4c6.8,1.8,11.1,5.3,11.1,11.2s-5.5,12.2-13.7,12.2-14.4-5.8-14.4-12.3h0Z"/>
  <path fill="#ffffff" d="M639.5,399.7v-26.5h6v26.5c0,6.2,4.1,8.9,8.9,8.9s8.9-2.8,8.9-8.9v-26.5h6v26.5c0,9.3-6.9,14.6-15,14.6s-14.9-5.3-14.9-14.6h0Z"/>
  <path fill="#ffffff" d="M688.5,408.1h16.3v5.5h-22.3v-40.4h6v34.9Z"/>
  <path fill="#ffffff" d="M734.5,373.2v5.5h-12v34.9h-6v-34.9h-12v-5.5h30.1Z"/>
  <path fill="#ffffff" d="M743.5,413.6v-40.4h6v40.4h-6Z"/>
  <path fill="#ffffff" d="M786.4,373.2h6v40.4h-5.7l-17.7-29.5v29.5h-6v-40.4h5.9l17.5,29.2v-29.2Z"/>
  <path fill="#ffffff" d="M802.2,393.5c0-11.5,9-21,20.5-21s10.4,2.2,14,5.6l-4.2,3.9c-2.5-2.3-6-3.9-9.7-3.9-8.2,0-14.4,7.1-14.4,15.4s6.3,15.3,14.5,15.3,12.6-4.5,12.6-10.4h-11.6v-5.2h18.3c0,14.4-7.7,21.2-19.1,21.2s-20.6-9.4-20.6-20.8Z"/>
</svg>