<?xml version="1.0" encoding="UTF-8"?>
<svg version="1.1" xmlns="http://www.w3.org/2000/svg" width="461" height="156">
<path d="M0 0 C1.09914734 -0.01283524 2.19829468 -0.02567047 3.33074951 -0.03889465 C5.13204315 -0.04997505 5.13204315 -0.04997505 6.96972656 -0.0612793 C8.20265442 -0.06935104 9.43558228 -0.07742279 10.70587158 -0.08573914 C13.32880232 -0.09960991 15.95175135 -0.11031857 18.57470703 -0.11816406 C22.55171744 -0.13126492 26.52809943 -0.1790922 30.50488281 -0.22338867 C33.05565796 -0.23352671 35.60644018 -0.24203932 38.15722656 -0.2487793 C39.33379822 -0.26628738 40.51036987 -0.28379547 41.72259521 -0.30183411 C56.65246695 -0.26341777 69.80558733 4.69785908 80.72363281 14.8918457 C90.67081022 25.53005188 94.51099839 38.19304667 94.33105469 52.50756836 C93.77307728 66.47777936 88.24635824 78.25477306 78.23535156 87.98950195 C66.52177021 97.95318853 53.52203404 100.49637412 38.64550781 100.4074707 C36.76828285 100.40678337 36.76828285 100.40678337 34.85313416 100.40608215 C31.55077151 100.40230496 28.24860571 100.38934554 24.94628906 100.37261963 C22.23872091 100.36175734 19.53120316 100.36215222 16.82361698 100.36275768 C13.59756572 100.36242151 10.37154604 100.35359672 7.14550781 100.3449707 C5.92896011 100.34385788 4.71241241 100.34274506 3.45899963 100.34159851 C2.34371384 100.33521866 1.22842804 100.32883881 0.0793457 100.32226562 C-0.90690292 100.31845383 -1.89315155 100.31464203 -2.9092865 100.31071472 C-5.13964844 100.17700195 -5.13964844 100.17700195 -6.13964844 99.17700195 C-6.24029043 96.13834434 -6.27579434 93.12237465 -6.26904297 90.08325195 C-6.27079529 89.1288623 -6.27254761 88.17447266 -6.27435303 87.19116211 C-6.2787733 84.01975718 -6.27583293 80.8484075 -6.27246094 77.67700195 C-6.27313393 75.48364247 -6.27410391 73.29028306 -6.27536011 71.09692383 C-6.27683732 66.493401 -6.27468178 61.88989754 -6.27001953 57.28637695 C-6.26432224 51.370956 -6.26760112 45.45558042 -6.273592 39.54016113 C-6.27719698 35.00902969 -6.27605931 30.4779091 -6.2734642 25.94677734 C-6.27279476 23.7649739 -6.27362395 21.5831695 -6.27594376 19.40136719 C-6.27846926 16.35780206 -6.27463114 13.3143115 -6.26904297 10.27075195 C-6.2710672 9.3595459 -6.27309143 8.44833984 -6.275177 7.50952148 C-6.2497113 0.06334999 -6.2497113 0.06334999 0 0 Z M19.86035156 25.17700195 C11.68398881 33.93149136 9.21742186 41.81692843 9.51269531 53.7434082 C10.43992889 62.90114206 14.99738323 70.7276886 21.74316406 76.8996582 C30.04571577 83.52542005 39.24990894 86.0237135 49.84472656 84.8449707 C60.20323613 82.76521813 68.03151515 77.44097348 73.92285156 68.67700195 C79.09747182 59.67712413 80.34678736 50.36170187 77.86035156 40.23950195 C74.69442148 30.88896427 68.87387892 23.99050554 60.25488281 19.2980957 C46.51706782 12.86619863 30.99217592 14.16750533 19.86035156 25.17700195 Z " fill="#FFFFFF" transform="translate(34.1396484375,27.822998046875)"/>
<path d="M0 0 C0.99398804 0.00012085 0.99398804 0.00012085 2.00805664 0.00024414 C3.98978824 -0.00191018 5.97148085 -0.02032122 7.953125 -0.0390625 C19.85274664 -0.0571562 29.61650988 0.55815123 38.77929688 8.68164062 C47.27234409 17.53564234 48.18622181 29.50046096 48.09179688 41.18554688 C47.45224137 50.29921284 44.62216956 59.32286416 37.71679688 65.62304688 C30.67625446 71.04120343 23.37668613 72.31082475 14.63867188 72.31835938 C13.93784485 72.3193161 13.23701782 72.32027283 12.51495361 72.32125854 C11.04252024 72.32193603 9.57008381 72.320112 8.09765625 72.31591797 C5.8352193 72.31053121 3.57297796 72.31589396 1.31054688 72.32226562 C-0.12174523 72.3216054 -1.55403722 72.32032539 -2.98632812 72.31835938 C-4.28989258 72.31723145 -5.59345703 72.31610352 -6.93652344 72.31494141 C-9.90820312 72.18554688 -9.90820312 72.18554688 -10.90820312 71.18554688 C-11.0077659 69.01292007 -11.03620031 66.83701581 -11.03759766 64.66210938 C-11.03934998 63.9808197 -11.04110229 63.29953003 -11.04290771 62.59759521 C-11.04732555 60.33522021 -11.0443885 58.07292274 -11.04101562 55.81054688 C-11.04168868 54.24495427 -11.04265873 52.67936177 -11.04391479 51.11376953 C-11.04539167 47.82844043 -11.04323754 44.54313846 -11.03857422 41.2578125 C-11.03287693 37.03734171 -11.03615599 32.81693451 -11.04214668 28.59646606 C-11.04575257 25.36238116 -11.04461358 22.12831143 -11.04201889 18.89422607 C-11.0413497 17.33762606 -11.04217778 15.78102469 -11.04449844 14.22442627 C-11.04702542 12.05257492 -11.04318377 9.88082791 -11.03759766 7.70898438 C-11.03680206 6.47067871 -11.03600647 5.23237305 -11.03518677 3.95654297 C-10.76035452 -2.04075762 -4.81707486 0.02217579 0 0 Z M0.09179688 10.18554688 C0.09179688 27.34554687 0.09179688 44.50554687 0.09179688 62.18554688 C20.30294249 63.82533006 20.30294249 63.82533006 30.09179688 58.18554688 C36.6174392 50.66687202 37.50166091 43.42500814 37.34570312 33.63085938 C36.82490189 26.56398725 34.59050252 20.7125281 30.09179688 15.18554688 C19.8809714 7.47533172 15.83192754 10.18554688 0.09179688 10.18554688 Z " fill="#FFFFFF" transform="translate(179.908203125,41.814453125)"/>
<path d="M0 0 C0.495 0.495 0.495 0.495 1 1 C1.66 -0.32 2.32 -1.64 3 -3 C5.97 -3 8.94 -3 12 -3 C12.1273463 4.79197634 12.21458062 12.58368179 12.2746582 20.37646484 C12.29971759 23.02435332 12.33377435 25.67217322 12.37719727 28.31982422 C12.43822279 32.13786804 12.46629732 35.95499294 12.48828125 39.7734375 C12.51408768 40.94675629 12.5398941 42.12007507 12.56648254 43.32894897 C12.56904014 50.916674 11.38172037 56.69229016 7 63 C1.89165807 68.09096987 -3.98794521 69.9597789 -11.1171875 70.03125 C-19.44030868 69.64681022 -26.1289777 68.39425494 -31.9375 62.125 C-34.05853178 58.91131548 -34.72825928 56.80437004 -35 53 C-24.99105173 52.21120373 -24.99105173 52.21120373 -20.9375 55.4375 C-20.298125 56.283125 -19.65875 57.12875 -19 58 C-15.30514298 59.84742851 -11.04130195 59.33783754 -7 59 C-2.96547741 57.54070459 -2.20655634 56.39174479 -0.1875 52.5625 C1.21081851 48.99341192 1.21081851 48.99341192 1 45 C0.0925 45.639375 -0.815 46.27875 -1.75 46.9375 C-7.00157402 50.27022967 -11.88480576 50.56324158 -18 50 C-24.49612227 48.4223703 -29.11073735 45.48303092 -33.1875 40.125 C-38.11812695 31.62391905 -38.37385735 21.43327214 -36.34765625 11.9453125 C-33.99755674 5.3085508 -30.2457858 1.27886054 -24.0859375 -2.02734375 C-15.46189811 -5.75526516 -8.05203064 -4.47534739 0 0 Z M-23 10 C-26.86366605 15.32919456 -27.67192513 20.4762178 -27 27 C-25.31825619 32.2222571 -23.12717067 35.40195378 -19 39 C-15.5259169 40.73704155 -11.79843331 40.46041616 -8 40 C-3.58497559 37.7924878 -0.85788231 35.59581415 1 31 C2.4533355 23.93611351 2.52635978 17.44935001 -1 11 C-4.57908715 7.50820766 -7.29016865 5.84776666 -12.25 5.6875 C-16.89750989 5.74727505 -19.4517073 6.8741231 -23 10 Z " fill="#FFFFFF" transform="translate(297,65)"/>
<path d="M0 0 C3.3 0 6.6 0 10 0 C10 23.76 10 47.52 10 72 C7.03 72 4.06 72 1 72 C0.34 70.68 -0.32 69.36 -1 68 C-1.61746094 68.3609375 -2.23492187 68.721875 -2.87109375 69.09375 C-9.59445074 72.77778123 -14.56075666 74.23803673 -22.09375 72.5234375 C-28.73046994 70.40479229 -34.02070889 66.36425777 -37.4375 60.25 C-40.54891248 52.28207847 -40.41349565 41.94422733 -38.08203125 33.7890625 C-35.02043739 27.19028737 -30.89163559 23.08730468 -24.1875 20.1875 C-16.67141819 17.70119157 -10.79142811 18.61665201 -3.75 22.02734375 C-2 23 -2 23 -1 24 C-0.67 16.08 -0.34 8.16 0 0 Z M-25 33 C-28.87196354 38.34063937 -29.6506848 43.46949074 -29 50 C-27.72596 55.5375597 -25.90770464 58.85403549 -21 62 C-17.52326295 63.73836852 -13.80129202 63.45436319 -10 63 C-5.05332989 60.61826995 -2.84566751 58.14844095 -1 53 C0.58410815 46.49164868 0.0566605 40.99709817 -3 35 C-6.71169171 30.58766346 -6.71169171 30.58766346 -11.953125 28.76171875 C-17.50239994 28.58240544 -20.67028332 29.18572578 -25 33 Z " fill="#FFFFFF" transform="translate(356,42)"/>
<path d="M0 0 C2.1346875 0.0309375 2.1346875 0.0309375 4.3125 0.0625 C4.3125 3.3625 4.3125 6.6625 4.3125 10.0625 C0.6015625 10.35546875 0.6015625 10.35546875 -3.109375 10.6484375 C-5.72291395 11.06818769 -7.45080011 11.666406 -9.6875 13.0625 C-13.46304228 18.37622617 -13.81963892 22.81134233 -14.00390625 29.234375 C-14.02468735 29.9167926 -14.04546844 30.59921021 -14.06687927 31.30230713 C-14.13202052 33.47227356 -14.19109404 35.64235624 -14.25 37.8125 C-14.29321897 39.28777221 -14.33683432 40.76303287 -14.38085938 42.23828125 C-14.48766518 45.84623166 -14.58903153 49.45431133 -14.6875 53.0625 C-17.9875 53.0625 -21.2875 53.0625 -24.6875 53.0625 C-24.6875 35.9025 -24.6875 18.7425 -24.6875 1.0625 C-21.7175 1.0625 -18.7475 1.0625 -15.6875 1.0625 C-15.0275 2.3825 -14.3675 3.7025 -13.6875 5.0625 C-12.759375 4.423125 -11.83125 3.78375 -10.875 3.125 C-7.00282592 0.6194756 -4.50824065 -0.06533682 0 0 Z " fill="#FFFFFF" transform="translate(428.6875,60.9375)"/>
<path d="M0 0 C3.3 0 6.6 0 10 0 C11 1 11 1 11.12025452 3.05641174 C11.1169236 4.41209511 11.1169236 4.41209511 11.11352539 5.79516602 C11.11344986 6.81614883 11.11337433 7.83713165 11.11329651 8.88905334 C11.10813522 9.9994548 11.10297394 11.10985626 11.09765625 12.25390625 C11.0962413 13.38448959 11.09482635 14.51507294 11.09336853 15.67991638 C11.08775019 19.30747065 11.07519458 22.93496424 11.0625 26.5625 C11.05748736 29.01497307 11.05292405 31.4674471 11.04882812 33.91992188 C11.0377748 39.94663813 11.02049788 45.97330876 11 52 C7.37 52 3.74 52 0 52 C0 34.84 0 17.68 0 0 Z " fill="#FFFFFF" transform="translate(380,62)"/>
<path d="M0 0 C3.3 0 6.6 0 10 0 C11 1 11 1 11.12025452 3.05641174 C11.1169236 4.41209511 11.1169236 4.41209511 11.11352539 5.79516602 C11.11344986 6.81614883 11.11337433 7.83713165 11.11329651 8.88905334 C11.10813522 9.9994548 11.10297394 11.10985626 11.09765625 12.25390625 C11.0962413 13.38448959 11.09482635 14.51507294 11.09336853 15.67991638 C11.08775019 19.30747065 11.07519458 22.93496424 11.0625 26.5625 C11.05748736 29.01497307 11.05292405 31.4674471 11.04882812 33.91992188 C11.0377748 39.94663813 11.02049788 45.97330876 11 52 C7.37 52 3.74 52 0 52 C0 34.84 0 17.68 0 0 Z " fill="#FFFFFF" transform="translate(239,62)"/>
<path d="M0 0 C1.50046875 0.00386719 1.50046875 0.00386719 3.03125 0.0078125 C4.0315625 0.00523438 5.031875 0.00265625 6.0625 0 C8.53125 0.1328125 8.53125 0.1328125 9.53125 1.1328125 C9.67480117 5.13501903 9.57341403 9.12722933 9.53125 13.1328125 C5.24125 13.1328125 0.95125 13.1328125 -3.46875 13.1328125 C-3.56640625 3.85546875 -3.56640625 3.85546875 -3.46875 1.1328125 C-2.46875 0.1328125 -2.46875 0.1328125 0 0 Z " fill="#FFFFFF" transform="translate(382.46875,41.8671875)"/>
<path d="M0 0 C1.50046875 0.00386719 1.50046875 0.00386719 3.03125 0.0078125 C4.0315625 0.00523438 5.031875 0.00265625 6.0625 0 C8.53125 0.1328125 8.53125 0.1328125 9.53125 1.1328125 C9.67480117 5.13501903 9.57341403 9.12722933 9.53125 13.1328125 C5.24125 13.1328125 0.95125 13.1328125 -3.46875 13.1328125 C-3.56640625 3.85546875 -3.56640625 3.85546875 -3.46875 1.1328125 C-2.46875 0.1328125 -2.46875 0.1328125 0 0 Z " fill="#FFFFFF" transform="translate(241.46875,41.8671875)"/>
</svg>
