<?xml version="1.0" encoding="UTF-8"?>
<svg id="Layer_1" xmlns="http://www.w3.org/2000/svg" version="1.1" viewBox="0 0 169.1 116.3">
  <!-- Generator: Adobe Illustrator 29.3.1, SVG Export Plug-In . SVG Version: 2.1.0 Build 151)  -->
  <defs>
    <style>
      .st0 {
        fill: #ffffff;
      }
    </style>
  </defs>
  <path class="st0" d="M163,58.1c-1-.8-2.1-1.6-3.4-2.2l-.3-.2.3-.2c2.3-2,5-5.9,5-12.4,0-6.1-2.1-10.6-6.2-13.4-3.5-2.5-8.3-3.7-14.7-3.7h-18.4c-1.1,0-1.9.9-1.9,2v60.4c.1,1.1,1,1.9,2.1,1.9h21c6.6,0,12-1.5,15.8-4.3,2.2-1.6,4-3.7,5.1-6.2,1.2-2.5,1.8-5.5,1.8-8.8,0-5.1-2.2-9.7-6.1-12.8ZM129.4,32h14.4c5.1,0,8.8.8,11.3,2.5,1.5,1.1,3.6,3.2,3.7,8.6,0,9.6-7.6,10.4-9.9,10.4h-19.4s0-21.5,0-21.5ZM146.5,84.2h-17s0-24.8,0-24.8h19.4c8.4,0,14.3,4.7,14.3,11.5,0,3.3,0,13.3-16.7,13.3Z"/>
  <path class="st0" d="M40.9,35.7c-2.7-3.3-6.2-5.8-10.2-7.5-3.5-1.4-7.3-2.1-11.3-2.1H1.9C.9,26.2,0,27.1,0,28.2v60.4c.1,1.1,1,1.9,2.1,1.9h17.5c4,0,7.8-.7,11.3-2.2,4-1.6,7.4-4.1,10.1-7.5,6.2-7.6,7.1-17.2,7.1-22.2,0-4.3-.7-15.1-7.2-22.9ZM36.3,77c-5,6.1-11.9,7.4-16.8,7.4H6.1s0-52.2,0-52.2h13.4c4.9,0,11.8,1.2,16.8,7.3,5.3,6.5,5.8,16.3,5.8,19.1,0,4.2-.7,12.3-5.7,18.4Z"/>
  <path class="st0" d="M108.9,0l.2,88.7c0,.8-.5,1.5-1.2,1.7-.2,0-.4.1-.6.1-.6,0-1.1-.3-1.5-.8l-39.6-50.3v76.8c.1,0-5.9,0-5.9,0l-.2-88.9c0-.8.5-1.5,1.3-1.7.2,0,.4,0,.6,0,.6,0,1.1.2,1.5.7l39.6,50.3V0c-.1,0,5.8,0,5.8,0Z"/>
</svg>