<svg xmlns="http://www.w3.org/2000/svg" id="Layer_1" version="1.1"
     viewBox="0 0 138.8 42">  <!-- Generator: Adobe Illustrator 29.3.1, SVG Export Plug-In . SVG Version: 2.1.0 Build 151)  -->
    <g id="Layer_2">
        <g id="Layer_1-2">
            <g id="Group_1">
                <g id="Group_8">
                    <g id="Group_6">
                        <path fill="#ffffff" id="Path_18"
                              d="M54,4h11.6c.1,0,.2.1.2.2v2.3c0,.1-.1.2-.2.2h-8.5c-.1,0-.2.1-.2.2h0v3.8c0,.1.1.2.2.2h7.4c.1,0,.2.1.2.2v2.3c0,.1-.1.2-.2.2h-7.4c-.1,0-.2.1-.2.2h0v3.9c0,.1.1.2.2.2h8.5c.1,0,.2.1.2.2v2.4c0,.1-.1.2-.2.2h-11.6c-.1,0-.2-.1-.2-.2h0V4.3c0-.1,0-.2.2-.3,0,0,0,0,0,0Z"></path>
                        <path fill="#ffffff" id="Path_19"
                              d="M69.1,4h2.7c.1,0,.2.1.2.2h0v13.9c0,.1.1.2.2.2h8.2c.1,0,.2.1.2.2v2.3c0,.1-.1.2-.2.2h-11.4c-.1,0-.2-.1-.2-.2V4.3c0-.1,0-.2.2-.3,0,0,0,0,0,0Z"></path>
                        <path fill="#ffffff" id="Path_20"
                              d="M97,11.7v4.9c0,3.4-1.5,4.7-4.6,4.7h-3.4c-3.1,0-4.6-1.3-4.6-4.7v-4.9c0-3.4,1.6-4.7,4.6-4.7h3.3c3.1,0,4.7,1.3,4.7,4.7ZM94,16.6v-5.1c0-1.5-.6-2-2.1-2h-2.4c-1.4,0-2,.5-2,2v5.1c0,1.5.6,2,2,2h2.4c1.5,0,2.1-.5,2.1-2Z"></path>
                        <path fill="#ffffff" id="Path_21"
                              d="M111.6,20.8c0,3.4-1.5,4.2-4.6,4.2-2.1,0-4.1-.1-6.2-.3-.1,0-.2-.1-.2-.2v-1.7c0-.1.1-.2.2-.2,0,0,0,0,0,0h5.6c1.4,0,2-.5,2-2v-1.2c-1.1.7-2.4,1.1-3.8,1.2h-.9c-3,0-4.5-.7-4.5-4.1v-5.3c0-3.3,1.5-4,4.5-4.1h.8c1.4.1,2.7.5,3.9,1.2v-.9c0-.1.1-.2.2-.2h2.6c.1,0,.2.1.2.2v13.3ZM102.4,16c0,1.5.6,1.9,2,1.9h.7c1.2-.1,2.3-.4,3.4-.9v-6.4c-1.1-.4-2.2-.7-3.4-.9h-.7c-1.4,0-2,.4-2,1.9v4.4Z"></path>
                        <path fill="#ffffff" id="Path_22"
                              d="M121.8,21.1h-2.7c-.1,0-.2,0-.2-.2,0,0,0,0,0,0h0V4.3c0-.1.1-.2.2-.2h2.7c.1,0,.2.1.2.2h0v16.6c0,.1,0,.2-.2.2,0,0,0,0,0,0Z"></path>
                        <path fill="#ffffff" id="Path_23"
                              d="M138.4,6.7h-5c-.1,0-.2.1-.2.2h0v13.9c0,.1,0,.2-.2.2,0,0,0,0,0,0h-2.6c-.1,0-.2,0-.2-.2,0,0,0,0,0,0h0V7c0-.1-.1-.2-.2-.2h-5c-.1,0-.2,0-.2-.2,0,0,0,0,0,0h0v-2.2c0-.1.1-.2.2-.2h13.6c.1,0,.2.1.2.2h0v2.2c0,.1-.1.2-.2.2h0Z"></path>
                    </g>
                    <g id="Group_7">
                        <path fill="#ffffff" id="Path_24" d="M53.7,26.5h8v1.5h-6.3v3.7h5.5v1.5h-5.5v5h-1.7v-11.7Z"></path>
                        <path fill="#ffffff" id="Path_25"
                              d="M71.1,31.7v3.6c0,2.3-1,3-3.1,3h-2.1c-2,0-3-.8-3-3v-3.6c0-2.2,1-3,3-3h2.1c2,0,3.1.8,3.1,3ZM69.5,35.2v-3.6c0-1.2-.5-1.6-1.7-1.6h-1.7c-1.2,0-1.6.4-1.6,1.6v3.6c0,1.2.4,1.6,1.6,1.6h1.7c1.2,0,1.7-.4,1.6-1.6Z"></path>
                        <path fill="#ffffff" id="Path_26"
                              d="M73.2,28.8h1.7v1c.8-.6,1.8-.9,2.8-1.1h1.1v1.5h-1.4c-.9,0-1.7.3-2.5.8v7.3h-1.6v-9.5Z"></path>
                        <path fill="#ffffff" id="Path_27"
                              d="M80.2,25.9h1.6v3.6c.9-.5,1.8-.8,2.8-.9h.6c2,0,3,.5,3,2.7v4.2c0,2.2-1,2.7-3,2.7h-.6c-1-.1-1.9-.4-2.8-.9v.8h-1.6v-12.3ZM81.8,36.2c.8.3,1.7.6,2.5.7h.6c1.2,0,1.7-.3,1.7-1.5v-3.7c0-1.2-.5-1.5-1.7-1.5h-.6c-.9.1-1.7.3-2.5.7v5.3Z"></path>
                        <path fill="#ffffff" id="Path_28"
                              d="M98.3,38.2h-1.7v-.8c-.9.5-1.9.8-2.9.9h-.6c-2,0-3-.4-3-2.7v-6.9h1.7v6.6c0,1.2.4,1.5,1.6,1.5h.5c.9-.1,1.8-.3,2.6-.7v-7.4h1.6v9.5Z"></path>
                        <path fill="#ffffff" id="Path_29"
                              d="M100.6,28.8h1.7v.8c.9-.5,1.8-.8,2.8-.9h.6c2,0,3,.4,3,2.7v6.9h-1.6v-6.6c0-1.2-.5-1.5-1.6-1.5h-.6c-.9.1-1.7.3-2.5.7v7.4h-1.6v-9.5Z"></path>
                        <path fill="#ffffff" id="Path_30"
                              d="M117,25.9h1.7v12.3h-1.7v-.8c-.9.5-1.8.8-2.8.9h-.6c-2,0-3-.5-3-2.7v-4.2c0-2.2,1-2.7,3-2.7h.6c1,0,1.9.4,2.8.9v-3.6ZM117,36.1v-5.3c-.8-.4-1.6-.6-2.5-.7h-.6c-1.2,0-1.6.3-1.6,1.5v3.7c0,1.2.5,1.5,1.6,1.5h.6c.9-.1,1.7-.3,2.5-.7h0Z"></path>
                        <path fill="#ffffff" id="Path_31"
                              d="M128.3,38.1s-1.9.2-4.4.2-3-.5-3-2.8v-3.8c0-1.9,1.2-3,3.2-3h1.9c1.5-.2,2.8.8,3,2.3,0,.2,0,.5,0,.7v2.5c0,.1,0,.2-.2.2h-6.4v.9c0,1.5.3,1.6,1.6,1.6h4.3v1.2ZM127.4,32c0-1.7-.5-2-1.8-2h-1.3c-1.3,0-1.9.3-1.9,2v1.1h5v-1.1Z"></path>
                        <path fill="#ffffff" id="Path_32"
                              d="M130.1,28.7h1.4v-2.2h1.6v2.3h2.7v1.4h-2.7v5.5c0,.9.2,1.2,1,1.2h1.8v1.1c-.8.1-1.6.2-2.4.3-1.7,0-2.1-1-2.1-2.4v-5.7h-1.4v-1.4Z"></path>
                    </g>
                </g>
                <path fill="#ffffff" id="Path_33"
                      d="M42.7,21.1c0-2.3-1-4.3-2.6-5-.2-2.3-.6-4.6-1.2-6.8,1.4,0,1.7-1.1,1.1-2.6-.9-1.8-2.4-3.3-4.3-4.1-1.6-.6-2.8-.2-2.6,1.2-2.2-.5-4.4-.9-6.6-1.1C25.8,1,23.8,0,21.4,0s-4.4,1-5,2.6c-2.2.2-4.5.5-6.7,1,.1-1.4-1.1-1.8-2.7-1.2-1.9.8-3.4,2.3-4.3,4.1-.7,1.6-.2,2.7,1.3,2.6-.5,2.2-.9,4.4-1.2,6.6-1.7.7-2.8,2.7-2.8,5.1s1.1,4.5,2.8,5.1c.2,2.4.6,4.8,1.2,7.1-1.5-.1-2,1.1-1.3,2.6.9,1.8,2.4,3.3,4.3,4.1,1.6.6,2.8.2,2.6-1.3,2.2.5,4.4.8,6.7,1,.7,1.6,2.7,2.6,5,2.6s4.4-1,5-2.6c2.2-.2,4.5-.6,6.7-1.1,0,1.4,1.1,1.8,2.7,1.2,1.9-.8,3.4-2.3,4.3-4.2.7-1.5.3-2.7-1.1-2.7.5-2.2.9-4.4,1.1-6.7,1.7-.7,2.7-2.6,2.7-5ZM37.7,33.1c-1.8.9-3.3,2.3-4.2,4.2-2.3.5-4.5.8-6.8,1-.1-1.6-1.7-2.9-4-3.3,0-2.3.1-4.9.1-7.8,2.5-.5,4.4-2.5,4.9-5,2.9,0,5.5,0,7.7-.1.3,2.5,1.7,4.1,3.4,4.3-.2,2.3-.6,4.5-1.1,6.7h0ZM5.2,33.5c-.6-2.4-.9-4.8-1.2-7.3,1.6-.2,2.9-1.8,3.3-4,2.3,0,4.9,0,7.8.1.5,2.6,2.6,4.6,5.2,5,0,2.9,0,5.5,0,7.8-2.5.3-4.2,1.7-4.3,3.3-2.3-.2-4.6-.5-6.9-1-.9-1.7-2.3-3-4-3.8h0ZM9.4,4.9c2.3-.5,4.6-.8,6.9-1,.2,1.5,1.9,2.9,4.3,3.2,0,2.2,0,4.8,0,7.6-2.7.4-4.8,2.5-5.3,5.2-2.9,0-5.5,0-7.8.1-.3-2.5-1.6-4.2-3.3-4.4.2-2.3.6-4.6,1.1-6.8,1.8-.8,3.2-2.3,4.1-4h0ZM37.7,9c.5,2.3.9,4.6,1.1,6.9-1.6.1-3,1.7-3.4,4.1-2.3,0-4.8,0-7.7-.1-.4-2.6-2.4-4.7-5-5.2,0-2.9,0-5.4-.1-7.7,2.3-.3,3.8-1.6,4-3.1,2.3.2,4.6.5,6.8,1,.9,1.8,2.4,3.2,4.2,4h0ZM17.4,20.9c0-2.2,1.8-4,4-4s4,1.8,4,4-1.8,4-4,4-4-1.8-4-4ZM18.2,3.1c.1-1.2,1.5-2.1,3.2-2.1s3.1.9,3.2,2.1c.1,1.2-1.3,2.3-3.2,2.3s-3.3-1.1-3.2-2.3ZM18.2,39c0-1.3,1.3-2.3,3.3-2.4s3.3,1.1,3.2,2.4-1.5,2.1-3.3,2.1-3.1-.9-3.2-2.1h0ZM34.8,37.4c.6-1.4,1.6-2.4,3-2.9,1.2-.3,1.7.4,1.2,1.5-.5,1.2-1.5,2.1-2.7,2.7-1.2.4-1.8,0-1.5-1.2h0ZM37,21.1c0-1.9,1.1-3.3,2.4-3.3s2.1,1.5,2.2,3.3-.9,3.1-2.2,3.3-2.3-1.3-2.4-3.3ZM34.7,4.7c-.4-1.2.3-1.6,1.5-1.2,1.2.5,2.2,1.5,2.7,2.6.5,1.1,0,1.8-1.2,1.5-1.3-.5-2.4-1.6-3-2.9ZM3.7,6.1c.6-1.2,1.6-2.1,2.8-2.6,1.2-.4,1.9,0,1.5,1.2-.6,1.3-1.6,2.4-3,2.9-1.2.3-1.7-.4-1.2-1.5h0ZM1.1,20.9c0-1.8.9-3.2,2.2-3.3,1.3-.1,2.4,1.3,2.4,3.3s-1.1,3.4-2.4,3.3-2.2-1.5-2.2-3.3ZM3.8,36.3c-.5-1.1,0-1.8,1.2-1.5,1.4.5,2.4,1.6,3,2.9.4,1.2-.3,1.6-1.5,1.2-1.2-.5-2.2-1.5-2.8-2.6h0Z"></path>
            </g>
        </g>
    </g>
</svg>