<svg width="1274" height="282" viewBox="0 0 1274 282" fill="none" xmlns="http://www.w3.org/2000/svg">
    <path d="M432.8 119.2C425.9 112.6 416.7 108.9 407.1 109.1C389.8 109.1 376.8 122.8 376.8 140.6C376.8 158.4 390 172.1 407.9 172.1C425.8 172.1 425.1 169.8 431 166V148.7H405.2V135.7H445.2V172.9C436.7 180.7 421.2 185.6 407.9 185.6C382.2 185.6 362.2 165.6 362.2 140.7C362.1 116 382 95.9 406.7 95.8H407.1C421.2 95.8 433.4 100.8 442.2 109.2L432.8 119.2ZM487.6 146.7V170.2H538.9V183.3H473.2V97.9H538.9V111H487.6V133.7H531V146.8H487.6V146.7ZM591.4 97.9H607L635.8 166.1L664.6 97.9H679.5L642.9 183.3H628L591.4 97.9ZM712.8 146.7V170.2H764.1V183.3H698.4V97.9H764.1V111H712.8V133.7H756.2V146.8H712.8V146.7ZM849 183.3L830.5 151.2H805.4V183.3H791V97.9H836.5C853.2 97.9 865.6 109.4 865.6 124.6C865.6 139.8 857.6 146.6 845.9 150L865.6 183.3H849ZM851 124.6C851 116.1 845.5 110.9 836.5 110.9H805.4V138.1H836.5C845.5 138.1 851 133 851 124.6ZM893.2 97.9H908.3L956.1 161.2V97.9H970.2V183.3H955.7L907.3 119.6V183.3H893.2V97.9ZM995.9 140.6C995.9 115.7 1016 95.5 1040.9 95.4C1065.8 95.4 1086 115.5 1086.1 140.4C1086.1 165.3 1066 185.5 1041.1 185.6C1016.3 185.7 996.1 165.7 996 140.9V140.6H995.9ZM1071.5 140.6C1071.5 122.8 1058.2 109.1 1041 109.1C1023.8 109.1 1010.5 122.8 1010.5 140.6C1010.5 158.4 1023.8 172.2 1041 172.2C1058.2 172.2 1071.5 158.4 1071.5 140.6ZM1096.6 97.9H1112.2L1141 166.1L1169.8 97.9H1184.7L1148.1 183.3H1133.2L1096.6 97.9ZM1274 183.3H1258.5L1249.5 161.8H1209L1200 183.3H1185.3L1221.9 97.9H1237.5L1274 183.3ZM1244 148.8L1229.3 113.4L1214.6 148.8H1244ZM172.1 104C172.1 88 182.9 72.5 188.8 75.4C195.5 78.8 183.7 93.9 172.1 104ZM98.5 109.9C98.5 97 111.2 72.6 118.9 75.2C128.1 78.2 111.3 102.8 98.5 109.9ZM85.6 201.8C79.8 202.1 75.9 198.3 75.9 192.1C75.9 175.3 99.1 159.4 116.6 150.8C113.5 174.2 105.6 200.9 85.6 201.8ZM192.7 147.3C179.5 147.3 169.3 157 169.3 168.7C169.3 180.4 175.1 186.2 182.9 186.2C190.7 186.2 188.3 184.6 188.3 181.1C188.3 176 181.6 174.8 182.1 167.2C182.4 162.2 187.1 158.9 191.8 158.9C201.1 158.9 205.5 168 205.5 177.3C205.1 191.7 194.5 201.7 182.1 201.7C169.7 201.7 155.3 186.1 155.3 169.4C155.3 144.5 171.6 134.7 180.2 132.4C180.3 132.4 202.6 136.4 201.9 126.5C201.6 122.2 195.2 120.5 190.5 120.3C187 120.3 183.5 120.8 180.1 122C177.3 120.4 175.3 117.9 174.3 114.8C190.3 102.7 201.5 91 201.5 77.8C201.5 64.6 196.8 64.6 187.9 64.6C171.9 64.6 159.9 84.9 159.9 103.2C159.8 106.2 160 109.2 160.7 112.2C150.6 119.6 143.1 124.2 129.4 132.4C129.6 128.4 130.1 124.5 130.9 120.6C135.6 115.5 142 108 142 102.1C142 96.2 140.4 97 137.3 97C129.5 97 123.7 108.7 122.1 116.9C118.6 121.2 111.6 126.6 105.7 126.6C99.8 126.6 99.5 122.3 99.1 120.8C113.9 115.7 132.2 95.5 132.2 77.2C132.2 58.9 130.6 64.7 119 64.7C101.5 64.7 86.7 90.8 86.7 111.1C80.5 111.1 78.1 104.5 78.1 99.4C78.1 94.3 80 89.3 80 87.7C80 86.1 79.2 84.2 76.9 84.2C71.1 84.2 67.6 92 67.6 101C68 113.5 76.2 121.3 87.1 122C88.7 129.4 95.3 136.4 103.5 136.4C111.7 136.4 114.8 134.8 119.1 130.9C118.7 133.6 118.3 136 117.9 138.3C100.8 147.3 88.3 153.5 77 163.6C68.1 171.8 63 182.7 63 191.3C63 199.9 70.4 213.9 85.6 213.9C100.8 213.9 117.1 199.5 123.7 179.6C126.8 170.2 128.1 156.6 128.8 144.2C141.1 137.4 153.1 129.8 164.5 121.6C165.5 123.4 166.8 125 168.4 126.3C160.2 130.6 140.8 142.7 140.8 171.1C140.8 199.5 154.4 214 181.3 214C208.2 214 218.7 195.7 218.7 178.2C218.7 162 209.8 147.2 192.7 147.3ZM259.6 180.7C259.5 180.8 259.3 181 258.9 180.9C258.6 180.8 258.5 180.6 258.5 180.4C261.5 170.7 263.1 160.6 263.2 150.4C263.1 133.3 256.2 122.7 247.2 122.7C238.2 122.7 237.9 126.6 237.9 132.4C237.9 142.9 250.7 143.7 250.7 166.7C250.7 189.7 248.8 185 245.6 194.8C231.2 243.5 185.3 266.1 140.5 266.1C95.7 266.1 105.2 261.9 100.8 259.9C100.6 259.7 100.5 259.4 100.6 259.1C100.6 258.8 101 258.6 101.2 258.7C110.9 261.8 121 263.4 131.1 263.4C148.2 263.4 158.4 256.4 158.4 247.8C158.4 239.2 154.2 238.1 148.8 238.1H148.6C138.1 238.1 137.3 251.3 114.7 251.3C92.1 251.3 96.4 249.4 86.3 246.2C38 231.4 15 185.8 15.1 140.6C15.1 127.1 17.2 113.7 21.4 100.9C21.6 100.7 21.9 100.7 22.1 100.9C22.4 100.9 22.5 101.3 22.5 101.4C19.5 111.1 17.9 121.2 17.8 131.4C17.8 148.5 24.8 158.7 33.8 158.7C38.9 158.8 43.1 154.7 43.1 149.6V149.4C43.1 138.9 30.3 137.7 30.3 115.1C30.3 92.5 32.2 96.8 35.4 86.7C50.2 38.3 95.7 15.6 140.5 15.3C161.3 15.1 179.5 21.4 180.2 21.9C180.4 22.1 180.4 22.4 180.3 22.6C180.2 23 179.9 23 179.8 23C179.6 23 167.7 18 149.8 18C131.9 18 122.6 25 122.6 34C122.6 43 126.7 43.3 131.9 43.4H132.4C142.9 43.4 143.7 30.5 166.3 30.5C188.9 30.5 184.6 32.4 194.7 35.6C243.4 50.4 265.5 96.4 265.9 140.8C265.9 154.2 263.9 167.8 259.6 180.7ZM140.5 6.6C66.5 6.5 6.5 66.5 6.4 140.5C6.3 214.5 66.3 274.6 140.3 274.6C214.3 274.7 274.4 214.7 274.4 140.7C274.4 66.7 214.5 6.7 140.5 6.6ZM140.5 281.3C62.8 281.1 3.05794e-07 218 0.2 140.3C0.5 62.9 63.2 0.2 140.5 0C218 0 281.1 63.1 281.1 140.6C281.1 218.1 218 281.3 140.5 281.3Z" fill="#ffffff"/>
</svg>
