<svg xmlns="http://www.w3.org/2000/svg" id="Layer_2" version="1.1"
     viewBox="0 0 376 123.3">  <!-- Generator: Adobe Illustrator 29.3.1, SVG Export Plug-In . SVG Version: 2.1.0 Build 151)  -->
    <g id="Layer_1-2">
        <path fill="#ffffff" id="path2998"
              d="M92.4,43.5h-43.9v13h31.1c-1.5,18.3-16.7,26-31.1,26S14.3,68.2,14.3,47.9,29.5,13.1,48.7,13.1s23.5,9.4,23.5,9.4l9.1-9.4S69.5,0,48.2,0,0,22.9,0,47.7s19.8,47.9,48.9,47.9,44.3-17.5,44.3-43.5-.8-8.6-.8-8.6h0Z"></path>
        <path fill="#ffffff" id="path3000"
              d="M128.4,34.1c-18,0-30.9,14.1-30.9,30.5s12.5,31,31.1,31,30.6-12.9,30.6-30.6-16.1-30.8-30.9-30.8h0ZM128.6,46.2c8.9,0,17.2,7.2,17.2,18.7s-8.4,18.7-17.3,18.7-17.6-7.9-17.6-18.7,7.6-18.6,17.6-18.6h0Z"></path>
        <path fill="#ffffff" id="path3005"
              d="M195.6,34.1c-18,0-30.9,14.1-30.9,30.5s12.5,31,31.1,31,30.6-12.9,30.6-30.6-16.1-30.8-30.9-30.8h0ZM195.8,46.2c8.9,0,17.2,7.2,17.2,18.7s-8.4,18.7-17.3,18.7-17.6-7.9-17.6-18.7,7.6-18.6,17.6-18.6h0Z"></path>
        <path fill="#ffffff" id="path3007"
              d="M261.5,34.1c-16.5,0-29.5,14.5-29.5,30.7s15.1,30.8,29.2,30.8,13.4-3.5,16.9-7.5v6.1c0,10.6-6.4,17-16.2,17s-14.1-7-15.7-10.9l-11.8,4.9c4.2,8.9,12.6,18.1,27.7,18.1s29-10.3,29-32.1v-55.2h-12.9v5.2c-4-4.3-9.4-7.1-16.6-7.1h0ZM262.7,46.2c8.1,0,16.4,6.9,16.4,18.7s-8.3,18.6-16.6,18.6-17-7.2-17-18.5,8.5-18.8,17.2-18.8h0Z"></path>
        <path fill="#ffffff" id="path3011"
              d="M348.3,34.1c-15.6,0-28.7,12.4-28.7,30.7s14.6,30.8,30.2,30.8,21-7.1,25.8-13.5l-10.6-7.1c-2.8,4.3-7.4,8.5-15.1,8.5s-12.6-4.7-15.1-9.3l41.2-17.1-2.1-5c-4-9.8-13.3-18-25.6-18h0ZM348.8,45.9c5.6,0,9.7,3,11.4,6.6l-27.5,11.5c-1.2-8.9,7.2-18.1,16.1-18.1h0Z"></path>
        <path fill="#ffffff" id="path3015" d="M300,93.8h13.5V3.2h-13.5v90.6Z"></path>
    </g>
</svg>