<svg xmlns="http://www.w3.org/2000/svg" xmlns:xlink="http://www.w3.org/1999/xlink" id="Layer_1" version="1.1"
     viewBox="271.8 265.2 297.6 64">  <!-- Generator: Adobe Illustrator 29.3.1, SVG Export Plug-In . SVG Version: 2.1.0 Build 151)  -->
    <path  fill="#ffffff" d="M358.2,305.9c0,.8-.2,1.6-.5,2.2-.3.6-.9,1.2-1.5,1.5-.7.4-1.4.5-2.2.5h-4.2v6.1h5.1c1.9,0,3.6-.4,5.1-1.3,1.5-.8,2.7-2.1,3.6-3.5.9-1.5,1.3-3.2,1.3-5.1v-20.1h-6.6v19.6ZM376,304h13.9v-5.6h-13.9v-6.4h15.4v-5.8h-21.8v30h22.2v-5.8h-15.8s0-6.5,0-6.5ZM393.9,292.2h8.9v24h6.6v-24h8.8v-5.9h-24.4v6s0,0,0,0ZM440.9,301.2c-.5-.3-1.1-.5-1.7-.6.4-.1.9-.3,1.3-.5,1.1-.6,2-1.4,2.6-2.4.6-1,.9-2.2.9-3.5s-.4-2.9-1.2-4.1c-.8-1.2-2-2.1-3.5-2.8-1.5-.7-3.2-1-5.1-1h-13.3v30h13.6c2,0,3.8-.3,5.4-1.1,1.6-.7,2.8-1.7,3.7-2.9.9-1.3,1.3-2.7,1.3-4.3s-.3-2.8-1-4c-.7-1.2-1.7-2.1-2.9-2.7h0s0,0,0,0ZM427.3,291.3h5.9c.8,0,1.5.1,2.2.4.6.3,1.1.7,1.5,1.3.3.5.5,1.2.5,1.9s-.2,1.4-.5,2c-.3.6-.8,1-1.5,1.3-.6.3-1.3.5-2.2.5h-5.9v-7.4h0ZM437.4,309.5c-.4.6-.9,1-1.6,1.3-.7.3-1.5.5-2.4.5h-6.1v-7.7h6.1c.9,0,1.7.2,2.4.5.7.3,1.2.8,1.6,1.4.4.6.6,1.3.6,2s-.2,1.4-.6,2h0ZM467,304.1c1.7-.8,2.9-1.9,3.9-3.4.9-1.4,1.4-3.1,1.4-5s-.4-3.5-1.3-5c-.9-1.4-2.2-2.5-3.8-3.3-1.6-.8-3.5-1.2-5.7-1.2h-13.1v30h6.6v-10.9h4.3l6.1,10.9h7.6l-6.9-11.7c.3-.1.7-.2,1-.4h0ZM464.9,298c-.4.6-.9,1.1-1.6,1.4-.7.3-1.5.5-2.4.5h-6v-8.3h6c.9,0,1.7.2,2.4.5.7.3,1.2.8,1.6,1.4.4.6.6,1.4.6,2.2s-.2,1.6-.6,2.2h0ZM485.5,286.3l-10.7,30h6.7l2.1-6.6h11.1l2.3,6.6h6.6l-11-30h-7.2ZM485.1,304.6l3.4-10.6.4-1.9.4,1.9,3.7,10.6h-7.9ZM505.8,316.3h6.9v-30h-6.9v30ZM536.8,306.6l-12.9-20.3h-6.5v30h6.1v-20.3l12.8,20.3h6.5v-30h-6.1v20.3h0ZM568.4,303.2c-.6-1.2-1.6-2.3-2.7-3.1-1.2-.8-2.5-1.4-4-1.7l-5.1-1c-.8-.2-1.4-.5-1.9-1-.5-.5-.7-1.1-.7-1.8s.2-1.2.5-1.7c.3-.5.8-.8,1.4-1.1.6-.3,1.3-.4,2.2-.4s1.6.1,2.2.4,1.1.7,1.5,1.2.5,1.1.5,1.7h6.6c0-1.7-.5-3.3-1.4-4.6-.9-1.3-2.2-2.4-3.8-3.1-1.6-.8-3.5-1.1-5.6-1.1s-3.9.4-5.6,1.2c-1.6.8-2.9,1.9-3.8,3.3-.9,1.4-1.4,3-1.4,4.8s.3,2.7.9,3.9c.6,1.2,1.4,2.1,2.5,2.9,1.1.8,2.3,1.3,3.7,1.6l5.4,1.1c.9.2,1.6.6,2.1,1.2.5.6.8,1.2.8,2.1,0,.6-.2,1.3-.6,1.8-.4.5-.9.9-1.6,1.2-.7.3-1.5.4-2.4.4s-1.8-.2-2.5-.5c-.7-.3-1.3-.8-1.7-1.4-.4-.6-.6-1.3-.6-2h-6.6c0,1.9.5,3.5,1.5,4.9,1,1.4,2.3,2.5,4,3.3,1.7.8,3.7,1.2,5.9,1.2s4.2-.4,5.9-1.2c1.7-.8,3.1-1.9,4-3.4s1.4-3.1,1.4-4.9-.3-2.8-1-4.1h0s0,0,0,0Z"></path>
    <path  fill="#ffffff" d="M330.7,265.3h-29.8c-3.3,0-6.5,1.3-8.8,3.7l-12.3,12.3h40v40h-40v-40l-4.3,4.3c-2.3,2.3-3.7,5.5-3.7,8.8v29.8c0,2.8,2.2,5,5,5h29.8c3.3,0,6.5-1.3,8.8-3.7l16.7-16.7c2.3-2.3,3.7-5.5,3.7-8.8v-29.8c0-2.8-2.2-5-5-5Z"></path>
    <path  fill="#ffffff" d="M301.7,312.3h-17v4h17v-4Z"></path>
</svg>