<svg xmlns="http://www.w3.org/2000/svg" id="jPro_Standard" version="1.1"
     viewBox="228.9 379 137.4 83.9">  <!-- Generator: Adobe Illustrator 29.3.1, SVG Export Plug-In . SVG Version: 2.1.0 Build 151)  -->
    <path  fill="#ffffff" d="M247.5,380.8h-12.1v9.4h8.4c2.5,0,3.7-1.2,3.7-3.5v-5.9h0Z"></path>
    <path  fill="#ffffff" d="M253.4,380.3c3.9-.8,9.1-1.3,15.7-1.3s14,1.9,17.8,5.3c3.5,3,5.6,7.6,5.6,13.3s-1.7,10.2-5,13.5c-4.3,4.6-11.4,7-19.4,7s-4.7,0-6.6-.6v25.4h-8.2v-62.5h0ZM261.6,410.8c1.8.5,4.1.7,6.8.7,10,0,15.9-4.9,15.9-13.4s-5.9-12.5-14.9-12.5-6.3.4-7.7.7v24.6h0Z"></path>
    <g>
        <path  fill="#ffffff" d="M299.2,411.1c0-5.5,0-10.2-.4-14.5h7.2l.4,9.1h.3c2.1-6.2,7.1-10.2,12.7-10.2s1.5,0,2.3.3v7.9c-.9,0-1.8-.2-2.9-.2-5.8,0-10,4.5-11.1,10.7-.2,1.2-.3,2.6-.3,4v24.7h-8.3v-31.9h0Z"></path>
        <path  fill="#ffffff" d="M343.6,444.1c-12.2,0-21.8-9.2-21.8-23.9s10.1-24.6,22.6-24.6,21.9,9.7,21.9,23.8-11.7,24.7-22.6,24.7h-.1ZM343.9,437.8c7.9,0,13.8-7.6,13.8-18.1s-3.9-17.7-13.6-17.7-13.9,9.2-13.9,18,5.6,17.8,13.6,17.8h.1Z"></path>
    </g>
    <path  fill="#ffffff" d="M229,455.8c1.1-.6,2.7-1.3,3.8-2.5,2.3-2.5,3.1-6.4,3.1-17.6v-39h8.3v42.3c0,9-1.2,15.1-5.4,19.2-3.1,3-5.1,3.7-7.9,4.7l-2-7.1h0Z"></path>
</svg>