<svg xmlns="http://www.w3.org/2000/svg" xmlns:xlink="http://www.w3.org/1999/xlink" version="1.1" id="Layer_1" x="0px"
     y="0px" style="enable-background:new 0 0 1190.6 402.7;" xml:space="preserve" viewBox="80.5 80.5 1029.5 241.6"><style type="text/css">	.st0{fill:#ffffff;}</style>
    <path class="st0"
          d="M241.6,161.1h80.5v80.5h-80.5V161.1z M80.5,161.1c0,44.5,36.1,80.5,80.5,80.5v-80.5H80.5L80.5,161.1   M161.1,322.1c44.5,0,80.5-36.1,80.5-80.5h-80.5V322.1 M241.6,80.5c-44.5,0-80.5,36.1-80.5,80.5h80.5V80.5"></path>
    <path class="st0"
          d="M396,145.9h20.4v46.9c1.7-2.7,4.1-5.4,7.3-8.7l35.9-38.2H486l-45,46.6l51.3,64.3h-27.4l-37.7-49.9l-10.9,11.4  v38.5h-20.4V145.9H396z M496.8,218.8h21.5c1.1,15.4,13.6,23.3,28.3,23.3s22.2-4.4,22.2-15.2s-6-13-18.2-15.4l-18.8-3.6  c-17.4-3.3-31-13.6-31-31.4s18.2-33.4,43.2-33.4s43.2,14.9,44.5,36.4H567c-0.5-10.3-7.8-19-23.9-19s-21.5,5.1-21.5,14.3  s7.4,11.6,18.7,13.8l18.7,3.6c17.3,3.3,30.9,13.1,30.9,31.7s-15.5,35.8-44,35.8s-47.2-16.2-48.9-40.9L496.8,218.8z M645.6,145.9  h39.3c37.4,0,58.8,19.5,58.8,55.6s-20.1,55.3-58.3,55.3h-39.7L645.6,145.9L645.6,145.9z M722.4,201.5c0-23.9-13.1-38-38.6-38h-17.4  v75.7H684C707.3,239.2,722.5,227.2,722.4,201.5L722.4,201.5z M760.9,147.5H781v20.3h-20.1V147.5z M761.2,179.5h19.3v77.3h-19.3  V179.5L761.2,179.5z M801.1,262.1h19.6c0.3,9.2,6.2,14.6,16.6,14.6s18.7-6,18.7-17.6v-8.4c0-3.5,0.2-6.7,0.6-9.7  c-4.6,7-12,12.8-24.1,12.8c-20.1,0-34.7-14.1-34.7-38.5s16.8-38.5,33.7-38.5s20.4,5.5,25,13.6c-0.5-2.7-0.6-4.8-0.6-7.6v-3.5h19.3  v74.9c0,25.3-15.7,37.5-38.5,37.5s-35.8-12.2-35.8-29.8L801.1,262.1z M857.2,215.4c0-13.5-8.2-23.1-19.6-23.1s-20,9.7-20,23.1  s8.2,23.1,20,23.1S857.2,228.8,857.2,215.4z M896.6,147.5h20.1v20.3h-20.1V147.5z M896.9,179.5h19.3v77.3h-19.3V179.5L896.9,179.5z   M948.6,232.7v-37.8H931v-15.4h17.6v-27.9h19.3v27.9h19v15.4h-19v35c0,8.1,3.2,12.8,11.4,12.8s4-0.2,5.9-0.5v14.6  c-1.9,0.6-6.5,1.4-11.4,1.4C957.3,258.2,948.6,250,948.6,232.7L948.6,232.7z M1001.1,235.5c0-17.4,13.5-23.4,30.1-25.7l11.1-1.4  c6.3-0.8,8.6-3.2,8.6-7c0-5.4-4.4-10.1-12.7-10.1s-14.7,5.1-15.5,13.1h-20c1.3-16.2,14.4-27.6,34.4-27.6s33.1,12.7,33.1,34.4v45.4  h-17.9v-3.2c0-2.5,0.3-4.9,0.8-7.4c-4.1,7.6-12,13.5-25.3,13.5s-26.6-8.9-26.6-24.1L1001.1,235.5z M1051.4,226.8v-8.4  c-1.7,1.6-4.4,2.4-9.2,3.3l-6.3,1.3c-9,1.7-15.2,4.8-15.2,11.7s5.4,10.6,12.2,10.6C1043.2,245.3,1051.4,237.7,1051.4,226.8  L1051.4,226.8z M1090.7,145.9h19.3v110.9h-19.3V145.9z"></path></svg>