<?xml version="1.0" encoding="UTF-8"?>
<svg id="Layer_1" xmlns="http://www.w3.org/2000/svg" version="1.1" viewBox="0 0 160.9 136.7">
  <!-- Generator: Adobe Illustrator 30.2.1, SVG Export Plug-In . SVG Version: 2.1.1 Build 1)  -->
  <defs>
    <style>
      .st0 {
        fill: #ffffff;
      }
    </style>
  </defs>
  <path class="st0" d="M38.7,117.7c-20.5,0-31.8-11.8-31.8-33.2s.7-1.6,1.6-1.6h18c.8,0,1.6.7,1.6,1.6,0,11,5.2,12.6,10.9,12.6s8.7-4.9,8.7-12.6-5.5-12.1-27.2-12.1-1.6-.7-1.6-1.6v-15.1c0-.5.2-1,.6-1.3l22.9-16.8H11.2c-.8,0-1.6-.7-1.6-1.6v-15.7c0-.8.7-1.6,1.6-1.6h50.9c.8,0,1.6.7,1.6,1.6v22.6c0,.5-.2,1-.7,1.3l-16.8,11.8c7.5,1.4,13.1,4.2,17,8.4.3.3.4.7.4,1.1v39.9c0,.3,0,.6-.3.9-5.4,7.6-13.7,11.4-24.7,11.4h0Z"/>
  <path class="st0" d="M121,131.6h-52.4c-.8,0-1.6-.7-1.6-1.6v-13.8c.2-19.2,2.9-28.2,28.8-40.2l.6-.3c6.8-3.2,11.5-6.1,11.5-13.9s-5-10.7-9.1-10.8h-1.5c-4.5.4-9.1,2.1-9.1,12.4s-.7,1.6-1.6,1.6h-18c-.8,0-1.6-.7-1.6-1.6,0-20.8,10.7-32.6,30-33.2h1.5c10.1,0,18,2.9,23.3,8.5.3.3.4.7.4,1.1v42.5c0,.4-.1.8-.4,1.1-4.9,5.2-11.2,8.2-17.3,11.1-2.4,1.1-4.6,2.2-6.7,3.4-6.7,3.8-9.5,7.6-9.6,13.2h32.5c.8,0,1.6.7,1.6,1.6v17.3c0,.8-.7,1.6-1.6,1.6h0Z"/>
  <path class="st0" d="M149.3,107.1h-19c-.8,0-1.6-.7-1.6-1.6V28.2h-12.6c-.8,0-1.6-.7-1.6-1.6v-14.6c0-.7.5-1.4,1.2-1.5l15.1-3.1s.2,0,.3,0h18.1c.8,0,1.6.7,1.6,1.6v96.6c0,.8-.7,1.6-1.6,1.6h0Z"/>
</svg>