<svg xmlns="http://www.w3.org/2000/svg" id="Layer_2" version="1.1"
     viewBox="-0.02 0 116.53 90.5">  <!-- Generator: Adobe Illustrator 29.3.1, SVG Export Plug-In . SVG Version: 2.1.0 Build 151)  -->
    <g id="Layer_1-2">
        <g id="Layer_2-2">
            <g id="Layer_1-21" data-name="Layer_1-2">
                <path  fill="#ffffff" d="M21.2,90.1v-6c.1-2-1.3-3.7-3.3-3.8-.1,0-.3,0-.5,0-1.4,0-2.6.6-3.4,1.7-.7-1.1-1.9-1.8-3.2-1.7-1.1,0-2.2.5-2.8,1.4v-1.2h-2.1v9.6h2.1v-5.3c-.2-1.2.7-2.4,1.9-2.5.1,0,.3,0,.4,0,1.4,0,2.1.9,2.1,2.5v5.3h2.1v-5.3c-.2-1.2.7-2.4,1.9-2.5.1,0,.3,0,.4,0,1.4,0,2.1.9,2.1,2.5v5.3s2.1,0,2.1,0ZM52.3,80.6h-3.4v-2.9h-2.1v2.9h-1.9v1.9h1.9v4.4c0,2.2.9,3.5,3.3,3.5s1.8-.2,2.6-.7l-.6-1.8c-.6.3-1.2.5-1.8.5-1,0-1.4-.6-1.4-1.6v-4.4h3.4s0-1.9,0-1.9ZM70,80.3c-1,0-2,.5-2.5,1.4v-1.2h-2.1v9.6h2.1v-5.4c0-1.6.7-2.5,2-2.5s.9,0,1.3.2l.6-2c-.5-.2-1-.3-1.5-.3,0,0,0,0,0,0ZM43.2,81.3c-1.2-.7-2.5-1.1-3.9-1-2.4,0-4,1.2-4,3.1s1.2,2.5,3.3,2.8h1c1.1.3,1.7.6,1.7,1.1s-.8,1.2-2.2,1.2c-1.1,0-2.3-.3-3.2-1l-1,1.6c1.2.8,2.7,1.3,4.1,1.2,2.8,0,4.4-1.3,4.4-3.1s-1.3-2.6-3.3-2.9h-1c-.9-.3-1.6-.4-1.6-1.1s.7-1.1,1.8-1.1c1,0,2.1.3,3,.8,0,0,.9-1.7.9-1.7ZM98.9,80.3c-1,0-2,.5-2.5,1.4v-1.2h-2v9.6h2.1v-5.4c0-1.6.7-2.5,2-2.5s.9,0,1.3.2l.6-2c-.5-.2-1-.3-1.5-.3h0s0,0,0,0ZM72.1,85.3c0,2.7,2,4.9,4.7,5h.4c1.2,0,2.5-.3,3.4-1.1l-1-1.7c-.7.6-1.6.8-2.5.9-1.7-.1-2.9-1.6-2.8-3.3.1-1.5,1.3-2.7,2.8-2.8.9,0,1.8.3,2.5.9l1-1.7c-1-.8-2.2-1.2-3.4-1.1-2.7-.2-4.9,1.9-5.1,4.6,0,.2,0,.3,0,.4,0,0,0,0,0,0ZM91.6,85.3v-4.8h-2.1v1.2c-.7-.9-1.8-1.4-3-1.4-2.8,0-5,2.2-5,5s2.2,5,5,5c1.2,0,2.3-.5,3-1.4v1.2h2.1v-4.8ZM83.8,85.3c0-1.6,1.5-2.8,3.1-2.7s2.8,1.5,2.7,3.1c0,1.5-1.3,2.7-2.9,2.7-1.6,0-2.9-1.2-2.9-2.8v-.2h0ZM58.8,80.3c-2.8,0-5,2.3-4.9,5.1s2.3,5,5.1,4.9h0c1.4,0,2.8-.4,4-1.3l-1-1.5c-.8.6-1.8,1-2.8,1-1.4.1-2.7-.9-2.9-2.3h7.1v-.8c0-3-1.9-5-4.5-5,0,0,0,0,0,0ZM58.8,82.2c1.3,0,2.4,1,2.4,2.3h-5c0-1.3,1.2-2.4,2.5-2.3h0ZM110.8,85.4v-8.6h-2v5c-.7-.9-1.8-1.4-3-1.4-2.8,0-5,2.2-5,5s2.2,5,5,5c1.2,0,2.3-.5,3-1.4v1.2h2v-4.7ZM103.1,85.4c0-1.6,1.5-2.8,3.1-2.7s2.8,1.5,2.7,3.1c0,1.5-1.3,2.7-2.9,2.7-1.6,0-2.9-1.2-2.9-2.8v-.2h0ZM32.9,85.4v-4.8h-2v1.2c-.7-.9-1.8-1.4-3-1.4-2.8,0-5,2.2-5,5s2.2,5,5,5c1.2,0,2.3-.5,3-1.4v1.2h2.1s0-4.7,0-4.7ZM25.1,85.4c0-1.6,1.5-2.8,3.1-2.7s2.8,1.5,2.7,3.1c0,1.5-1.4,2.7-2.9,2.7-1.6,0-2.9-1.3-2.9-2.9v-.2h0,0ZM114.3,88.7c.1,0,.3,0,.4,0,.1,0,.2.1.3.2,0,0,.2.2.2.3,0,.1,0,.2,0,.4s0,.2,0,.4c0,.1-.1.2-.2.3,0,0-.2.2-.3.2-.1,0-.2,0-.4,0-.3,0-.5,0-.7-.3,0,0-.2-.2-.2-.3,0-.1,0-.2,0-.4s0-.2,0-.4c0-.1.1-.2.2-.3,0,0,.2-.2.3-.2.1,0,.3,0,.4,0h0ZM114.3,90.4c0,0,.2,0,.3,0,0,0,.2,0,.2-.2,0,0,.1-.2.2-.2,0,0,0-.2,0-.3,0,0,0-.2,0-.3,0,0,0-.2-.2-.2,0,0-.2-.1-.2-.2-.2,0-.4,0-.6,0,0,0-.2,0-.2.2,0,0-.1.1-.2.2,0,0,0,.2,0,.3s0,.2,0,.3c0,0,0,.2.2.2,0,0,.2.1.2.2.1,0,.2,0,.3,0h0ZM114.4,89.3c0,0,.2,0,.3,0,0,0,0,.1,0,.2s0,.1,0,.2c0,0-.1,0-.2,0l.3.3h-.2l-.3-.3h0v.3h-.2v-.9h.4ZM114.2,89.4v.2h.2s0,0,.1,0c0,0,0,0,0-.2,0,0,0,0,0,0,0,0,0,0-.1,0h-.2ZM113,58.3v-1.2h.5v-.2h-1.2v.2h.5v1.2h.2ZM115.3,58.3v-1.4h-.4l-.4,1-.4-1h-.3v1.4h.3v-1l.4.9h.3l.4-.9v1h.2ZM55,65.3l.9.7c-16.6,11-38.9,6.5-49.9-10.1C-5,39.4-.5,17,16.1,6.1,28.2-2,43.8-2,55.9,6.1l-.9.7c-16.2,14-17.9,38.5-3.8,54.7,1.2,1.4,2.5,2.7,3.8,3.8h0s0,0,0,0ZM80.5,0c-7.1,0-14,2.1-19.9,6l.9.7c16.2,14,17.9,38.5,3.9,54.7-1.2,1.4-2.5,2.7-3.9,3.9l-.9.7c16.6,11,38.9,6.5,49.9-10.1s6.5-38.9-10.1-49.9C94.5,2.1,87.6,0,80.5,0h0ZM58.2,7.7c-.5.4-.9.7-1.4,1.1-15,13-16.6,35.8-3.5,50.8,1.1,1.3,2.3,2.4,3.5,3.5.4.4.9.8,1.4,1.1.5-.4.9-.8,1.4-1.1,15-13,16.6-35.8,3.5-50.8-1.1-1.3-2.3-2.4-3.5-3.5-.4-.4-.9-.8-1.4-1.1"></path>
            </g>
        </g>
    </g>
</svg>