<svg xmlns="http://www.w3.org/2000/svg" xmlns:xlink="http://www.w3.org/1999/xlink" id="Layer_1" version="1.1"
     viewBox="199.1 263.3 443 68.1">  <!-- Generator: Adobe Illustrator 29.3.1, SVG Export Plug-In . SVG Version: 2.1.0 Build 151)  -->
    <path fill="#ffffff"
          d="M340.7,264h-17.6c-33.1,0-38.1,23.1-38.1,33.7s4.9,33.7,38.1,33.7h17.6c33.1,0,38.1-23.1,38.1-33.7s-4.9-33.7-38.1-33.7h0ZM349.7,315.4c-6.9,6.9-17.1,7.9-25.6-.6l-9.3-9.3c-8.5-8.5-7.5-18.7-.6-25.6,6.9-6.9,17.1-7.9,25.6.6l9.3,9.3c8.5,8.5,7.5,18.7.6,25.6h0ZM252.3,331h-45.3c-4.9,0-7.4-2.7-7.4-6.5s2.5-6.5,7.4-6.5h44.6c5.1-.1,7.4-3.1,7.4-7.1s-2.3-6.5-7.5-6.6h-30.8c-10.4,0-21.6-5-21.6-19.8s11.7-20.2,21-20.2h41.1c4.9,0,7.4,2.6,7.4,6.5s-2.5,6.4-7.4,6.4h-40.8c-4.3.1-6.9,3-6.9,7s2.5,6.8,6.9,6.9h31.8c10.9,0,21.4,5,21.4,19.8s-10.2,20.2-21.4,20.2M500.7,301.8v-6.3c0-3.3,1.2-19.7,20.7-19.7h4.4c19.5,0,20.7,16.5,20.7,19.8v6.3h-45.8ZM525.8,263.3h-4.3c-28.2,0-35.6,19.7-35.6,33.7v27.1c0,4.7,3.3,6.9,7.5,6.9s7.5-2.6,7.5-7.2v-9.7h45.8v9.8c0,4.7,3.3,7.2,7.5,7.2s7.5-2.2,7.5-6.9v-27.1c0-14-7.4-33.7-35.6-33.7M430.8,263.3c-31,.3-37.6,21.9-37.6,34v26.8c0,4.7,3.3,6.9,7.4,6.9s7.4-2.5,7.4-7.2v-25.3c0-7.7,2.8-22.1,22.2-22.1h1.1c19.5,0,22.1,14.4,22.2,22.1v25.3c0,4.7,3.3,7.2,7.4,7.2s7.4-2.2,7.4-6.9v-26.8c0-12.2-6.6-33.7-37.6-34ZM634.6,264.3h-61.3c-4.9,0-7.4,2.6-7.4,6.5s2.5,6.4,7.4,6.4h23.3v46.8c0,4.6,3.3,7,7.4,7s7.4-2.3,7.4-7v-46.8h23.3c4.9,0,7.4-2.5,7.4-6.4s-2.5-6.5-7.4-6.5h0Z"></path>
</svg>