<?xml version="1.0" encoding="UTF-8"?>
<svg id="Layer_1" xmlns="http://www.w3.org/2000/svg" version="1.1" xmlns:xlink="http://www.w3.org/1999/xlink" fill="#ffffff" viewBox="0 0 387 335">
  <!-- Generator: Adobe Illustrator 29.7.1, SVG Export Plug-In . SVG Version: 2.1.1 Build 8)  -->
  <defs>
    <style>
      .st0 {
        mask: url(#mask-1);
      }

      .st1 {
        fill: #ffffff;
      }

      .st2 {
        mask: url(#mask);
      }

      .st3 {
        mask: url(#mask-2);
      }

      .st4 {
        mask: url(#mask-4);
      }

      .st5 {
        mask: url(#mask-3);
      }
    </style>
    <mask id="mask" x="6.92" y="0" width="374.77" height="169.28" maskUnits="userSpaceOnUse">
      <g id="mask0_206_1966">
        <path class="st1" d="M381.68,0H6.92v169.28h374.77V0Z"/>
      </g>
    </mask>
    <mask id="mask-1" x="6.92" y="0" width="374.77" height="169.28" maskUnits="userSpaceOnUse">
      <g id="mask1_206_1966">
        <path class="st1" d="M381.68,0H6.92v169.28h374.77V0Z"/>
      </g>
    </mask>
    <mask id="mask-2" x="6.92" y="0" width="374.77" height="169.28" maskUnits="userSpaceOnUse">
      <g id="mask2_206_1966">
        <path class="st1" d="M381.68,0H6.92v169.28h374.77V0Z"/>
      </g>
    </mask>
    <mask id="mask-3" x="6.92" y="0" width="374.77" height="169.28" maskUnits="userSpaceOnUse">
      <g id="mask3_206_1966">
        <path class="st1" d="M381.68,0H6.92v169.28h374.77V0Z"/>
      </g>
    </mask>
    <mask id="mask-4" x="6.92" y="0" width="374.77" height="169.28" maskUnits="userSpaceOnUse">
      <g id="mask4_206_1966">
        <path class="st1" d="M381.68,0H6.92v169.28h374.77V0Z"/>
      </g>
    </mask>
  </defs>
  <g class="st2">
    <path d="M356.12,71.95c-12.21,0-22.16-9.89-22.16-22.13,0-4.28,1.24-8.3,3.36-11.7-8.67-4.2-18.4-6.58-28.7-6.58-36.31,0-65.76,29.41-65.76,65.67,0,10.29,2.39,20.01,6.59,28.66,3.41-2.12,7.43-3.36,11.72-3.36,12.21,0,22.16,9.89,22.16,22.13,0,4.28-1.24,8.3-3.36,11.7,8.67,4.2,18.4,6.58,28.7,6.58,36.31,0,65.76-29.41,65.76-65.67,0-10.29-2.39-20.01-6.59-28.66-3.4,2.08-7.38,3.36-11.72,3.36ZM308.67,130.99c-18.71,0-33.83-15.15-33.83-33.79s15.17-33.79,33.83-33.79,33.83,15.15,33.83,33.79-15.12,33.79-33.83,33.79Z"/>
  </g>
  <g class="st0">
    <path d="M249.49,125.87c-6.24,3.89-10.44,10.82-10.44,18.72,0,12.19,9.91,22.13,22.16,22.13,7.92,0,14.86-4.15,18.75-10.42-13.27-6.4-24.01-17.18-30.47-30.43Z"/>
  </g>
  <g class="st3">
    <path d="M367.84,68.54c6.23-3.89,10.44-10.82,10.44-18.73,0-12.19-9.91-22.13-22.16-22.13-7.92,0-14.86,4.15-18.75,10.42,13.27,6.45,24.06,17.18,30.47,30.43Z"/>
  </g>
  <g class="st5">
    <path d="M221.1,132.8c-1.95.31-3.89.49-5.93.49-4.95,0-8.67-1.46-11.41-4.5-2.74-3.05-4.11-7.51-4.11-13.25v-56.66h33.43v-28.44h-33.43V2.61h-34.45v27.82h-20.21v28.44h20.21v59.4c0,9.5,1.95,17.71,5.79,24.47,3.85,6.76,9.38,11.97,16.41,15.5,6.99,3.49,14.9,5.26,23.57,5.26,3.36,0,6.63-.26,9.69-.75.13-.04.31-.09.44-.09v-29.85Z"/>
  </g>
  <g class="st4">
    <path d="M43.98,118.63c1.28,11.62,11.37,19.61,29.19,19.61,15.26,0,24.55-4.9,24.55-14.18,0-10.82-9.02-11.61-30.47-14.44-31-3.62-55.02-10.56-55.02-37.94s23-43.63,57.1-43.37c35.65,0,60.19,15.77,62,42.84h-34.89c-1.06-10.56-11.1-17-25.83-17s-23.53,5.17-23.53,13.69c0,10.03,11.37,11.09,30.52,13.43,30.47,3.09,55.81,10.07,55.81,40.01,0,26.32-24.81,43.1-60.46,43.1-36.97-.09-62.05-17.4-63.6-45.75h34.63Z"/>
  </g>
  <path d="M10.34,266v-33.24h20.61v4.32h-15.6v10.13h14.12v4.3h-14.12v14.49h-5.02ZM45.41,266.5c-2.34,0-4.38-.54-6.12-1.61-1.74-1.07-3.09-2.57-4.06-4.5s-1.44-4.18-1.44-6.75.48-4.85,1.44-6.78c.96-1.94,2.32-3.44,4.06-4.51s3.78-1.61,6.12-1.61,4.38.54,6.12,1.61c1.74,1.07,3.09,2.58,4.06,4.51.96,1.94,1.44,4.2,1.44,6.78s-.48,4.83-1.44,6.75-2.32,3.43-4.06,4.5c-1.74,1.07-3.78,1.61-6.12,1.61ZM45.42,262.43c1.51,0,2.77-.4,3.77-1.2,1-.8,1.73-1.87,2.21-3.2.49-1.33.73-2.8.73-4.4s-.24-3.05-.73-4.38c-.48-1.34-1.21-2.42-2.21-3.23-1-.81-2.25-1.22-3.77-1.22s-2.79.41-3.8,1.22c-1,.81-1.74,1.89-2.22,3.23-.48,1.33-.71,2.79-.71,4.38s.24,3.07.71,4.4c.49,1.33,1.23,2.4,2.22,3.2,1.01.8,2.27,1.2,3.8,1.2ZM67.3,232.76v33.24h-4.85v-33.24h4.85ZM78.29,257.54l-.03-5.93h.84l9.93-10.55h5.81l-11.33,12.01h-.76l-4.46,4.46ZM73.83,266v-33.24h4.85v33.24h-4.85ZM89.57,266l-8.93-11.85,3.34-3.39,11.54,15.24h-5.96ZM106.53,266.55c-1.58,0-3.01-.29-4.28-.88-1.28-.6-2.29-1.45-3.04-2.58-.74-1.12-1.1-2.51-1.1-4.14,0-1.41.27-2.56.81-3.47s1.27-1.63,2.19-2.16,1.95-.93,3.08-1.2c1.14-.27,2.29-.48,3.47-.62,1.49-.17,2.71-.31,3.64-.42.93-.12,1.61-.31,2.03-.57.42-.26.63-.68.63-1.27v-.11c0-1.42-.4-2.52-1.2-3.29-.79-.78-1.97-1.17-3.54-1.17s-2.92.36-3.86,1.09c-.93.71-1.57,1.51-1.93,2.39l-4.56-1.04c.54-1.51,1.33-2.74,2.37-3.67,1.05-.94,2.26-1.62,3.62-2.05,1.36-.43,2.8-.65,4.3-.65,1,0,2.05.12,3.17.36,1.12.23,2.18.65,3.15,1.27.99.62,1.79,1.5,2.42,2.65.63,1.14.94,2.61.94,4.43v16.56h-4.74v-3.41h-.19c-.31.63-.78,1.24-1.41,1.85-.63.61-1.43,1.11-2.42,1.51-.99.4-2.17.6-3.54.6ZM107.58,262.66c1.34,0,2.49-.27,3.44-.8.96-.53,1.69-1.22,2.19-2.08.51-.87.76-1.79.76-2.78v-3.21c-.17.17-.51.33-1.01.49-.49.14-1.04.26-1.67.37-.63.1-1.24.19-1.83.28-.6.08-1.09.14-1.49.2-.94.12-1.8.32-2.58.6-.77.28-1.38.69-1.85,1.22-.46.52-.68,1.21-.68,2.08,0,1.2.44,2.11,1.33,2.73.89.61,2.02.91,3.39.91ZM137.78,266v-33.24h4.85v12.35h.29c.28-.52.69-1.12,1.22-1.8.53-.68,1.27-1.28,2.21-1.79.94-.52,2.19-.78,3.73-.78,2.01,0,3.81.51,5.39,1.53s2.82,2.48,3.72,4.4c.91,1.91,1.36,4.22,1.36,6.91s-.45,5-1.35,6.93c-.9,1.91-2.13,3.39-3.7,4.43-1.57,1.03-3.36,1.54-5.37,1.54-1.51,0-2.75-.25-3.72-.76-.95-.51-1.7-1.1-2.24-1.79-.54-.68-.96-1.29-1.25-1.82h-.4v3.88h-4.74ZM142.54,253.53c0,1.75.25,3.29.76,4.61.51,1.32,1.24,2.35,2.21,3.1.96.74,2.14,1.1,3.54,1.1s2.66-.38,3.64-1.15c.97-.78,1.71-1.83,2.21-3.17.51-1.33.76-2.83.76-4.5s-.25-3.12-.75-4.43c-.49-1.31-1.22-2.34-2.21-3.1-.97-.76-2.19-1.14-3.65-1.14s-2.6.36-3.57,1.09c-.96.73-1.69,1.74-2.19,3.04-.5,1.3-.75,2.81-.75,4.54ZM173.26,266.55c-1.58,0-3.01-.29-4.29-.88-1.28-.6-2.29-1.45-3.04-2.58-.74-1.12-1.1-2.51-1.1-4.14,0-1.41.27-2.56.81-3.47s1.27-1.63,2.19-2.16c.92-.53,1.95-.93,3.08-1.2,1.14-.27,2.29-.48,3.47-.62,1.49-.17,2.71-.31,3.64-.42.93-.12,1.61-.31,2.03-.57.42-.26.63-.68.63-1.27v-.11c0-1.42-.4-2.52-1.2-3.29-.79-.78-1.97-1.17-3.54-1.17s-2.92.36-3.86,1.09c-.93.71-1.57,1.51-1.93,2.39l-4.56-1.04c.54-1.51,1.33-2.74,2.37-3.67,1.05-.94,2.26-1.62,3.62-2.05,1.36-.43,2.8-.65,4.3-.65,1,0,2.05.12,3.17.36,1.12.23,2.18.65,3.15,1.27.98.62,1.79,1.5,2.42,2.65.63,1.14.94,2.61.94,4.43v16.56h-4.74v-3.41h-.19c-.31.63-.78,1.24-1.41,1.85-.63.61-1.43,1.11-2.42,1.51-.98.4-2.16.6-3.54.6ZM174.32,262.66c1.34,0,2.49-.27,3.44-.8.96-.53,1.69-1.22,2.19-2.08.51-.87.76-1.79.76-2.78v-3.21c-.17.17-.51.33-1.01.49-.49.14-1.04.26-1.67.37-.63.1-1.24.19-1.83.28-.6.08-1.09.14-1.49.2-.94.12-1.8.32-2.58.6-.77.28-1.39.69-1.85,1.22-.45.52-.68,1.21-.68,2.08,0,1.2.44,2.11,1.33,2.73.89.61,2.02.91,3.39.91ZM196.49,257.54l-.03-5.93h.84l9.93-10.55h5.81l-11.33,12.01h-.76l-4.46,4.46ZM192.03,266v-33.24h4.85v33.24h-4.85ZM207.78,266l-8.93-11.85,3.34-3.39,11.54,15.24h-5.96ZM229.96,266v-33.24h12.17c2.36,0,4.31.39,5.86,1.17,1.55.77,2.71,1.81,3.47,3.13.77,1.31,1.15,2.79,1.15,4.43,0,1.38-.25,2.55-.76,3.51-.51.94-1.19,1.7-2.04,2.27-.84.56-1.78.97-2.79,1.23v.32c1.1.05,2.18.41,3.23,1.07,1.06.65,1.94,1.57,2.63,2.78.69,1.2,1.04,2.66,1.04,4.38s-.4,3.23-1.2,4.58c-.79,1.34-2.01,2.41-3.67,3.2-1.66.78-3.77,1.17-6.35,1.17h-12.74ZM234.98,261.7h7.24c2.4,0,4.12-.47,5.16-1.4,1.04-.93,1.56-2.09,1.56-3.49,0-1.05-.26-2.01-.79-2.89-.53-.88-1.29-1.57-2.27-2.09-.97-.52-2.13-.78-3.47-.78h-7.42v10.65ZM234.98,247.14h6.72c1.12,0,2.14-.22,3.03-.65.91-.43,1.63-1.04,2.16-1.82.54-.79.81-1.72.81-2.79,0-1.37-.48-2.53-1.45-3.46s-2.44-1.4-4.43-1.4h-6.85v10.11ZM266.73,266.55c-1.58,0-3.01-.29-4.29-.88-1.28-.6-2.29-1.45-3.04-2.58-.74-1.12-1.1-2.51-1.1-4.14,0-1.41.27-2.56.81-3.47.54-.91,1.27-1.63,2.19-2.16.92-.53,1.95-.93,3.08-1.2,1.14-.27,2.29-.48,3.47-.62,1.49-.17,2.7-.31,3.64-.42.93-.12,1.61-.31,2.03-.57.42-.26.63-.68.63-1.27v-.11c0-1.42-.4-2.52-1.2-3.29-.79-.78-1.97-1.17-3.54-1.17s-2.92.36-3.86,1.09c-.93.71-1.58,1.51-1.93,2.39l-4.56-1.04c.54-1.51,1.33-2.74,2.37-3.67,1.05-.94,2.26-1.62,3.62-2.05,1.36-.43,2.8-.65,4.3-.65,1,0,2.05.12,3.16.36,1.13.23,2.18.65,3.15,1.27.98.62,1.79,1.5,2.42,2.65.63,1.14.94,2.61.94,4.43v16.56h-4.74v-3.41h-.2c-.31.63-.79,1.24-1.41,1.85-.63.61-1.43,1.11-2.42,1.51-.99.4-2.16.6-3.54.6ZM267.79,262.66c1.34,0,2.49-.27,3.44-.8.96-.53,1.69-1.22,2.19-2.08.51-.87.76-1.79.76-2.78v-3.21c-.17.17-.51.33-1.01.49-.49.14-1.04.26-1.67.37-.63.1-1.24.19-1.83.28-.6.08-1.09.14-1.49.2-.94.12-1.8.32-2.58.6-.77.28-1.38.69-1.85,1.22-.45.52-.68,1.21-.68,2.08,0,1.2.44,2.11,1.33,2.73.89.61,2.02.91,3.39.91ZM290.36,251.2v14.8h-4.85v-24.93h4.66v4.06h.31c.57-1.32,1.47-2.38,2.69-3.18,1.23-.8,2.79-1.2,4.66-1.2,1.7,0,3.19.36,4.46,1.07,1.28.7,2.27,1.75,2.97,3.15s1.06,3.12,1.06,5.18v15.86h-4.85v-15.27c0-1.81-.47-3.22-1.41-4.24-.94-1.03-2.23-1.54-3.88-1.54-1.12,0-2.13.24-3,.73-.86.49-1.55,1.2-2.06,2.14-.5.93-.75,2.06-.75,3.38ZM317.29,257.54l-.03-5.93h.84l9.93-10.55h5.81l-11.33,12.01h-.76l-4.46,4.46ZM312.82,266v-33.24h4.85v33.24h-4.85ZM328.57,266l-8.93-11.85,3.34-3.39,11.54,15.24h-5.96ZM343.67,232.76v33.24h-5.02v-33.24h5.02ZM361.74,266h-10.76v-33.24h11.1c3.26,0,6.05.66,8.39,2,2.34,1.32,4.13,3.22,5.37,5.7,1.25,2.47,1.88,5.43,1.88,8.88s-.63,6.44-1.9,8.93c-1.26,2.49-3.07,4.4-5.45,5.75-2.38,1.33-5.26,2-8.64,2ZM355.99,261.62h5.47c2.53,0,4.64-.48,6.31-1.43,1.68-.96,2.93-2.35,3.77-4.17.83-1.83,1.25-4.06,1.25-6.69s-.42-4.82-1.25-6.64c-.82-1.82-2.05-3.2-3.68-4.14-1.63-.94-3.66-1.41-6.09-1.41h-5.78v24.48ZM54.87,321.5c-2.34,0-4.38-.54-6.12-1.61-1.74-1.07-3.09-2.57-4.06-4.5s-1.44-4.18-1.44-6.75.48-4.85,1.44-6.78c.96-1.94,2.32-3.44,4.06-4.51,1.74-1.07,3.78-1.61,6.12-1.61s4.38.54,6.12,1.61c1.74,1.07,3.09,2.58,4.06,4.51.96,1.94,1.44,4.2,1.44,6.78s-.48,4.83-1.44,6.75c-.96,1.93-2.32,3.43-4.06,4.5-1.74,1.07-3.78,1.61-6.12,1.61ZM54.89,317.43c1.51,0,2.77-.4,3.77-1.2,1-.8,1.73-1.87,2.21-3.2.49-1.33.73-2.8.73-4.4s-.24-3.05-.73-4.38c-.48-1.34-1.21-2.42-2.21-3.23-1-.81-2.25-1.22-3.77-1.22s-2.79.41-3.8,1.22c-1,.81-1.74,1.89-2.22,3.23-.48,1.33-.71,2.79-.71,4.38s.24,3.07.71,4.4c.49,1.33,1.23,2.4,2.22,3.2,1.01.8,2.27,1.2,3.8,1.2ZM82.36,330.87c-1.98,0-3.68-.26-5.11-.78-1.42-.52-2.58-1.21-3.47-2.06-.9-.85-1.57-1.79-2.01-2.81l4.17-1.72c.29.48.68.98,1.17,1.51.5.54,1.17,1,2.01,1.38.85.38,1.95.57,3.29.57,1.84,0,3.36-.45,4.56-1.35,1.2-.89,1.8-2.3,1.8-4.25v-4.9h-.31c-.29.53-.71,1.12-1.27,1.77-.54.65-1.29,1.21-2.24,1.69-.95.48-2.19.72-3.72.72-1.97,0-3.74-.46-5.32-1.38-1.57-.93-2.81-2.3-3.73-4.11-.91-1.82-1.36-4.05-1.36-6.7s.45-4.92,1.35-6.82c.91-1.89,2.15-3.34,3.73-4.35,1.58-1.02,3.37-1.53,5.37-1.53,1.55,0,2.8.26,3.75.78.95.51,1.69,1.1,2.22,1.79.54.68.96,1.28,1.25,1.8h.36v-4.04h4.76v25.48c0,2.14-.5,3.9-1.49,5.27-1,1.38-2.34,2.39-4.04,3.05-1.69.66-3.59.99-5.71.99ZM82.32,316.6c1.4,0,2.58-.32,3.54-.97.97-.66,1.71-1.6,2.21-2.82.51-1.23.76-2.71.76-4.43s-.25-3.15-.75-4.43-1.23-2.27-2.19-2.99c-.96-.73-2.15-1.09-3.57-1.09s-2.68.38-3.65,1.14c-.97.75-1.71,1.76-2.21,3.05-.49,1.29-.73,2.73-.73,4.32s.25,3.07.75,4.3c.5,1.23,1.23,2.2,2.21,2.89.98.69,2.2,1.04,3.64,1.04ZM112.61,321v-33.24h12.17c2.36,0,4.31.39,5.86,1.17,1.55.77,2.71,1.81,3.47,3.13.77,1.31,1.15,2.79,1.15,4.43,0,1.39-.25,2.55-.76,3.51-.51.94-1.19,1.7-2.04,2.27-.84.56-1.78.97-2.79,1.23v.32c1.1.05,2.18.41,3.23,1.07,1.06.65,1.94,1.57,2.63,2.78.69,1.2,1.04,2.66,1.04,4.38s-.4,3.23-1.2,4.58c-.79,1.34-2.01,2.41-3.67,3.2-1.66.78-3.77,1.17-6.35,1.17h-12.74ZM117.62,316.7h7.24c2.4,0,4.12-.47,5.16-1.4,1.04-.93,1.56-2.09,1.56-3.49,0-1.05-.26-2.01-.79-2.89-.53-.88-1.29-1.57-2.27-2.09-.97-.52-2.13-.78-3.47-.78h-7.42v10.65ZM117.62,302.14h6.72c1.12,0,2.14-.22,3.03-.65.91-.43,1.63-1.04,2.16-1.82.54-.79.81-1.72.81-2.79,0-1.37-.48-2.53-1.45-3.46s-2.44-1.4-4.43-1.4h-6.85v10.11ZM149.38,321.55c-1.58,0-3.01-.29-4.29-.88-1.28-.6-2.29-1.45-3.03-2.58-.74-1.12-1.1-2.51-1.1-4.14,0-1.41.27-2.56.81-3.47s1.27-1.63,2.19-2.16c.92-.53,1.95-.93,3.08-1.2,1.14-.27,2.29-.48,3.47-.62,1.49-.17,2.71-.31,3.64-.42.93-.12,1.61-.31,2.03-.57.42-.26.63-.68.63-1.27v-.11c0-1.42-.4-2.52-1.2-3.3-.79-.78-1.97-1.17-3.54-1.17s-2.92.36-3.86,1.09c-.93.71-1.57,1.51-1.93,2.39l-4.56-1.04c.54-1.51,1.33-2.74,2.37-3.67,1.05-.94,2.26-1.62,3.62-2.05,1.36-.43,2.8-.65,4.3-.65,1,0,2.05.12,3.16.36,1.13.23,2.18.65,3.15,1.27.99.62,1.79,1.5,2.42,2.65.63,1.14.94,2.61.94,4.43v16.56h-4.74v-3.41h-.19c-.31.63-.79,1.24-1.41,1.85-.63.61-1.43,1.11-2.42,1.51-.99.4-2.16.6-3.54.6ZM150.44,317.66c1.34,0,2.49-.27,3.44-.8.96-.53,1.69-1.22,2.19-2.08.51-.87.76-1.79.76-2.78v-3.21c-.17.17-.51.33-1.01.49-.49.14-1.04.26-1.67.37-.63.1-1.24.19-1.83.28-.6.08-1.09.14-1.49.2-.94.12-1.8.32-2.58.6-.77.28-1.38.69-1.85,1.22-.46.52-.68,1.21-.68,2.08,0,1.2.44,2.11,1.33,2.73.89.61,2.02.91,3.39.91ZM173,306.2v14.8h-4.85v-24.93h4.66v4.06h.31c.57-1.32,1.47-2.38,2.69-3.18,1.23-.8,2.79-1.2,4.66-1.2,1.7,0,3.19.36,4.46,1.07,1.28.7,2.27,1.75,2.97,3.15.7,1.4,1.05,3.12,1.05,5.18v15.86h-4.85v-15.27c0-1.81-.47-3.22-1.41-4.24-.94-1.03-2.24-1.54-3.88-1.54-1.12,0-2.13.24-3,.73-.87.49-1.55,1.2-2.06,2.14-.5.93-.75,2.06-.75,3.38ZM199.93,312.54l-.03-5.92h.85l9.93-10.55h5.81l-11.33,12.01h-.76l-4.46,4.46ZM195.47,321v-33.24h4.85v33.24h-4.85ZM211.21,321l-8.93-11.85,3.34-3.39,11.54,15.24h-5.96ZM224.11,321h-5.32l11.96-33.24h5.79l11.96,33.24h-5.32l-9.4-27.2h-.26l-9.42,27.2ZM225,307.98h17.27v4.22h-17.27v-4.22ZM256.75,296.07l5.5,9.71,5.55-9.71h5.31l-7.77,12.47,7.84,12.47h-5.31l-5.62-9.32-5.6,9.32h-5.32l7.76-12.47-7.66-12.47h5.32ZM287.86,321.5c-2.46,0-4.57-.52-6.35-1.57-1.76-1.06-3.13-2.55-4.09-4.46-.95-1.93-1.43-4.18-1.43-6.77s.48-4.8,1.43-6.75c.96-1.95,2.3-3.47,4.03-4.56,1.73-1.09,3.76-1.64,6.07-1.64,1.41,0,2.77.23,4.09.7,1.32.46,2.51,1.2,3.56,2.19,1.05,1,1.88,2.29,2.48,3.88.61,1.58.91,3.5.91,5.76v1.72h-19.82v-3.64h15.06c0-1.28-.26-2.41-.78-3.39-.52-.99-1.25-1.78-2.19-2.35-.93-.57-2.02-.86-3.28-.86-1.36,0-2.55.34-3.57,1.01-1.01.66-1.79,1.53-2.34,2.6-.54,1.06-.81,2.21-.81,3.46v2.84c0,1.67.29,3.08.88,4.25.6,1.17,1.42,2.06,2.48,2.68,1.06.61,2.3.91,3.72.91.92,0,1.76-.13,2.52-.39.76-.27,1.41-.67,1.96-1.2.55-.53.97-1.19,1.27-1.96l4.59.83c-.37,1.35-1.03,2.54-1.98,3.55-.94,1.01-2.13,1.79-3.56,2.35-1.42.55-3.04.83-4.85.83ZM303.94,330.35v-34.28h4.74v4.04h.41c.28-.52.69-1.12,1.22-1.8.53-.68,1.27-1.28,2.21-1.79.94-.52,2.19-.78,3.73-.78,2.01,0,3.81.51,5.39,1.53,1.58,1.02,2.82,2.48,3.72,4.4.91,1.92,1.36,4.22,1.36,6.92s-.45,5-1.35,6.93c-.9,1.91-2.13,3.39-3.7,4.43-1.57,1.03-3.36,1.54-5.37,1.54-1.51,0-2.75-.25-3.72-.76-.95-.51-1.7-1.1-2.24-1.79-.54-.68-.96-1.29-1.25-1.82h-.29v13.23h-4.85ZM308.69,308.53c0,1.75.25,3.29.76,4.61.51,1.32,1.24,2.35,2.21,3.1.96.74,2.14,1.1,3.54,1.1s2.66-.38,3.64-1.15c.97-.78,1.71-1.83,2.21-3.17.51-1.33.76-2.83.76-4.5s-.25-3.12-.75-4.43c-.49-1.31-1.22-2.34-2.21-3.1-.97-.76-2.19-1.14-3.65-1.14s-2.6.36-3.57,1.09c-.96.72-1.69,1.74-2.19,3.04-.5,1.3-.75,2.81-.75,4.54ZM343.79,296.07v3.9h-13.62v-3.9h13.62ZM333.82,290.09h4.85v23.58c0,.94.14,1.65.42,2.13.28.46.64.78,1.09.96.46.16.95.24,1.48.24.39,0,.73-.03,1.02-.08.29-.05.52-.1.68-.13l.88,4.01c-.28.11-.68.22-1.2.33-.52.12-1.17.18-1.95.2-1.28.02-2.47-.21-3.57-.68-1.1-.48-2-1.21-2.68-2.21-.68-.99-1.02-2.24-1.02-3.75v-24.59Z"/>
</svg>