<svg viewBox="0 0 1100 200" xmlns="http://www.w3.org/2000/svg">
    <g fill="#ffffff">
        <path d="m370.73 118.98 14.14-9.14c5.57 10.43 17.29 20.14 31.57 20.14 10.29 0 17.86-4 17.86-13 0-23.29-57.43-6.71-57.43-44.29 0-15.86 12.71-28 32.86-28 16 0 30.29 7.29 37.86 20.43l-14.14 9c-5.57-8.71-14-14.29-23.86-14.29-9.29 0-14.43 5-14.43 11.71 0 21.14 57.57 5.57 57.57 43.57 0 19.72-17.43 30.43-36.57 30.43s-38.57-11-45.43-26.57z"/>
        <path d="m468.88 124.12v-38.57h-9.14v-13h3.57c4.14 0 5.57-1.71 5.57-6.57v-10.57h17.14v17.14h18l-2.43 13h-15.57v36.57c0 5.86 2.14 9 7.57 9 3.29 0 6.86-1 8.71-2.57v14c-2.57 1.43-6.57 2.86-11.86 2.86-14 0-21.57-6.71-21.57-21.29z"/>
        <path d="m509.16 108.12c0-22.86 14.43-37.86 35-37.86s35 15 35 37.57-14.29 37.86-35 37.86-35-14.72-35-37.57zm35 23.14c10.57 0 17.72-9 17.72-23.29s-7.14-23.29-17.72-23.29-17.71 8.86-17.71 23.29 7.14 23.29 17.71 23.29z"/>
        <path d="m593.59 72.55h16.57v14.14c3.86-8.43 10-15.43 22-15.86v17c-15.43.57-21.43 11.43-21.43 26.57v29.29h-17.14z"/>
        <path d="m637.88 109.12c0-23.57 14-38.86 34.72-38.86 23.57 0 33.71 19.29 32 41.72h-49.71c1.14 13.86 8 20.72 18.71 20.72 9.29 0 15.86-5.71 19.14-11.43l11.14 7.57c-5.86 9.86-16.86 16.71-31 16.71-22.29 0-35-14.43-35-36.43zm50.14-8.86c-.86-11.86-7.43-17.29-15.86-17.29s-15 5.71-16.86 17.29h32.71z"/>
        <path d="m735.17 133.26-1.29 10.43h-14.71v-97.14h17v36.43c5.14-8 13.57-12.71 22.86-12.71 17.57 0 31 14.43 31 36.86s-14.29 38.43-31.86 38.43c-9.86 0-18.14-4.57-23-12.29zm19.14-.86c10.57 0 18-9.43 18-24.43s-7.57-24.29-18-24.29-18.14 9.43-18.14 24.29 7.43 24.43 18.14 24.43z"/>
        <path d="m803.59 72.55h16.57v14.14c3.86-8.43 10-15.43 22-15.86v17c-15.43.57-21.43 11.43-21.43 26.57v29.29h-17.14z"/>
        <path d="m848.31 126.98c0-13.57 9.14-19 33.72-27 7.86-2.71 10-5.43 10-9.14 0-4.86-4.71-7.29-11.29-7.29-8 0-15.43 4.86-18.43 11.14l-12.14-8c5.57-9.86 16.57-16.43 31.29-16.43s27.29 5.86 27.29 22.86v28.86c0 7.86 2.14 10 6.86 10.29v12.29c-12 .86-19.14-2.86-21.71-12.14-4 7-12.14 13.29-23.14 13.29s-22.43-4.29-22.43-18.71zm27.14 6.43c9.43 0 16.71-9 16.71-19.86v-7.86c-2.14 1.57-4.86 2.86-8.71 4.29-12.71 5.14-18.14 8.71-18.14 15.43 0 6.29 5 8 10.14 8z"/>
        <path d="m927.88 72.55h17.14v9c3.71-5.14 10.43-10.86 21.57-10.86 16.71 0 24 11.86 24 31v42h-17v-41.14c0-10.57-3.86-18.14-13.86-18.14-9.29 0-14.71 7.14-14.71 17.71v41.57h-17.14z"/>
        <path d="m1004.03 108.55c0-21.43 13-38.29 32-38.29 9.86 0 17.29 4.14 22 11v-34.72h17v97.14h-17v-9.14c-4.71 7-11.86 11.14-21.72 11.14-18.71 0-32.29-15.29-32.29-37.14zm35.86 23.72c11 0 18.14-9.71 18.14-24.57s-7.14-24-18.14-24-18.14 9.29-18.14 24 7.29 24.57 18.14 24.57z"/>
    </g>
    <path d="m173.21 137.92c32.11 0 77.89-13.3 77.89-45.03 0-9.5-4.56-18.05-12.54-25.08-6.65 3.8-11.78 9.5-14.63 16.72 3.42 2.85 5.13 5.51 5.13 8.36 0 15.2-33.06 22.99-55.85 22.99s-55.85-7.79-55.85-22.99c0-2.85 1.71-5.51 5.13-8.36-2.85-7.22-8.17-13.11-14.63-16.72-7.98 7.03-12.54 15.58-12.54 25.08 0 31.73 45.79 45.03 77.89 45.03zm81.7-107.53c-36.67 0-69.72 32.3-66.3 73.14 8.55-.95 16.91-3.8 21.85-6.46 0-24.7 19.95-44.65 44.46-44.65s44.27 19.95 44.27 44.46-19.76 44.46-44.27 44.46c-7.98 0-15.39-2.28-21.85-6.08-9.12 4.94-16.53 7.41-24.32 9.31 11.97 11.59 28.12 18.81 46.17 18.81 36.67 0 66.49-29.83 66.49-66.49s-29.83-66.49-66.49-66.49zm-141.54 104.87c-6.46 3.8-13.87 6.08-21.85 6.08-24.51 0-44.27-19.95-44.27-44.46s19.76-44.46 44.27-44.46 44.46 19.95 44.46 44.65c4.94 2.66 13.3 5.51 21.85 6.46 3.42-40.85-29.64-73.14-66.3-73.14s-66.5 29.83-66.5 66.49 29.83 66.49 66.49 66.49c18.05 0 34.2-7.22 46.17-18.81-7.79-1.9-15.2-4.37-24.32-9.31zm68.39-64.59c2.66-7.6 6.65-14.82 11.59-21.09-11.02-1.9-29.26-1.9-40.28 0 4.94 6.27 8.93 13.49 11.59 21.09 5.51-.38 11.59-.38 17.1 0z"
          fill="#ffffff"/>
</svg>