<?xml version="1.0" encoding="utf-8" ?>
<svg baseProfile="full" height="200" version="1.1" viewBox="0 0 630 200" width="630" xmlns="http://www.w3.org/2000/svg" xmlns:ev="http://www.w3.org/2001/xml-events" xmlns:xlink="http://www.w3.org/1999/xlink"><defs /><path d="M 131 74 L 128 77 L 130 81 L 134 85 L 134 86 L 137 89 L 137 90 L 145 99 L 145 100 L 148 103 L 148 104 L 156 113 L 156 114 L 159 117 L 159 118 L 163 122 L 163 123 L 166 126 L 166 127 L 174 136 L 174 137 L 185 150 L 185 151 L 184 152 L 126 152 L 126 167 L 195 167 L 196 166 L 199 166 L 200 165 L 202 165 L 206 163 L 211 158 L 213 154 L 213 152 L 214 151 L 214 148 L 215 147 L 215 68 L 200 68 L 200 141 L 199 142 L 191 132 L 191 131 L 187 127 L 187 126 L 184 123 L 184 122 L 176 113 L 176 112 L 173 109 L 173 108 L 169 104 L 169 103 L 166 100 L 166 99 L 158 90 L 158 89 L 155 86 L 155 85 L 151 81 L 151 80 L 148 77 L 148 76 L 144 72 L 144 71 L 141 68 L 139 68 L 136 71 L 135 71 L 132 74 Z M 437 66 L 436 67 L 433 67 L 432 68 L 427 69 L 421 72 L 418 75 L 417 75 L 409 84 L 405 92 L 405 94 L 403 98 L 403 102 L 402 103 L 402 109 L 401 110 L 401 125 L 402 126 L 402 132 L 403 133 L 404 140 L 406 143 L 406 145 L 408 149 L 413 155 L 413 156 L 423 164 L 427 166 L 432 167 L 433 168 L 436 168 L 437 169 L 444 169 L 445 170 L 448 170 L 449 169 L 459 169 L 460 168 L 466 167 L 474 163 L 482 156 L 482 155 L 484 153 L 488 146 L 488 144 L 490 140 L 490 136 L 473 136 L 473 139 L 470 145 L 464 151 L 460 153 L 458 153 L 457 154 L 452 154 L 451 155 L 441 154 L 440 153 L 438 153 L 434 151 L 425 142 L 425 141 L 423 139 L 423 137 L 420 131 L 419 123 L 420 122 L 492 122 L 492 108 L 491 107 L 491 101 L 490 100 L 490 97 L 489 96 L 488 91 L 484 83 L 481 80 L 481 79 L 473 72 L 465 68 L 459 67 L 458 66 Z M 419 106 L 420 105 L 420 102 L 421 101 L 422 96 L 426 89 L 431 84 L 437 81 L 439 81 L 440 80 L 454 80 L 455 81 L 458 81 L 462 83 L 469 90 L 469 91 L 471 93 L 471 95 L 473 98 L 473 102 L 474 103 L 474 108 L 473 109 L 420 109 L 419 108 Z M 257 67 L 251 70 L 249 70 L 247 72 L 244 73 L 237 80 L 234 86 L 234 88 L 233 89 L 233 100 L 234 101 L 235 107 L 237 111 L 244 118 L 250 121 L 256 122 L 257 123 L 264 123 L 265 124 L 272 124 L 273 125 L 281 125 L 282 126 L 288 127 L 290 129 L 291 129 L 295 134 L 295 137 L 296 138 L 295 145 L 289 152 L 283 155 L 279 155 L 278 156 L 269 156 L 268 155 L 262 154 L 258 151 L 257 151 L 251 145 L 249 141 L 248 136 L 230 136 L 230 138 L 231 139 L 231 143 L 232 144 L 232 147 L 237 156 L 242 161 L 256 168 L 259 168 L 260 169 L 266 169 L 267 170 L 274 170 L 275 169 L 285 169 L 286 168 L 289 168 L 290 167 L 295 166 L 302 162 L 309 155 L 312 149 L 312 147 L 313 146 L 313 131 L 312 130 L 312 127 L 310 123 L 305 117 L 296 112 L 288 111 L 287 110 L 279 110 L 278 109 L 271 109 L 270 108 L 263 108 L 262 107 L 259 107 L 257 106 L 252 101 L 250 93 L 251 92 L 251 89 L 253 87 L 253 86 L 260 81 L 262 81 L 263 80 L 278 80 L 288 85 L 292 90 L 294 94 L 294 96 L 312 96 L 309 84 L 306 80 L 306 79 L 300 73 L 293 69 L 291 69 L 287 67 L 283 67 L 282 66 L 262 66 L 261 67 Z M 55 69 L 49 72 L 46 75 L 45 75 L 42 78 L 37 87 L 37 93 L 36 94 L 37 95 L 37 103 L 38 104 L 38 106 L 40 110 L 45 116 L 46 116 L 51 120 L 53 120 L 57 122 L 60 122 L 61 123 L 67 123 L 68 124 L 76 124 L 77 125 L 84 125 L 85 126 L 89 126 L 93 128 L 98 133 L 98 135 L 99 136 L 99 143 L 98 144 L 98 146 L 91 153 L 87 154 L 86 155 L 83 155 L 82 156 L 73 156 L 72 155 L 68 155 L 60 151 L 54 144 L 51 136 L 34 136 L 34 142 L 35 143 L 36 148 L 39 154 L 48 163 L 59 168 L 62 168 L 63 169 L 69 169 L 70 170 L 77 170 L 78 169 L 88 169 L 89 168 L 93 168 L 94 167 L 96 167 L 107 161 L 111 157 L 116 148 L 116 144 L 117 143 L 117 134 L 116 133 L 116 129 L 115 128 L 115 126 L 113 122 L 104 114 L 100 113 L 99 112 L 97 112 L 96 111 L 91 111 L 90 110 L 83 110 L 82 109 L 74 109 L 73 108 L 67 108 L 66 107 L 63 107 L 59 105 L 56 102 L 54 98 L 54 91 L 55 90 L 55 88 L 60 83 L 64 81 L 66 81 L 67 80 L 82 80 L 83 81 L 85 81 L 89 83 L 95 89 L 97 93 L 97 95 L 98 96 L 115 96 L 115 92 L 114 91 L 113 85 L 106 75 L 105 75 L 102 72 L 96 69 L 91 68 L 90 67 L 86 67 L 85 66 L 65 66 L 64 67 L 61 67 L 60 68 Z M 344 35 L 344 65 L 341 68 L 320 68 L 320 82 L 343 82 L 344 83 L 344 151 L 345 152 L 346 158 L 351 164 L 355 166 L 358 166 L 359 167 L 396 167 L 396 152 L 367 152 L 362 148 L 362 146 L 361 145 L 361 83 L 362 82 L 393 82 L 393 68 L 362 68 L 361 67 L 361 35 Z M 507 30 L 507 167 L 524 167 L 524 137 L 541 119 L 574 167 L 595 167 L 595 166 L 593 164 L 593 163 L 591 161 L 587 154 L 584 151 L 584 150 L 582 148 L 582 147 L 580 145 L 580 144 L 578 142 L 574 135 L 571 132 L 571 131 L 569 129 L 569 128 L 567 126 L 567 125 L 565 123 L 561 116 L 558 113 L 558 112 L 554 107 L 556 103 L 570 89 L 570 88 L 584 74 L 584 73 L 589 68 L 567 68 L 556 79 L 556 80 L 544 92 L 544 93 L 525 113 L 524 112 L 524 30 Z " fill="white" fill-rule="evenodd" stroke="none" /></svg>