<?xml version="1.0" encoding="UTF-8"?>
<svg id="Layer_1" xmlns="http://www.w3.org/2000/svg" version="1.1" viewBox="0 0 713.152564 215.25">
  <!-- Generator: Adobe Illustrator 30.0.0, SVG Export Plug-In . SVG Version: 2.1.1 Build 123)  -->
  <defs>
    <style>
      .st0 {
        fill: #fff;
      }
    </style>
  </defs>
  <path class="st0" d="M119.0625,47.0625v18.75h20.625v-18.75h-20.625ZM173.8125,119.625v-22.6875c0-4.125,2.625-6.75,6.75-6.75h28.3125c3.75,0,5.625,2.25,5.625,5.4375,0,3.375-1.5,4.6875-3.9375,6l-36.75,18ZM173.8125,144.5625v-5.4375l46.875-22.875c10.875-5.25,14.4375-11.25,14.4375-21.1875,0-11.625-8.4375-21.75-23.25-21.75h-34.3125c-13.875,0-24.375,10.5-24.375,24.375v46.125c0,13.875,10.5,24.375,24.375,24.375h56.0625v-16.875h-53.0625c-4.125,0-6.75-2.625-6.75-6.75ZM119.0625,74.0625v94.125h20.625v-94.125h-20.625ZM105.5625,168.1875v-16.875h-31.125c-4.125,0-6.75-2.625-6.75-6.75v-53.625h37.875v-16.875h-37.875v-27h-1.3125l-19.3125,9.375v87.375c0,14.25,10.125,24.375,24.375,24.375h34.125ZM378.1875,73.3125h-37.5c-13.875,0-24.375,10.5-24.375,24.375v46.5c0,13.875,10.5,24.375,24.375,24.375h37.5c13.875,0,24.375-10.5,24.375-24.375v-46.5c0-13.875-10.5-24.375-24.375-24.375ZM381.9375,96.9375v48c0,4.125-2.625,6.75-6.75,6.75h-31.5c-4.125,0-6.75-2.625-6.75-6.75v-48c0-4.125,2.625-6.75,6.75-6.75h31.5c4.125,0,6.75,2.625,6.75,6.75ZM305.8125,168.1875v-16.875h-31.125c-4.125,0-6.75-2.625-6.75-6.75v-53.625h37.875v-16.875h-37.875v-27h-1.3125l-19.3125,9.375v87.375c0,14.25,10.125,24.375,24.375,24.375h34.125Z"/>
  <g>
    <path class="st0" d="M432.043189,74.1017313h14.2792969c7.9326172,0,12.7509766,4.2314453,12.7509766,10.5771484,0,4.1728516-2.1738281,7.3457031-5.9345703,8.8730469,4.5830078,1.5869141,7.2861328,5.2304688,7.2861328,10.2246094,0,6.9345703-5.0537109,11.4589844-13.3388672,11.4589844h-15.0429688v-41.1337891ZM446.0285406,91.7306376c4.2304688,0,7.1689453-2.4091797,7.1689453-4.5244141v-3.9960938c0-2.1738281-2.9384766-4.4658203-7.1689453-4.4658203h-8.5791016v12.9863281h8.5791016ZM446.6750249,110.5929423c4.6416016,0,7.6386719-2.5263672,7.6386719-4.9355469v-4.4072266c0-2.3505859-2.9970703-4.9365234-7.6386719-4.9365234h-9.2255859v14.2792969h9.2255859Z"/>
    <path class="st0" d="M465.5373296,106.9503642c0-5.7001953,4.171875-9.1669922,11.3994141-9.1669922h7.5214844v-3.8193359c0-2.5273438-2.2910156-5.1123047-6.2285156-5.1123047-3.2314453,0-5.8759766,1.7626953-7.1689453,4.9355469l-4.5244141-2.0566406c1.9384766-4.5244141,6.3457031-7.2275391,11.8105469-7.2275391,6.5224609,0,11.4003906,3.8193359,11.4003906,11.1054688v14.6318359h3.5253906v4.9951172h-1.7626953c-3.5253906,0-5.40625-2.1748047-6.2285156-5.0537109-1.7041016,3.5253906-5.2304688,5.7001953-9.8134766,5.7001953-5.7587891,0-9.9306641-3.3496094-9.9306641-8.9316406ZM476.6427984,111.533372c4.6425781,0,7.8154297-3.1142578,7.8154297-7.8740234v-1.9980469h-6.9921875c-4.0546875,0-6.4052734,1.6455078-6.4052734,3.8193359v2.4677734c0,2.0566406,2.3505859,3.5849609,5.5820312,3.5849609Z"/>
    <path class="st0" d="M498.6203374,85.3839579h4.9941406v4.2900391c1.5283203-2.9970703,4.8769531-5.1708984,9.1669922-5.1708984,5.9931641,0,10.1074219,4.3486328,10.1074219,10.1660156v20.5664062h-5.2890625v-20.9189453c0-2.0566406-1.9394531-5.2304688-6.2871094-5.2304688-4.5839844,0-7.4042969,3.6435547-7.4042969,6.7578125v19.3916016h-5.2880859v-29.8515625Z"/>
    <path class="st0" d="M530.7043218,74.1017313h5.2880859v22.6826172c0,.7636719.3525391,1.1748047.8818359,1.1748047.3525391,0,.7050781-.1757812,1.1162109-.5869141l10.7529297-11.9882812h6.4052734l-11.4580078,12.28125,12.4570312,17.5703125h-6.2871094l-8.9912109-12.9863281c-.3525391-.4707031-.5869141-.6464844-1.0576172-.6464844-.3525391,0-.7050781.1757812-1.0576172.5878906l-2.7617188,2.9960938v10.0488281h-5.2880859v-41.1337891Z"/>
    <path class="st0" d="M562.3176031,106.6564188v-17.0410156h-5.0537109v-4.2314453h5.0537109v-7.4033203h5.2880859v7.4033203h6.5224609v4.2314453h-6.5224609v20.8603516h6.5224609v4.7597656h-2.1152344c-6.5224609,0-9.6953125-2.9970703-9.6953125-8.5791016Z"/>
    <path class="st0" d="M578.6535406,100.2511454c0-10.4003906,6.5224609-15.7480469,13.6914062-15.7480469,7.7558594,0,13.3974609,6.1113281,13.3974609,14.8662109,0,.7050781,0,1.4101562-.1181641,2.1162109h-21.1533203v3.0546875c.0585938,2.7626953,2.7617188,6.9931641,8.0498047,6.9931641,3.9375,0,6.5224609-2.3505859,7.5800781-5.40625l4.7597656,2.1152344c-2.2324219,4.9365234-6.7578125,7.8740234-12.2226562,7.8740234-7.4033203,0-13.984375-5.2880859-13.984375-15.8652344ZM600.1008062,97.6066142v-1.4101562c.0585938-2.9384766-2.5263672-7.2275391-7.8154297-7.2275391-5.1708984,0-7.8144531,4.3486328-7.8144531,7.1103516v1.5273438h15.6298828Z"/>
    <path class="st0" d="M610.3254156,100.3097392c0-10.4003906,6.4042969-15.8066406,13.9257812-15.8066406,5.2890625,0,9.4609375,2.5849609,11.5175781,6.9335938l-4.7597656,2.1152344c-1.1748047-2.8203125-3.5839844-4.4658203-6.7578125-4.4658203-5.2294922,0-7.9326172,4.1132812-7.9326172,6.875v8.6972656c0,2.7617188,2.5859375,6.875,7.9326172,6.875,3.4082031,0,5.9941406-1.7626953,7.1689453-4.7011719l4.6425781,2.1748047c-2.0566406,4.40625-6.4052734,7.109375-11.8115234,7.109375-7.6386719,0-13.9257812-5.4052734-13.9257812-15.8066406Z"/>
    <path class="st0" d="M641.9396734,74.1017313h5.2880859v15.0429688c1.6455078-2.7021484,4.8183594-4.6416016,8.8144531-4.6416016,5.9345703,0,10.0478516,4.3486328,10.0478516,10.1660156v20.5664062h-5.2880859v-20.9189453c0-2.0566406-1.9394531-5.2304688-6.2285156-5.2304688-4.5253906,0-7.3457031,3.6435547-7.3457031,6.7578125v19.3916016h-5.2880859v-41.1337891Z"/>
  </g>
</svg>