<svg xmlns="http://www.w3.org/2000/svg" id="Layer_2" version="1.1"
     viewBox="0 0 218.1 38.5">  <!-- Generator: Adobe Illustrator 29.3.1, SVG Export Plug-In . SVG Version: 2.1.0 Build 151)  -->
    <g id="Layer_1-2">
        <polygon fill="#ffffff" points="173.9 33.2 162.9 22.3 162.9 28.9 167.3 33.2 173.9 33.2"></polygon>
        <path  fill="#ffffff" d="M180.1,9.7s0,0,0,0h0Z"></path>
        <path  fill="#ffffff" d="M188.9,33.2l3.4-6.2h16.6l3.4,6.2h5.8l-13.7-25.5c-1.5-3-6-3-7.5,0,0,0-7.5,13.9-11.4,21.2l-8.2-8.2c2.4-1.5,4-3.7,4-7,0-5.2-3.9-8.2-8.6-8.3h-14.3c-4.1,0-7.4,3.3-7.4,7.3v16.5c0,2.4,1.2,4,3.6,4h1.1V12.6c0-1.4,1.2-2.5,2.5-2.5h14.7c2,0,3.6,1.6,3.6,3.6s-1.6,3.7-3.6,3.7h-5.6l15.8,15.8h5.8ZM194.6,22.3c.7-1.3,5.2-10,5.9-11.3.7,1.3,5.2,10,5.9,11.3h-11.8Z"></path>
        <path  fill="#ffffff" d="M75,19.3c0,7.1,5.6,14.4,16.3,14.4s16.3-7.2,16.3-14.4-5.6-14.4-16.3-14.4-16.3,7.2-16.3,14.4M80,19.3c0-4.8,3-9.9,11.4-9.9s11.4,5.1,11.4,9.9-3,9.9-11.4,9.9-11.4-5.1-11.4-9.9Z"></path>
        <path  fill="#ffffff" d="M49.2,5.4c-3.4,0-3.5,4.6,0,4.7h9.4v23.1h5.3V10.1h9.4c3.4,0,3.4-4.7,0-4.7h-24Z"></path>
        <path  fill="#ffffff" d="M139.2,7.3s-8.5,13.5-10.5,16.7c-.8-1.2-10.5-16.7-10.5-16.7-.8-1.3-1.6-1.9-3.6-1.9s-3.6.8-3.7,2.8v24.9s4.9,0,4.9,0c0,0,0-17.1,0-20.2,1.6,2.6,10.2,16.3,10.2,16.3,1.3,2,4.1,2,5.4,0,0,0,7.4-11.9,10.1-16.3,0,3.1,0,20.2,0,20.2h5V8.3c0-1.8-1.7-2.9-3.7-2.9s-2.8.6-3.6,1.9"></path>
        <path  fill="#ffffff" d="M38.5,14.4V0H7.2C6.2,0,5.4.2,4.6.5c0,0,0,0-.1,0-.1,0-.3.1-.4.2,0,0-.2,0-.3.1s-.1,0-.2.1c-.5.3-1.1.7-1.5,1.2C.7,3.5,0,5.3,0,7.2h0v31.3h14.4v-13.9h0l13.9,13.9,10.2-10.2-13.9-13.9h13.9,0ZM7.3,12.9c-1.7,0-3.1-.7-4.2-1.8-.2-.2-.4-.5-.6-.7,0,0,0,0,0,0-.8-1.2-1.1-2.7-.9-4.1,0-.1,0-.3,0-.4,0-.2,0-.3.1-.5,0-.3.2-.5.3-.8,0,0,0,0,0-.2.2-.3.3-.6.5-.8,0,0,0,0,0,0,.2-.2.4-.5.7-.7,0,0,0,0,.1-.1.2-.2.4-.3.7-.5.1,0,.3-.2.4-.2s.3-.1.5-.2c.3-.1.5-.2.8-.2,0,0,0,0,.2,0,.3,0,.7-.1,1-.1s.7,0,1.1.1h0c.3,0,.6.1.9.3,0,0,.2,0,.3.1.2,0,.4.2.6.3.1,0,.3.2.4.3s.3.2.4.3c1.2,1,1.9,2.5,2,4.2h0v5.8h-5.7,0ZM12.9,14.4v6.6l-6.7-6.6c.3,0,.7,0,1,0h5.7ZM14.4,7.2h0c0-.3,0-.6,0-.9l6.6,6.6h-6.6v-5.7ZM12.9,37H1.5V11.6c.2.3.4.5.7.8l10.8,10.8v1.5s0,12.4,0,12.4ZM23.5,15.5l12.8,12.8-8.1,8.1-12.8-12.8-1.1-1.1v-8.1h8.1l1.1,1.1h0ZM23.1,12.9L12.3,2.1s0,0,0,0c-.2-.2-.4-.4-.7-.6h25.4v11.4h-13.9,0Z"></path>
    </g>
</svg>