<?xml version="1.0" encoding="UTF-8"?>
<svg version="1.1" xmlns="http://www.w3.org/2000/svg" width="577" height="433">
<path d="M0 0 C1.80574337 1.39238043 3.37982694 2.84590205 4.9453125 4.5 C5.8940625 3.675 6.8428125 2.85 7.8203125 2 C10.6953125 -0.5 10.6953125 -0.5 12.9453125 -0.5 C12.9453125 -1.16 12.9453125 -1.82 12.9453125 -2.5 C14.52730881 -3.14910154 16.11096974 -3.79414694 17.6953125 -4.4375 C18.57703125 -4.79714844 19.45875 -5.15679687 20.3671875 -5.52734375 C30.87417328 -9.49134293 40.76739952 -7.62752497 50.9453125 -3.5 C51.9353125 -3.005 51.9353125 -3.005 52.9453125 -2.5 C52.9453125 -1.84 52.9453125 -1.18 52.9453125 -0.5 C54.5953125 0.16 56.2453125 0.82 57.9453125 1.5 C57.9453125 2.16 57.9453125 2.82 57.9453125 3.5 C58.6053125 3.5 59.2653125 3.5 59.9453125 3.5 C61.56640625 5.5546875 61.56640625 5.5546875 63.3828125 8.375 C63.97964844 9.27992188 64.57648438 10.18484375 65.19140625 11.1171875 C70.38890462 21.1417612 70.41558369 30.73922971 70.33642578 41.80712891 C70.32018291 44.52165711 70.33641801 47.23473273 70.35546875 49.94921875 C70.35348914 51.67448245 70.34965132 53.39974525 70.34375 55.125 C70.34982269 55.93638428 70.35589539 56.74776855 70.3621521 57.58374023 C70.33349609 59.8515625 70.33349609 59.8515625 69.9453125 63.5 C66.34920281 65.89740646 64.64438923 65.73987692 60.3828125 65.6875 C59.22652344 65.68105469 58.07023437 65.67460937 56.87890625 65.66796875 C53.9453125 65.5 53.9453125 65.5 51.9453125 64.5 C51.9359668 63.36570557 51.92662109 62.23141113 51.91699219 61.06274414 C51.87685298 56.81870525 51.81102984 52.57537316 51.73779297 48.33178711 C51.70972126 46.50180197 51.68843866 44.67169869 51.67431641 42.84155273 C51.6526941 40.19714471 51.60594903 37.55413664 51.5546875 34.91015625 C51.55345886 34.10353043 51.55223022 33.2969046 51.55096436 32.46583557 C51.40151279 26.55307224 50.02544319 21.59664395 46.9453125 16.5 C46.2853125 16.17 45.6253125 15.84 44.9453125 15.5 C44.9453125 14.84 44.9453125 14.18 44.9453125 13.5 C39.37565585 11.09149983 33.91232979 10.89619468 27.9453125 11.5 C24.52556331 12.78994793 24.52556331 12.78994793 21.9453125 14.5 C20.4603125 14.995 20.4603125 14.995 18.9453125 15.5 C15.18158836 21.47767951 14.62764841 27.75642751 14.53125 34.6171875 C14.51188385 35.47434357 14.4925177 36.33149963 14.4725647 37.21463013 C14.41309994 39.93465428 14.36651681 42.65472152 14.3203125 45.375 C14.2821022 47.22658028 14.24304872 49.07814337 14.203125 50.9296875 C14.10742586 55.45298425 14.02327344 59.97636416 13.9453125 64.5 C11.09336028 65.92597611 8.62070075 65.6320252 5.4453125 65.625 C4.28 65.62757813 3.1146875 65.63015625 1.9140625 65.6328125 C-1.0546875 65.5 -1.0546875 65.5 -3.0546875 64.5 C-3.06870605 62.79070312 -3.06870605 62.79070312 -3.08300781 61.046875 C-3.12309805 56.78981472 -3.18890845 52.53346273 -3.26220703 48.27685547 C-3.29030681 46.44003447 -3.31157568 44.60309503 -3.32568359 42.76611328 C-3.34726647 40.11429686 -3.39399249 37.46388815 -3.4453125 34.8125 C-3.44654114 34.00071289 -3.44776978 33.18892578 -3.44903564 32.35253906 C-3.62165756 25.52242397 -5.67335433 20.41905357 -9.9921875 15.125 C-15.41140247 10.85531547 -21.43045945 10.73968688 -28.0546875 11.5 C-33.41539751 13.23116507 -36.36610515 16.63987037 -39.0546875 21.5 C-39.94034336 24.15696758 -40.1997137 25.78190083 -40.26000977 28.51245117 C-40.27995499 29.31305466 -40.29990021 30.11365814 -40.32044983 30.93852234 C-40.34551857 32.22772331 -40.34551857 32.22772331 -40.37109375 33.54296875 C-40.39187485 34.4265657 -40.41265594 35.31016266 -40.43406677 36.22053528 C-40.49944504 39.04277785 -40.55839278 41.86511335 -40.6171875 44.6875 C-40.66038387 46.60092106 -40.70399852 48.51433273 -40.74804688 50.42773438 C-40.85511445 55.11839437 -40.95641502 59.80914783 -41.0546875 64.5 C-44.05782498 66.00156874 -46.84536272 65.59281204 -50.1796875 65.5625 C-52.10167969 65.54896484 -52.10167969 65.54896484 -54.0625 65.53515625 C-55.04992187 65.52355469 -56.03734375 65.51195312 -57.0546875 65.5 C-59.46759067 60.81008195 -59.26227628 56.63623036 -59.1015625 51.5078125 C-59.07113861 50.21156448 -59.07113861 50.21156448 -59.0401001 48.88912964 C-58.99463078 47.06511039 -58.94387755 45.24121616 -58.88818359 43.41748047 C-58.8051888 40.64176577 -58.74316689 37.8661488 -58.68359375 35.08984375 C-58.63667568 33.31246632 -58.58853837 31.53512057 -58.5390625 29.7578125 C-58.52123718 28.9346756 -58.50341187 28.1115387 -58.48504639 27.26345825 C-58.24952462 20.24781083 -57.09661728 14.4738223 -53.0546875 8.5625 C-52.5390625 7.79035156 -52.0234375 7.01820313 -51.4921875 6.22265625 C-51.0178125 5.65417969 -50.5434375 5.08570313 -50.0546875 4.5 C-49.3946875 4.5 -48.7346875 4.5 -48.0546875 4.5 C-47.7246875 3.51 -47.3946875 2.52 -47.0546875 1.5 C-46.3946875 1.5 -45.7346875 1.5 -45.0546875 1.5 C-45.0546875 0.84 -45.0546875 0.18 -45.0546875 -0.5 C-43.16276275 -1.48669759 -41.26596772 -2.4640602 -39.3671875 -3.4375 C-38.31144531 -3.98277344 -37.25570313 -4.52804688 -36.16796875 -5.08984375 C-23.63154048 -10.76820085 -10.81812631 -7.44473208 0 0 Z " fill="#FFFF" transform="translate(359.0546875,184.5)"/>
<path d="M0 0 C0.88558594 0.4640625 1.77117187 0.928125 2.68359375 1.40625 C9.72388932 5.4565693 14.03769844 9.93333113 18 17 C18.53947266 17.90105469 18.53947266 17.90105469 19.08984375 18.8203125 C22.74597258 26.3347524 22.00037788 36.92474955 20.4140625 44.97265625 C17.14848809 54.42484641 9.39506223 62.09895927 0.765625 66.875 C-4.25501605 68.91729466 -9.57995726 69.93697625 -15 70 C-17 68 -17 68 -17.1953125 64.7421875 C-17.17210937 63.46601563 -17.14890625 62.18984375 -17.125 60.875 C-17.10695312 59.59367187 -17.08890625 58.31234375 -17.0703125 56.9921875 C-17.04710937 56.00476563 -17.02390625 55.01734375 -17 54 C-15.96875 53.566875 -14.9375 53.13375 -13.875 52.6875 C-11.44935239 51.65144404 -9.11342061 50.5567103 -6.75 49.375 C-4 48 -4 48 -1 47 C1.74702045 41.99072741 3.62112038 35.11037977 2.4921875 29.45703125 C1.75135581 27.25251754 0.92098642 25.13441876 0 23 C-0.495 21.515 -0.495 21.515 -1 20 C-2.78228936 18.85790183 -2.78228936 18.85790183 -5 18 C-5.70125 17.62875 -6.4025 17.2575 -7.125 16.875 C-13.83866325 14.83171118 -20.47729371 15.73123259 -27 18 C-27 18.66 -27 19.32 -27 20 C-27.61875 20.598125 -28.2375 21.19625 -28.875 21.8125 C-32.75000925 25.80148011 -33.25149089 29.74501628 -33.31884766 35.16723633 C-33.33871735 36.38812454 -33.35858704 37.60901276 -33.37905884 38.86689758 C-33.39638565 40.82963875 -33.39638565 40.82963875 -33.4140625 42.83203125 C-33.43278547 44.19253194 -33.45235973 45.55302117 -33.4727478 46.91349792 C-33.52395602 50.48246479 -33.56364187 54.05146926 -33.60089111 57.62060547 C-33.64100201 61.26734635 -33.69206192 64.91393234 -33.7421875 68.56054688 C-33.83881261 75.70691768 -33.92326001 82.85338575 -34 90 C-36.81256281 90.02684312 -39.62487241 90.04676188 -42.4375 90.0625 C-43.23994141 90.07087891 -44.04238281 90.07925781 -44.86914062 90.08789062 C-46.91295221 90.0965143 -48.95683902 90.0522815 -51 90 C-52.73083664 88.26916336 -52.15439885 85.92826661 -52.17700195 83.5690918 C-52.18983719 82.40665451 -52.20267242 81.24421722 -52.21589661 80.04655457 C-52.22697701 78.14212334 -52.22697701 78.14212334 -52.23828125 76.19921875 C-52.246353 74.89733109 -52.25442474 73.59544342 -52.26274109 72.25410461 C-52.27779679 69.48572926 -52.28761597 66.71737975 -52.29516602 63.94897461 C-52.30613706 60.43330762 -52.34041275 56.91829013 -52.38033772 53.40285015 C-52.41310244 50.02250183 -52.41731176 46.6422134 -52.42578125 43.26171875 C-52.44328934 42.01436447 -52.46079742 40.76701019 -52.47883606 39.4818573 C-52.45055953 27.91140417 -49.85596865 16.88846739 -42 8 C-41.34 8 -40.68 8 -40 8 C-40 7.34 -40 6.68 -40 6 C-28.66220082 -2.83681407 -13.43026314 -7.24561403 0 0 Z " fill="#FFFF" transform="translate(200,180)"/>
<path d="M0 0 C8.28942406 6.40173343 13.48223436 15.1839573 15.3125 25.5 C15.80548475 30.55706937 15.6806012 33.97591914 13.3125 38.5 C8.20386104 38.5246501 3.09525641 38.54283607 -2.01342773 38.55493164 C-3.75269168 38.55997204 -5.49195136 38.5668043 -7.23120117 38.57543945 C-9.72575937 38.58751792 -12.22026173 38.59323108 -14.71484375 38.59765625 C-15.49713852 38.60281754 -16.27943329 38.60797882 -17.08543396 38.61329651 C-18.95317114 38.61349226 -20.82079204 38.56199694 -22.6875 38.5 C-24.44309942 36.74440058 -23.81971919 34.46417558 -23.82421875 32.12890625 C-23.82035156 31.42636719 -23.81648438 30.72382813 -23.8125 30 C-23.81830078 28.94619141 -23.81830078 28.94619141 -23.82421875 27.87109375 C-23.81411378 22.62661378 -23.81411378 22.62661378 -22.6875 21.5 C-19.82482433 21.42674832 -16.986781 21.40761795 -14.125 21.4375 C-13.31869141 21.44201172 -12.51238281 21.44652344 -11.68164062 21.45117188 C-9.68356244 21.46299482 -7.68552217 21.48093086 -5.6875 21.5 C-6.9964572 18.37802522 -6.9964572 18.37802522 -9.6875 16.5 C-9.6875 15.84 -9.6875 15.18 -9.6875 14.5 C-17.86780985 11.65467483 -25.50719015 11.65467483 -33.6875 14.5 C-33.6875 15.16 -33.6875 15.82 -33.6875 16.5 C-34.3475 16.5 -35.0075 16.5 -35.6875 16.5 C-38.773099 23.77319765 -40.44855372 29.70733727 -38.6875 37.5 C-36.74352639 42.10414804 -34.01650012 44.09499993 -29.6875 46.5 C-26.72364073 47.63324031 -23.73174937 48.60702019 -20.6875 49.5 C-20.66065321 52.14590014 -20.64073643 54.79153096 -20.625 57.4375 C-20.61662109 58.19224609 -20.60824219 58.94699219 -20.59960938 59.72460938 C-20.59097559 61.64994313 -20.63525667 63.57535581 -20.6875 65.5 C-21.6875 66.5 -21.6875 66.5 -23.83984375 66.5546875 C-33.80072821 65.91204979 -41.4767243 62.36740543 -48.6875 55.5 C-56.39303404 46.4951014 -58.66769149 37.08180473 -58.10546875 25.49609375 C-57.25651461 15.35382653 -51.9699902 7.7824902 -44.9375 0.75 C-31.11942385 -8.81636041 -13.99879133 -9.30709832 0 0 Z " fill="#FFFF" transform="translate(489.6875,183.5)"/>
<path d="M0 0 C0.70253906 0.00386719 1.40507813 0.00773438 2.12890625 0.01171875 C2.83144531 0.00785156 3.53398438 0.00398437 4.2578125 0 C9.50229247 0.01010497 9.50229247 0.01010497 10.62890625 1.13671875 C10.73986652 3.99857707 10.79057415 6.84033377 10.8046875 9.703125 C10.82790528 11.48633968 10.85202338 13.26954281 10.87695312 15.05273438 C10.91193292 17.8679961 10.94132768 20.68283944 10.95483398 23.49829102 C10.97041191 26.21292368 11.01070542 28.92632252 11.0546875 31.640625 C11.05277908 32.47114883 11.05087067 33.30167267 11.04890442 34.15736389 C11.16705186 39.86736637 12.32592435 44.40161918 15.62890625 49.13671875 C21.75271202 54.01076824 27.01899802 54.80154693 34.62890625 54.13671875 C40.19322654 52.07585938 43.49270232 49.33730366 46.21240234 44.06982422 C48.01428995 39.72003741 48.0868489 35.61539502 48.10546875 30.95703125 C48.12104828 30.1036618 48.13662781 29.25029236 48.15267944 28.37106323 C48.19990137 25.6679565 48.22788435 22.96510541 48.25390625 20.26171875 C48.29038829 17.5370861 48.33091719 14.81259884 48.3765564 12.08810425 C48.40381028 10.39770055 48.42514973 8.70718942 48.44009399 7.01663208 C48.51818551 1.24743949 48.51818551 1.24743949 49.62890625 0.13671875 C52.14026729 0.03696843 54.6179404 -0.00210308 57.12890625 0.01171875 C57.83144531 0.00785156 58.53398437 0.00398437 59.2578125 0 C64.50229247 0.01010497 64.50229247 0.01010497 65.62890625 1.13671875 C65.75516631 4.20675117 65.81764328 7.25296763 65.83203125 10.32421875 C65.83773132 11.25588867 65.8434314 12.18755859 65.8493042 13.14746094 C65.85877551 15.12808084 65.86529659 17.10871665 65.86914062 19.08935547 C65.87877678 22.09631747 65.90975052 25.10257567 65.94140625 28.109375 C65.94794314 30.0351522 65.95319091 31.96093429 65.95703125 33.88671875 C65.96937805 34.77770264 65.98172485 35.66868652 65.9944458 36.58666992 C65.96011442 46.3902376 62.95888308 54.6121476 56.62890625 62.13671875 C47.82579979 70.41067674 38.9454988 73.47300999 26.88671875 73.2890625 C18.94328366 72.75308678 10.54770691 69.56228602 4.62890625 64.13671875 C4.62890625 63.47671875 4.62890625 62.81671875 4.62890625 62.13671875 C3.96890625 62.13671875 3.30890625 62.13671875 2.62890625 62.13671875 C1.2265625 60.44921875 1.2265625 60.44921875 -0.30859375 58.13671875 C-1.06462891 57.02296875 -1.06462891 57.02296875 -1.8359375 55.88671875 C-5.84827676 48.69922044 -6.80822194 42.87031483 -6.69921875 34.765625 C-6.69734558 33.80269028 -6.69547241 32.83975555 -6.69354248 31.84764099 C-6.68685841 29.82816058 -6.6730173 27.8086923 -6.65234375 25.78930664 C-6.62094274 22.68428646 -6.61134372 19.57977325 -6.60546875 16.47460938 C-6.59630777 14.50910833 -6.5859349 12.54361248 -6.57421875 10.578125 C-6.56996887 9.64593643 -6.56571899 8.71374786 -6.56134033 7.75331116 C-6.55173279 6.89829514 -6.54212524 6.04327911 -6.53222656 5.16235352 C-6.52539856 4.40704849 -6.51857056 3.65174347 -6.51153564 2.87355042 C-6.19703924 -1.01579702 -3.2289058 0.0062214 0 0 Z " fill="#FFFF" transform="translate(79.37109375,176.86328125)"/>
<path d="M0 0 C5.61 0 11.22 0 17 0 C17 6.6 17 13.2 17 20 C23.16288593 19.96046729 23.16288593 19.96046729 29.32568359 19.90991211 C30.47544678 19.90616577 30.47544678 19.90616577 31.6484375 19.90234375 C32.43395996 19.89710693 33.21948242 19.89187012 34.02880859 19.88647461 C36 20 36 20 38 21 C38 26.28 38 31.56 38 37 C35.65147472 38.17426264 34.26225935 38.11508173 31.6484375 38.09765625 C30.79765625 38.09443359 29.946875 38.09121094 29.0703125 38.08789062 C28.18085938 38.07951172 27.29140625 38.07113281 26.375 38.0625 C25.02921875 38.05573242 25.02921875 38.05573242 23.65625 38.04882812 C21.43743352 38.03702591 19.21874982 38.02056155 17 38 C17.02299692 41.83462289 17.10057389 45.66633552 17.1875 49.5 C17.19330078 50.57765625 17.19910156 51.6553125 17.20507812 52.765625 C17.39241586 59.59304461 18.18976005 64.88062912 23 70 C25.56478229 71.70119897 28.13837325 72.88234578 31 74 C32.33414087 74.58148404 33.66753481 75.16468634 35 75.75 C35.99 76.1625 36.98 76.575 38 77 C38 81.95 38 86.9 38 92 C34.02130663 93.98934668 29.23705963 92.79582079 25 92 C14.61582796 88.26349879 8.34268653 82.03664006 2.3828125 72.9765625 C-1.18982113 65.28631722 -0.13017558 55.94084197 -0.09765625 47.65625 C-0.09578788 46.27762911 -0.09436596 44.89900754 -0.09336853 43.52038574 C-0.08957635 39.916851 -0.07977478 36.31335748 -0.06866455 32.70983887 C-0.05837896 29.02271075 -0.05385569 25.33557588 -0.04882812 21.6484375 C-0.03814909 14.43227083 -0.02057957 7.21614647 0 0 Z " fill="#FFFF" transform="translate(225,157)"/>
<path d="M0 0 C0.70253906 0.00386719 1.40507812 0.00773438 2.12890625 0.01171875 C2.83144531 0.00785156 3.53398437 0.00398437 4.2578125 0 C9.50229247 0.01010497 9.50229247 0.01010497 10.62890625 1.13671875 C10.7232361 3.34539706 10.74633056 5.55713396 10.74243164 7.76782227 C10.74257767 8.4604718 10.74272369 9.15312134 10.74287415 9.86676025 C10.74217499 12.16641321 10.73438253 14.46598612 10.7265625 16.765625 C10.72469833 18.35603287 10.72327442 19.94644132 10.72227478 21.53684998 C10.71844954 25.73067805 10.7086192 29.9244717 10.6975708 34.11828613 C10.68735682 38.39460789 10.68277719 42.67093519 10.67773438 46.94726562 C10.66699694 55.34376583 10.64992044 63.74023801 10.62890625 72.13671875 C7.77695403 73.56269486 5.3042945 73.26874395 2.12890625 73.26171875 C0.3809375 73.26558594 0.3809375 73.26558594 -1.40234375 73.26953125 C-4.37109375 73.13671875 -4.37109375 73.13671875 -6.37109375 72.13671875 C-6.39421899 62.89674323 -6.41200976 53.65677761 -6.42290592 44.41677952 C-6.42813436 40.1267196 -6.43523128 35.83667942 -6.4465332 31.54663086 C-6.4573635 27.40992475 -6.46337089 23.27323767 -6.46597099 19.13651848 C-6.46782499 17.55479571 -6.47144511 15.97307404 -6.47682381 14.39135933 C-6.48403615 12.18349037 -6.48508461 9.97570102 -6.48461914 7.76782227 C-6.48683975 6.5087355 -6.48906036 5.24964874 -6.49134827 3.95240784 C-6.28420905 -0.89763561 -4.36756136 0.00841534 0 0 Z " fill="#FFFF" transform="translate(279.37109375,176.86328125)"/>
<path d="M0 0 C0.70253906 0.00386719 1.40507812 0.00773438 2.12890625 0.01171875 C2.83144531 0.00785156 3.53398437 0.00398437 4.2578125 0 C9.50229247 0.01010497 9.50229247 0.01010497 10.62890625 1.13671875 C10.75516631 4.20675117 10.81764328 7.25296763 10.83203125 10.32421875 C10.83773132 11.25588867 10.8434314 12.18755859 10.8493042 13.14746094 C10.85877551 15.12808084 10.86529659 17.10871665 10.86914062 19.08935547 C10.87877678 22.09631747 10.90975052 25.10257567 10.94140625 28.109375 C10.94794314 30.0351522 10.95319091 31.96093429 10.95703125 33.88671875 C10.96937805 34.77770264 10.98172485 35.66868652 10.9944458 36.58666992 C10.96011442 46.3902376 7.95888308 54.6121476 1.62890625 62.13671875 C-7.18354496 70.41945978 -16.03916928 73.44071955 -28.1015625 73.296875 C-33.45758606 72.9189112 -38.46528495 71.2830101 -43.37109375 69.13671875 C-40.19648692 68.11195853 -38.26053568 68.22810974 -35.05859375 69.07421875 C-28.2046609 70.6053072 -21.3509444 70.30423517 -14.37109375 70.13671875 C-14.37109375 69.47671875 -14.37109375 68.81671875 -14.37109375 68.13671875 C-11.2829968 66.37209192 -10.13797239 66.13671875 -6.37109375 66.13671875 C-6.37109375 65.47671875 -6.37109375 64.81671875 -6.37109375 64.13671875 C-5.38109375 64.13671875 -4.39109375 64.13671875 -3.37109375 64.13671875 C-3.04109375 62.48671875 -2.71109375 60.83671875 -2.37109375 59.13671875 C-1.05109375 59.13671875 0.26890625 59.13671875 1.62890625 59.13671875 C1.81453125 57.77546875 1.81453125 57.77546875 2.00390625 56.38671875 C2.55000302 53.54701552 3.20154428 51.61081284 4.62890625 49.13671875 C5.28890625 49.13671875 5.94890625 49.13671875 6.62890625 49.13671875 C7.81255842 39.44867495 7.9638994 29.75829806 8.19140625 20.01171875 C8.23468506 18.27473105 8.27830203 16.53775175 8.32226562 14.80078125 C8.42837969 10.57951376 8.52991154 6.35815895 8.62890625 2.13671875 C4.33890625 2.13671875 0.04890625 2.13671875 -4.37109375 2.13671875 C-4.35949219 3.16925781 -4.34789062 4.20179688 -4.3359375 5.265625 C-4.26651062 14.33424847 -4.4060516 23.3864817 -4.74609375 32.44921875 C-4.77695068 33.432854 -4.80780762 34.41648926 -4.83959961 35.42993164 C-5.27119596 45.79452506 -5.27119596 45.79452506 -8.99609375 49.94921875 C-9.67671875 50.53703125 -9.67671875 50.53703125 -10.37109375 51.13671875 C-11.36109375 50.80671875 -12.35109375 50.47671875 -13.37109375 50.13671875 C-12.93796875 49.78609375 -12.50484375 49.43546875 -12.05859375 49.07421875 C-7.34283532 43.65982945 -6.92194178 37.81467152 -6.89453125 30.95703125 C-6.87895172 30.1036618 -6.86337219 29.25029236 -6.84732056 28.37106323 C-6.80009863 25.6679565 -6.77211565 22.96510541 -6.74609375 20.26171875 C-6.70961171 17.5370861 -6.66908281 14.81259884 -6.6234436 12.08810425 C-6.59618972 10.39770055 -6.57485027 8.70718942 -6.55990601 7.01663208 C-6.46509783 0.01245684 -6.46509783 0.01245684 0 0 Z " fill="#FFFF" transform="translate(134.37109375,176.86328125)"/>
<path d="M0 0 C0 0.66 0 1.32 0 2 C-1.39412109 1.96519531 -1.39412109 1.96519531 -2.81640625 1.9296875 C-12.09947208 1.76496375 -12.09947208 1.76496375 -21 4 C-21 4.66 -21 5.32 -21 6 C-21.61875 6.598125 -22.2375 7.19625 -22.875 7.8125 C-26.75000925 11.80148011 -27.25149089 15.74501628 -27.31884766 21.16723633 C-27.33871735 22.38812454 -27.35858704 23.60901276 -27.37905884 24.86689758 C-27.39638565 26.82963875 -27.39638565 26.82963875 -27.4140625 28.83203125 C-27.43278547 30.19253194 -27.45235973 31.55302117 -27.4727478 32.91349792 C-27.52395602 36.48246479 -27.56364187 40.05146926 -27.60089111 43.62060547 C-27.64100201 47.26734635 -27.69206192 50.91393234 -27.7421875 54.56054688 C-27.83881261 61.70691768 -27.92326001 68.85338575 -28 76 C-30.81256281 76.02684312 -33.62487241 76.04676188 -36.4375 76.0625 C-37.23994141 76.07087891 -38.04238281 76.07925781 -38.86914062 76.08789062 C-40.91295221 76.0965143 -42.95683902 76.0522815 -45 76 C-46 75 -46 75 -46.12025452 72.60191345 C-46.11803391 71.53824051 -46.11581329 70.47456757 -46.11352539 69.37866211 C-46.11344986 68.17749252 -46.11337433 66.97632294 -46.11329651 65.73875427 C-46.10813522 64.4314888 -46.10297394 63.12422333 -46.09765625 61.77734375 C-46.09579198 60.43355868 -46.09436812 59.08977293 -46.09336853 57.74598694 C-46.08954402 54.20317723 -46.07971432 50.6604083 -46.06866455 47.11761475 C-46.05844899 43.50484773 -46.0538706 39.89207416 -46.04882812 36.27929688 C-46.03809198 29.1861812 -46.02101636 22.09309326 -46 15 C-45.34 14.67 -44.68 14.34 -44 14 C-44 34.13 -44 54.26 -44 75 C-39.38 75 -34.76 75 -30 75 C-30.0407666 73.20860596 -30.0815332 71.41721191 -30.12353516 69.5715332 C-30.25594924 63.64450448 -30.3786541 57.71734098 -30.49477577 51.78997517 C-30.5655158 48.19715765 -30.64011853 44.60450797 -30.72363281 41.01196289 C-30.80412557 37.54322015 -30.87436201 34.07440582 -30.93757248 30.60530663 C-30.97600958 28.6415303 -31.02499168 26.67796953 -31.0741272 24.71443176 C-31.09429901 23.5135643 -31.11447083 22.31269684 -31.13525391 21.07543945 C-31.15746002 20.02064896 -31.17966614 18.96585846 -31.20254517 17.87910461 C-30.99082971 14.86964779 -30.27138863 12.71868836 -29 10 C-28.34 10 -27.68 10 -27 10 C-26.67 8.35 -26.34 6.7 -26 5 C-25.01 5 -24.02 5 -23 5 C-23 4.34 -23 3.68 -23 3 C-16.5178982 -1.56693536 -7.25574227 -4.46773629 0 0 Z " fill="#FFFF" transform="translate(194,194)"/>
<path d="M0 0 C1.65 0 3.3 0 5 0 C5.33 0.99 5.66 1.98 6 3 C6.66 3 7.32 3 8 3 C8.33 2.01 8.66 1.02 9 0 C10.65 0.33 12.3 0.66 14 1 C14 1.66 14 2.32 14 3 C14.66 3 15.32 3 16 3 C16.33 2.01 16.66 1.02 17 0 C19.475 0.495 19.475 0.495 22 1 C21.69343615 7.62177926 20.25711277 12.22125154 17 18 C15.0625 17.6875 15.0625 17.6875 13 17 C12.67 16.01 12.34 15.02 12 14 C11.4225 14.680625 10.845 15.36125 10.25 16.0625 C8 18 8 18 5.96484375 17.875 C4 17 4 17 2.98828125 15.21484375 C1.4781861 10.12591038 0.48099784 5.29097628 0 0 Z " fill="#FFFF" transform="translate(306,260)"/>
<path d="M0 0 C5.61 0 11.22 0 17 0 C17.020625 2.619375 17.04125 5.23875 17.0625 7.9375 C17.071604 8.7637085 17.08070801 9.58991699 17.09008789 10.44116211 C17.09723945 12.29433759 17.0502852 14.14749308 17 16 C15.24440058 17.75559942 12.96417558 17.13221919 10.62890625 17.13671875 C9.92636719 17.13285156 9.22382813 17.12898438 8.5 17.125 C7.79746094 17.12886719 7.09492188 17.13273437 6.37109375 17.13671875 C1.12661378 17.12661378 1.12661378 17.12661378 0 16 C-0.07325436 13.3013095 -0.09222351 10.63497444 -0.0625 7.9375 C-0.041875 5.318125 -0.02125 2.69875 0 0 Z " fill="#FFFF" transform="translate(273,157)"/>
<path d="M0 0 C0.70253906 0.00386719 1.40507812 0.00773438 2.12890625 0.01171875 C2.83144531 0.00785156 3.53398437 0.00398437 4.2578125 0 C9.50229247 0.01010497 9.50229247 0.01010497 10.62890625 1.13671875 C10.7232361 3.34539706 10.74633056 5.55713396 10.74243164 7.76782227 C10.74257767 8.4604718 10.74272369 9.15312134 10.74287415 9.86676025 C10.74217499 12.16641321 10.73438253 14.46598612 10.7265625 16.765625 C10.72469833 18.35603287 10.72327442 19.94644132 10.72227478 21.53684998 C10.71844954 25.73067805 10.7086192 29.9244717 10.6975708 34.11828613 C10.68735682 38.39460789 10.68277719 42.67093519 10.67773438 46.94726562 C10.66699694 55.34376583 10.64992044 63.74023801 10.62890625 72.13671875 C9.96890625 72.13671875 9.30890625 72.13671875 8.62890625 72.13671875 C8.62890625 49.36671875 8.62890625 26.59671875 8.62890625 3.13671875 C4.33890625 3.13671875 0.04890625 3.13671875 -4.37109375 3.13671875 C-4.70109375 25.90671875 -5.03109375 48.67671875 -5.37109375 72.13671875 C-5.70109375 72.13671875 -6.03109375 72.13671875 -6.37109375 72.13671875 C-6.39421899 62.89674323 -6.41200976 53.65677761 -6.42290592 44.41677952 C-6.42813436 40.1267196 -6.43523128 35.83667942 -6.4465332 31.54663086 C-6.4573635 27.40992475 -6.46337089 23.27323767 -6.46597099 19.13651848 C-6.46782499 17.55479571 -6.47144511 15.97307404 -6.47682381 14.39135933 C-6.48403615 12.18349037 -6.48508461 9.97570102 -6.48461914 7.76782227 C-6.48683975 6.5087355 -6.48906036 5.24964874 -6.49134827 3.95240784 C-6.28420905 -0.89763561 -4.36756136 0.00841534 0 0 Z " fill="#FFFF" transform="translate(279.37109375,176.86328125)"/>
<path d="M0 0 C3.35932687 0.10497896 5.51604179 1.84723622 8 4 C8.99 5.485 8.99 5.485 10 7 C4.10838904 14.26731707 0.49462331 17.48485863 -8.875 18.625 C-10.23625 18.74875 -11.5975 18.8725 -13 19 C-13 15.37 -13 11.74 -13 8 C-11.5975 7.4225 -10.195 6.845 -8.75 6.25 C-5.74455323 4.93776268 -4.03662158 4.03662158 -1.6875 1.6875 C-1.130625 1.130625 -0.57375 0.57375 0 0 Z " fill="#FFFF" transform="translate(199,228)"/>
<path d="M0 0 C7.63409563 -0.8981289 7.63409563 -0.8981289 10.7109375 1.125 C12.94300536 3.60220826 13.9630312 5.81885288 14.625 9.0625 C13.79630875 12.95734887 11.98053881 14.45563761 9 17 C8.67 17.33 8.34 17.66 8 18 C3.62639754 18.50464644 1.68535922 18.52146897 -1.875 15.8125 C-4.02869848 12.96201672 -4.81931011 11.52345279 -5 8 C-4.5625 5.6875 -4.5625 5.6875 -4 4 C-3.34 4 -2.68 4 -2 4 C-1.34 2.68 -0.68 1.36 0 0 Z M3 6 C1.70366379 7.06645115 1.70366379 7.06645115 1.9375 9.5625 C1.958125 10.366875 1.97875 11.17125 2 12 C3.65 11.67 5.3 11.34 7 11 C6.67 9.35 6.34 7.7 6 6 C5.01 6 4.02 6 3 6 Z " fill="#FFFF" transform="translate(352,260)"/>
<path d="M0 0 C1.65 0 3.3 0 5 0 C5.66 0.66 6.32 1.32 7 2 C7.33 1.34 7.66 0.68 8 0 C9.98 0 11.96 0 14 0 C13.25 4.75 13.25 4.75 11 7 C11.25227637 9.60685584 11.68612495 10.71026918 13.625 12.5 C14.07875 12.995 14.5325 13.49 15 14 C14.6875 16.1875 14.6875 16.1875 14 18 C12.35 18 10.7 18 9 18 C9 17.34 9 16.68 9 16 C8.01 16 7.02 16 6 16 C5.67 16.66 5.34 17.32 5 18 C3.35 17.67 1.7 17.34 0 17 C0 11.39 0 5.78 0 0 Z " fill="#FFFF" transform="translate(424,260)"/>
<path d="M0 0 C3.3 0 6.6 0 10 0 C10 0.66 10 1.32 10 2 C10.66 2 11.32 2 12 2 C12.625 4.8125 12.625 4.8125 13 8 C12.01 9.485 12.01 9.485 11 11 C11.99 12.485 11.99 12.485 13 14 C12.625 16.1875 12.625 16.1875 12 18 C7.25 17.125 7.25 17.125 5 16 C4.67 16.66 4.34 17.32 4 18 C2.68 18 1.36 18 0 18 C0 12.06 0 6.12 0 0 Z " fill="#FFFF" transform="translate(389,260)"/>
<path d="M0 0 C0.33 1.32 0.66 2.64 1 4 C0.34 4 -0.32 4 -1 4 C-1.24878906 4.61359375 -1.49757812 5.2271875 -1.75390625 5.859375 C-3.22060339 8.37896758 -4.32770508 9.02529177 -6.9375 10.25 C-7.62714844 10.58515625 -8.31679687 10.9203125 -9.02734375 11.265625 C-11 12 -11 12 -14 12 C-14 15.63 -14 19.26 -14 23 C-11.59947288 22.43232818 -9.205835 21.84666398 -6.8125 21.25 C-6.13896484 21.09273437 -5.46542969 20.93546875 -4.77148438 20.7734375 C-0.28119931 19.63443836 2.5314028 18.01837709 6 15 C6.66 15 7.32 15 8 15 C8 14.34 8 13.68 8 13 C8.99 13 9.98 13 11 13 C11.103125 12.401875 11.20625 11.80375 11.3125 11.1875 C12.09824033 8.68741714 12.96918853 7.62464918 15 6 C15.66 6 16.32 6 17 6 C14.22678441 13.92151185 8.38251131 18.54687538 1.125 22.4375 C-4.04563235 24.84564984 -9.23043502 26.55167155 -15 26 C-17 24 -17 24 -17.1953125 20.7421875 C-17.17210937 19.46601563 -17.14890625 18.18984375 -17.125 16.875 C-17.10695312 15.59367188 -17.08890625 14.31234375 -17.0703125 12.9921875 C-17.04710937 12.00476563 -17.02390625 11.01734375 -17 10 C-15.96875 9.566875 -14.9375 9.13375 -13.875 8.6875 C-11.44935239 7.65144404 -9.11342061 6.5567103 -6.75 5.375 C-4 4 -4 4 -1 3 C-0.67 2.01 -0.34 1.02 0 0 Z " fill="#FFFF" transform="translate(200,224)"/>
<path d="M0 0 C0.66 0.66 1.32 1.32 2 2 C1.835 2.804375 1.67 3.60875 1.5 4.4375 C0.64354576 7.22774618 0.64354576 7.22774618 3 10 C2.84549572 13.09008561 2.43226549 14.53571484 0.3125 16.8125 C-2.60024146 18.3082321 -4.76999584 18.22022756 -8 18 C-8 17.34 -8 16.68 -8 16 C-8.66 16 -9.32 16 -10 16 C-9.814375 15.154375 -9.62875 14.30875 -9.4375 13.4375 C-8.8247882 9.95105674 -8.8247882 9.95105674 -9.625 6.3125 C-10 3 -10 3 -9 1.0625 C-5.94226576 -0.56192132 -3.39237275 -0.30839752 0 0 Z " fill="#FFFF" transform="translate(468,260)"/>
<path d="M0 0 C0.70253906 0.00386719 1.40507813 0.00773438 2.12890625 0.01171875 C2.83144531 0.00785156 3.53398438 0.00398437 4.2578125 0 C9.50229247 0.01010497 9.50229247 0.01010497 10.62890625 1.13671875 C10.71749271 3.8756596 10.74414104 6.58925145 10.7265625 9.328125 C10.72514755 10.14796371 10.7237326 10.96780243 10.72227478 11.81248474 C10.71665914 14.44143257 10.70410404 17.07029648 10.69140625 19.69921875 C10.68639326 21.47721232 10.68183001 23.25520721 10.67773438 25.03320312 C10.66668464 29.4010742 10.64940956 33.76888223 10.62890625 38.13671875 C10.29890625 38.13671875 9.96890625 38.13671875 9.62890625 38.13671875 C8.47905916 14.07555667 8.47905916 14.07555667 8.62890625 3.13671875 C4.33890625 3.13671875 0.04890625 3.13671875 -4.37109375 3.13671875 C-4.04109375 18.97671875 -3.71109375 34.81671875 -3.37109375 51.13671875 C-6.48675442 48.02105808 -6.49607755 44.926914 -6.50048828 40.65942383 C-6.50364044 39.78204056 -6.5067926 38.90465729 -6.51004028 38.00068665 C-6.50801605 37.06202255 -6.50599182 36.12335846 -6.50390625 35.15625 C-6.50486298 34.18765549 -6.5058197 33.21906097 -6.50680542 32.22111511 C-6.50748507 30.17776423 -6.50564577 28.13441117 -6.50146484 26.09106445 C-6.49609617 22.95063485 -6.50142603 19.81034714 -6.5078125 16.66992188 C-6.50715202 14.6861976 -6.50587149 12.70247341 -6.50390625 10.71875 C-6.5069426 9.30164482 -6.5069426 9.30164482 -6.51004028 7.85591125 C-6.50688812 6.98798447 -6.50373596 6.12005768 -6.50048828 5.22583008 C-6.49969269 4.45846024 -6.49889709 3.69109039 -6.49807739 2.90046692 C-6.21592741 -1.01847497 -3.25046636 0.00626294 0 0 Z " fill="#FFFF" transform="translate(79.37109375,176.86328125)"/>
<path d="M0 0 C1.95825873 -0.02694851 3.91662226 -0.04637218 5.875 -0.0625 C6.96554687 -0.07410156 8.05609375 -0.08570313 9.1796875 -0.09765625 C12 0 12 0 14 1 C13.67 2.65 13.34 4.3 13 6 C11.68 6 10.36 6 9 6 C9 9.63 9 13.26 9 17 C7.35 17.33 5.7 17.66 4 18 C3 17 3 17 2.90234375 14.49609375 C2.91394531 13.48675781 2.92554688 12.47742188 2.9375 11.4375 C2.94652344 10.42558594 2.95554687 9.41367187 2.96484375 8.37109375 C2.97644531 7.58863281 2.98804688 6.80617188 3 6 C1.68 5.67 0.36 5.34 -1 5 C-0.67 3.35 -0.34 1.7 0 0 Z " fill="#FFFF" transform="translate(254,260)"/>
<path d="M0 0 C-0.33 0.66 -0.66 1.32 -1 2 C-2.32 1.67 -3.64 1.34 -5 1 C-5 0.34 -5 -0.32 -5 -1 C-5.62648437 -1.20496094 -6.25296875 -1.40992188 -6.8984375 -1.62109375 C-7.71570313 -1.89050781 -8.53296875 -2.15992188 -9.375 -2.4375 C-10.59316406 -2.83775391 -10.59316406 -2.83775391 -11.8359375 -3.24609375 C-14 -4 -14 -4 -16 -5 C-18.95032632 -5.15144814 -21.86124618 -5.23142405 -24.8125 -5.25 C-25.62009766 -5.270625 -26.42769531 -5.29125 -27.25976562 -5.3125 C-32.13362901 -5.34443358 -34.92310515 -4.89466699 -39 -2 C-41.35142102 -1.18079526 -43.71111516 -0.51081565 -46.109375 0.15625 C-46.73328125 0.4346875 -47.3571875 0.713125 -48 1 C-48.33 1.99 -48.66 2.98 -49 4 C-49.99 3.67 -50.98 3.34 -52 3 C-51.01 2.67 -50.02 2.34 -49 2 C-49 1.34 -49 0.68 -49 0 C-32.82345526 -12.60818929 -16.18922791 -11.57979496 0 0 Z " fill="#FFFF" transform="translate(209,186)"/>
<path d="M0 0 C0.66 0.33 1.32 0.66 2 1 C1.67 22.12 1.34 43.24 1 65 C2.65 65.33 4.3 65.66 6 66 C6 66.33 6 66.66 6 67 C4.00045254 67.04254356 1.99958364 67.04080783 0 67 C-1.81415883 65.18584117 -1.12770573 62.37554299 -1.12939453 59.93554688 C-1.13254669 58.63750122 -1.13569885 57.33945557 -1.13894653 56.0020752 C-1.13715675 54.57429979 -1.1351058 53.14652469 -1.1328125 51.71875 C-1.13348558 50.26525862 -1.13445564 48.81176736 -1.13571167 47.35827637 C-1.13718846 44.30833873 -1.1350347 41.25843034 -1.13037109 38.20849609 C-1.1246738 34.29069441 -1.12795291 30.37296122 -1.13394356 26.45516205 C-1.13754969 23.45269246 -1.13641035 20.45023923 -1.13381577 17.44776917 C-1.13314664 16.00281262 -1.13397442 14.55785461 -1.13629532 13.11289978 C-1.13882265 11.09675117 -1.13429052 9.08059738 -1.12939453 7.06445312 C-1.12859894 5.91497192 -1.12780334 4.76549072 -1.12698364 3.58117676 C-1 1 -1 1 0 0 Z " fill="#FFFF" transform="translate(275,183)"/>
<path d="M0 0 C0.33 0 0.66 0 1 0 C1 6.6 1 13.2 1 20 C7.16288593 19.96046729 7.16288593 19.96046729 13.32568359 19.90991211 C14.47544678 19.90616577 14.47544678 19.90616577 15.6484375 19.90234375 C16.43395996 19.89710693 17.21948242 19.89187012 18.02880859 19.88647461 C20 20 20 20 22 21 C22 26.28 22 31.56 22 37 C21.67 37 21.34 37 21 37 C20.67 32.38 20.34 27.76 20 23 C18.57945312 23.02320313 17.15890625 23.04640625 15.6953125 23.0703125 C13.83854691 23.08906771 11.98177565 23.10726817 10.125 23.125 C8.71927734 23.15013672 8.71927734 23.15013672 7.28515625 23.17578125 C5.94130859 23.18544922 5.94130859 23.18544922 4.5703125 23.1953125 C3.74289551 23.20578613 2.91547852 23.21625977 2.06298828 23.22705078 C0 23 0 23 -2 21 C-2.22705078 19.12060547 -2.22705078 19.12060547 -2.1953125 16.8671875 C-2.18886719 16.06152344 -2.18242187 15.25585938 -2.17578125 14.42578125 C-2.15064453 13.16314453 -2.15064453 13.16314453 -2.125 11.875 C-2.11597656 11.02550781 -2.10695312 10.17601562 -2.09765625 9.30078125 C-2.07405647 7.20040116 -2.03818483 5.10016556 -2 3 C-1.34 3 -0.68 3 0 3 C0 2.01 0 1.02 0 0 Z " fill="#FFFF" transform="translate(241,157)"/>
<path d="M0 0 C1.65 0 3.3 0 5 0 C6.48520725 2.97041449 6.1705822 5.69764447 6.1875 9 C6.20167969 10.258125 6.21585938 11.51625 6.23046875 12.8125 C6 16 6 16 4 18 C2.68 18 1.36 18 0 18 C-1.12589491 14.62231526 -1.13294275 11.99187928 -1.125 8.4375 C-1.12757813 7.28121094 -1.13015625 6.12492187 -1.1328125 4.93359375 C-1 2 -1 2 0 0 Z " fill="#FFFF" transform="translate(226,260)"/>
<path d="M0 0 C0.33 0 0.66 0 1 0 C1 13.2 1 26.4 1 40 C0.01 40 -0.98 40 -2 40 C-2.04948633 34.94630355 -2.08576045 29.89274858 -2.10986328 24.83886719 C-2.1199127 23.12009219 -2.13355445 21.40133425 -2.15087891 19.68261719 C-2.17517391 17.21024359 -2.18649368 14.73809631 -2.1953125 12.265625 C-2.21079636 11.11540863 -2.21079636 11.11540863 -2.22659302 9.94195557 C-2.22739012 6.14043233 -2.14509572 3.22135482 0 0 Z " fill="#FFFF" transform="translate(317,209)"/>
<path d="M0 0 C1.81358154 0.47505678 3.62584179 0.95516042 5.4375 1.4375 C6.95150391 1.83775391 6.95150391 1.83775391 8.49609375 2.24609375 C11 3 11 3 12 4 C12.07313567 6.53049402 12.09247527 9.03304837 12.0625 11.5625 C12.05798828 12.27341797 12.05347656 12.98433594 12.04882812 13.71679688 C12.03700864 15.47790013 12.01907263 17.23896036 12 19 C7.65865003 21.17067498 1.20221352 19.71270266 -3.28125 18.26171875 C-4.88226323 17.56947738 -6.44685078 16.79383182 -8 16 C-8 15.67 -8 15.34 -8 15 C-5.9160597 15.11443603 -3.83283507 15.24195547 -1.75 15.375 C-0.58984375 15.44460937 0.5703125 15.51421875 1.765625 15.5859375 C5 16 5 16 9 18 C9 14.04 9 10.08 9 6 C6.03 5.01 3.06 4.02 0 3 C0 2.01 0 1.02 0 0 Z " fill="#FFFF" transform="translate(251,230)"/>
<path d="M0 0 C1.39456452 0.00667256 2.78911118 0.01863093 4.18359375 0.03515625 C4.89451172 0.03966797 5.60542969 0.04417969 6.33789062 0.04882812 C8.09899388 0.06064761 9.86005411 0.07858362 11.62109375 0.09765625 C11.29109375 1.08765625 10.96109375 2.07765625 10.62109375 3.09765625 C6.33109375 2.76765625 2.04109375 2.43765625 -2.37890625 2.09765625 C-2.36730469 3.13019531 -2.35570312 4.16273438 -2.34375 5.2265625 C-2.27432312 14.29518597 -2.4138641 23.3474192 -2.75390625 32.41015625 C-2.78476318 33.3937915 -2.81562012 34.37742676 -2.84741211 35.39086914 C-3.27900846 45.75546256 -3.27900846 45.75546256 -7.00390625 49.91015625 C-7.68453125 50.49796875 -7.68453125 50.49796875 -8.37890625 51.09765625 C-9.36890625 50.76765625 -10.35890625 50.43765625 -11.37890625 50.09765625 C-10.94578125 49.74703125 -10.51265625 49.39640625 -10.06640625 49.03515625 C-5.35064782 43.62076695 -4.92975428 37.77560902 -4.90234375 30.91796875 C-4.87897446 29.63791458 -4.87897446 29.63791458 -4.85513306 28.33200073 C-4.80791113 25.628894 -4.77992815 22.92604291 -4.75390625 20.22265625 C-4.71742421 17.4980236 -4.67689531 14.77353634 -4.6312561 12.04904175 C-4.60400222 10.35863805 -4.58266277 8.66812692 -4.56771851 6.97756958 C-4.47502114 0.12933587 -4.47502114 0.12933587 0 0 Z " fill="#FFFF" transform="translate(132.37890625,176.90234375)"/>
<path d="M0 0 C0.99 0 1.98 0 3 0 C2.67 0.99 2.34 1.98 2 3 C-9.88 3 -21.76 3 -34 3 C-29.88835171 -0.08373621 -29.11875246 -0.38971438 -24.31640625 -0.546875 C-23.22392578 -0.58683594 -22.13144531 -0.62679687 -21.00585938 -0.66796875 C-19.86955078 -0.69503906 -18.73324219 -0.72210938 -17.5625 -0.75 C-16.43005859 -0.79253906 -15.29761719 -0.83507812 -14.13085938 -0.87890625 C-9.20770889 -1.03556513 -4.82475065 -1.04006601 0 0 Z " fill="#FFFF" transform="translate(501,219)"/>
<path d="M0 0 C1.65 0 3.3 0 5 0 C5.33 0.99 5.66 1.98 6 3 C6.66 3 7.32 3 8 3 C8.33 2.01 8.66 1.02 9 0 C10.32 0.33 11.64 0.66 13 1 C12.67 1.66 12.34 2.32 12 3 C11.01 3.33 10.02 3.66 9 4 C9 6.31 9 8.62 9 11 C7.68 11 6.36 11 5 11 C4.67 12.65 4.34 14.3 4 16 C0.78235549 11.17353323 -0.36261136 5.80178176 0 0 Z " fill="#FFFF" transform="translate(306,260)"/>
<path d="M0 0 C0.33 0 0.66 0 1 0 C1 14.19 1 28.38 1 43 C0.34 43 -0.32 43 -1 43 C-1 44.32 -1 45.64 -1 47 C-1.66 47 -2.32 47 -3 47 C-2.84080078 45.69409912 -2.68160156 44.38819824 -2.51757812 43.04272461 C-2.0097416 38.46050674 -1.80387067 33.92330971 -1.71875 29.31640625 C-1.68101126 27.7141922 -1.64325022 26.11197867 -1.60546875 24.50976562 C-1.551574 22.01898744 -1.49928994 19.52818158 -1.44775391 17.03735352 C-1.3961514 14.60943193 -1.33892854 12.18168988 -1.28125 9.75390625 C-1.26767456 9.00500626 -1.25409912 8.25610626 -1.2401123 7.48451233 C-1.11299206 2.22598411 -1.11299206 2.22598411 0 0 Z " fill="#FFFF" transform="translate(144,178)"/>
<path d="M0 0 C0.33 1.32 0.66 2.64 1 4 C0.34 4 -0.32 4 -1 4 C-1.37318359 4.91845703 -1.37318359 4.91845703 -1.75390625 5.85546875 C-3.21707954 8.37359457 -4.34158743 9.06046768 -6.9375 10.3125 C-7.97197266 10.83263672 -7.97197266 10.83263672 -9.02734375 11.36328125 C-11 12 -11 12 -14 11 C-14.33 10.67 -14.66 10.34 -15 10 C-15 14.62 -15 19.24 -15 24 C-11.7 24 -8.4 24 -5 24 C-5 24.33 -5 24.66 -5 25 C-6.62324086 25.22162329 -8.248721 25.42689803 -9.875 25.625 C-11.23238281 25.79902344 -11.23238281 25.79902344 -12.6171875 25.9765625 C-13.79667969 25.98816406 -13.79667969 25.98816406 -15 26 C-17 24 -17 24 -17.1953125 20.7421875 C-17.17210937 19.46601563 -17.14890625 18.18984375 -17.125 16.875 C-17.10695312 15.59367188 -17.08890625 14.31234375 -17.0703125 12.9921875 C-17.04710937 12.00476563 -17.02390625 11.01734375 -17 10 C-15.96875 9.566875 -14.9375 9.13375 -13.875 8.6875 C-11.44935239 7.65144404 -9.11342061 6.5567103 -6.75 5.375 C-4 4 -4 4 -1 3 C-0.67 2.01 -0.34 1.02 0 0 Z " fill="#FFFF" transform="translate(200,224)"/>
<path d="M0 0 C0.70253906 0.00386719 1.40507813 0.00773438 2.12890625 0.01171875 C2.83144531 0.00785156 3.53398438 0.00398437 4.2578125 0 C9.50229247 0.01010497 9.50229247 0.01010497 10.62890625 1.13671875 C10.71749271 3.8756596 10.74414104 6.58925145 10.7265625 9.328125 C10.72514755 10.14796371 10.7237326 10.96780243 10.72227478 11.81248474 C10.71665914 14.44143257 10.70410404 17.07029648 10.69140625 19.69921875 C10.68639326 21.47721232 10.68183001 23.25520721 10.67773438 25.03320312 C10.66668464 29.4010742 10.64940956 33.76888223 10.62890625 38.13671875 C10.29890625 38.13671875 9.96890625 38.13671875 9.62890625 38.13671875 C8.96890625 26.58671875 8.30890625 15.03671875 7.62890625 3.13671875 C3.33890625 2.80671875 -0.95109375 2.47671875 -5.37109375 2.13671875 C-5.37109375 6.09671875 -5.37109375 10.05671875 -5.37109375 14.13671875 C-5.70109375 14.13671875 -6.03109375 14.13671875 -6.37109375 14.13671875 C-6.39795313 11.99095238 -6.41742463 9.8450923 -6.43359375 7.69921875 C-6.44519531 6.50425781 -6.45679687 5.30929688 -6.46875 4.078125 C-6.30391184 -0.88680046 -4.48579757 0.00864316 0 0 Z " fill="#FFFF" transform="translate(79.37109375,176.86328125)"/>
<path d="M0 0 C0.33 0 0.66 0 1 0 C1.00410889 0.6391333 1.00821777 1.2782666 1.01245117 1.93676758 C0.60356295 18.85777145 0.60356295 18.85777145 7 34 C10.98018198 37.54755351 14.92311083 38.7815466 20 40 C20 40.66 20 41.32 20 42 C17.36 41.67 14.72 41.34 12 41 C12 40.34 12 39.68 12 39 C11.2575 38.9175 10.515 38.835 9.75 38.75 C6.21993781 37.78725577 5.17212566 36.96857173 3 34 C-0.12404149 26.52006835 -0.37717043 19.38006477 -0.1875 11.375 C-0.17396484 10.27542969 -0.16042969 9.17585937 -0.14648438 8.04296875 C-0.111508 5.36144668 -0.06243072 2.68099927 0 0 Z " fill="#FFFF" transform="translate(88,192)"/>
<path d="M0 0 C4.65570936 3.65805735 6.65343068 8.37203077 8 14 C8.94288594 22.54451186 8.97257234 31.22037916 5 39 C4.67 39 4.34 39 4 39 C4.0721875 38.40574219 4.144375 37.81148437 4.21875 37.19921875 C5.53267441 25.46514378 4.82425375 15.51555845 2 4 C1.34 4 0.68 4 0 4 C0 2.68 0 1.36 0 0 Z " fill="#FFFF" transform="translate(213,191)"/>
<path d="M0 0 C0.474375 0.433125 0.94875 0.86625 1.4375 1.3125 C-1.88825637 2.44115035 -3.68453171 2.1816177 -6.9375 0.9375 C-13.90310406 -1.54293462 -20.2241214 -1.81802452 -27.5625 -1.6875 C-27.8925 -2.3475 -28.2225 -3.0075 -28.5625 -3.6875 C-18.73287757 -5.91172113 -8.59184099 -5.65804163 0 0 Z " fill="#FFFF" transform="translate(354.5625,181.6875)"/>
<path d="M0 0 C0.66 0 1.32 0 2 0 C2 0.99 2 1.98 2 3 C3.65 3 5.3 3 7 3 C7.33 2.01 7.66 1.02 8 0 C8.33 1.65 8.66 3.3 9 5 C8.34 5 7.68 5 7 5 C6.896875 5.928125 6.79375 6.85625 6.6875 7.8125 C5.9937139 11.02914465 5.65754784 12.16015919 3 14 C2.01 14 1.02 14 0 14 C0 9.38 0 4.76 0 0 Z " fill="#FFFF" transform="translate(390,263)"/>
<path d="M0 0 C0 0.66 0 1.32 0 2 C-1.39412109 1.96519531 -1.39412109 1.96519531 -2.81640625 1.9296875 C-12.09947208 1.76496375 -12.09947208 1.76496375 -21 4 C-21 4.66 -21 5.32 -21 6 C-21.61875 6.598125 -22.2375 7.19625 -22.875 7.8125 C-25.121484 10.12505706 -25.9906634 11.97199019 -27 15 C-27.33 15 -27.66 15 -28 15 C-27.125 7.25 -27.125 7.25 -26 5 C-25.01 5 -24.02 5 -23 5 C-23 4.34 -23 3.68 -23 3 C-16.5178982 -1.56693536 -7.25574227 -4.46773629 0 0 Z " fill="#FFFF" transform="translate(194,194)"/>
<path d="M0 0 C0.763125 0.66 1.52625 1.32 2.3125 2 C4.84277939 4.29850538 4.84277939 4.29850538 8 4 C7.01 6.31 6.02 8.62 5 11 C3.0625 10.6875 3.0625 10.6875 1 10 C0.67 9.01 0.34 8.02 0 7 C-0.5775 7.680625 -1.155 8.36125 -1.75 9.0625 C-2.86375 10.0215625 -2.86375 10.0215625 -4 11 C-6.25 10.75 -6.25 10.75 -8 10 C-7.67 9.34 -7.34 8.68 -7 8 C-6.34 8 -5.68 8 -5 8 C-5 7.34 -5 6.68 -5 6 C-4.01 6 -3.02 6 -2 6 C-2 4.68 -2 3.36 -2 2 C-1.34 2 -0.68 2 0 2 C0 1.34 0 0.68 0 0 Z " fill="#FFFF" transform="translate(318,267)"/>
<path d="M0 0 C1.5625 1.1875 1.5625 1.1875 3 3 C2.92206668 6.1173326 2.44296728 7.52422033 0.3125 9.8125 C-2.60024146 11.3082321 -4.76999584 11.22022756 -8 11 C-8 10.34 -8 9.68 -8 9 C-8.66 9 -9.32 9 -10 9 C-9.67 8.01 -9.34 7.02 -9 6 C-9 6.66 -9 7.32 -9 8 C-7.35 7.34 -5.7 6.68 -4 6 C-4.66 5.67 -5.32 5.34 -6 5 C-3.375 1.125 -3.375 1.125 0 0 Z " fill="#FFFF" transform="translate(468,267)"/>
<path d="M0 0 C2.31 0 4.62 0 7 0 C5.02 0.99 5.02 0.99 3 2 C3 5.96 3 9.92 3 14 C3.99 14 4.98 14 6 14 C6 14.66 6 15.32 6 16 C9.3 16 12.6 16 16 16 C16 16.33 16 16.66 16 17 C13.52076199 17.02685095 11.0418116 17.04676547 8.5625 17.0625 C7.85544922 17.07087891 7.14839844 17.07925781 6.41992188 17.08789062 C4.61306441 17.09653588 2.80612397 17.05220011 1 17 C0 16 0 16 -0.09765625 12.40234375 C-0.0909822 10.91403133 -0.07902183 9.42573568 -0.0625 7.9375 C-0.05798828 7.17888672 -0.05347656 6.42027344 -0.04882812 5.63867188 C-0.0370068 3.75908129 -0.01907078 1.87953101 0 0 Z " fill="#FFFF" transform="translate(273,157)"/>
<path d="M0 0 C0.83265381 0.00523682 1.66530762 0.01047363 2.52319336 0.01586914 C3.42231445 0.0190918 4.32143555 0.02231445 5.24780273 0.02563477 C6.66609375 0.03820312 6.66609375 0.03820312 8.11303711 0.05102539 C9.06243164 0.05553711 10.01182617 0.06004883 10.98999023 0.06469727 C13.34356776 0.07652429 15.69702188 0.09300514 18.05053711 0.11352539 C18.05053711 1.10352539 18.05053711 2.09352539 18.05053711 3.11352539 C11.78053711 3.11352539 5.51053711 3.11352539 -0.94946289 3.11352539 C-1.27946289 4.43352539 -1.60946289 5.75352539 -1.94946289 7.11352539 C-2.60946289 6.78352539 -3.26946289 6.45352539 -3.94946289 6.11352539 C-2.88228999 0.16784782 -2.88228999 0.16784782 0 0 Z " fill="#FFFF" transform="translate(242.949462890625,191.886474609375)"/>
<path d="M0 0 C0.33 0.99 0.66 1.98 1 3 C0.01 4.485 0.01 4.485 -1 6 C-0.67 6.99 -0.34 7.98 0 9 C0.66 8.67 1.32 8.34 2 8 C2.33 8.66 2.66 9.32 3 10 C4.65 10 6.3 10 8 10 C7.67 10.99 7.34 11.98 7 13 C6.01 13 5.02 13 4 13 C4 13.66 4 14.32 4 15 C5.65 15.33 7.3 15.66 9 16 C9 16.33 9 16.66 9 17 C4.64770828 17.42669527 2.67113339 17.51064497 -0.875 14.8125 C-3.02869848 11.96201672 -3.81931011 10.52345279 -4 7 C-3.5625 4.6875 -3.5625 4.6875 -3 3 C-2.34 3 -1.68 3 -1 3 C-0.67 2.01 -0.34 1.02 0 0 Z " fill="#FFFF" transform="translate(351,261)"/>
<path d="M0 0 C-0.96679688 -0.05800781 -1.93359375 -0.11601562 -2.9296875 -0.17578125 C-10.44227401 -0.43611841 -16.08771207 -0.23689232 -22.70703125 3.69921875 C-25.76318939 5.43295071 -28.90797849 6.31252845 -32.28515625 7.2265625 C-32.85105469 7.48179687 -33.41695312 7.73703125 -34 8 C-34.33 8.99 -34.66 9.98 -35 11 C-35.99 10.67 -36.98 10.34 -38 10 C-37.01 9.67 -36.02 9.34 -35 9 C-35 8.34 -35 7.68 -35 7 C-26.08915488 0.05478248 -10.73736092 -7.15824062 0 0 Z " fill="#FFFF" transform="translate(195,179)"/>
<path d="M0 0 C0.33 1.32 0.66 2.64 1 4 C-0.65 4.33 -2.3 4.66 -4 5 C-4 8.63 -4 12.26 -4 16 C-5.65 16.33 -7.3 16.66 -9 17 C-10 16 -10 16 -10.09765625 13.49609375 C-10.08605469 12.48675781 -10.07445312 11.47742188 -10.0625 10.4375 C-10.05347656 9.42558594 -10.04445313 8.41367187 -10.03515625 7.37109375 C-10.02355469 6.58863281 -10.01195312 5.80617188 -10 5 C-10.99 4.67 -11.98 4.34 -13 4 C-11.68 4 -10.36 4 -9 4 C-9 6.97 -9 9.94 -9 13 C-8.34 13 -7.68 13 -7 13 C-6.67 9.7 -6.34 6.4 -6 3 C-5.195625 2.87625 -4.39125 2.7525 -3.5625 2.625 C-2.716875 2.41875 -1.87125 2.2125 -1 2 C-0.67 1.34 -0.34 0.68 0 0 Z " fill="#FFFF" transform="translate(267,261)"/>
<path d="M0 0 C7.51827663 -0.69328371 12.02597761 0.32758025 18 5 C17.01 5.495 17.01 5.495 16 6 C15.34 5.690625 14.68 5.38125 14 5.0625 C7.33173136 2.70082152 0.54924537 3.72200161 -6 6 C-6 6.66 -6 7.32 -6 8 C-6.66 8 -7.32 8 -8 8 C-8.33 8.66 -8.66 9.32 -9 10 C-8.9375 7.6875 -8.9375 7.6875 -8 5 C-4.5 3.3125 -4.5 3.3125 -1 2 C-0.67 1.34 -0.34 0.68 0 0 Z " fill="#FFFF" transform="translate(462,192)"/>
<path d="M0 0 C4.20797709 2.33776505 7.89812164 4.65850848 10 9.125 C11.26235606 11.49191761 12.55556051 12.0222242 15 13 C15 13.66 15 14.32 15 15 C15.66 15.33 16.32 15.66 17 16 C16.01 16.33 15.02 16.66 14 17 C10.8125 15.1875 10.8125 15.1875 8 13 C8 12.34 8 11.68 8 11 C7.34 11 6.68 11 6 11 C4.4921875 9.1015625 4.4921875 9.1015625 2.875 6.625 C2.33617188 5.81289062 1.79734375 5.00078125 1.2421875 4.1640625 C0 2 0 2 0 0 Z " fill="#FFFF" transform="translate(76,228)"/>
<path d="M0 0 C1.92263794 0.37678528 1.92263794 0.37678528 4 1 C6.76374208 5.40181801 6.25475233 10.44149865 6.1953125 15.45703125 C6.1924826 16.35999435 6.18965271 17.26295746 6.18673706 18.19328308 C6.17557607 21.06649234 6.15047897 23.93938555 6.125 26.8125 C6.11496493 28.76496944 6.10584 30.71744379 6.09765625 32.66992188 C6.07565008 37.44673566 6.04114831 42.22331431 6 47 C5.34 47 4.68 47 4 47 C3.98541748 45.86046875 3.97083496 44.7209375 3.95581055 43.546875 C3.8975218 39.28989413 3.82029238 35.0334254 3.73754883 30.77685547 C3.70444262 28.94002642 3.67636683 27.10309914 3.65356445 25.26611328 C3.61975369 22.61448589 3.56742707 19.96374717 3.51171875 17.3125 C3.50213387 16.09481934 3.50213387 16.09481934 3.49235535 14.85253906 C3.35158597 9.30398399 2.19244608 5.10464745 0 0 Z " fill="#FFFF" transform="translate(352,202)"/>
<path d="M0 0 C-1.299375 0.144375 -2.59875 0.28875 -3.9375 0.4375 C-5.16919922 0.57478516 -5.16919922 0.57478516 -6.42578125 0.71484375 C-8.06875604 0.89684247 -9.71196521 1.07674584 -11.35546875 1.25390625 C-15.91954178 1.74880574 -20.4591666 2.32370566 -25 3 C-24.67 2.01 -24.34 1.02 -24 0 C-16.74831495 -2.59966068 -6.87279003 -4.12367402 0 0 Z " fill="#FFFF" transform="translate(402,179)"/>
<path d="M0 0 C0.66 0 1.32 0 2 0 C2 0.99 2 1.98 2 3 C1.34 3 0.68 3 0 3 C0 4.32 0 5.64 0 7 C-0.66 7 -1.32 7 -2 7 C-2 8.32 -2 9.64 -2 11 C-2.66 11 -3.32 11 -4 11 C-4.12117188 11.60328125 -4.24234375 12.2065625 -4.3671875 12.828125 C-4.53476562 13.62734375 -4.70234375 14.4265625 -4.875 15.25 C-5.11863281 16.43335938 -5.11863281 16.43335938 -5.3671875 17.640625 C-5.99150075 19.96831144 -6.84838542 21.89031952 -8 24 C-8.33303717 14.50844064 -6.16830256 7.39190605 0 0 Z " fill="#FFFF" transform="translate(309,189)"/>
<path d="M0 0 C2.00791214 0 4.01442427 0.14846715 6.015625 0.3125 C6.015625 1.9625 6.015625 3.6125 6.015625 5.3125 C4.84 5.43625 4.84 5.43625 3.640625 5.5625 C0.86813396 6.04056339 0.86813396 6.04056339 -0.296875 8.375 C-0.52375 9.014375 -0.750625 9.65375 -0.984375 10.3125 C-1.974375 10.3125 -2.964375 10.3125 -3.984375 10.3125 C-4.96052585 7.20656547 -5.08846334 5.62476501 -4.046875 2.5 C-1.984375 0.3125 -1.984375 0.3125 0 0 Z " fill="#FFFF" transform="translate(353.984375,260.6875)"/>
<path d="M0 0 C5.625 0 5.625 0 9 3 C7.71034824 4.37562854 6.37310707 5.70766393 5 7 C4.34 7 3.68 7 3 7 C2.67 6.01 2.34 5.02 2 4 C1.97287934 5.43739513 1.95354933 6.87493863 1.9375 8.3125 C1.92589844 9.11300781 1.91429687 9.91351563 1.90234375 10.73828125 C1.90342145 13.16861334 1.90342145 13.16861334 3 16 C3.66 16 4.32 16 5 16 C5 16.66 5 17.32 5 18 C3.35 17.67 1.7 17.34 0 17 C0 11.39 0 5.78 0 0 Z " fill="#FFFF" transform="translate(424,260)"/>
<path d="M0 0 C1.98 0.66 3.96 1.32 6 2 C6 2.99 6 3.98 6 5 C6.66 5 7.32 5 8 5 C8 5.99 8 6.98 8 8 C8.66 8 9.32 8 10 8 C10.05411124 10.41696872 10.09372278 12.83271787 10.125 15.25 C10.15013672 16.27287109 10.15013672 16.27287109 10.17578125 17.31640625 C10.21213482 21.0608235 10.07944349 23.82352727 8 27 C7.34 27 6.68 27 6 27 C6.17917969 26.23816406 6.35835937 25.47632813 6.54296875 24.69140625 C8.03405219 17.45287389 8.01604219 12.73249228 5 6 C4.67 5.01 4.34 4.02 4 3 C1.99983534 1.79117904 1.99983534 1.79117904 0 1 C0 0.67 0 0.34 0 0 Z " fill="#FFFF" transform="translate(195,197)"/>
<path d="M0 0 C3.12498063 -0.02895976 6.2499269 -0.04678483 9.375 -0.0625 C10.70917969 -0.07506836 10.70917969 -0.07506836 12.0703125 -0.08789062 C13.34648437 -0.09272461 13.34648437 -0.09272461 14.6484375 -0.09765625 C15.43395996 -0.10289307 16.21948242 -0.10812988 17.02880859 -0.11352539 C19 0 19 0 21 1 C21 6.28 21 11.56 21 17 C20.67 17 20.34 17 20 17 C19.67 12.38 19.34 7.76 19 3 C16.97875 2.855625 14.9575 2.71125 12.875 2.5625 C8.52584343 2.25184596 4.29143127 1.77610991 0 1 C0 0.67 0 0.34 0 0 Z " fill="#FFFF" transform="translate(242,177)"/>
<path d="M0 0 C4.95 0 9.9 0 15 0 C15.33 1.32 15.66 2.64 16 4 C15.01 5.485 15.01 5.485 14 7 C14 5.68 14 4.36 14 3 C9.71 3 5.42 3 1 3 C0.67 3.99 0.34 4.98 0 6 C0 4.02 0 2.04 0 0 Z " fill="#FFFF" transform="translate(274,177)"/>
<path d="M0 0 C-1.32171098 3.88379688 -2.90030836 6.30871782 -5.8125 9.1875 C-6.47894531 9.86167969 -7.14539063 10.53585938 -7.83203125 11.23046875 C-10.13155059 13.10737372 -12.2039206 14.04845465 -15 15 C-14.8125 13.125 -14.8125 13.125 -14 11 C-11.4375 9.75 -11.4375 9.75 -9 9 C-9 8.34 -9 7.68 -9 7 C-8.01 7 -7.02 7 -6 7 C-5.896875 6.401875 -5.79375 5.80375 -5.6875 5.1875 C-4.71993159 2.10887325 -3.39245825 0 0 0 Z " fill="#FFFF" transform="translate(217,230)"/>
<path d="M0 0 C-1.98 0.99 -1.98 0.99 -4 2 C-3.67 2.66 -3.34 3.32 -3 4 C-4.25 6.5625 -4.25 6.5625 -6 9 C-6.99 9.33 -7.98 9.66 -9 10 C-10.32296047 3.62573591 -10.32296047 3.62573591 -9 1.0625 C-6.00926074 -0.52633023 -3.31998061 -0.18792343 0 0 Z " fill="#FFFF" transform="translate(468,260)"/>
<path d="M0 0 C1.03125 -0.01417969 2.0625 -0.02835938 3.125 -0.04296875 C5.96545203 0.18473053 7.59107948 0.72245939 10 2.1875 C6.29275943 3.35183435 2.74235879 3.35481546 -1.125 3.375 C-2.36507813 3.38917969 -3.60515625 3.40335938 -4.8828125 3.41796875 C-8 3.1875 -8 3.1875 -10 1.1875 C-6.63007987 0.17490381 -3.51102519 0.02194391 0 0 Z " fill="#FFFF" transform="translate(468,176.8125)"/>
<path d="M0 0 C3.05333909 -0.2935903 5.95571805 -0.42891945 9 0 C11.625 2.3125 11.625 2.3125 13 5 C12.67 5.99 12.34 6.98 12 8 C11.01 8 10.02 8 9 8 C8.01 9.485 8.01 9.485 7 11 C6.15545644 7.62182575 5.89155081 5.32534757 7 2 C4.69 1.67 2.38 1.34 0 1 C0 0.67 0 0.34 0 0 Z " fill="#FFFF" transform="translate(352,260)"/>
<path d="M0 0 C0.66 0 1.32 0 2 0 C2 5.28 2 10.56 2 16 C0.35 16.33 -1.3 16.66 -3 17 C-2.67128906 16.44441406 -2.34257812 15.88882813 -2.00390625 15.31640625 C-0.84380783 12.63960327 -0.82816613 10.83703421 -0.9375 7.9375 C-1.04532726 4.81988584 -1.00098257 3.0029477 0 0 Z " fill="#FFFF" transform="translate(467,233)"/>
<path d="M0 0 C0.33 0.66 0.66 1.32 1 2 C0.278125 2.556875 -0.44375 3.11375 -1.1875 3.6875 C-4.07086423 5.9729976 -4.07086423 5.9729976 -6.6875 8.75 C-9 11 -9 11 -11 11 C-11.66 12.65 -12.32 14.3 -13 16 C-13.66 15.67 -14.32 15.34 -15 15 C-14.07265428 13.51444617 -13.13275187 12.03672494 -12.1875 10.5625 C-11.40439453 9.32693359 -11.40439453 9.32693359 -10.60546875 8.06640625 C-9 6 -9 6 -6 5 C-4.64631404 3.68733482 -3.31200404 2.35432675 -2 1 C-1.34 0.67 -0.68 0.34 0 0 Z " fill="#FFFF" transform="translate(166,184)"/>
<path d="M0 0 C1.32 0.33 2.64 0.66 4 1 C4.103125 2.051875 4.20625 3.10375 4.3125 4.1875 C4.97733415 7.87430754 5.88566296 9.96638599 8 13 C7.01 13.33 6.02 13.66 5 14 C-0.74031891 5.92255125 -0.74031891 5.92255125 0 0 Z " fill="#FFFF" transform="translate(226,221)"/>
<path d="M0 0 C2.0839403 0.11443603 4.16716493 0.24195547 6.25 0.375 C7.41015625 0.44460937 8.5703125 0.51421875 9.765625 0.5859375 C12.70694334 0.96248308 14.49949011 1.4774123 17 3 C17 3.66 17 4.32 17 5 C10.69732561 4.63223832 5.66748157 3.83374078 0 1 C0 0.67 0 0.34 0 0 Z " fill="#FFFF" transform="translate(243,245)"/>
<path d="M0 0 C0.80695313 0.14308594 1.61390625 0.28617188 2.4453125 0.43359375 C6.57851202 1.09218049 10.71749678 1.58685345 14.875 2.0625 C15.65875 2.15337891 16.4425 2.24425781 17.25 2.33789062 C19.16651283 2.55992565 21.08323547 2.78014839 23 3 C22.67 3.66 22.34 4.32 22 5 C14.01363551 5.33276519 7.39610896 4.23579767 0 1 C0 0.67 0 0.34 0 0 Z " fill="#FFFF" transform="translate(91,245)"/>
<path d="M0 0 C0.33 0 0.66 0 1 0 C1.01981934 0.6705542 1.03963867 1.3411084 1.06005859 2.03198242 C1.15559715 5.08420161 1.26515945 8.13576341 1.375 11.1875 C1.4059375 12.24259766 1.436875 13.29769531 1.46875 14.38476562 C1.50742188 15.40634766 1.54609375 16.42792969 1.5859375 17.48046875 C1.6173584 18.41785889 1.6487793 19.35524902 1.68115234 20.32104492 C2.02108635 23.17716732 2.90110281 25.35658124 4 28 C4.125 31.3125 4.125 31.3125 4 34 C-0.70724361 26.93913459 -0.25179798 19.77998456 -0.125 11.5625 C-0.11597656 10.44939453 -0.10695313 9.33628906 -0.09765625 8.18945312 C-0.0742224 5.45940977 -0.041414 2.7298199 0 0 Z " fill="#FFFF" transform="translate(88,192)"/>
<path d="M0 0 C1.65 1.32 3.3 2.64 5 4 C4.67 5.32 4.34 6.64 4 8 C2.35 8 0.7 8 -1 8 C-1 7.34 -1 6.68 -1 6 C-1.99 5.67 -2.98 5.34 -4 5 C-3.01 4.34 -2.02 3.68 -1 3 C-0.67 2.01 -0.34 1.02 0 0 Z " fill="#FFFF" transform="translate(434,270)"/>
<path d="M0 0 C1.65 0.33 3.3 0.66 5 1 C4.01 1.66 3.02 2.32 2 3 C1.319375 3.53625 0.63875 4.0725 -0.0625 4.625 C-2 6 -2 6 -4 6 C-5.73662334 9.22515763 -6.8905928 12.51329166 -8 16 C-8.66 15.01 -9.32 14.02 -10 13 C-8.95263552 8.46142058 -6.60881913 6.72861934 -3 4 C-1.23676495 1.87396815 -1.23676495 1.87396815 0 0 Z " fill="#FFFF" transform="translate(382,194)"/>
<path d="M0 0 C1.67542976 0.28604898 3.34385343 0.61781233 5 1 C4.67 3.97 4.34 6.94 4 10 C3.566875 9.34 3.13375 8.68 2.6875 8 C1.8521875 7.01 1.8521875 7.01 1 6 C0.01 6 -0.98 6 -2 6 C-1.125 1.125 -1.125 1.125 0 0 Z " fill="#FFFF" transform="translate(323,260)"/>
<path d="M0 0 C0.99 0 1.98 0 3 0 C3 0.66 3 1.32 3 2 C4.32 2.33 5.64 2.66 7 3 C7 6.3 7 9.6 7 13 C6.34 13 5.68 13 5 13 C5 10.03 5 7.06 5 4 C3.35 4 1.7 4 0 4 C0 2.68 0 1.36 0 0 Z " fill="#FFFF" transform="translate(253,261)"/>
<path d="M0 0 C1.65 0 3.3 0 5 0 C5.33 0.99 5.66 1.98 6 3 C6.66 3 7.32 3 8 3 C8.33 2.01 8.66 1.02 9 0 C10.32 0.33 11.64 0.66 13 1 C12.67 1.66 12.34 2.32 12 3 C11.01 3.33 10.02 3.66 9 4 C8.67 4.66 8.34 5.32 8 6 C6.68 6 5.36 6 4 6 C4 4.35 4 2.7 4 1 C3.01 1 2.02 1 1 1 C0.67 2.32 0.34 3.64 0 5 C0 3.35 0 1.7 0 0 Z " fill="#FFFF" transform="translate(306,260)"/>
<path d="M0 0 C0.33 0 0.66 0 1 0 C1.28883414 4.06534057 0.57875609 6.33058355 -1.5 9.8125 C-1.9640625 10.60269531 -2.428125 11.39289063 -2.90625 12.20703125 C-3.44765625 13.09455078 -3.44765625 13.09455078 -4 14 C-4.66 14 -5.32 14 -6 14 C-5.38909774 7.52443609 -5.38909774 7.52443609 -3.5625 5.0625 C-2 4 -2 4 0 4 C0 2.68 0 1.36 0 0 Z " fill="#FFFF" transform="translate(143,221)"/>
<path d="M0 0 C-1.19295133 3.57885399 -2.24467062 4.18134909 -5.3125 6.25 C-6.48232422 7.06210938 -6.48232422 7.06210938 -7.67578125 7.890625 C-10 9 -10 9 -12.29296875 8.671875 C-12.85628906 8.45015625 -13.41960937 8.2284375 -14 8 C-13.01 7.67 -12.02 7.34 -11 7 C-11 6.34 -11 5.68 -11 5 C-9.54462432 4.16151196 -8.08559627 3.32936066 -6.625 2.5 C-5.40683594 1.80390625 -5.40683594 1.80390625 -4.1640625 1.09375 C-2 0 -2 0 0 0 Z " fill="#FFFF" transform="translate(325,179)"/>
<path d="M0 0 C1.5 1.3125 1.5 1.3125 3 3 C3 3.99 3 4.98 3 6 C0.08517222 6.80967438 -1.46113217 7.21845993 -4.3125 6.0625 C-4.869375 5.711875 -5.42625 5.36125 -6 5 C-3.375 1.125 -3.375 1.125 0 0 Z " fill="#FFFF" transform="translate(468,267)"/>
<path d="M0 0 C4.35670418 3.45531711 5.88653233 7.6968743 7 13 C6.6875 16.0625 6.6875 16.0625 6 18 C3.90284215 14.85426323 3.47995441 12.98543749 2.875 9.3125 C2.70742187 8.31863281 2.53984375 7.32476562 2.3671875 6.30078125 C2.24601563 5.54152344 2.12484375 4.78226563 2 4 C1.34 4 0.68 4 0 4 C0 2.68 0 1.36 0 0 Z " fill="#FFFF" transform="translate(213,191)"/>
<path d="M0 0 C0 0.66 0 1.32 0 2 C-1.19625 2.226875 -2.3925 2.45375 -3.625 2.6875 C-8.16767308 3.7948776 -10.64032749 5.80831111 -14 9 C-14.66 8.34 -15.32 7.68 -16 7 C-5.44101124 -2.30196629 -5.44101124 -2.30196629 0 0 Z " fill="#FFFF" transform="translate(458,180)"/>
<path d="M0 0 C2.64 0.99 5.28 1.98 8 3 C8 3.66 8 4.32 8 5 C10.475 5.99 10.475 5.99 13 7 C13 7.33 13 7.66 13 8 C10.8125 8.3125 10.8125 8.3125 8 8 C6.29319053 6.37446717 4.62339805 4.70884005 3 3 C2.01 3 1.02 3 0 3 C0 2.01 0 1.02 0 0 Z " fill="#FFFF" transform="translate(404,179)"/>
<path d="M0 0 C1.32 0 2.64 0 4 0 C4 2.97 4 5.94 4 9 C5.65 9 7.3 9 9 9 C8.67 10.32 8.34 11.64 8 13 C6.35 12.67 4.7 12.34 3 12 C3 8.37 3 4.74 3 1 C2.01 0.67 1.02 0.34 0 0 Z " fill="#FFFF" transform="translate(254,265)"/>
<path d="M0 0 C0.33 0 0.66 0 1 0 C1.05384521 2.29141286 1.09272087 4.58318188 1.125 6.875 C1.14820313 8.15117187 1.17140625 9.42734375 1.1953125 10.7421875 C1 14 1 14 -1 16 C-2.32 16 -3.64 16 -5 16 C-5 15.01 -5 14.02 -5 13 C-3.68 12.67 -2.36 12.34 -1 12 C-0.67 8.04 -0.34 4.08 0 0 Z " fill="#FFFF" transform="translate(231,262)"/>
<path d="M0 0 C0.33 0 0.66 0 1 0 C1 5.94 1 11.88 1 18 C0.67 18 0.34 18 0 18 C0 15.36 0 12.72 0 10 C-0.66 10 -1.32 10 -2 10 C-2 7.69 -2 5.38 -2 3 C-1.34 3 -0.68 3 0 3 C0 2.01 0 1.02 0 0 Z " fill="#FFFF" transform="translate(241,157)"/>
<path d="M0 0 C0 0.66 0 1.32 0 2 C1.98 2.66 3.96 3.32 6 4 C6 4.33 6 4.66 6 5 C1.17639811 5.19294408 -2.49646738 4.75747614 -7 3 C-4.49955934 -0.00052879 -4.2621484 0 0 0 Z " fill="#FFFF" transform="translate(98,242)"/>
<path d="M0 0 C5.71241466 0.38728235 8.73688282 0.87010523 13 5 C9.86846113 6.3778771 8.71220527 5.90076044 5.375 4.75 C2 3 2 3 0 0 Z " fill="#FFFF" transform="translate(343,178)"/>
<path d="M0 0 C0.5534764 2.07553648 1 3.84365964 1 6 C1.66 6 2.32 6 3 6 C2.979375 6.78375 2.95875 7.5675 2.9375 8.375 C2.81315937 10.98114961 2.81315937 10.98114961 4 13 C2.35 12.67 0.7 12.34 -1 12 C-1.02687279 10.18757948 -1.04633715 8.37504767 -1.0625 6.5625 C-1.07410156 5.55316406 -1.08570313 4.54382813 -1.09765625 3.50390625 C-1 1 -1 1 0 0 Z " fill="#FFFF" transform="translate(426,263)"/>
<path d="M0 0 C0 3 0 3 -2 6 C-4.1640625 6.29296875 -4.1640625 6.29296875 -6.625 6.1875 C-7.44226563 6.16042969 -8.25953125 6.13335937 -9.1015625 6.10546875 C-10.04128906 6.05326172 -10.04128906 6.05326172 -11 6 C-11 5.34 -11 4.68 -11 4 C-10.28972656 3.79503906 -9.57945313 3.59007812 -8.84765625 3.37890625 C-7.92855469 3.10949219 -7.00945312 2.84007812 -6.0625 2.5625 C-4.68771484 2.16224609 -4.68771484 2.16224609 -3.28515625 1.75390625 C-1.0597507 1.20973949 -1.0597507 1.20973949 0 0 Z " fill="#FFFF" transform="translate(120,228)"/>
<path d="M0 0 C0.33 0 0.66 0 1 0 C1.63019694 8.03501094 1.63019694 8.03501094 -1 12.0625 C-1.66 12.701875 -2.32 13.34125 -3 14 C-2.58846263 9.02906176 -2.20399168 4.55491614 0 0 Z " fill="#FFFF" transform="translate(435,197)"/>
<path d="M0 0 C0.99 0.33 1.98 0.66 3 1 C2.67 2.65 2.34 4.3 2 6 C-0.31 6 -2.62 6 -5 6 C-4.67 5.01 -4.34 4.02 -4 3 C-3.01 2.67 -2.02 2.34 -1 2 C-0.67 1.34 -0.34 0.68 0 0 Z " fill="#FFFF" transform="translate(359,271)"/>
<path d="M0 0 C2.31 0 4.62 0 7 0 C7.33 1.32 7.66 2.64 8 4 C6.125 4.625 6.125 4.625 4 5 C2 3 2 3 0 0 Z " fill="#FFFF" transform="translate(462,261)"/>
<path d="M0 0 C1.134375 0.020625 2.26875 0.04125 3.4375 0.0625 C3.7675 1.3825 4.0975 2.7025 4.4375 4.0625 C0.1475 3.7325 -4.1425 3.4025 -8.5625 3.0625 C-7.2425 2.4025 -5.9225 1.7425 -4.5625 1.0625 C-3.5625 0.0625 -3.5625 0.0625 0 0 Z " fill="#FFFF" transform="translate(395.5625,191.9375)"/>
<path d="M0 0 C5.445 1.485 5.445 1.485 11 3 C10.67 3.66 10.34 4.32 10 5 C6.28111761 4.49287967 3.26545761 3.88391785 0 2 C0 1.34 0 0.68 0 0 Z " fill="#FFFF" transform="translate(251,230)"/>
<path d="M0 0 C0.33 0 0.66 0 1 0 C0.67 6.6 0.34 13.2 0 20 C-0.33 20 -0.66 20 -1 20 C-1.22295635 17.60472566 -1.42874063 15.20998659 -1.625 12.8125 C-1.68945312 12.13896484 -1.75390625 11.46542969 -1.8203125 10.77148438 C-2.14362111 6.62909282 -1.89095265 3.71694891 0 0 Z " fill="#FFFF" transform="translate(165,204)"/>
<path d="M0 0 C0.33 0.99 0.66 1.98 1 3 C-3.77573323 5.61895048 -7.84434881 4.83119431 -13 4 C-13 3.67 -13 3.34 -13 3 C-12.31292969 2.86722656 -11.62585938 2.73445312 -10.91796875 2.59765625 C-9.56638672 2.33275391 -9.56638672 2.33275391 -8.1875 2.0625 C-6.84751953 1.80146484 -6.84751953 1.80146484 -5.48046875 1.53515625 C-2.88602829 1.02258847 -2.88602829 1.02258847 0 0 Z " fill="#FFFF" transform="translate(201,243)"/>
<path d="M0 0 C0.33 1.32 0.66 2.64 1 4 C0.34 4 -0.32 4 -1 4 C-1.268125 4.639375 -1.53625 5.27875 -1.8125 5.9375 C-3 8 -3 8 -6 9 C-6.33 8.01 -6.66 7.02 -7 6 C-3.25 3 -3.25 3 -1 3 C-0.67 2.01 -0.34 1.02 0 0 Z " fill="#FFFF" transform="translate(200,224)"/>
<path d="M0 0 C3.3 1.65 6.6 3.3 10 5 C9.01 5.66 8.02 6.32 7 7 C3.93369336 6.1025444 2.26961192 5.26961192 0 3 C0 2.01 0 1.02 0 0 Z " fill="#FFFF" transform="translate(453,226)"/>
<path d="M0 0 C0.33 0 0.66 0 1 0 C1.22786458 1.98567708 1.45572917 3.97135417 1.68359375 5.95703125 C1.97170735 8.19396393 1.97170735 8.19396393 3 11 C3.66 11 4.32 11 5 11 C5 11.66 5 12.32 5 13 C3.35 12.67 1.7 12.34 0 12 C0 8.04 0 4.08 0 0 Z " fill="#FFFF" transform="translate(424,265)"/>
<path d="M0 0 C0.66 0.33 1.32 0.66 2 1 C0.14285714 8.57142857 0.14285714 8.57142857 -3 11 C-3.99 10.67 -4.98 10.34 -6 10 C-5.566875 9.649375 -5.13375 9.29875 -4.6875 8.9375 C-2.31641544 6.21514365 -1.3283165 3.35241784 0 0 Z " fill="#FFFF" transform="translate(127,217)"/>
<path d="M0 0 C2.52480693 2.52480693 2.55738633 4.13823034 3.125 7.625 C3.29257813 8.62789062 3.46015625 9.63078125 3.6328125 10.6640625 C3.75398438 11.43492187 3.87515625 12.20578125 4 13 C3.01 12.34 2.02 11.68 1 11 C0.48828125 8.3984375 0.48828125 8.3984375 0.3125 5.375 C0.24675781 4.37210938 0.18101563 3.36921875 0.11328125 2.3359375 C0.07589844 1.56507813 0.03851563 0.79421875 0 0 Z " fill="#FFFF" transform="translate(75,217)"/>
<path d="M0 0 C1.32 0.33 2.64 0.66 4 1 C3.2575 1.5775 2.515 2.155 1.75 2.75 C-0.66087643 4.72253526 -2.84042701 6.76044282 -5 9 C-5 7.68 -5 6.36 -5 5 C-4.34 5 -3.68 5 -3 5 C-3 4.34 -3 3.68 -3 3 C-2.34 3 -1.68 3 -1 3 C-0.67 2.01 -0.34 1.02 0 0 Z " fill="#FFFF" transform="translate(325,195)"/>
<path d="M0 0 C3.08089673 2.77280706 4.68775452 5.06326356 6 9 C5.01 9 4.02 9 3 9 C3 8.34 3 7.68 3 7 C2.34 7 1.68 7 1 7 C1 6.01 1 5.02 1 4 C0.34 3.67 -0.32 3.34 -1 3 C-0.67 2.01 -0.34 1.02 0 0 Z " fill="#FFFF" transform="translate(418,188)"/>
<path d="M0 0 C2.31 1.98 4.62 3.96 7 6 C5.02 6.99 5.02 6.99 3 8 C0.9375 5.6875 0.9375 5.6875 -1 3 C-0.67 2.01 -0.34 1.02 0 0 Z " fill="#FFFF" transform="translate(244,223)"/>
<path d="M0 0 C-2.61941217 1.74627478 -4.03824877 2.38722388 -7 3 C-7 3.66 -7 4.32 -7 5 C-7.66 5 -8.32 5 -9 5 C-9.33 5.66 -9.66 6.32 -10 7 C-9.6875 4.625 -9.6875 4.625 -9 2 C-5.5647952 -0.29013653 -4.014669 -0.17842973 0 0 Z " fill="#FFFF" transform="translate(463,195)"/>
<path d="M0 0 C1.32 1.32 2.64 2.64 4 4 C3.01 4.495 3.01 4.495 2 5 C1.34 4.67 0.68 4.34 0 4 C-1.87056791 3.7724985 -3.74685958 3.59037189 -5.625 3.4375 C-6.62789063 3.35371094 -7.63078125 3.26992187 -8.6640625 3.18359375 C-9.43492187 3.12300781 -10.20578125 3.06242188 -11 3 C-11 2.67 -11 2.34 -11 2 C-10.28972656 1.93941406 -9.57945312 1.87882813 -8.84765625 1.81640625 C-7.46900391 1.69072266 -7.46900391 1.69072266 -6.0625 1.5625 C-5.14597656 1.48128906 -4.22945313 1.40007812 -3.28515625 1.31640625 C-1.03840268 1.23955024 -1.03840268 1.23955024 0 0 Z " fill="#FFFF" transform="translate(342,192)"/>
<path d="M0 0 C1.98 0 3.96 0 6 0 C6 0.99 6 1.98 6 3 C7.32 3.33 8.64 3.66 10 4 C9.67 4.66 9.34 5.32 9 6 C4.545 4.02 4.545 4.02 0 2 C0 1.34 0 0.68 0 0 Z " fill="#FFFF" transform="translate(193,179)"/>
<path d="M0 0 C0.66 0.99 1.32 1.98 2 3 C0.25 5.0625 0.25 5.0625 -2 7 C-4.25 6.75 -4.25 6.75 -6 6 C-5.67 5.34 -5.34 4.68 -5 4 C-4.34 4 -3.68 4 -3 4 C-3 3.34 -3 2.68 -3 2 C-2.01 2 -1.02 2 0 2 C0 1.34 0 0.68 0 0 Z " fill="#FFFF" transform="translate(316,271)"/>
<path d="M0 0 C0.33 0.99 0.66 1.98 1 3 C0.01 4.485 0.01 4.485 -1 6 C-1.39013716 7.9896995 -1.73202649 9.99019869 -2 12 C-4 9 -4 9 -3.625 5.8125 C-3.41875 4.884375 -3.2125 3.95625 -3 3 C-2.34 3 -1.68 3 -1 3 C-0.67 2.01 -0.34 1.02 0 0 Z " fill="#FFFF" transform="translate(351,261)"/>
<path d="M0 0 C0.99 0.99 1.98 1.98 3 3 C2.34 3.66 1.68 4.32 1 5 C0.29289322 6.64991582 -0.37943989 8.31562256 -1 10 C-2.1875 8.375 -2.1875 8.375 -3 6 C-1.625 2.75 -1.625 2.75 0 0 Z " fill="#FFFF" transform="translate(352,261)"/>
<path d="M0 0 C0.66 0.33 1.32 0.66 2 1 C2 1.99 2 2.98 2 4 C1.34 4 0.68 4 0 4 C-0.66 5.32 -1.32 6.64 -2 8 C-2.99 7.67 -3.98 7.34 -5 7 C-3.35 4.69 -1.7 2.38 0 0 Z " fill="#FFFF" transform="translate(441,188)"/>
<path d="M0 0 C1.74965358 -0.05429959 3.49979787 -0.09292823 5.25 -0.125 C6.22453125 -0.14820313 7.1990625 -0.17140625 8.203125 -0.1953125 C11.0196498 0.00137219 12.60949036 0.55431084 15 2 C12.36 2.33 9.72 2.66 7 3 C7 2.67 7 2.34 7 2 C4.69 1.67 2.38 1.34 0 1 C0 0.67 0 0.34 0 0 Z " fill="#FFFF" transform="translate(463,177)"/>
<path d="M0 0 C1.32 0.33 2.64 0.66 4 1 C3.01 2.485 3.01 2.485 2 4 C1.54398739 6.50896686 1.54398739 6.50896686 1.375 9.1875 C1.30023438 10.08855469 1.22546875 10.98960937 1.1484375 11.91796875 C1.09945312 12.60503906 1.05046875 13.29210937 1 14 C0.67 14 0.34 14 0 14 C0 9.38 0 4.76 0 0 Z " fill="#FFFF" transform="translate(225,157)"/>
<path d="M0 0 C1.32 0.33 2.64 0.66 4 1 C4 2.32 4 3.64 4 5 C3.34 5 2.68 5 2 5 C1.67 5.99 1.34 6.98 1 8 C0 2.25 0 2.25 0 0 Z " fill="#FFFF" transform="translate(322,265)"/>
<path d="M0 0 C0 0.33 0 0.66 0 1 C-1.98 1 -3.96 1 -6 1 C-6.33 2.32 -6.66 3.64 -7 5 C-7.66 4.67 -8.32 4.34 -9 4 C-9.33 5.32 -9.66 6.64 -10 8 C-10.21917317 5.29686424 -10.32851983 3.56041618 -8.9375 1.1875 C-6.00731249 -0.60842137 -3.3527047 -0.18977574 0 0 Z " fill="#FFFF" transform="translate(468,260)"/>
<path d="M0 0 C1.65 0 3.3 0 5 0 C5 3.96 5 7.92 5 12 C4.67 12 4.34 12 4 12 C3.67 9.03 3.34 6.06 3 3 C2.01 2.67 1.02 2.34 0 2 C0 1.34 0 0.68 0 0 Z " fill="#FFFF" transform="translate(226,260)"/>
<path d="M0 0 C1.32 0.33 2.64 0.66 4 1 C1.44931155 3.35448165 0.28982642 3.98327924 -3.25 4.1875 C-4.1575 4.125625 -5.065 4.06375 -6 4 C-6 3.34 -6 2.68 -6 2 C-4.02 2 -2.04 2 0 2 C0 1.34 0 0.68 0 0 Z " fill="#FFFF" transform="translate(120,245)"/>
<path d="M0 0 C0.33 0 0.66 0 1 0 C1 2.64 1 5.28 1 8 C2.65 8.33 4.3 8.66 6 9 C6 9.33 6 9.66 6 10 C4.02 10 2.04 10 0 10 C-0.95024979 6.30458414 -0.95024979 3.69541586 0 0 Z " fill="#FFFF" transform="translate(275,240)"/>
<path d="M0 0 C0.33 0.66 0.66 1.32 1 2 C2.98 2 4.96 2 7 2 C6.67 2.66 6.34 3.32 6 4 C-0.0546875 4.1953125 -0.0546875 4.1953125 -2 4 C-2.66 3.34 -3.32 2.68 -4 2 C-2.68 2 -1.36 2 0 2 C0 1.34 0 0.68 0 0 Z " fill="#FFFF" transform="translate(108,232)"/>
<path d="M0 0 C0.66 0 1.32 0 2 0 C1.34 2.97 0.68 5.94 0 9 C-0.33 8.34 -0.66 7.68 -1 7 C-1.66 7 -2.32 7 -3 7 C-3 5.68 -3 4.36 -3 3 C-2.34 3 -1.68 3 -1 3 C-0.67 2.01 -0.34 1.02 0 0 Z " fill="#FFFF" transform="translate(450,203)"/>
<path d="M0 0 C0.66 0.99 1.32 1.98 2 3 C1 6 1 6 0 8 C-0.66 8 -1.32 8 -2 8 C-2.6875 5.6875 -2.6875 5.6875 -3 3 C-1.5625 1.1875 -1.5625 1.1875 0 0 Z " fill="#FFFF" transform="translate(154,197)"/>
<path d="M0 0 C0.99 0 1.98 0 3 0 C2.67 0.99 2.34 1.98 2 3 C1.34 3 0.68 3 0 3 C-0.33 3.66 -0.66 4.32 -1 5 C-1.99 5.66 -2.98 6.32 -4 7 C-4.66 6.34 -5.32 5.68 -6 5 C-2.25 2 -2.25 2 0 2 C0 1.34 0 0.68 0 0 Z " fill="#FFFF" transform="translate(372,182)"/>
<path d="M0 0 C0.99 0 1.98 0 3 0 C3.33 1.98 3.66 3.96 4 6 C3.01 6 2.02 6 1 6 C0.67 4.02 0.34 2.04 0 0 Z " fill="#FFFF" transform="translate(398,262)"/>
<path d="M0 0 C0 0.66 0 1.32 0 2 C-3.3 1.67 -6.6 1.34 -10 1 C-6.1496895 -1.56687367 -4.41430237 -0.83288724 0 0 Z " fill="#FFFF" transform="translate(260,248)"/>
<path d="M0 0 C0.66 0.33 1.32 0.66 2 1 C1.67 1.99 1.34 2.98 1 4 C0.34 4 -0.32 4 -1 4 C-1.66 5.65 -2.32 7.3 -3 9 C-3.66 8.67 -4.32 8.34 -5 8 C-3.35 5.36 -1.7 2.72 0 0 Z " fill="#FFFF" transform="translate(156,191)"/>
<path d="M0 0 C2.91517292 1.07401108 4.77810176 1.77810176 7 4 C5.68 4.33 4.36 4.66 3 5 C2.67 4.34 2.34 3.68 2 3 C-0.02463255 2.34786708 -0.02463255 2.34786708 -2 2 C-1.34 1.34 -0.68 0.68 0 0 Z " fill="#FFFF" transform="translate(480,179)"/>
<path d="M0 0 C0.33 0 0.66 0 1 0 C1.39253254 4.44870215 0.15305957 7.14243493 -2 11 C-2.33 11 -2.66 11 -3 11 C-3 9.02 -3 7.04 -3 5 C-2.01 4.67 -1.02 4.34 0 4 C0 2.68 0 1.36 0 0 Z " fill="#FFFF" transform="translate(143,221)"/>
<path d="M0 0 C0.66 0 1.32 0 2 0 C1.49287967 3.71888239 0.88391785 6.73454239 -1 10 C-1.125 2.25 -1.125 2.25 0 0 Z " fill="#FFFF" transform="translate(302,203)"/>
<path d="M0 0 C1.39195915 4.17587745 -0.17676781 6.13474776 -2 10 C-2.66 9.01 -3.32 8.02 -4 7 C-3.1025444 3.93369336 -2.26961192 2.26961192 0 0 Z " fill="#FFFF" transform="translate(376,200)"/>
<path d="M0 0 C-0.99 0.33 -1.98 0.66 -3 1 C-3.33 1.66 -3.66 2.32 -4 3 C-5.65 3 -7.3 3 -9 3 C-8.67 2.01 -8.34 1.02 -8 0 C-5.04215769 -1.22393475 -3.00272755 -0.96516243 0 0 Z " fill="#FFFF" transform="translate(386,179)"/>
<path d="M0 0 C0.66 0.33 1.32 0.66 2 1 C1.67 2.32 1.34 3.64 1 5 C-0.32 5.33 -1.64 5.66 -3 6 C-2.625 3.5625 -2.625 3.5625 -2 1 C-1.34 0.67 -0.68 0.34 0 0 Z " fill="#FFFF" transform="translate(432,269)"/>
<path d="M0 0 C1.32 1.65 2.64 3.3 4 5 C3.01 5.99 2.02 6.98 1 8 C-1.125 3.375 -1.125 3.375 0 0 Z " fill="#FFFF" transform="translate(309,262)"/>
</svg>
