<?xml version="1.0" encoding="UTF-8"?>
<svg xmlns="http://www.w3.org/2000/svg" id="Layer_1" version="1.1" viewBox="0 0 1007.45 383.26" fill="#ffffff">
  <path d="M346.78,228.98c-4.47,4.12-10.74,6.17-18.83,6.17-4.32,0-8.51-.76-12.55-2.3-4.05-1.53-7.67-4.04-10.88-7.53-3.21-3.48-5.58-8.09-7.11-13.81-1.09-4.07-1.57-8.82-1.46-14.23h74.68c1.39-7.25,1.46-14.09.21-20.5-1.26-6.41-3.77-12.1-7.53-17.05-3.77-4.95-8.58-8.89-14.44-11.82s-12.83-4.39-20.92-4.39c-7.39,0-14.09,1.29-20.08,3.87-6,2.58-11.12,6.24-15.38,10.98-4.26,4.74-7.53,10.32-9.83,16.74-2.3,6.42-3.45,13.46-3.45,21.13s1.05,14.19,3.14,20.4c2.09,6.21,5.19,11.72,9.31,16.53,4.11,4.81,9.21,8.61,15.27,11.4,6.07,2.79,12.93,4.18,20.61,4.18,8.37,0,15.65-1.46,21.86-4.39,6.2-2.93,11.23-6.9,15.06-11.92,3.83-5.02,6.1-10.81,6.8-17.36l-16.53-1.25c-.84,6-3.49,11.06-7.95,15.17ZM301.69,170.71c2.72-4.32,6.31-7.74,10.77-10.25,4.46-2.51,9.55-3.77,15.27-3.77,6.41,0,11.61,1.36,15.59,4.08s6.9,6.24,8.79,10.57c1.88,4.32,2.68,9.07,2.41,14.23h-57.74c.56-5.58,2.2-10.53,4.92-14.85Z"></path>
  <path d="M444.22,248.75c-5.16,0-10.08-.91-14.75-2.72-4.67-1.81-8.82-4.36-12.45-7.64-3.63-3.28-6.49-7.22-8.58-11.82v19.46h-17.15V100h17.15v65.48c2.23-4.6,5.16-8.54,8.79-11.82,3.63-3.28,7.74-5.79,12.34-7.53,4.6-1.74,9.48-2.62,14.64-2.62,6.41,0,12.31,1.26,17.68,3.77,5.37,2.51,10.07,6.14,14.12,10.88,4.04,4.74,7.15,10.29,9.31,16.63,2.16,6.35,3.24,13.49,3.24,21.44s-1.08,14.72-3.24,21.13c-2.16,6.42-5.27,11.96-9.31,16.63-4.05,4.67-8.75,8.3-14.12,10.88-5.37,2.58-11.26,3.87-17.68,3.87ZM408.66,196.24c0,7.95,1.29,14.79,3.87,20.5,2.58,5.72,6.31,10.15,11.19,13.29,4.88,3.14,10.39,4.71,16.53,4.71,4.6,0,8.82-.91,12.66-2.72,3.83-1.81,7.15-4.39,9.94-7.74,2.79-3.35,4.92-7.43,6.38-12.24s2.2-10.08,2.2-15.79c0-7.95-1.33-14.82-3.97-20.61-2.65-5.79-6.28-10.28-10.88-13.49-4.6-3.21-10.04-4.81-16.32-4.81-4.6,0-8.89.91-12.87,2.72-3.97,1.81-7.32,4.39-10.04,7.74-2.72,3.35-4.85,7.43-6.38,12.24-1.54,4.81-2.3,10.22-2.3,16.21Z"></path>
  <path d="M544.59,248.75c-8.51,0-15.97-1.46-22.38-4.39-6.42-2.93-11.51-7.08-15.27-12.45-3.77-5.37-5.86-11.82-6.28-19.35l16.53-1.05c.14,4.88,1.39,9.17,3.77,12.87,2.37,3.7,5.58,6.56,9.62,8.58,4.04,2.02,8.79,3.03,14.23,3.03,4.46,0,8.4-.7,11.82-2.09,3.42-1.39,6-3.35,7.74-5.86,1.74-2.51,2.62-5.37,2.62-8.58,0-3.9-1.15-6.97-3.45-9.21-2.3-2.23-5.27-4.04-8.89-5.44-3.63-1.39-7.71-2.58-12.24-3.56-4.53-.97-9-2.09-13.39-3.35-4.39-1.25-8.47-2.82-12.24-4.71s-6.73-4.43-8.89-7.64c-2.16-3.21-3.24-7.39-3.24-12.55,0-6.13,1.64-11.4,4.92-15.79,3.28-4.39,7.77-7.77,13.49-10.15,5.72-2.37,12.34-3.56,19.87-3.56s13.95,1.22,19.67,3.66c5.72,2.44,10.25,5.86,13.6,10.25,3.35,4.39,5.16,9.52,5.44,15.38l-15.9,1.05c-.42-5.02-2.58-9.27-6.49-12.76-3.91-3.48-9.41-5.23-16.53-5.23-4.18,0-7.85.66-10.98,1.99-3.14,1.33-5.62,3.11-7.43,5.33-1.81,2.23-2.72,4.88-2.72,7.95,0,3.49,1.08,6.24,3.24,8.26,2.16,2.02,5.13,3.63,8.89,4.81,3.77,1.19,7.91,2.27,12.45,3.24,4.53.98,9,2.09,13.39,3.35,4.39,1.25,8.44,2.9,12.13,4.92,3.69,2.02,6.7,4.81,9,8.37,2.3,3.56,3.45,8.05,3.45,13.49,0,6.56-1.64,12.17-4.92,16.84-3.28,4.67-7.88,8.23-13.81,10.67-5.93,2.44-12.87,3.66-20.82,3.66Z"></path>
  <path d="M655.89,227.41c-1.96,2.51-4.29,4.29-7.01,5.33-2.72,1.05-5.27,1.57-7.64,1.57-4.33,0-7.81-1.43-10.46-4.29-2.65-2.86-3.97-7.5-3.97-13.91v-56.69h30.75v-13.39h-30.75v-30.54h-16.95v30.54h-19.88v13.39h19.88v59c0,6.56,1.25,12.1,3.77,16.63,2.51,4.53,5.96,7.95,10.36,10.25,4.39,2.3,9.31,3.45,14.75,3.45,2.93,0,5.68-.28,8.26-.84,2.58-.56,4.95-1.4,7.11-2.51,2.16-1.11,4.01-2.3,5.54-3.56l-3.77-14.43Z"></path>
  <path d="M733.46,228.98c-4.46,4.12-10.74,6.17-18.83,6.17-4.33,0-8.51-.76-12.55-2.3-4.05-1.53-7.67-4.04-10.88-7.53-3.21-3.48-5.58-8.09-7.11-13.81-1.09-4.07-1.57-8.82-1.46-14.23h74.69c1.39-7.25,1.46-14.09.21-20.5-1.25-6.41-3.77-12.1-7.53-17.05-3.77-4.95-8.58-8.89-14.43-11.82-5.86-2.93-12.83-4.39-20.92-4.39-7.39,0-14.09,1.29-20.08,3.87-6,2.58-11.12,6.24-15.38,10.98-4.26,4.74-7.53,10.32-9.83,16.74-2.3,6.42-3.45,13.46-3.45,21.13s1.05,14.19,3.14,20.4c2.09,6.21,5.19,11.72,9.31,16.53,4.11,4.81,9.21,8.61,15.27,11.4,6.07,2.79,12.93,4.18,20.61,4.18,8.37,0,15.66-1.46,21.86-4.39,6.2-2.93,11.23-6.9,15.06-11.92,3.83-5.02,6.1-10.81,6.8-17.36l-16.53-1.25c-.84,6-3.49,11.06-7.95,15.17ZM688.37,170.71c2.72-4.32,6.31-7.74,10.77-10.25,4.46-2.51,9.55-3.77,15.27-3.77,6.41,0,11.61,1.36,15.59,4.08,3.97,2.72,6.9,6.24,8.79,10.57,1.88,4.32,2.68,9.07,2.41,14.23h-57.74c.56-5.58,2.2-10.53,4.92-14.85Z"></path>
  <path d="M830.9,248.75c-5.16,0-10.08-.87-14.75-2.62-4.67-1.74-8.82-4.22-12.45-7.43-3.63-3.21-6.49-7.11-8.58-11.72v56.28h-17.16v-137.24h17.16v19.46c2.09-4.6,4.95-8.54,8.58-11.82,3.62-3.28,7.77-5.79,12.45-7.53,4.67-1.74,9.66-2.62,14.96-2.62,6.28,0,12.1,1.26,17.47,3.77,5.37,2.51,10.07,6.14,14.12,10.88,4.04,4.74,7.15,10.29,9.31,16.63,2.16,6.35,3.24,13.49,3.24,21.44s-1.08,14.72-3.24,21.13c-2.16,6.42-5.27,11.96-9.31,16.63-4.05,4.67-8.75,8.3-14.12,10.88-5.37,2.58-11.26,3.87-17.68,3.87ZM795.13,196.24c0,8.09,1.32,15.03,3.97,20.82,2.65,5.79,6.38,10.18,11.19,13.18,4.81,3,10.21,4.5,16.21,4.5,4.74,0,9.06-.91,12.97-2.72,3.9-1.81,7.25-4.39,10.04-7.74,2.79-3.35,4.92-7.39,6.38-12.13,1.46-4.74,2.2-10.04,2.2-15.9,0-8.09-1.33-14.99-3.97-20.71-2.65-5.72-6.31-10.18-10.98-13.39-4.67-3.21-10.22-4.81-16.63-4.81-4.47,0-8.65.91-12.55,2.72-3.91,1.81-7.25,4.33-10.04,7.53-2.79,3.21-4.95,7.25-6.49,12.13-1.54,4.88-2.3,10.39-2.3,16.53Z"></path>
  <g>
    <g>
      <polygon points="264.39 196.03 247.86 196.03 231.34 246.03 247.86 246.03 264.39 196.03"></polygon>
      <polygon points="198.29 196.03 214.81 196.03 231.34 246.03 214.81 246.03 198.29 196.03"></polygon>
    </g>
    <g>
      <polygon points="264.39 146.03 247.86 146.03 231.34 196.03 247.86 196.03 264.39 146.03"></polygon>
      <polygon points="198.29 146.03 214.81 146.03 231.34 196.03 214.81 196.03 198.29 146.03"></polygon>
    </g>
    <g>
      <polygon points="198.29 196.03 181.77 196.03 165.24 246.03 181.77 246.03 198.29 196.03"></polygon>
      <polygon points="132.19 196.03 148.72 196.03 165.24 246.03 148.72 246.03 132.19 196.03"></polygon>
    </g>
    <g>
      <polygon points="198.29 146.03 181.77 146.03 165.24 196.03 181.77 196.03 198.29 146.03"></polygon>
      <polygon points="132.19 146.03 148.72 146.03 165.24 196.03 148.72 196.03 132.19 146.03"></polygon>
    </g>
  </g>
  <g>
    <g>
      <polygon points="264.39 196.03 247.86 196.03 231.34 246.03 247.86 246.03 264.39 196.03"></polygon>
      <polygon points="198.29 196.03 214.81 196.03 231.34 246.03 214.81 246.03 198.29 196.03"></polygon>
    </g>
    <g>
      <polygon points="264.39 146.03 247.86 146.03 231.34 196.03 247.86 196.03 264.39 146.03"></polygon>
      <polygon points="198.29 146.03 214.81 146.03 231.34 196.03 214.81 196.03 198.29 146.03"></polygon>
    </g>
    <g>
      <polygon points="198.29 196.03 181.77 196.03 165.24 246.03 181.77 246.03 198.29 196.03"></polygon>
      <polygon points="132.19 196.03 148.72 196.03 165.24 246.03 148.72 246.03 132.19 196.03"></polygon>
    </g>
    <g>
      <polygon points="198.29 146.03 181.77 146.03 165.24 196.03 181.77 196.03 198.29 146.03"></polygon>
      <polygon points="132.19 146.03 148.72 146.03 165.24 196.03 148.72 196.03 132.19 146.03"></polygon>
    </g>
  </g>
</svg>
