<?xml version="1.0" encoding="UTF-8"?>
<svg id="Layer_1" data-name="Layer 1" xmlns="http://www.w3.org/2000/svg" viewBox="0 0 800 800">
  <defs>
    <style>
      .cls-1 {
        opacity: .4;
      }

      .cls-1, .cls-2 {
        fill: #fff;
      }

      .cls-3, .cls-4 {
        fill: #5c9eff;
      }

      .cls-5 {
        fill: #006bc4;
      }

      .cls-6 {
        fill: #02dfff;
      }

      .cls-7 {
        fill: #f0567a;
      }

      .cls-4 {
        opacity: .5;
      }

      .cls-2 {
        opacity: .7;
      }
    </style>
  </defs>
  <circle class="cls-4" cx="400" cy="400" r="400"/>
  <g>
    <path class="cls-6" d="M400,123.01v259.43l271.9-61.48c-1.58-6.41-10.28-10.45-25.47-10.8l-118.47-2.37c-31.77-2.22-59.49-22.37-71.4-51.9l-38.91-111.89c-4.83-13.96-11.24-20.99-17.65-20.99Z"/>
    <path class="cls-6" d="M400,382.44l166.86,258.2c6.15-3.16,7.64-12.82,3.07-27.93l-34.25-113.47c-7.75-30.86,2.83-63.44,27.23-83.87l94.41-71.66c11.5-8.69,16.25-16.69,14.58-22.75l-271.9,61.48Z"/>
    <path class="cls-6" d="M128.1,320.96l271.9,61.48V123.01c-6.41,0-12.82,7.03-17.65,20.99l-38.91,111.89c-11.92,29.53-39.63,49.68-71.4,51.9l-118.47,2.37c-15.19.35-23.89,4.39-25.47,10.8Z"/>
    <path class="cls-6" d="M400,382.44l-166.86,258.2c5.27,2.81,14.14.7,25.47-7.2l97.31-67.62c26.95-16.95,61.23-16.95,88.17,0l97.31,67.62c11.33,7.9,20.2,10.01,25.47,7.2l-166.86-258.2Z"/>
    <path class="cls-6" d="M400,382.44l-271.9-61.48c-1.67,6.06,3.07,14.05,14.58,22.75l94.41,71.66c24.4,20.43,34.97,53.01,27.23,83.87l-34.25,113.47c-4.57,15.11-3.07,24.77,3.07,27.93l166.86-258.2Z"/>
    <path class="cls-3" d="M474.8,435.69c-6.89.03-12.49-5.52-12.53-12.41-.03-6.89,5.52-12.49,12.41-12.53h.12c6.89,0,12.47,5.58,12.47,12.47s-5.58,12.47-12.47,12.47Z"/>
    <path class="cls-7" d="M356.27,536.48c-7.48.04-13.58-6-13.62-13.48-.04-7.48,6-13.58,13.48-13.62h.13c7.48,0,13.55,6.07,13.55,13.55s-6.07,13.55-13.55,13.55Z"/>
    <path class="cls-7" d="M315.07,419.14c-5.69.03-10.33-4.56-10.35-10.25-.03-5.69,4.56-10.33,10.25-10.35h.1c5.69,0,10.3,4.61,10.3,10.3s-4.61,10.3-10.3,10.3Z"/>
    <path class="cls-3" d="M337.7,344.52c-9.16.04-16.63-7.35-16.67-16.51-.04-9.16,7.35-16.63,16.51-16.67h.16c9.16,0,16.59,7.43,16.59,16.59s-7.43,16.59-16.59,16.59Z"/>
    <path class="cls-7" d="M514.88,400.76c-4.85.02-8.8-3.89-8.83-8.74-.02-4.85,3.89-8.8,8.74-8.83h.09c4.85,0,8.78,3.93,8.78,8.78s-3.93,8.78-8.78,8.78Z"/>
    <path class="cls-5" d="M561.73,650.66c-9.27-.7-18.11-4.19-25.35-10.02l-97.26-67.69c-23.99-14.75-54.24-14.75-78.23,0l-97.26,67.68c-19.28,13.43-30.64,10.93-36.78,6.47-6.13-4.45-12.02-14.49-5.21-36.96l34.31-113.42c6.63-27.38-2.73-56.15-24.18-74.4l-94.43-71.59c-18.71-14.19-19.85-25.76-17.51-32.98,2.35-7.21,10.07-15.9,33.55-16.38l118.48-2.41c28.08-2.17,52.55-19.95,63.29-45.98l38.91-111.93h0c7.71-22.19,18.36-26.84,25.94-26.84s18.23,4.66,25.94,26.84l38.91,111.93c10.74,26.03,35.21,43.81,63.29,45.98l118.48,2.41c23.48.48,31.2,9.17,33.55,16.38,2.34,7.21,1.2,18.78-17.51,32.98l-94.43,71.59c-21.45,18.25-30.8,47.03-24.18,74.4l34.31,113.42c6.8,22.49.92,32.52-5.21,36.97-3.32,2.39-7.33,3.64-11.42,3.56ZM400,544.39c17.43-.31,34.55,4.62,49.15,14.14l97.26,67.69c10.82,7.52,15.85,7.08,16.42,6.66.55-.39,2.54-5.08-1.27-17.68l-34.31-113.41c-8.66-34.41,3.14-70.74,30.37-93.49l94.43-71.59c10.49-7.95,11.63-12.91,11.42-13.55-.21-.64-4.05-3.98-17.2-4.25l-118.48-2.41c-35.39-2.41-66.29-24.86-79.51-57.78l-38.91-111.93c-4.32-12.43-8.68-15.04-9.36-15.04s-5.03,2.62-9.36,15.04l-38.91,111.93c-13.23,32.92-44.12,55.37-79.51,57.78l-118.48,2.41c-13.16.27-16.99,3.6-17.2,4.25-.21.64.93,5.6,11.42,13.55l94.43,71.59c27.23,22.75,39.03,59.08,30.37,93.49l-34.32,113.42c-3.81,12.59-1.82,17.27-1.27,17.67.57.42,5.6.86,16.42-6.67l97.26-67.68c14.6-9.53,31.72-14.46,49.15-14.15Z"/>
    <path class="cls-5" d="M399.99,391.2c-4.85,0-8.78-3.94-8.78-8.79,0-4.1,2.85-7.66,6.85-8.56l271.9-61.48c4.73-1.07,9.44,1.9,10.51,6.63,1.07,4.73-1.9,9.44-6.63,10.51h0l-271.9,61.48c-.64.14-1.29.21-1.95.21Z"/>
    <path class="cls-5" d="M400,391.2c-4.85,0-8.78-3.92-8.78-8.77h0V122.99c0-4.85,3.93-8.78,8.78-8.78s8.78,3.93,8.78,8.78v259.43c0,4.85-3.92,8.78-8.77,8.78h-.01Z"/>
    <path class="cls-5" d="M400.01,391.2c-.65,0-1.31-.07-1.95-.21l-271.9-61.48c-4.73-1.07-7.7-5.77-6.63-10.51,1.07-4.73,5.77-7.7,10.51-6.63l271.9,61.48c4.73,1.07,7.7,5.77,6.63,10.5-.9,4-4.46,6.84-8.56,6.85Z"/>
    <path class="cls-5" d="M233.13,649.39c-4.85,0-8.78-3.94-8.77-8.79,0-1.69.49-3.34,1.41-4.76l166.86-258.19c2.63-4.07,8.07-5.24,12.14-2.61,4.07,2.63,5.24,8.07,2.61,12.14h0l-166.86,258.19c-1.62,2.51-4.4,4.02-7.38,4.01Z"/>
    <path class="cls-5" d="M566.87,649.39c-2.98,0-5.77-1.51-7.38-4.01l-166.86-258.19c-2.63-4.07-1.47-9.51,2.61-12.14s9.51-1.47,12.14,2.61l166.86,258.19c2.63,4.07,1.47,9.51-2.61,12.14-1.42.92-3.07,1.41-4.76,1.41h0Z"/>
  </g>
  <circle class="cls-3" cx="378.69" cy="705.07" r="38.65"/>
  <circle class="cls-3" cx="161.12" cy="514.69" r="56.04"/>
  <circle class="cls-3" cx="655.2" cy="496.56" r="23.19"/>
  <path class="cls-2" d="M120.4,256.76c-3.59,0-7.23-.74-10.72-2.29-13.29-5.93-19.25-21.51-13.33-34.79,47.46-106.4,128.45-126.88,153.99-134.49,13.94-4.16,28.62,3.78,32.78,17.72,4.16,13.95-3.78,28.62-17.72,32.78-53.34,15.9-103.36,66.11-120.92,105.45-4.37,9.8-14,15.63-24.07,15.63Z"/>
  <path class="cls-1" d="M558.18,741.87c-10.78,0-20.89-6.66-24.77-17.38-4.96-13.69,2.11-28.79,15.79-33.75,62.43-22.62,118.11-78.58,152.76-153.51,6.11-13.2,21.77-18.95,34.97-12.85,13.21,6.11,18.96,21.77,12.85,34.97-40.51,87.6-107.08,153.54-182.64,180.92-2.96,1.07-5.99,1.59-8.98,1.59Z"/>
</svg>