<?xml version="1.0" encoding="UTF-8"?>
<svg id="Layer_1" data-name="Layer 1" xmlns="http://www.w3.org/2000/svg" viewBox="0 0 800 800">
  <defs>
    <style>
      .cls-1 {
        opacity: .4;
      }

      .cls-1, .cls-2 {
        fill: #fff;
      }

      .cls-3, .cls-4 {
        fill: #5c9eff;
      }

      .cls-5 {
        fill: #006bc4;
      }

      .cls-6 {
        fill: #02dfff;
      }

      .cls-7 {
        fill: #f0567a;
      }

      .cls-4 {
        opacity: .5;
      }

      .cls-2 {
        opacity: .7;
      }
    </style>
  </defs>
  <circle class="cls-4" cx="400" cy="400" r="400"/>
  <g>
    <path class="cls-6" d="M522.95,377.78v52.69h-35.13l-43.91-79.04,35.04-67.8c27.92,23.29,44.04,57.79,44,94.15Z"/>
    <polygon class="cls-7" points="443.91 351.43 487.82 430.47 443.91 509.52 356.09 509.52 312.18 430.47 356.09 351.43 443.91 351.43"/>
    <path class="cls-6" d="M478.95,283.63l-35.04,67.8h-87.82l-35.04-67.8c45.63-38.41,112.28-38.41,157.91,0Z"/>
    <path class="cls-6" d="M452.69,237.26l-.26.7c-33.18-12.4-69.67-12.65-103.02-.7h-19.67v-35.13c0-38.8,31.46-70.26,70.26-70.26s70.26,31.46,70.26,70.26v35.13h-17.56Z"/>
    <path class="cls-6" d="M637.12,298.74v17.56h-101.08c-16.36-36.18-46.44-64.37-83.61-78.34l.26-.7h122.95c33.93-.02,61.45,27.46,61.48,61.39,0,.03,0,.06,0,.09Z"/>
    <path class="cls-3" d="M435.04,628.34l-35.04,39.78-35.04-39.78c23.04,5.5,47.05,5.5,70.08,0Z"/>
    <path class="cls-6" d="M321.05,283.63l35.04,67.8-43.91,79.04h-35.13v-52.69c-.04-36.36,16.08-70.86,44-94.15Z"/>
    <path class="cls-6" d="M329.74,237.26h19.67c-37.99,13.73-68.81,42.24-85.45,79.04h-101.08v-17.56c-.02-33.93,27.46-61.45,61.39-61.48.03,0,.06,0,.09,0h105.39Z"/>
    <path class="cls-6" d="M312.18,430.47l43.91,79.04-35.13,67.8c-27.86-23.33-43.95-57.81-43.91-94.15v-52.69h35.13Z"/>
    <path class="cls-6" d="M596.81,559.4c24.01,23.93,24.07,62.8.14,86.81-.05.05-.09.09-.14.14l-12.38,12.47-74.56-74.56c19.26-20.81,32.12-46.73,37.06-74.65h.09l49.8,49.8Z"/>
    <path class="cls-6" d="M443.91,509.52l35.13,67.8c-45.7,38.41-112.39,38.41-158.08,0l35.13-67.8h87.82Z"/>
    <path class="cls-3" d="M479.04,577.32c27.86-23.33,43.95-57.81,43.91-94.15v-105.39c0-67.9-55.05-122.95-122.95-122.95s-122.95,55.05-122.95,122.95v105.39c-.02,67.89,55.01,122.94,122.89,122.95,28.93,0,56.94-10.19,79.1-28.81ZM549.3,483.17c.01,8.87-.78,17.71-2.37,26.43-10.46,58.21-54.31,104.75-111.8,118.65l-.09.09c-23.04,5.5-47.05,5.5-70.08,0l-.09-.09c-57.49-13.9-101.34-60.44-111.8-118.65-1.59-8.72-2.39-17.57-2.37-26.43v-105.39c-.04-21.21,4.49-42.17,13.26-61.48,33.91-75.13,122.31-108.55,197.44-74.63,33.14,14.96,59.68,41.5,74.63,74.63,8.78,19.3,13.3,40.27,13.26,61.48v105.39Z"/>
    <path class="cls-6" d="M522.95,430.47v52.69c.04,36.34-16.05,70.82-43.91,94.15l-35.13-67.8,43.91-79.04h35.13Z"/>
    <path class="cls-6" d="M290.13,584.25l-74.47,74.56-12.47-12.47c-23.98-24.02-23.98-62.92,0-86.95l49.88-49.8c4.94,27.92,17.8,53.84,37.06,74.65Z"/>
    <path class="cls-5" d="M444.08,184.55c-4.85.02-8.8-3.89-8.83-8.74-.02-4.85,3.89-8.8,8.74-8.83h.09c4.85,0,8.78,3.93,8.78,8.78s-3.93,8.78-8.78,8.78Z"/>
    <path class="cls-5" d="M356.26,184.55c-4.85.02-8.8-3.89-8.83-8.74-.02-4.85,3.89-8.8,8.74-8.83h.09c4.85,0,8.78,3.93,8.78,8.78s-3.93,8.78-8.78,8.78Z"/>
    <path class="cls-5" d="M549.3,386.54c-4.85,0-8.78-3.92-8.78-8.77h0c0-77.62-62.91-140.53-140.52-140.53s-140.52,62.91-140.52,140.52c0,4.85-3.93,8.78-8.78,8.78s-8.78-3.93-8.78-8.78c0-87.31,70.78-158.08,158.08-158.08s158.08,70.78,158.08,158.08c0,4.85-3.92,8.78-8.77,8.78h-.01Z"/>
    <path class="cls-5" d="M522.95,386.54c-4.85,0-8.78-3.92-8.78-8.77h0c0-63.06-51.12-114.18-114.17-114.18s-114.17,51.12-114.17,114.17c0,4.85-3.93,8.78-8.78,8.78s-8.78-3.93-8.78-8.78c0-72.76,58.98-131.73,131.73-131.73s131.73,58.98,131.73,131.73c0,4.85-3.92,8.78-8.77,8.78h-.01Z"/>
    <path class="cls-5" d="M400,641.23c-87.26-.1-157.98-70.82-158.08-158.08,0-4.85,3.93-8.78,8.78-8.78s8.78,3.93,8.78,8.78c0,77.61,62.91,140.52,140.52,140.52s140.52-62.91,140.52-140.52c0-4.85,3.93-8.78,8.78-8.78s8.78,3.93,8.78,8.78c-.1,87.26-70.82,157.98-158.08,158.08Z"/>
    <path class="cls-5" d="M400,614.88c-72.72-.08-131.66-59.01-131.73-131.73,0-4.85,3.93-8.78,8.78-8.78s8.78,3.93,8.78,8.78c0,63.05,51.12,114.17,114.17,114.17s114.17-51.12,114.17-114.17c0-4.85,3.93-8.78,8.78-8.78s8.78,3.93,8.78,8.78c-.08,72.72-59.01,131.66-131.73,131.73Z"/>
    <path class="cls-5" d="M250.7,491.93c-4.85,0-8.78-3.92-8.78-8.77h0v-105.4c0-4.85,3.93-8.78,8.78-8.78s8.78,3.93,8.78,8.78v105.39c0,4.85-3.92,8.78-8.77,8.78h-.01Z"/>
    <path class="cls-5" d="M549.3,491.93c-4.85,0-8.78-3.92-8.78-8.77h0v-105.4c0-4.85,3.93-8.78,8.78-8.78s8.78,3.93,8.78,8.78v105.39c0,4.85-3.92,8.78-8.77,8.78h-.01Z"/>
    <path class="cls-5" d="M637.12,307.5c-4.85,0-8.78-3.92-8.78-8.77h0c-.03-29.1-23.61-52.67-52.69-52.7-4.85,0-8.78-3.93-8.78-8.78s3.93-8.78,8.78-8.78c38.78.04,70.21,31.47,70.26,70.26,0,4.85-3.92,8.78-8.77,8.78h-.01Z"/>
    <path class="cls-5" d="M575.65,246.03h-122.95c-4.85,0-8.78-3.93-8.78-8.78s3.93-8.78,8.78-8.78h122.95c4.85,0,8.78,3.93,8.78,8.78s-3.93,8.78-8.78,8.78Z"/>
    <path class="cls-5" d="M637.12,325.07h-101.03c-4.85,0-8.78-3.93-8.78-8.78s3.93-8.78,8.78-8.78h101.03c4.85,0,8.78,3.93,8.78,8.78s-3.93,8.78-8.78,8.78Z"/>
    <path class="cls-5" d="M637.12,325.07c-4.85,0-8.78-3.92-8.78-8.77h0v-17.57c0-4.85,3.93-8.78,8.78-8.78s8.78,3.93,8.78,8.78v17.56c0,4.85-3.92,8.78-8.77,8.78h-.01Z"/>
    <path class="cls-5" d="M596.84,655.16c-4.85,0-8.78-3.93-8.78-8.78,0-2.33.93-4.56,2.57-6.21,20.54-20.59,20.54-53.93,0-74.52-3.43-3.43-3.43-8.99,0-12.42,3.43-3.43,8.99-3.43,12.42,0,27.39,27.46,27.39,71.9,0,99.36-1.65,1.65-3.88,2.58-6.21,2.57Z"/>
    <path class="cls-5" d="M596.84,568.22c-2.33,0-4.56-.92-6.21-2.57l-49.82-49.82c-3.44-3.42-3.44-8.98-.02-12.42,3.42-3.44,8.98-3.44,12.42-.02,0,0,.01.01.02.02l49.82,49.82c3.43,3.43,3.43,8.99,0,12.42-1.65,1.65-3.88,2.57-6.21,2.57h0Z"/>
    <path class="cls-5" d="M584.41,667.58c-2.33,0-4.56-.92-6.21-2.57l-74.52-74.53c-3.42-3.44-3.41-9,.02-12.42,3.43-3.42,8.97-3.42,12.4,0l74.52,74.53c3.43,3.43,3.43,8.99,0,12.42-1.65,1.65-3.88,2.57-6.21,2.57h0Z"/>
    <path class="cls-5" d="M584.41,667.58c-4.85,0-8.78-3.93-8.78-8.78,0-2.33.93-4.56,2.57-6.21l12.43-12.42c3.43-3.43,8.99-3.43,12.42,0,3.43,3.43,3.43,8.99,0,12.42l-12.43,12.42c-1.65,1.65-3.88,2.58-6.21,2.57Z"/>
    <path class="cls-5" d="M203.21,655.16c-2.33,0-4.56-.92-6.21-2.57-27.39-27.46-27.39-71.9,0-99.36,3.43-3.43,8.99-3.43,12.42,0,3.43,3.43,3.43,8.99,0,12.42h0c-20.54,20.59-20.54,53.93,0,74.52,3.43,3.43,3.43,8.99,0,12.42-1.65,1.65-3.88,2.57-6.21,2.57h0Z"/>
    <path class="cls-5" d="M203.21,568.22c-4.85,0-8.78-3.93-8.78-8.78,0-2.33.93-4.56,2.57-6.21l49.82-49.82c3.44-3.42,9-3.41,12.42.02,3.42,3.43,3.42,8.97,0,12.4l-49.82,49.82c-1.64,1.65-3.88,2.58-6.21,2.57Z"/>
    <path class="cls-5" d="M215.63,667.58c-4.85,0-8.78-3.93-8.78-8.78,0-2.33.93-4.56,2.57-6.21l74.53-74.53c3.44-3.42,9-3.41,12.42.02,3.42,3.43,3.42,8.97,0,12.4l-74.53,74.53c-1.64,1.65-3.88,2.58-6.21,2.57Z"/>
    <path class="cls-5" d="M215.63,667.58c-2.33,0-4.56-.92-6.21-2.57l-12.42-12.42c-3.43-3.43-3.43-8.99,0-12.42,3.43-3.43,8.99-3.43,12.42,0l12.42,12.42c3.43,3.43,3.43,8.99,0,12.42-1.65,1.65-3.88,2.57-6.21,2.57h0Z"/>
    <path class="cls-5" d="M162.88,307.5c-4.85,0-8.78-3.92-8.78-8.77,0,0,0,0,0-.01.04-38.78,31.47-70.21,70.26-70.26,4.85,0,8.78,3.93,8.78,8.78s-3.93,8.78-8.78,8.78c-29.09.03-52.66,23.61-52.69,52.69,0,4.85-3.92,8.78-8.77,8.78h-.01Z"/>
    <path class="cls-5" d="M349.44,246.03h-125.09c-4.85,0-8.78-3.93-8.78-8.78s3.93-8.78,8.78-8.78h125.09c4.85,0,8.78,3.93,8.78,8.78s-3.93,8.78-8.78,8.78Z"/>
    <path class="cls-5" d="M263.91,325.07h-101.03c-4.85,0-8.78-3.93-8.78-8.78s3.93-8.78,8.78-8.78h101.03c4.85,0,8.78,3.93,8.78,8.78s-3.93,8.78-8.78,8.78Z"/>
    <path class="cls-5" d="M162.88,325.07c-4.85,0-8.78-3.92-8.78-8.77,0,0,0,0,0-.01v-17.56c0-4.85,3.93-8.78,8.78-8.78s8.78,3.93,8.78,8.78v17.56c0,4.85-3.92,8.78-8.77,8.78h-.01Z"/>
    <path class="cls-5" d="M470.26,210.9c-4.85,0-8.78-3.92-8.78-8.77h0c0-33.96-27.52-61.49-61.48-61.49s-61.48,27.52-61.48,61.48c0,4.85-3.93,8.78-8.78,8.78s-8.78-3.93-8.78-8.78c0-43.65,35.39-79.04,79.04-79.04s79.04,35.39,79.04,79.04c0,4.85-3.92,8.78-8.77,8.78h-.01Z"/>
    <path class="cls-5" d="M329.74,246.03c-4.85,0-8.78-3.92-8.78-8.77h0v-35.14c0-4.85,3.93-8.78,8.78-8.78s8.78,3.93,8.78,8.78v35.13c0,4.85-3.92,8.78-8.77,8.78h-.01Z"/>
    <path class="cls-5" d="M470.26,246.03c-4.85,0-8.78-3.92-8.78-8.77h0v-35.14c0-4.85,3.93-8.78,8.78-8.78s8.78,3.93,8.78,8.78v35.13c0,4.85-3.92,8.78-8.77,8.78h-.01Z"/>
    <path class="cls-5" d="M400,676.93c-4.85,0-8.78-3.93-8.78-8.78,0-2.14.78-4.2,2.19-5.8l35.13-39.85c3.2-3.65,8.75-4.01,12.39-.81,3.65,3.2,4.01,8.75.81,12.39,0,.01-.02.02-.03.03l-35.13,39.85c-1.66,1.9-4.06,2.98-6.59,2.98Z"/>
    <path class="cls-5" d="M400,676.93c-2.52,0-4.92-1.08-6.59-2.98l-35.13-39.85c-3.2-3.65-2.83-9.19.81-12.39,3.63-3.19,9.16-2.84,12.36.78l35.13,39.85c3.21,3.64,2.86,9.19-.78,12.4-1.6,1.41-3.67,2.19-5.8,2.19Z"/>
    <path class="cls-5" d="M277.05,491.93c-4.85,0-8.78-3.92-8.78-8.77h0v-105.4c0-4.85,3.93-8.78,8.78-8.78s8.78,3.93,8.78,8.78v105.39c0,4.85-3.92,8.78-8.77,8.78h-.01Z"/>
    <path class="cls-5" d="M522.95,491.93c-4.85,0-8.78-3.92-8.78-8.77h0v-105.4c0-4.85,3.93-8.78,8.78-8.78s8.78,3.93,8.78,8.78v105.39c0,4.85-3.92,8.78-8.77,8.78h-.01Z"/>
    <path class="cls-5" d="M443.91,518.28h-87.82c-3.19,0-6.13-1.73-7.68-4.52l-43.91-79.04c-1.48-2.65-1.48-5.87,0-8.53l43.91-79.04c1.55-2.79,4.49-4.52,7.68-4.52h87.82c3.19,0,6.13,1.73,7.68,4.52l43.91,79.04c1.48,2.65,1.48,5.87,0,8.53l-43.91,79.04c-1.55,2.79-4.49,4.52-7.68,4.52ZM361.26,500.71h77.48l39.04-70.26-39.04-70.26h-77.48l-39.04,70.26,39.04,70.26Z"/>
    <path class="cls-5" d="M443.9,360.2c-4.85,0-8.78-3.95-8.77-8.8,0-1.4.34-2.78.98-4.03l35.13-67.83c2.24-4.3,7.55-5.97,11.85-3.72,4.28,2.23,5.96,7.51,3.75,11.8l-35.13,67.83c-1.51,2.92-4.52,4.75-7.8,4.74Z"/>
    <path class="cls-5" d="M356.1,360.2c-3.28,0-6.3-1.82-7.8-4.74l-35.13-67.83c-2.22-4.31-.53-9.61,3.78-11.83,4.3-2.21,9.57-.54,11.81,3.75l35.13,67.83c2.23,4.31.55,9.61-3.76,11.84-1.24.64-2.62.98-4.03.98h0Z"/>
    <path class="cls-5" d="M320.95,586.11c-4.85,0-8.78-3.95-8.77-8.8,0-1.4.34-2.78.98-4.03l35.13-67.83c2.24-4.3,7.54-5.97,11.84-3.73,4.29,2.23,5.96,7.51,3.75,11.81l-35.13,67.83c-1.51,2.92-4.52,4.75-7.8,4.74Z"/>
    <path class="cls-5" d="M479.05,586.11c-3.28,0-6.3-1.82-7.8-4.74l-35.13-67.83c-2.22-4.31-.53-9.61,3.79-11.83,4.3-2.21,9.57-.54,11.81,3.75l35.13,67.83c2.23,4.31.55,9.61-3.76,11.84-1.24.64-2.62.98-4.03.98h0Z"/>
    <path class="cls-5" d="M522.95,439.24h-35.13c-4.85,0-8.78-3.93-8.78-8.78s3.93-8.78,8.78-8.78h35.13c4.85,0,8.78,3.93,8.78,8.78s-3.93,8.78-8.78,8.78Z"/>
    <path class="cls-5" d="M312.18,439.24h-35.13c-4.85,0-8.78-3.93-8.78-8.78s3.93-8.78,8.78-8.78h35.13c4.85,0,8.78,3.93,8.78,8.78s-3.93,8.78-8.78,8.78Z"/>
  </g>
  <circle class="cls-3" cx="138.46" cy="464.83" r="38.65"/>
  <circle class="cls-3" cx="663.21" cy="423.64" r="56.04"/>
  <circle class="cls-3" cx="351.79" cy="741.45" r="23.19"/>
  <path class="cls-2" d="M120.39,256.76c-3.58,0-7.23-.74-10.72-2.3-13.28-5.93-19.25-21.5-13.32-34.79,47.47-106.4,128.45-126.87,153.98-134.48,14-4.15,28.62,3.79,32.78,17.72,4.16,13.95-3.77,28.62-17.72,32.78-53.34,15.9-103.37,66.11-120.93,105.46-4.37,9.79-13.99,15.62-24.07,15.62Z"/>
  <path class="cls-1" d="M558.18,741.87c-10.77,0-20.88-6.66-24.77-17.38-4.96-13.69,2.11-28.79,15.79-33.75,62.43-22.62,118.12-78.58,152.77-153.51,6.12-13.21,21.77-18.94,34.97-12.85,13.21,6.11,18.95,21.77,12.85,34.97-40.52,87.6-107.09,153.54-182.64,180.92-2.97,1.07-5.99,1.59-8.98,1.59Z"/>
</svg>