<?xml version="1.0" encoding="UTF-8"?>
<svg id="Layer_1" data-name="Layer 1" xmlns="http://www.w3.org/2000/svg" viewBox="0 0 800 800">
  <defs>
    <style>
      .cls-1 {
        opacity: .4;
      }

      .cls-1, .cls-2 {
        fill: #fff;
      }

      .cls-3, .cls-4 {
        fill: #5c9eff;
      }

      .cls-5 {
        fill: #006bc4;
      }

      .cls-6 {
        fill: #02dfff;
      }

      .cls-7 {
        fill: #f0567a;
      }

      .cls-4 {
        opacity: .5;
      }

      .cls-2 {
        opacity: .7;
      }
    </style>
  </defs>
  <circle class="cls-4" cx="400" cy="400" r="400"/>
  <g>
    <path class="cls-7" d="M540.52,347.31c.03,43.63-35.32,79.01-78.94,79.04-.03,0-.07,0-.1,0v-35.13c24.25,0,43.9-19.66,43.91-43.91v-4.83c5.34,3.1,11.39,4.74,17.56,4.74,5.92-.01,11.82-.75,17.56-2.2v2.28Z"/>
    <path class="cls-3" d="M338.52,558.08c0,19.4,15.71,35.12,35.11,35.13h52.71c19.4,0,35.12-15.71,35.13-35.11v-.02,44c0,19.4-15.71,35.12-35.11,35.13h-52.71c-19.4,0-35.12-15.71-35.13-35.11v-44.02Z"/>
    <path class="cls-3" d="M338.52,470.26c0,19.4,15.71,35.12,35.11,35.13h52.71c19.4,0,35.12-15.71,35.13-35.11v-.02,43.91c0,19.4-15.71,35.12-35.11,35.13h-52.71c-19.4,0-35.12-15.71-35.13-35.11v-43.93Z"/>
    <path class="cls-7" d="M294.61,347.31c0,24.25,19.66,43.9,43.91,43.91v35.13c-43.63.03-79.01-35.32-79.04-78.94,0-.03,0-.07,0-.1v-2.28c5.74,1.45,11.64,2.19,17.56,2.2,6.17,0,12.23-1.64,17.56-4.74v4.83Z"/>
    <path class="cls-6" d="M522.95,189.23v-61.48c38.79-.01,70.25,31.43,70.26,70.22v79.08h-.09c-.02,31.99-21.64,59.93-52.61,67.98-5.74,1.45-11.64,2.19-17.56,2.2-19.38-.05-35.08-15.75-35.13-35.13v-87.74c-.04-19.37,15.63-35.09,35-35.13.04,0,.09,0,.13,0Z"/>
    <path class="cls-6" d="M338.52,514.17c0,19.4,15.71,35.12,35.11,35.13h52.71c19.4,0,35.12-15.71,35.13-35.11v-.02,43.91c0,19.4-15.71,35.12-35.11,35.13h-52.71c-19.4,0-35.12-15.71-35.13-35.11v-43.93Z"/>
    <path class="cls-6" d="M461.48,602.08c19.38,0,35.09,15.71,35.09,35.09s-15.71,35.09-35.09,35.09h-122.95c-19.38.01-35.1-15.68-35.11-35.06-.01-19.38,15.68-35.1,35.06-35.11h.05c0,19.4,15.71,35.12,35.11,35.13h52.71c19.4,0,35.12-15.71,35.13-35.11v-.02Z"/>
    <path class="cls-6" d="M461.48,470.26c0,19.4-15.71,35.12-35.11,35.13h-52.71c-19.4,0-35.12-15.71-35.13-35.11v-119.46c0-31.62,19.67-71.49,43.91-95.2,5.23-5.32,11.14-9.92,17.56-13.7l.09.09c6.35,3.79,12.22,8.33,17.48,13.52v.09c24.24,23.71,43.91,63.58,43.91,95.2v119.44Z"/>
    <path class="cls-6" d="M277.05,189.23c19.37-.04,35.09,15.63,35.13,35,0,.04,0,.09,0,.13v87.74c-.05,19.38-15.75,35.08-35.13,35.13-5.92-.01-11.82-.75-17.56-2.2-30.96-8.05-52.58-35.99-52.61-67.98h-.09v-79.04c-.01-38.79,31.43-70.25,70.22-70.26.01,0,.03,0,.04,0v61.48Z"/>
    <path class="cls-5" d="M461.5,681.07h-122.99c-4.85,0-8.78-3.93-8.78-8.78s3.93-8.78,8.78-8.78h122.99c4.85,0,8.78,3.93,8.78,8.78s-3.93,8.78-8.78,8.78Z"/>
    <path class="cls-5" d="M338.54,610.89c-4.85,0-8.78-3.92-8.78-8.77h0v-251.24c0-4.85,3.93-8.78,8.78-8.78s8.78,3.93,8.78,8.78v251.23c0,4.85-3.92,8.78-8.77,8.78h-.01Z"/>
    <path class="cls-5" d="M461.48,610.89c-4.85,0-8.78-3.92-8.78-8.77h0v-251.24c0-4.85,3.93-8.78,8.78-8.78s8.78,3.93,8.78,8.78v251.23c0,4.85-3.92,8.78-8.77,8.78h-.01Z"/>
    <path class="cls-5" d="M373.66,646c-24.24-.03-43.88-19.67-43.9-43.9,0-4.85,3.93-8.78,8.78-8.78s8.78,3.93,8.78,8.78c.02,14.54,11.8,26.32,26.34,26.34,4.85,0,8.78,3.93,8.78,8.78s-3.93,8.78-8.78,8.78Z"/>
    <path class="cls-5" d="M426.36,646c-4.85,0-8.78-3.93-8.78-8.78s3.93-8.78,8.78-8.78c14.54-.02,26.32-11.8,26.34-26.34,0-4.85,3.93-8.78,8.78-8.78s8.78,3.93,8.78,8.78c-.03,24.24-19.67,43.88-43.9,43.9Z"/>
    <path class="cls-5" d="M426.36,646h-52.69c-4.85,0-8.78-3.93-8.78-8.78s3.93-8.78,8.78-8.78h52.69c4.85,0,8.78,3.93,8.78,8.78s-3.93,8.78-8.78,8.78Z"/>
    <path class="cls-5" d="M373.66,602.02c-24.24-.03-43.88-19.67-43.9-43.9,0-4.85,3.93-8.78,8.78-8.78s8.78,3.93,8.78,8.78c.02,14.54,11.8,26.32,26.34,26.34,4.85,0,8.78,3.93,8.78,8.78s-3.93,8.78-8.78,8.78Z"/>
    <path class="cls-5" d="M426.36,602.02c-4.85,0-8.78-3.93-8.78-8.78s3.93-8.78,8.78-8.78c14.54-.02,26.32-11.8,26.34-26.34,0-4.85,3.93-8.78,8.78-8.78s8.78,3.93,8.78,8.78c-.03,24.24-19.67,43.88-43.9,43.9Z"/>
    <path class="cls-5" d="M426.36,602.02h-52.69c-4.85,0-8.78-3.93-8.78-8.78s3.93-8.78,8.78-8.78h52.69c4.85,0,8.78,3.93,8.78,8.78s-3.93,8.78-8.78,8.78Z"/>
    <path class="cls-5" d="M373.66,514.13c-24.24-.03-43.88-19.67-43.9-43.9,0-4.85,3.93-8.78,8.78-8.78s8.78,3.93,8.78,8.78c.02,14.54,11.8,26.32,26.34,26.34,4.85,0,8.78,3.93,8.78,8.78s-3.93,8.78-8.78,8.78Z"/>
    <path class="cls-5" d="M426.36,514.13c-4.85,0-8.78-3.93-8.78-8.78s3.93-8.78,8.78-8.78c14.54-.02,26.32-11.8,26.34-26.34,0-4.85,3.93-8.78,8.78-8.78s8.78,3.93,8.78,8.78c-.03,24.24-19.67,43.88-43.9,43.9Z"/>
    <path class="cls-5" d="M426.36,514.13h-52.69c-4.85,0-8.78-3.93-8.78-8.78s3.93-8.78,8.78-8.78h52.69c4.85,0,8.78,3.93,8.78,8.78s-3.93,8.78-8.78,8.78Z"/>
    <path class="cls-5" d="M373.66,558.04c-24.24-.03-43.88-19.67-43.9-43.9,0-4.85,3.93-8.78,8.78-8.78s8.78,3.93,8.78,8.78c.02,14.54,11.8,26.32,26.34,26.34,4.85,0,8.78,3.93,8.78,8.78s-3.93,8.78-8.78,8.78Z"/>
    <path class="cls-5" d="M426.36,558.04c-4.85,0-8.78-3.93-8.78-8.78s3.93-8.78,8.78-8.78c14.54-.02,26.32-11.8,26.34-26.34,0-4.85,3.93-8.78,8.78-8.78s8.78,3.93,8.78,8.78c-.03,24.24-19.67,43.88-43.9,43.9Z"/>
    <path class="cls-5" d="M426.36,558.04h-52.69c-4.85,0-8.78-3.93-8.78-8.78s3.93-8.78,8.78-8.78h52.69c4.85,0,8.78,3.93,8.78,8.78s-3.93,8.78-8.78,8.78Z"/>
    <path class="cls-5" d="M338.51,681.07c-24.23-.03-43.85-19.7-43.82-43.93.03-24.19,19.63-43.79,43.82-43.82,4.85,0,8.78,3.93,8.78,8.78s-3.93,8.78-8.78,8.78c-14.53.02-26.29,11.83-26.27,26.36.02,14.5,11.77,26.24,26.27,26.27,4.85,0,8.78,3.93,8.78,8.78s-3.93,8.78-8.78,8.78Z"/>
    <path class="cls-5" d="M461.5,681.07c-4.85,0-8.78-3.93-8.78-8.78s3.93-8.78,8.78-8.78c14.53-.02,26.29-11.83,26.27-26.36-.02-14.5-11.77-26.24-26.27-26.27-4.85,0-8.78-3.93-8.78-8.78s3.93-8.78,8.78-8.78c24.23.03,43.85,19.7,43.82,43.93-.03,24.19-19.63,43.79-43.82,43.82Z"/>
    <path class="cls-5" d="M338.54,359.62c-4.85,0-8.78-3.93-8.78-8.78h0c0-41.78,30.78-96.21,65.88-116.48,4.2-2.43,9.57-1,12,3.2,2.43,4.2,1,9.57-3.2,12,0,0-.01,0-.02,0-29.35,16.96-57.09,66.17-57.09,101.27,0,4.85-3.93,8.78-8.78,8.78h0Z"/>
    <path class="cls-5" d="M461.48,359.62c-4.85,0-8.78-3.93-8.78-8.78h0c0-35.08-27.72-84.29-57.04-101.25-4.2-2.43-5.63-7.8-3.2-12,2.43-4.2,7.8-5.63,12-3.2,35.05,20.28,65.81,74.7,65.81,116.45,0,4.85-3.93,8.78-8.78,8.78h0Z"/>
    <path class="cls-5" d="M417.76,294.62c-4.85.02-8.8-3.89-8.83-8.74-.02-4.85,3.89-8.8,8.74-8.83h.09c4.85,0,8.78,3.93,8.78,8.78s-3.93,8.78-8.78,8.78Z"/>
    <path class="cls-5" d="M382.6,294.62c-4.85.02-8.8-3.89-8.83-8.74-.02-4.85,3.89-8.8,8.74-8.83h.09c4.85,0,8.78,3.93,8.78,8.78s-3.93,8.78-8.78,8.78Z"/>
    <path class="cls-5" d="M417.57,264.39c-4.85,0-8.78-3.93-8.78-8.78h0v-101.52c0-4.85,3.93-8.78,8.78-8.78s8.78,3.93,8.78,8.78v101.51c0,4.85-3.93,8.78-8.78,8.78h0Z"/>
    <path class="cls-5" d="M382.43,264.4h0c-4.85,0-8.78-3.93-8.78-8.78h0s.02-101.53.02-101.53c0-4.85,3.93-8.78,8.78-8.78h0c4.85,0,8.78,3.93,8.78,8.78h0s-.02,101.53-.02,101.53c0,4.85-3.93,8.78-8.78,8.78Z"/>
    <path class="cls-5" d="M593.2,206.76c-4.85,0-8.78-3.93-8.78-8.78h0c-.04-33.94-27.54-61.44-61.48-61.49-4.85,0-8.78-3.93-8.78-8.78s3.93-8.78,8.78-8.78c43.63.05,78.99,35.41,79.04,79.05,0,4.85-3.93,8.78-8.78,8.78h0Z"/>
    <path class="cls-5" d="M487.81,233.1c-4.85,0-8.78-3.93-8.78-8.78h0c.03-24.24,19.67-43.89,43.91-43.92,4.85,0,8.78,3.93,8.78,8.78s-3.93,8.78-8.78,8.78c-14.54.02-26.33,11.8-26.35,26.35,0,4.85-3.93,8.78-8.78,8.78h0Z"/>
    <path class="cls-5" d="M522.94,356.02c-24.24-.03-43.88-19.67-43.91-43.91,0-4.85,3.93-8.78,8.78-8.78s8.78,3.93,8.78,8.78c.02,14.54,11.8,26.33,26.35,26.35,4.85,0,8.78,3.93,8.78,8.78s-3.93,8.78-8.78,8.78Z"/>
    <path class="cls-5" d="M522.94,294.58c-4.85,0-8.78-3.93-8.78-8.78h0V127.72c0-4.85,3.93-8.78,8.78-8.78s8.78,3.93,8.78,8.78v158.08c0,4.85-3.93,8.78-8.78,8.78h0Z"/>
    <path class="cls-5" d="M593.2,285.81c-4.85,0-8.78-3.93-8.78-8.78h0v-79.05c0-4.85,3.93-8.78,8.78-8.78s8.78,3.93,8.78,8.78v79.05c0,4.85-3.93,8.78-8.78,8.78h0Z"/>
    <path class="cls-5" d="M522.94,356.02c-4.85,0-8.78-3.93-8.78-8.78s3.93-8.78,8.78-8.78c33.88-.04,61.34-27.5,61.38-61.39,0-4.85,3.93-8.78,8.78-8.78s8.78,3.93,8.78,8.78c-.05,43.58-35.36,78.9-78.95,78.95Z"/>
    <path class="cls-5" d="M487.83,320.89c-4.85,0-8.78-3.93-8.78-8.78h0v-87.79c0-4.85,3.93-8.78,8.78-8.78s8.78,3.93,8.78,8.78v87.79c0,4.85-3.93,8.78-8.78,8.78h0Z"/>
    <path class="cls-5" d="M461.49,435.09c-4.85,0-8.78-3.93-8.78-8.78s3.93-8.78,8.78-8.78c38.78-.04,70.21-31.47,70.26-70.25,0-4.85,3.93-8.78,8.78-8.78s8.78,3.93,8.78,8.78c-.06,48.48-39.34,87.76-87.82,87.82Z"/>
    <path class="cls-5" d="M461.49,399.96c-4.85,0-8.78-3.93-8.78-8.78s3.93-8.78,8.78-8.78c19.39-.02,35.11-15.74,35.13-35.13,0-4.85,3.93-8.78,8.78-8.78s8.78,3.93,8.78,8.78c-.03,29.09-23.61,52.66-52.69,52.69Z"/>
    <path class="cls-5" d="M505.4,356.05c-4.85,0-8.78-3.93-8.78-8.78h0v-4.75c0-4.85,3.93-8.78,8.78-8.78s8.78,3.93,8.78,8.78v4.74c0,4.85-3.93,8.78-8.78,8.78h0Z"/>
    <path class="cls-5" d="M540.53,356.05c-4.82,0-8.74-3.89-8.78-8.71l-.02-2.26c-.04-4.85,3.86-8.81,8.71-8.85h.07c4.82,0,8.74,3.89,8.78,8.71l.02,2.26c.04,4.85-3.86,8.81-8.71,8.85h-.07Z"/>
    <path class="cls-5" d="M206.8,206.76c-4.85,0-8.78-3.93-8.78-8.78h0c.05-43.64,35.41-79,79.04-79.05,4.85,0,8.78,3.93,8.78,8.78s-3.93,8.78-8.78,8.78c-33.94.04-61.44,27.54-61.48,61.48,0,4.85-3.93,8.78-8.78,8.78h0Z"/>
    <path class="cls-5" d="M312.19,233.1c-4.85,0-8.78-3.93-8.78-8.78h0c-.02-14.55-11.8-26.34-26.35-26.35-4.85,0-8.78-3.93-8.78-8.78s3.93-8.78,8.78-8.78c24.24.03,43.88,19.67,43.91,43.91,0,4.85-3.93,8.78-8.78,8.78h0Z"/>
    <path class="cls-5" d="M277.06,356.02c-4.85,0-8.78-3.93-8.78-8.78s3.93-8.78,8.78-8.78c14.54-.02,26.33-11.8,26.35-26.35,0-4.85,3.93-8.78,8.78-8.78s8.78,3.93,8.78,8.78c-.03,24.24-19.67,43.88-43.91,43.91Z"/>
    <path class="cls-5" d="M277.06,294.58c-4.85,0-8.78-3.93-8.78-8.78h0V127.72c0-4.85,3.93-8.78,8.78-8.78s8.78,3.93,8.78,8.78v158.09c0,4.85-3.93,8.78-8.78,8.78h0Z"/>
    <path class="cls-5" d="M206.8,285.81c-4.85,0-8.78-3.93-8.78-8.78h0v-79.05c0-4.85,3.93-8.78,8.78-8.78s8.78,3.93,8.78,8.78v79.05c0,4.85-3.93,8.78-8.78,8.78h0Z"/>
    <path class="cls-5" d="M277.06,356.02c-43.58-.05-78.9-35.37-78.95-78.95,0-4.85,3.93-8.78,8.78-8.78s8.78,3.93,8.78,8.78c.04,33.88,27.5,61.34,61.38,61.39,4.85,0,8.78,3.93,8.78,8.78s-3.93,8.78-8.78,8.78Z"/>
    <path class="cls-5" d="M312.17,320.89c-4.85,0-8.78-3.93-8.78-8.78h0v-87.79c0-4.85,3.93-8.78,8.78-8.78s8.78,3.93,8.78,8.78v87.79c0,4.85-3.93,8.78-8.78,8.78h0Z"/>
    <path class="cls-5" d="M338.51,435.09c-48.48-.05-87.77-39.34-87.82-87.82,0-4.85,3.93-8.78,8.78-8.78s8.78,3.93,8.78,8.78c.04,38.78,31.48,70.21,70.26,70.25,4.85,0,8.78,3.93,8.78,8.78s-3.93,8.78-8.78,8.78Z"/>
    <path class="cls-5" d="M338.51,399.96c-29.09-.03-52.66-23.61-52.69-52.69,0-4.85,3.93-8.78,8.78-8.78s8.78,3.93,8.78,8.78c.02,19.39,15.74,35.11,35.13,35.13,4.85,0,8.78,3.93,8.78,8.78s-3.93,8.78-8.78,8.78Z"/>
    <path class="cls-5" d="M294.6,356.05c-4.85,0-8.78-3.93-8.78-8.78h0v-4.75c0-4.85,3.93-8.78,8.78-8.78s8.78,3.93,8.78,8.78v4.74c0,4.85-3.93,8.78-8.78,8.78h0Z"/>
    <path class="cls-5" d="M259.47,356.05h-.07c-4.85-.04-8.75-4-8.71-8.85l.02-2.26c.04-4.82,3.96-8.71,8.78-8.71h.07c4.85.04,8.75,4,8.71,8.85l-.02,2.26c-.04,4.82-3.96,8.71-8.78,8.71Z"/>
    <path class="cls-5" d="M514.18,461.38c-4.85,0-8.78-3.93-8.78-8.78s3.93-8.78,8.78-8.78c9.65,0,17.47-7.83,17.48-17.48,0-4.85,3.93-8.78,8.78-8.78s8.78,3.93,8.78,8.78c-.02,19.34-15.7,35.02-35.04,35.04Z"/>
    <path class="cls-5" d="M514.18,461.38h-52.68c-4.85,0-8.78-3.93-8.78-8.78s3.93-8.78,8.78-8.78h52.68c4.85,0,8.78,3.93,8.78,8.78s-3.93,8.78-8.78,8.78Z"/>
    <path class="cls-5" d="M285.78,461.38c-19.34-.02-35.02-15.7-35.04-35.04,0-4.85,3.93-8.78,8.78-8.78s8.78,3.93,8.78,8.78c0,9.65,7.83,17.47,17.48,17.48,4.85,0,8.78,3.93,8.78,8.78s-3.93,8.78-8.78,8.78Z"/>
    <path class="cls-5" d="M338.46,461.38h-52.68c-4.85,0-8.78-3.93-8.78-8.78s3.93-8.78,8.78-8.78h52.68c4.85,0,8.78,3.93,8.78,8.78s-3.93,8.78-8.78,8.78Z"/>
  </g>
  <circle class="cls-3" cx="646.13" cy="433.1" r="38.65"/>
  <circle class="cls-3" cx="191.8" cy="564.16" r="56.04"/>
  <circle class="cls-3" cx="398.4" cy="745.89" r="23.19"/>
  <path class="cls-2" d="M146.74,244.01c-3.59,0-7.23-.74-10.72-2.29-13.29-5.93-19.26-21.5-13.33-34.79,22.08-49.52,83.55-113.49,153.98-134.49,13.96-4.13,28.62,3.78,32.78,17.72,4.16,13.95-3.77,28.62-17.72,32.78-53.35,15.91-103.37,66.11-120.92,105.45-4.37,9.8-13.99,15.63-24.07,15.63Z"/>
  <path class="cls-1" d="M558.18,741.87c-10.77,0-20.88-6.66-24.77-17.38-4.96-13.68,2.11-28.79,15.79-33.75,62.44-22.63,118.12-78.59,152.77-153.51,6.12-13.21,21.76-18.97,34.97-12.86,13.21,6.11,18.96,21.77,12.85,34.97-40.51,87.6-107.08,153.54-182.64,180.93-2.96,1.08-6,1.59-8.98,1.59Z"/>
</svg>