<?xml version="1.0" encoding="UTF-8"?>
<svg id="Layer_1" data-name="Layer 1" xmlns="http://www.w3.org/2000/svg" viewBox="0 0 800 800">
  <defs>
    <style>
      .cls-1 {
        opacity: .4;
      }

      .cls-1, .cls-2 {
        fill: #fff;
      }

      .cls-3, .cls-4 {
        fill: #5c9eff;
      }

      .cls-5 {
        fill: #006bc4;
      }

      .cls-6 {
        fill: #02dfff;
      }

      .cls-7 {
        fill: #f0567a;
      }

      .cls-4 {
        opacity: .5;
      }

      .cls-2 {
        opacity: .7;
      }
    </style>
  </defs>
  <circle class="cls-4" cx="400" cy="400" r="400"/>
  <g>
    <path class="cls-3" d="M566.86,681.06c-101.78.07-184.35-82.38-184.43-184.16,0-.09,0-.18,0-.27v-61.48h35.13v61.48c-.07,101.78,82.38,184.35,184.16,184.43.09,0,.18,0,.27,0h-35.13Z"/>
    <path class="cls-3" d="M487.82,461.5c-9.67.03-17.53-7.78-17.56-17.44,0-.04,0-.08,0-.12v-8.78h17.56c77.5.06,140.37-62.73,140.43-140.23,0-.07,0-.13,0-.2v-16.42l26.43,16.42c.04,92.12-74.6,166.82-166.72,166.86-.05,0-.1,0-.15,0v-.09Z"/>
    <path class="cls-3" d="M329.74,435.15v8.78c.03,9.67-7.78,17.53-17.44,17.56-.04,0-.08,0-.12,0v.09c-92.12.04-166.82-74.6-166.86-166.72,0-.05,0-.1,0-.15l26.43-16.42v16.42c-.06,77.5,62.73,140.37,140.23,140.43.07,0,.13,0,.2,0h17.56Z"/>
    <path class="cls-6" d="M400,435.15V136.55l228.25,141.75v16.42c.06,77.5-62.73,140.37-140.23,140.43-.07,0-.13,0-.2,0h-87.82Z"/>
    <path class="cls-7" d="M382.43,435.15v61.48c-29.06.04-52.66-23.49-52.69-52.55,0-.05,0-.09,0-.14v-8.78h52.69Z"/>
    <path class="cls-7" d="M470.26,435.15v8.78c.04,29.06-23.49,52.66-52.55,52.69-.05,0-.09,0-.14,0v-61.48h52.69Z"/>
    <path class="cls-6" d="M400,136.55v298.6h-87.82c-77.5.06-140.37-62.73-140.43-140.23,0-.07,0-.13,0-.2v-16.42l228.25-141.75Z"/>
    <path class="cls-5" d="M601.99,689.84c-106.66-.12-193.09-86.55-193.21-193.21,0-4.85,3.93-8.78,8.78-8.78s8.78,3.93,8.78,8.78c.11,96.96,78.68,175.54,175.65,175.65,4.85,0,8.78,3.93,8.78,8.78s-3.93,8.78-8.78,8.78Z"/>
    <path class="cls-5" d="M566.86,689.84c-106.66-.12-193.09-86.55-193.21-193.21,0-4.85,3.93-8.78,8.78-8.78s8.78,3.93,8.78,8.78c.11,96.96,78.68,175.54,175.65,175.65,4.85,0,8.78,3.93,8.78,8.78s-3.93,8.78-8.78,8.78Z"/>
    <path class="cls-5" d="M601.99,689.84h-35.13c-4.85,0-8.78-3.93-8.78-8.78s3.93-8.78,8.78-8.78h35.13c4.85,0,8.78,3.93,8.78,8.78s-3.93,8.78-8.78,8.78Z"/>
    <path class="cls-5" d="M417.56,505.41c-4.85,0-8.78-3.93-8.78-8.78s3.93-8.78,8.78-8.78c24.24-.03,43.88-19.67,43.91-43.91,0-4.85,3.93-8.78,8.78-8.78s8.78,3.93,8.78,8.78c-.04,33.94-27.54,61.44-61.48,61.48Z"/>
    <path class="cls-5" d="M487.82,470.28c-14.54-.02-26.33-11.8-26.35-26.35,0-4.85,3.93-8.78,8.78-8.78s8.78,3.93,8.78,8.78c0,4.85,3.93,8.78,8.78,8.78,4.85,0,8.78,3.93,8.78,8.78s-3.93,8.78-8.78,8.78Z"/>
    <path class="cls-5" d="M487.81,470.37c-4.85,0-8.78-3.93-8.78-8.78s3.93-8.78,8.78-8.78c87.27-.1,157.99-70.81,158.09-158.08,0-4.85,3.93-8.78,8.78-8.78s8.78,3.93,8.78,8.78c-.11,96.96-78.69,175.54-175.66,175.65Z"/>
    <path class="cls-5" d="M487.81,443.93c-4.85,0-8.78-3.93-8.78-8.78s3.93-8.78,8.78-8.78c72.67-.08,131.56-58.97,131.65-131.64,0-4.85,3.93-8.78,8.78-8.78s8.78,3.93,8.78,8.78c-.1,82.37-66.85,149.11-149.21,149.21Z"/>
    <path class="cls-5" d="M654.68,303.51c-1.63,0-3.24-.46-4.62-1.32l-254.69-158.18c-4.14-2.52-5.45-7.93-2.93-12.07,2.52-4.14,7.93-5.45,12.07-2.93.04.02.08.05.12.08l254.69,158.18c4.12,2.56,5.39,7.97,2.83,12.09-1.6,2.59-4.43,4.16-7.47,4.15h0Z"/>
    <path class="cls-5" d="M382.43,505.41c-33.94-.04-61.44-27.54-61.48-61.48,0-4.85,3.93-8.78,8.78-8.78s8.78,3.93,8.78,8.78c.03,24.24,19.67,43.88,43.91,43.91,4.85,0,8.78,3.93,8.78,8.78s-3.93,8.78-8.78,8.78Z"/>
    <path class="cls-5" d="M312.18,470.28c-4.85,0-8.78-3.93-8.78-8.78s3.93-8.78,8.78-8.78c4.85,0,8.78-3.93,8.78-8.78,0-4.85,3.93-8.78,8.78-8.78s8.78,3.93,8.78,8.78c-.02,14.54-11.8,26.33-26.35,26.35Z"/>
    <path class="cls-5" d="M312.18,470.37c-96.96-.11-175.54-78.68-175.66-175.65,0-4.85,3.93-8.78,8.78-8.78s8.78,3.93,8.78,8.78c.1,87.27,70.82,157.99,158.09,158.08,4.85,0,8.78,3.93,8.78,8.78s-3.93,8.78-8.78,8.78Z"/>
    <path class="cls-5" d="M145.32,303.51c-4.85,0-8.79-3.92-8.79-8.77,0-3.04,1.57-5.87,4.15-7.47l254.69-158.18c4.1-2.59,9.52-1.37,12.12,2.73,2.59,4.1,1.37,9.52-2.73,12.12-.04.03-.09.05-.13.08l-254.69,158.18c-1.39.86-2.99,1.32-4.62,1.32Z"/>
    <path class="cls-5" d="M400,443.93c-4.85,0-8.78-3.92-8.78-8.77h0V136.55c0-4.85,3.93-8.78,8.78-8.78s8.78,3.93,8.78,8.78v298.6c0,4.85-3.92,8.78-8.77,8.78h-.01Z"/>
    <path class="cls-5" d="M426.35,233.16c-4.85,0-8.78-3.93-8.78-8.78h0v-17.57c0-4.85,3.93-8.78,8.78-8.78s8.78,3.93,8.78,8.78v17.56c0,4.85-3.93,8.78-8.78,8.78h0Z"/>
    <path class="cls-5" d="M373.65,233.16c-4.85,0-8.78-3.93-8.78-8.78h0v-17.57c0-4.85,3.93-8.78,8.78-8.78s8.78,3.93,8.78,8.78v17.56c0,4.85-3.93,8.78-8.78,8.78h0Z"/>
    <path class="cls-5" d="M470.26,452.71c-4.85,0-8.78-3.92-8.78-8.77h0v-8.79c0-4.85,3.93-8.78,8.78-8.78s8.78,3.93,8.78,8.78v8.78c0,4.85-3.92,8.78-8.77,8.78h-.01Z"/>
    <path class="cls-5" d="M628.25,303.51c-4.85,0-8.78-3.93-8.78-8.78h0v-16.43c0-4.85,3.93-8.78,8.78-8.78s8.78,3.93,8.78,8.78v16.42c0,4.85-3.93,8.78-8.78,8.78h0Z"/>
    <path class="cls-5" d="M312.18,443.93c-82.37-.09-149.12-66.84-149.21-149.21,0-4.85,3.93-8.78,8.78-8.78s8.78,3.93,8.78,8.78c.08,72.67,58.98,131.56,131.65,131.64,4.85,0,8.78,3.93,8.78,8.78s-3.93,8.78-8.78,8.78Z"/>
    <path class="cls-5" d="M329.74,452.71c-4.85,0-8.78-3.92-8.78-8.77h0v-8.79c0-4.85,3.93-8.78,8.78-8.78s8.78,3.93,8.78,8.78v8.78c0,4.85-3.92,8.78-8.77,8.78h-.01Z"/>
    <path class="cls-5" d="M487.81,443.93h-175.63c-4.85,0-8.78-3.93-8.78-8.78s3.93-8.78,8.78-8.78h175.63c4.85,0,8.78,3.93,8.78,8.78s-3.93,8.78-8.78,8.78Z"/>
    <path class="cls-5" d="M171.75,303.51c-4.85,0-8.78-3.93-8.78-8.78h0v-16.43c0-4.85,3.93-8.78,8.78-8.78s8.78,3.93,8.78,8.78v16.42c0,4.85-3.93,8.78-8.78,8.78h0Z"/>
    <path class="cls-5" d="M382.43,505.41c-4.85,0-8.78-3.92-8.78-8.77h0v-61.49c0-4.85,3.93-8.78,8.78-8.78s8.78,3.93,8.78,8.78v61.48c0,4.85-3.92,8.78-8.77,8.78h-.01Z"/>
    <path class="cls-5" d="M417.56,505.41c-4.85,0-8.78-3.92-8.78-8.77h0v-61.49c0-4.85,3.93-8.78,8.78-8.78s8.78,3.93,8.78,8.78v61.48c0,4.85-3.92,8.78-8.77,8.78h-.01Z"/>
  </g>
  <circle class="cls-3" cx="550.94" cy="578.15" r="38.65"/>
  <circle class="cls-3" cx="170.18" cy="537.36" r="56.04"/>
  <circle class="cls-3" cx="332.36" cy="713.05" r="23.19"/>
  <path class="cls-2" d="M146.74,230.41c-3.59,0-7.23-.74-10.72-2.29-13.29-5.93-19.25-21.51-13.33-34.79,22.08-49.53,83.56-113.49,153.98-134.49,13.93-4.16,28.62,3.78,32.78,17.72,4.16,13.95-3.78,28.62-17.72,32.78-53.34,15.9-103.36,66.11-120.91,105.45-4.37,9.8-13.99,15.63-24.07,15.63Z"/>
  <path class="cls-1" d="M558.18,741.87c-10.78,0-20.89-6.66-24.77-17.38-4.96-13.69,2.11-28.79,15.79-33.75,62.43-22.62,118.11-78.58,152.76-153.51,6.12-13.2,21.76-18.95,34.97-12.85,13.21,6.11,18.96,21.77,12.85,34.97-40.51,87.6-107.08,153.54-182.64,180.92-2.96,1.07-5.99,1.59-8.98,1.59Z"/>
</svg>