<?xml version="1.0" encoding="UTF-8"?>
<svg id="Layer_1" data-name="Layer 1" xmlns="http://www.w3.org/2000/svg" viewBox="0 0 800 800">
  <defs>
    <style>
      .cls-1 {
        opacity: .4;
      }

      .cls-1, .cls-2 {
        fill: #fff;
      }

      .cls-3, .cls-4 {
        fill: #5c9eff;
      }

      .cls-5 {
        fill: #006bc4;
      }

      .cls-6 {
        fill: #02dfff;
      }

      .cls-7 {
        fill: #f0567a;
      }

      .cls-4 {
        opacity: .5;
      }

      .cls-2 {
        opacity: .7;
      }
    </style>
  </defs>
  <circle class="cls-4" cx="400" cy="400" r="400"/>
  <g>
    <path class="cls-6" d="M572.31,285.83c24.76,26.06,38.53,60.66,38.47,96.61-.04,29.06,23.49,52.66,52.55,52.69.05,0,.09,0,.14,0l8.78,35.13h-35.13l-131.73,70.26h-96.61l-131.73-114.17h-35.13l-70.26,70.26-43.91-149.3,114.17,26.35h35.13c5.99.02,11.94-1.02,17.56-3.07,21.08-7.37,35.18-27.29,35.13-49.62,0-19.4,15.71-35.12,35.11-35.13h207.46ZM562.47,391.22c12.13,0,21.96-9.83,21.96-21.96s-9.83-21.96-21.96-21.96-21.96,9.83-21.96,21.96c0,12.12,9.83,21.95,21.96,21.96Z"/>
    <circle class="cls-3" cx="562.47" cy="369.26" r="21.96"/>
    <path class="cls-7" d="M470.26,241.92c38.62-.07,75.55,15.82,102.05,43.91h-207.44c-19.4,0-35.12,15.71-35.13,35.11v.02c.05,22.33-14.05,42.25-35.13,49.62v-102.31c-.02-14.53,11.75-26.33,26.28-26.35.02,0,.05,0,.07,0h149.3Z"/>
    <path class="cls-3" d="M408.78,540.52h-43.91c-62.99.06-114.11-50.95-114.17-113.94,0-.08,0-.15,0-.23h26.35l131.73,114.17Z"/>
    <path class="cls-5" d="M663.47,443.91c-33.94-.04-61.44-27.54-61.48-61.48,0-4.85,3.93-8.78,8.78-8.78s8.78,3.93,8.78,8.78c.03,24.24,19.67,43.88,43.91,43.91,4.85,0,8.78,3.93,8.78,8.78s-3.93,8.78-8.78,8.78Z"/>
    <path class="cls-5" d="M610.78,391.22c-4.85,0-8.78-3.92-8.78-8.77h0c-.08-72.73-59.01-131.67-131.73-131.74-4.85,0-8.78-3.93-8.78-8.78s3.93-8.78,8.78-8.78c82.42.09,149.21,66.88,149.3,149.3,0,4.85-3.92,8.78-8.77,8.78h-.01Z"/>
    <path class="cls-5" d="M470.26,250.7h-149.3c-4.85,0-8.78-3.93-8.78-8.78s3.93-8.78,8.78-8.78h149.3c4.85,0,8.78,3.93,8.78,8.78s-3.93,8.78-8.78,8.78Z"/>
    <path class="cls-5" d="M294.61,379.4c-4.85,0-8.78-3.92-8.78-8.77h0v-102.36c0-4.85,3.93-8.78,8.78-8.78s8.78,3.93,8.78,8.78v102.35c0,4.85-3.92,8.78-8.77,8.78h-.01Z"/>
    <path class="cls-5" d="M277.05,382.44c-4.85,0-8.78-3.93-8.78-8.78s3.93-8.78,8.78-8.78c24.24-.03,43.88-19.67,43.91-43.91,0-4.85,3.93-8.78,8.78-8.78s8.78,3.93,8.78,8.78c-.04,33.94-27.54,61.44-61.48,61.48Z"/>
    <path class="cls-5" d="M329.74,329.74c-4.85,0-8.78-3.92-8.78-8.77h0c.03-24.25,19.67-43.89,43.91-43.92,4.85,0,8.78,3.93,8.78,8.78s-3.93,8.78-8.78,8.78c-14.54.02-26.33,11.8-26.35,26.35,0,4.85-3.92,8.78-8.77,8.78h-.01Z"/>
    <path class="cls-5" d="M572.34,294.61h-207.47c-4.85,0-8.78-3.93-8.78-8.78s3.93-8.78,8.78-8.78h207.47c4.85,0,8.78,3.93,8.78,8.78s-3.93,8.78-8.78,8.78Z"/>
    <path class="cls-5" d="M672.24,479.04c-4.03,0-7.54-2.75-8.51-6.66l-8.78-35.13c-1.16-4.71,1.71-9.46,6.42-10.63,4.69-1.16,9.43,1.69,10.61,6.37l8.78,35.13c1.17,4.71-1.71,9.48-6.42,10.65-.69.17-1.4.26-2.11.26Z"/>
    <path class="cls-5" d="M505.4,549.3c-4.85,0-8.79-3.92-8.8-8.77,0-3.25,1.79-6.24,4.65-7.76l131.73-70.26c4.29-2.27,9.61-.64,11.88,3.65,2.26,4.27.65,9.57-3.61,11.85l-131.73,70.26c-1.27.67-2.69,1.03-4.13,1.03Z"/>
    <path class="cls-5" d="M505.39,549.3h-140.52c-4.85,0-8.78-3.93-8.78-8.78s3.93-8.78,8.78-8.78h140.52c4.85,0,8.78,3.93,8.78,8.78s-3.93,8.78-8.78,8.78Z"/>
    <path class="cls-5" d="M364.87,549.3c-67.87-.08-122.88-55.08-122.95-122.95,0-4.85,3.93-8.78,8.78-8.78s8.78,3.93,8.78,8.78c.06,58.18,47.21,105.32,105.39,105.39,4.85,0,8.78,3.93,8.78,8.78s-3.93,8.78-8.78,8.78Z"/>
    <path class="cls-5" d="M408.78,549.3c-2.11,0-4.16-.76-5.75-2.14l-131.73-114.17c-3.67-3.18-4.06-8.73-.88-12.39,3.18-3.67,8.73-4.06,12.39-.88l131.73,114.17c3.67,3.18,4.06,8.72.89,12.39-1.67,1.93-4.09,3.03-6.64,3.03Z"/>
    <path class="cls-5" d="M277.05,435.13h-35.13c-4.85,0-8.78-3.93-8.78-8.78s3.93-8.78,8.78-8.78h35.13c4.85,0,8.78,3.93,8.78,8.78s-3.93,8.78-8.78,8.78Z"/>
    <path class="cls-5" d="M277.05,382.44h-35.13c-4.85,0-8.78-3.93-8.78-8.78s3.93-8.78,8.78-8.78h35.13c4.85,0,8.78,3.93,8.78,8.78s-3.93,8.78-8.78,8.78Z"/>
    <path class="cls-5" d="M241.93,382.44c-.67,0-1.33-.07-1.98-.22l-114.17-26.35c-4.72-1.1-7.66-5.82-6.56-10.55,1.1-4.71,5.79-7.65,10.51-6.57l114.17,26.35c4.73,1.09,7.68,5.8,6.59,10.53-.92,3.98-4.46,6.81-8.55,6.81Z"/>
    <path class="cls-5" d="M171.66,505.39c-4.85,0-8.78-3.93-8.78-8.78,0-2.33.93-4.56,2.57-6.21l70.26-70.26c3.46-3.4,9.02-3.35,12.42.11,3.35,3.42,3.35,8.89,0,12.31l-70.26,70.26c-1.64,1.65-3.88,2.58-6.21,2.57Z"/>
    <path class="cls-5" d="M171.66,505.39c-3.89,0-7.32-2.57-8.42-6.3l-43.91-149.3c-1.37-4.65,1.29-9.53,5.94-10.9,4.65-1.37,9.53,1.29,10.9,5.94l43.91,149.3c1.37,4.65-1.29,9.53-5.93,10.9h0c-.8.24-1.64.36-2.48.36Z"/>
    <path class="cls-5" d="M562.47,400c-16.98,0-30.74-13.76-30.74-30.74s13.76-30.74,30.74-30.74,30.74,13.76,30.74,30.74c-.02,16.97-13.77,30.72-30.74,30.74ZM562.47,356.09c-7.28,0-13.17,5.9-13.17,13.17s5.9,13.17,13.17,13.17,13.17-5.9,13.17-13.17c0-7.27-5.9-13.17-13.17-13.17Z"/>
    <path class="cls-5" d="M294.61,277.05c-4.85,0-8.78-3.92-8.78-8.77h0c.02-19.4,15.74-35.12,35.13-35.14,4.85,0,8.78,3.93,8.78,8.78s-3.93,8.78-8.78,8.78c-9.7.01-17.55,7.87-17.56,17.56,0,4.85-3.92,8.78-8.77,8.78h-.01Z"/>
    <path class="cls-5" d="M672.25,479.04h-35.13c-4.85,0-8.78-3.93-8.78-8.78s3.93-8.78,8.78-8.78h35.13c4.85,0,8.78,3.93,8.78,8.78s-3.93,8.78-8.78,8.78Z"/>
  </g>
  <circle class="cls-3" cx="242.71" cy="578.15" r="38.65"/>
  <circle class="cls-3" cx="472.83" cy="627.62" r="56.04"/>
  <circle class="cls-3" cx="350.33" cy="746.35" r="23.19"/>
  <path class="cls-2" d="M120.39,256.76c-3.58,0-7.23-.74-10.72-2.3-13.28-5.93-19.25-21.5-13.32-34.79,47.47-106.39,128.45-126.87,153.97-134.48,13.99-4.15,28.62,3.79,32.78,17.72,4.16,13.95-3.77,28.62-17.72,32.78-53.33,15.9-103.36,66.11-120.92,105.46-4.37,9.79-13.99,15.62-24.07,15.62Z"/>
  <path class="cls-1" d="M558.18,741.87c-10.77,0-20.88-6.66-24.77-17.38-4.96-13.68,2.11-28.78,15.8-33.74,62.43-22.62,118.12-78.57,152.76-153.5,6.12-13.22,21.8-18.95,34.97-12.86,13.21,6.11,18.96,21.76,12.86,34.97-40.51,87.61-107.08,153.55-182.64,180.93-2.96,1.07-5.99,1.59-8.97,1.59Z"/>
</svg>