<?xml version="1.0" encoding="UTF-8"?>
<svg id="Layer_1" data-name="Layer 1" xmlns="http://www.w3.org/2000/svg" viewBox="0 0 800 800">
  <defs>
    <style>
      .cls-1 {
        opacity: .4;
      }

      .cls-1, .cls-2 {
        fill: #fff;
      }

      .cls-3, .cls-4 {
        fill: #5c9eff;
      }

      .cls-5 {
        fill: #006bc4;
      }

      .cls-6 {
        fill: #02dfff;
      }

      .cls-7 {
        fill: #f0567a;
      }

      .cls-4 {
        opacity: .5;
      }

      .cls-2 {
        opacity: .7;
      }
    </style>
  </defs>
  <circle class="cls-4" cx="400" cy="400" r="400"/>
  <g>
    <path class="cls-7" d="M285.82,610.78c-4.85,0-8.78-3.94-8.78-8.79,0-1.36.32-2.7.93-3.92l6.82-13.64-6.82-13.64c-1.24-2.47-1.24-5.38,0-7.86l6.82-13.64-6.82-13.64c-1.24-2.47-1.24-5.38,0-7.86l6.82-13.64-6.82-13.64c-1.24-2.47-1.24-5.38,0-7.86l6.82-13.64-6.82-13.64c-1.24-2.47-1.24-5.38,0-7.86l6.82-13.64-6.82-13.64c-1.24-2.47-1.24-5.38,0-7.86l6.82-13.64-6.82-13.64c-1.24-2.47-1.24-5.38,0-7.86l8.78-17.56c2.16-4.34,7.43-6.11,11.78-3.95,4.34,2.16,6.11,7.43,3.95,11.78,0,.01-.01.02-.02.03l-6.82,13.64,6.82,13.64c1.24,2.47,1.24,5.38,0,7.86l-6.82,13.64,6.82,13.64c1.24,2.47,1.24,5.38,0,7.86l-6.82,13.64,6.82,13.64c1.24,2.47,1.24,5.38,0,7.86l-6.82,13.64,6.82,13.64c1.24,2.47,1.24,5.38,0,7.86l-6.82,13.64,6.82,13.64c1.24,2.47,1.24,5.38,0,7.86l-6.82,13.64,6.82,13.64c1.24,2.47,1.24,5.38,0,7.86l-8.78,17.56c-1.49,2.98-4.54,4.86-7.86,4.85Z"/>
    <path class="cls-7" d="M338.53,663.47c-3.33,0-6.38-1.88-7.86-4.85l-8.78-17.56c-1.24-2.47-1.24-5.38,0-7.86l6.82-13.64-6.82-13.64c-1.24-2.47-1.24-5.38,0-7.86l6.82-13.64-6.82-13.64c-1.24-2.47-1.24-5.38,0-7.86l6.82-13.64-6.82-13.64c-1.24-2.47-1.24-5.38,0-7.86l6.82-13.64-6.82-13.64c-1.24-2.47-1.24-5.38,0-7.86l6.82-13.64-6.82-13.64c-1.24-2.47-1.24-5.38,0-7.86l6.82-13.64-6.82-13.64c-1.24-2.47-1.24-5.38,0-7.86l6.82-13.64-6.82-13.64c-1.24-2.47-1.24-5.38,0-7.86l8.78-17.56c2.16-4.34,7.43-6.11,11.78-3.95,4.34,2.16,6.11,7.43,3.95,11.78,0,.01-.01.02-.02.03l-6.82,13.64,6.82,13.64c1.24,2.47,1.24,5.38,0,7.86l-6.82,13.64,6.82,13.64c1.24,2.47,1.24,5.38,0,7.86l-6.82,13.64,6.82,13.64c1.24,2.47,1.24,5.38,0,7.86l-6.82,13.64,6.82,13.64c1.24,2.47,1.24,5.38,0,7.86l-6.82,13.64,6.82,13.64c1.24,2.47,1.24,5.38,0,7.86l-6.82,13.64,6.82,13.64c1.24,2.47,1.24,5.38,0,7.86l-6.82,13.64,6.82,13.64c1.24,2.47,1.24,5.38,0,7.86l-6.82,13.64,6.82,13.64c2.17,4.34.41,9.61-3.92,11.78-1.22.61-2.56.93-3.92.93Z"/>
    <path class="cls-7" d="M373.64,681.03c-4.85,0-8.78-3.94-8.78-8.79,0-1.36.32-2.7.93-3.92l6.82-13.64-6.82-13.64c-1.24-2.47-1.24-5.38,0-7.86l6.82-13.64-6.82-13.64c-1.24-2.47-1.24-5.38,0-7.86l6.82-13.64-6.82-13.64c-1.24-2.47-1.24-5.38,0-7.86l6.82-13.64-6.82-13.64c-1.24-2.47-1.24-5.38,0-7.86l6.82-13.64-6.82-13.64c-1.24-2.47-1.24-5.38,0-7.86l6.82-13.64-6.82-13.64c-1.24-2.47-1.24-5.38,0-7.86l6.82-13.64-6.82-13.64c-1.24-2.47-1.24-5.38,0-7.86l6.82-13.64-6.82-13.64c-1.24-2.47-1.24-5.38,0-7.86l8.78-17.56c2.16-4.34,7.43-6.11,11.78-3.95,4.34,2.16,6.11,7.43,3.95,11.78,0,.01-.01.02-.02.03l-6.82,13.64,6.82,13.64c1.24,2.47,1.24,5.38,0,7.86l-6.82,13.64,6.82,13.64c1.24,2.47,1.24,5.38,0,7.86l-6.82,13.64,6.82,13.64c1.24,2.47,1.24,5.38,0,7.86l-6.82,13.64,6.82,13.64c1.24,2.47,1.24,5.38,0,7.86l-6.82,13.64,6.82,13.64c1.24,2.47,1.24,5.38,0,7.86l-6.82,13.64,6.82,13.64c1.24,2.47,1.24,5.38,0,7.86l-6.82,13.64,6.82,13.64c1.24,2.47,1.24,5.38,0,7.86l-6.82,13.64,6.82,13.64c1.24,2.47,1.24,5.38,0,7.86l-8.78,17.56c-1.49,2.98-4.54,4.86-7.86,4.85Z"/>
    <path class="cls-7" d="M417.56,681.03c-4.85,0-8.78-3.94-8.78-8.79,0-1.36.32-2.7.93-3.92l6.82-13.64-6.82-13.64c-1.24-2.47-1.24-5.38,0-7.86l6.82-13.64-6.82-13.64c-1.24-2.47-1.24-5.38,0-7.86l6.82-13.64-6.82-13.64c-1.24-2.47-1.24-5.38,0-7.86l6.82-13.64-6.82-13.64c-1.24-2.47-1.24-5.38,0-7.86l6.82-13.64-6.82-13.64c-1.24-2.47-1.24-5.38,0-7.86l6.82-13.64-6.82-13.64c-1.24-2.47-1.24-5.38,0-7.86l6.82-13.64-6.82-13.64c-1.24-2.47-1.24-5.38,0-7.86l6.82-13.64-6.82-13.64c-1.24-2.47-1.24-5.38,0-7.86l8.78-17.56c2.16-4.34,7.43-6.12,11.77-3.96s6.12,7.43,3.96,11.77c0,.01-.01.03-.02.04l-6.82,13.64,6.82,13.64c1.24,2.47,1.24,5.38,0,7.86l-6.82,13.64,6.82,13.64c1.24,2.47,1.24,5.38,0,7.86l-6.82,13.64,6.82,13.64c1.24,2.47,1.24,5.38,0,7.86l-6.82,13.64,6.82,13.64c1.24,2.47,1.24,5.38,0,7.86l-6.82,13.64,6.82,13.64c1.24,2.47,1.24,5.38,0,7.86l-6.82,13.64,6.82,13.64c1.24,2.47,1.24,5.38,0,7.86l-6.82,13.64,6.82,13.64c1.24,2.47,1.24,5.38,0,7.86l-6.82,13.64,6.82,13.64c1.24,2.47,1.24,5.38,0,7.86l-8.78,17.56c-1.49,2.98-4.54,4.86-7.86,4.85Z"/>
    <path class="cls-7" d="M470.27,663.47c-3.33,0-6.38-1.88-7.86-4.85l-8.78-17.56c-1.24-2.47-1.24-5.38,0-7.86l6.82-13.64-6.82-13.64c-1.24-2.47-1.24-5.38,0-7.86l6.82-13.64-6.82-13.64c-1.24-2.47-1.24-5.38,0-7.86l6.82-13.64-6.82-13.64c-1.24-2.47-1.24-5.38,0-7.86l6.82-13.64-6.82-13.64c-1.24-2.47-1.24-5.38,0-7.86l6.82-13.64-6.82-13.64c-1.24-2.47-1.24-5.38,0-7.86l6.82-13.64-6.82-13.64c-1.24-2.47-1.24-5.38,0-7.86l6.82-13.64-6.82-13.64c-1.24-2.47-1.24-5.38,0-7.86l8.78-17.56c2.16-4.34,7.43-6.12,11.77-3.96s6.12,7.43,3.96,11.77c0,.01-.01.03-.02.04l-6.82,13.64,6.82,13.64c1.24,2.47,1.24,5.38,0,7.86l-6.82,13.64,6.82,13.64c1.24,2.47,1.24,5.38,0,7.86l-6.82,13.64,6.82,13.64c1.24,2.47,1.24,5.38,0,7.86l-6.82,13.64,6.82,13.64c1.24,2.47,1.24,5.38,0,7.86l-6.82,13.64,6.82,13.64c1.24,2.47,1.24,5.38,0,7.86l-6.82,13.64,6.82,13.64c1.24,2.47,1.24,5.38,0,7.86l-6.82,13.64,6.82,13.64c1.24,2.47,1.24,5.38,0,7.86l-6.82,13.64,6.82,13.64c2.17,4.34.41,9.61-3.92,11.78-1.22.61-2.56.93-3.92.93Z"/>
    <path class="cls-7" d="M505.38,610.78c-4.85,0-8.78-3.94-8.78-8.79,0-1.36.32-2.7.93-3.92l6.82-13.64-6.82-13.64c-1.24-2.47-1.24-5.38,0-7.86l6.82-13.64-6.82-13.64c-1.24-2.47-1.24-5.38,0-7.86l6.82-13.64-6.82-13.64c-1.24-2.47-1.24-5.38,0-7.86l6.82-13.64-6.82-13.64c-1.24-2.47-1.24-5.38,0-7.86l6.82-13.64-6.82-13.64c-1.24-2.47-1.24-5.38,0-7.86l6.82-13.64-6.82-13.64c-1.24-2.47-1.24-5.38,0-7.86l8.78-17.56c2.18-4.33,7.46-6.08,11.79-3.9,4.32,2.17,6.07,7.43,3.92,11.75l-6.82,13.64,6.82,13.64c1.24,2.47,1.24,5.38,0,7.86l-6.82,13.64,6.82,13.64c1.24,2.47,1.24,5.38,0,7.86l-6.82,13.64,6.82,13.64c1.24,2.47,1.24,5.38,0,7.86l-6.82,13.64,6.82,13.64c1.24,2.47,1.24,5.38,0,7.86l-6.82,13.64,6.82,13.64c1.24,2.47,1.24,5.38,0,7.86l-6.82,13.64,6.82,13.64c1.24,2.47,1.24,5.38,0,7.86l-8.78,17.56c-1.49,2.98-4.54,4.86-7.86,4.85Z"/>
    <path class="cls-6" d="M400,127.75c82.45,0,149.29,66.82,149.3,149.27v61.5c0,19.4-15.71,35.12-35.11,35.13h-228.36c-19.4,0-35.12-15.71-35.13-35.11v-61.5c0-82.45,66.82-149.29,149.27-149.3,0,0,.02,0,.03,0Z"/>
    <path class="cls-5" d="M549.3,285.83c-4.85,0-8.78-3.93-8.78-8.78h0c0-77.61-62.91-140.52-140.52-140.52s-140.52,62.91-140.52,140.52c0,4.85-3.93,8.78-8.78,8.78s-8.78-3.93-8.78-8.78c0-87.31,70.78-158.08,158.08-158.08s158.08,70.78,158.08,158.08c0,4.85-3.93,8.78-8.78,8.78h0Z"/>
    <path class="cls-3" d="M522.95,285.83c-4.85,0-8.78-3.93-8.78-8.78h0c0-63.06-51.12-114.17-114.17-114.17s-114.17,51.12-114.17,114.17c0,4.85-3.93,8.78-8.78,8.78s-8.78-3.93-8.78-8.78c0-72.76,58.98-131.73,131.73-131.73s131.73,58.98,131.73,131.73c0,4.85-3.93,8.78-8.78,8.78h0Z"/>
    <path class="cls-5" d="M285.83,382.44c-24.24-.03-43.88-19.67-43.91-43.91,0-4.85,3.93-8.78,8.78-8.78s8.78,3.93,8.78,8.78c.02,14.54,11.8,26.33,26.35,26.35,4.85,0,8.78,3.93,8.78,8.78s-3.93,8.78-8.78,8.78Z"/>
    <path class="cls-5" d="M514.17,382.44c-4.85,0-8.78-3.93-8.78-8.78s3.93-8.78,8.78-8.78c14.54-.02,26.33-11.8,26.35-26.35,0-4.85,3.93-8.78,8.78-8.78s8.78,3.93,8.78,8.78c-.03,24.24-19.67,43.88-43.91,43.91Z"/>
    <path class="cls-5" d="M250.7,347.31c-4.85,0-8.78-3.93-8.78-8.78h0v-61.48c0-4.85,3.93-8.78,8.78-8.78s8.78,3.93,8.78,8.78v61.48c0,4.85-3.93,8.78-8.78,8.78h0Z"/>
    <path class="cls-5" d="M549.3,349.77c-4.85,0-8.78-3.93-8.78-8.78h0v-63.94c0-4.85,3.93-8.78,8.78-8.78s8.78,3.93,8.78,8.78v63.94c0,4.85-3.93,8.78-8.78,8.78h0Z"/>
    <path class="cls-5" d="M514.17,382.44h-228.34c-4.85,0-8.78-3.93-8.78-8.78s3.93-8.78,8.78-8.78h228.34c4.85,0,8.78,3.93,8.78,8.78s-3.93,8.78-8.78,8.78Z"/>
  </g>
  <circle class="cls-3" cx="183.24" cy="519.97" r="38.65"/>
  <circle class="cls-3" cx="604.28" cy="536.96" r="56.04"/>
  <circle class="cls-3" cx="319.77" cy="732.27" r="23.19"/>
  <path class="cls-2" d="M146.74,244.01c-3.59,0-7.23-.74-10.72-2.29-13.29-5.93-19.25-21.51-13.33-34.79,22.09-49.52,83.56-113.48,153.98-134.49,13.96-4.13,28.62,3.78,32.78,17.72,4.16,13.95-3.77,28.62-17.72,32.78-53.34,15.91-103.37,66.11-120.92,105.46-4.37,9.8-13.99,15.62-24.07,15.62Z"/>
  <path class="cls-1" d="M558.18,741.87c-10.77,0-20.88-6.66-24.77-17.38-4.96-13.68,2.11-28.79,15.79-33.75,62.44-22.63,118.12-78.59,152.77-153.51,6.11-13.21,21.77-18.97,34.97-12.86,13.21,6.11,18.96,21.77,12.85,34.97-40.51,87.6-107.08,153.54-182.64,180.93-2.96,1.08-6,1.59-8.98,1.59Z"/>
</svg>