<?xml version="1.0" encoding="UTF-8"?>
<svg id="Layer_1" data-name="Layer 1" xmlns="http://www.w3.org/2000/svg" viewBox="0 0 800 800">
  <defs>
    <style>
      .cls-1 {
        opacity: .4;
      }

      .cls-1, .cls-2 {
        fill: #fff;
      }

      .cls-3, .cls-4 {
        fill: #5c9eff;
      }

      .cls-5 {
        fill: #006bc4;
      }

      .cls-6 {
        fill: #02dfff;
      }

      .cls-7 {
        fill: #f0567a;
      }

      .cls-4 {
        opacity: .5;
      }

      .cls-2 {
        opacity: .7;
      }
    </style>
  </defs>
  <circle class="cls-4" cx="400" cy="400" r="400"/>
  <g>
    <path class="cls-6" d="M575.65,531.73v52.69c0,48.5-39.32,87.82-87.82,87.82s-87.82-39.32-87.82-87.82v-166.95h35.13v166.95c0,29.1,23.59,52.69,52.69,52.69s52.69-23.59,52.69-52.69v-17.56c0-19.4,15.71-35.12,35.11-35.13h.02Z"/>
    <path class="cls-6" d="M259.48,584.43c0,29.1,23.59,52.69,52.69,52.69s52.69-23.59,52.69-52.69v-166.95h35.13v166.95c0,48.5-39.32,87.82-87.82,87.82s-87.82-39.32-87.82-87.82v-52.69c19.4,0,35.12,15.71,35.13,35.11v17.58Z"/>
    <path class="cls-3" d="M540.52,566.86v17.56c0,29.1-23.59,52.69-52.69,52.69s-52.69-23.59-52.69-52.69v-166.95h8.78c9.12.03,18.13-2.01,26.35-5.97v172.92c0,9.7,7.86,17.56,17.56,17.56s17.56-7.86,17.56-17.56v-70.26c0-19.4,15.71-35.12,35.11-35.13h.02v87.82Z"/>
    <path class="cls-3" d="M364.87,417.48v166.95c0,29.1-23.59,52.69-52.69,52.69s-52.69-23.59-52.69-52.69v-105.39c19.4,0,35.12,15.71,35.13,35.11v70.28c0,9.7,7.86,17.56,17.56,17.56s17.56-7.86,17.56-17.56v-172.84c8.17,3.89,17.12,5.91,26.17,5.88h8.96Z"/>
    <path class="cls-6" d="M487.82,356.09c9.7,0,17.56-7.86,17.56-17.55h0s0,17.47,0,17.47c.05,23.75-13.64,45.38-35.13,55.5-8.22,3.96-17.23,6.01-26.35,5.97h-88c-9.05.02-18-1.99-26.17-5.88v-.09c-21.47-10.09-35.16-31.69-35.13-55.42v-17.56c0,9.7,7.86,17.56,17.56,17.56s17.56-7.86,17.56-17.56-7.86-17.56-17.56-17.56c-9.7,0-17.56,7.86-17.56,17.55h0s0-105.38,0-105.38c0-58.2,47.18-105.39,105.39-105.39s105.39,47.18,105.39,105.39v105.39c0-9.7-7.86-17.56-17.56-17.56s-17.56,7.86-17.56,17.56,7.86,17.56,17.56,17.56Z"/>
    <circle class="cls-7" cx="332.76" cy="332.82" r="28.65"/>
    <path class="cls-5" d="M505.39,241.88c-4.85,0-8.78-3.93-8.78-8.78h0c0-53.36-43.25-96.61-96.61-96.61s-96.61,43.25-96.61,96.61c0,4.85-3.93,8.78-8.78,8.78s-8.78-3.93-8.78-8.78c0-63.05,51.12-114.17,114.17-114.17s114.17,51.12,114.17,114.17c0,4.85-3.93,8.78-8.78,8.78h0Z"/>
    <path class="cls-5" d="M355.94,426.24c-38.71-.04-70.07-31.41-70.11-70.12,0-4.85,3.93-8.78,8.78-8.78s8.78,3.93,8.78,8.78c.03,29.01,23.54,52.52,52.55,52.56,4.85,0,8.78,3.93,8.78,8.78s-3.93,8.78-8.78,8.78Z"/>
    <path class="cls-5" d="M443.91,426.24c-4.85,0-8.78-3.93-8.78-8.78s3.93-8.78,8.78-8.78c29.09-.03,52.66-23.61,52.69-52.7,0-4.85,3.93-8.78,8.78-8.78s8.78,3.93,8.78,8.78c-.04,38.79-31.47,70.22-70.26,70.26Z"/>
    <path class="cls-5" d="M294.61,364.91c-4.85,0-8.78-3.93-8.78-8.78h0v-123.03c0-4.85,3.93-8.78,8.78-8.78s8.78,3.93,8.78,8.78v123.02c0,4.85-3.93,8.78-8.78,8.78h0Z"/>
    <path class="cls-5" d="M505.39,364.76c-4.85,0-8.78-3.93-8.78-8.78h0v-122.88c0-4.85,3.93-8.78,8.78-8.78s8.78,3.93,8.78,8.78v122.88c0,4.85-3.93,8.78-8.78,8.78h0Z"/>
    <path class="cls-5" d="M332.76,375.85c-23.73,0-42.97-19.24-42.97-42.97s19.24-42.97,42.97-42.97,42.97,19.24,42.97,42.97c-.03,23.72-19.25,42.94-42.97,42.97ZM332.76,318.56c-7.91,0-14.32,6.41-14.32,14.32s6.41,14.32,14.32,14.32,14.32-6.41,14.32-14.32c0-7.91-6.42-14.31-14.32-14.32Z"/>
    <circle class="cls-7" cx="465.48" cy="332.82" r="28.65"/>
    <path class="cls-5" d="M465.48,375.85c-23.73,0-42.97-19.24-42.97-42.97s19.24-42.97,42.97-42.97,42.97,19.24,42.97,42.97c-.03,23.72-19.25,42.94-42.97,42.97ZM465.48,318.56c-7.91,0-14.32,6.41-14.32,14.32s6.41,14.32,14.32,14.32,14.32-6.41,14.32-14.32c0-7.91-6.42-14.31-14.32-14.32Z"/>
    <path class="cls-5" d="M487.82,610.81c-14.54-.02-26.33-11.8-26.35-26.35,0-4.85,3.93-8.78,8.78-8.78s8.78,3.93,8.78,8.78,3.93,8.78,8.78,8.78,8.78-3.93,8.78-8.78,3.93-8.78,8.78-8.78,8.78,3.93,8.78,8.78c-.02,14.54-11.8,26.33-26.35,26.35Z"/>
    <path class="cls-5" d="M487.82,645.94c-33.94-.04-61.44-27.54-61.48-61.48,0-4.85,3.93-8.78,8.78-8.78s8.78,3.93,8.78,8.78c0,24.25,19.66,43.91,43.91,43.91s43.91-19.66,43.91-43.91c0-4.85,3.93-8.78,8.78-8.78s8.78,3.93,8.78,8.78c-.04,33.94-27.54,61.44-61.48,61.48Z"/>
    <path class="cls-5" d="M487.82,681.07c-53.33-.06-96.55-43.28-96.61-96.61,0-4.85,3.93-8.78,8.78-8.78s8.78,3.93,8.78,8.78c0,43.65,35.39,79.04,79.04,79.04s79.04-35.39,79.04-79.04c0-4.85,3.93-8.78,8.78-8.78s8.78,3.93,8.78,8.78c-.06,53.33-43.28,96.55-96.61,96.61Z"/>
    <path class="cls-5" d="M505.39,593.25c-4.85,0-8.78-3.92-8.78-8.77h0v-70.27c0-4.85,3.93-8.78,8.78-8.78s8.78,3.93,8.78,8.78v70.26c0,4.85-3.92,8.78-8.77,8.78h-.01Z"/>
    <path class="cls-5" d="M443.91,426.24h-87.97c-4.85,0-8.78-3.93-8.78-8.78s3.93-8.78,8.78-8.78h87.97c4.85,0,8.78,3.93,8.78,8.78s-3.93,8.78-8.78,8.78Z"/>
    <path class="cls-5" d="M435.13,593.25c-4.85,0-8.78-3.92-8.78-8.77h0v-167.01c0-4.85,3.93-8.78,8.78-8.78s8.78,3.93,8.78,8.78v167c0,4.85-3.92,8.78-8.77,8.78h-.01Z"/>
    <path class="cls-5" d="M470.26,593.25c-4.85,0-8.78-3.92-8.78-8.77h0v-172.93c0-4.85,3.93-8.78,8.78-8.78s8.78,3.93,8.78,8.78v172.92c0,4.85-3.92,8.78-8.77,8.78h-.01Z"/>
    <path class="cls-5" d="M505.39,522.99c-4.85,0-8.78-3.92-8.78-8.77h0c.03-24.25,19.67-43.89,43.91-43.92,4.85,0,8.78,3.93,8.78,8.78s-3.93,8.78-8.78,8.78c-14.54.02-26.33,11.8-26.35,26.35,0,4.85-3.92,8.78-8.77,8.78h-.01Z"/>
    <path class="cls-5" d="M540.52,593.25c-4.85,0-8.78-3.92-8.78-8.77h0v-105.4c0-4.85,3.93-8.78,8.78-8.78s8.78,3.93,8.78,8.78v105.39c0,4.85-3.92,8.78-8.77,8.78h-.01Z"/>
    <path class="cls-5" d="M540.52,575.68c-4.85,0-8.78-3.92-8.78-8.77h0c.03-24.25,19.67-43.89,43.91-43.92,4.85,0,8.78,3.93,8.78,8.78s-3.93,8.78-8.78,8.78c-14.54.02-26.33,11.8-26.35,26.35,0,4.85-3.92,8.78-8.77,8.78h-.01Z"/>
    <path class="cls-5" d="M575.65,593.25c-4.85,0-8.78-3.92-8.78-8.77h0v-52.7c0-4.85,3.93-8.78,8.78-8.78s8.78,3.93,8.78,8.78v52.69c0,4.85-3.92,8.78-8.77,8.78h-.01Z"/>
    <path class="cls-5" d="M312.18,610.81c-14.54-.02-26.33-11.8-26.35-26.35,0-4.85,3.93-8.78,8.78-8.78s8.78,3.93,8.78,8.78,3.93,8.78,8.78,8.78,8.78-3.93,8.78-8.78,3.93-8.78,8.78-8.78,8.78,3.93,8.78,8.78c-.02,14.54-11.8,26.33-26.35,26.35Z"/>
    <path class="cls-5" d="M312.18,645.94c-33.94-.04-61.44-27.54-61.48-61.48,0-4.85,3.93-8.78,8.78-8.78s8.78,3.93,8.78,8.78c0,24.25,19.66,43.91,43.91,43.91s43.91-19.66,43.91-43.91c0-4.85,3.93-8.78,8.78-8.78s8.78,3.93,8.78,8.78c-.04,33.94-27.54,61.44-61.48,61.48Z"/>
    <path class="cls-5" d="M312.18,681.07c-53.33-.06-96.55-43.28-96.61-96.61,0-4.85,3.93-8.78,8.78-8.78s8.78,3.93,8.78,8.78c0,43.65,35.39,79.04,79.04,79.04s79.04-35.39,79.04-79.04c0-4.85,3.93-8.78,8.78-8.78s8.78,3.93,8.78,8.78c-.06,53.33-43.28,96.55-96.61,96.61Z"/>
    <path class="cls-5" d="M294.61,593.25c-4.85,0-8.78-3.92-8.78-8.77h0v-70.27c0-4.85,3.93-8.78,8.78-8.78s8.78,3.93,8.78,8.78v70.26c0,4.85-3.92,8.78-8.77,8.78h-.01Z"/>
    <path class="cls-5" d="M364.87,593.25c-4.85,0-8.78-3.92-8.78-8.77h0v-167.01c0-4.85,3.93-8.78,8.78-8.78s8.78,3.93,8.78,8.78v167c0,4.85-3.92,8.78-8.77,8.78h-.01Z"/>
    <path class="cls-5" d="M329.74,593.25c-4.85,0-8.78-3.92-8.78-8.77h0v-172.93c0-4.85,3.93-8.78,8.78-8.78s8.78,3.93,8.78,8.78v172.92c0,4.85-3.92,8.78-8.77,8.78h-.01Z"/>
    <path class="cls-5" d="M294.61,522.99c-4.85,0-8.78-3.92-8.78-8.77h0c-.02-14.55-11.8-26.34-26.35-26.36-4.85,0-8.78-3.93-8.78-8.78s3.93-8.78,8.78-8.78c24.24.03,43.88,19.67,43.91,43.91,0,4.85-3.92,8.78-8.77,8.78h-.01Z"/>
    <path class="cls-5" d="M259.48,593.25c-4.85,0-8.78-3.92-8.78-8.77h0v-105.4c0-4.85,3.93-8.78,8.78-8.78s8.78,3.93,8.78,8.78v105.39c0,4.85-3.92,8.78-8.77,8.78h-.01Z"/>
    <path class="cls-5" d="M259.48,575.68c-4.85,0-8.78-3.92-8.78-8.77h0c-.02-14.55-11.8-26.34-26.35-26.36-4.85,0-8.78-3.93-8.78-8.78s3.93-8.78,8.78-8.78c24.24.03,43.88,19.67,43.91,43.91,0,4.85-3.92,8.78-8.77,8.78h-.01Z"/>
    <path class="cls-5" d="M224.35,593.25c-4.85,0-8.78-3.92-8.78-8.77h0v-52.7c0-4.85,3.93-8.78,8.78-8.78s8.78,3.93,8.78,8.78v52.69c0,4.85-3.92,8.78-8.77,8.78h-.01Z"/>
    <path class="cls-5" d="M400,593.25c-4.85,0-8.78-3.92-8.78-8.77h0v-167.01c0-4.85,3.93-8.78,8.78-8.78s8.78,3.93,8.78,8.78v167c0,4.85-3.92,8.78-8.77,8.78h-.01Z"/>
  </g>
  <circle class="cls-3" cx="147.52" cy="410.44" r="38.65"/>
  <circle class="cls-3" cx="668.79" cy="387.77" r="56.04"/>
  <circle class="cls-3" cx="371.76" cy="756.99" r="23.19"/>
  <path class="cls-2" d="M146.74,244.01c-3.58,0-7.23-.74-10.72-2.29-13.28-5.93-19.25-21.51-13.32-34.79,22.08-49.52,83.57-113.49,153.98-134.49,14-4.13,28.62,3.78,32.78,17.72,4.16,13.95-3.77,28.62-17.72,32.78-53.34,15.91-103.37,66.11-120.93,105.46-4.37,9.8-13.99,15.62-24.07,15.62Z"/>
  <path class="cls-1" d="M558.18,741.87c-10.77,0-20.88-6.66-24.77-17.38-4.96-13.68,2.11-28.79,15.79-33.75,62.43-22.63,118.12-78.58,152.77-153.51,6.12-13.21,21.77-18.95,34.97-12.85,13.21,6.11,18.95,21.77,12.85,34.97-40.52,87.6-107.09,153.54-182.64,180.93-2.97,1.08-5.99,1.59-8.98,1.59Z"/>
</svg>