<?xml version="1.0" encoding="UTF-8"?>
<svg id="Layer_1" data-name="Layer 1" xmlns="http://www.w3.org/2000/svg" viewBox="0 0 800 800">
  <defs>
    <style>
      .cls-1 {
        opacity: .4;
      }

      .cls-1, .cls-2 {
        fill: #fff;
      }

      .cls-3, .cls-4 {
        fill: #5c9eff;
      }

      .cls-5 {
        fill: #006bc4;
      }

      .cls-6 {
        fill: #02dfff;
      }

      .cls-7 {
        fill: #f0567a;
      }

      .cls-4 {
        opacity: .5;
      }

      .cls-2 {
        opacity: .7;
      }
    </style>
  </defs>
  <circle class="cls-4" cx="400" cy="400" r="400"/>
  <g>
    <path class="cls-3" d="M198.01,373.65v-70.26h70.26c.01,38.79-31.43,70.25-70.22,70.26h-.04Z"/>
    <path class="cls-3" d="M198.01,303.39v70.26c-37.41.01-68.27-29.3-70.17-66.66-.09-1.23-.09-2.37-.09-3.6v-70.26c38.79-.01,70.25,31.43,70.26,70.22v.04Z"/>
    <path class="cls-3" d="M452.69,373.65h-70.26v-70.26c38.79-.01,70.25,31.43,70.26,70.22v.04Z"/>
    <path class="cls-6" d="M127.92,310.6c3.84,74.71,65.53,133.32,140.34,133.32h131.73c38.8,0,70.26,31.46,70.26,70.26s-31.46,70.26-70.26,70.26v-70.26h-61.48c-113.65.14-206.88-89.98-210.6-203.57Z"/>
    <path class="cls-7" d="M637.12,452.69l16.34-8.78c-25.1,43.49-71.51,70.28-121.72,70.26h-61.48c.01-38.79-31.43-70.25-70.22-70.26h-.04,114.17l17.56,8.78,17.56-8.78,17.56,8.78,17.56-8.78,17.56,8.78,17.56-8.78,17.56,8.78Z"/>
    <path class="cls-6" d="M531.73,373.65h140.52c.05,24.67-6.44,48.91-18.79,70.26l-16.34,8.78-17.56-8.78-17.56,8.78-17.56-8.78-17.56,8.78-17.56-8.78-17.56,8.78-17.56-8.78h-245.91c-74.81,0-136.5-58.61-140.34-133.32-.09-1.23-.09-2.37-.09-3.6,1.9,37.36,32.76,66.67,70.17,66.66h333.73Z"/>
    <path class="cls-5" d="M531.73,522.95c-4.85,0-8.78-3.93-8.78-8.78s3.93-8.78,8.78-8.78c72.72-.08,131.66-59.01,131.73-131.73,0-4.85,3.93-8.78,8.78-8.78s8.78,3.93,8.78,8.78c-.09,82.42-66.88,149.21-149.3,149.3Z"/>
    <path class="cls-5" d="M672.25,382.44H198.01c-4.85,0-8.78-3.93-8.78-8.78s3.93-8.78,8.78-8.78h474.25c4.85,0,8.78,3.93,8.78,8.78s-3.93,8.78-8.78,8.78Z"/>
    <path class="cls-5" d="M198.01,382.44c-43.63-.05-78.99-35.41-79.04-79.04,0-4.85,3.93-8.78,8.78-8.78s8.78,3.93,8.78,8.78c.04,33.94,27.54,61.44,61.48,61.48,4.85,0,8.78,3.93,8.78,8.78s-3.93,8.78-8.78,8.78Z"/>
    <path class="cls-5" d="M198.01,312.18c-4.85,0-8.78-3.92-8.78-8.77h0c-.04-33.95-27.54-61.45-61.48-61.49-4.85,0-8.78-3.93-8.78-8.78s3.93-8.78,8.78-8.78c43.63.05,78.99,35.41,79.04,79.04,0,4.85-3.92,8.78-8.77,8.78h-.01Z"/>
    <path class="cls-5" d="M198.01,382.43c-4.85,0-8.78-3.93-8.78-8.78s3.93-8.78,8.78-8.78c33.94-.04,61.44-27.54,61.48-61.48,0-4.85,3.93-8.78,8.78-8.78s8.78,3.93,8.78,8.78c-.05,43.63-35.41,78.99-79.04,79.04Z"/>
    <path class="cls-5" d="M452.69,382.43c-4.85,0-8.78-3.92-8.78-8.77h0c-.04-33.95-27.54-61.45-61.48-61.49-4.85,0-8.78-3.93-8.78-8.78s3.93-8.78,8.78-8.78c43.63.05,78.99,35.41,79.04,79.04,0,4.85-3.92,8.78-8.77,8.78h-.01Z"/>
    <path class="cls-5" d="M268.27,452.69c-82.42-.09-149.21-66.88-149.3-149.3,0-4.85,3.93-8.78,8.78-8.78s8.78,3.93,8.78,8.78c.08,72.72,59.01,131.66,131.73,131.73,4.85,0,8.78,3.93,8.78,8.78s-3.93,8.78-8.78,8.78Z"/>
    <path class="cls-5" d="M338.52,522.95c-121.2-.14-219.42-98.36-219.56-219.56,0-4.85,3.93-8.78,8.78-8.78s8.78,3.93,8.78,8.78c.12,111.51,90.49,201.87,201.99,201.99,4.85,0,8.78,3.93,8.78,8.78s-3.93,8.78-8.78,8.78Z"/>
    <path class="cls-5" d="M400,522.95h-61.48c-4.85,0-8.78-3.93-8.78-8.78s3.93-8.78,8.78-8.78h61.48c4.85,0,8.78,3.93,8.78,8.78s-3.93,8.78-8.78,8.78Z"/>
    <path class="cls-5" d="M637.12,461.48c-1.36,0-2.71-.32-3.93-.93l-13.64-6.82-13.64,6.82c-2.47,1.24-5.38,1.24-7.86,0l-13.64-6.82-13.64,6.82c-2.47,1.24-5.38,1.24-7.86,0l-13.64-6.82-13.64,6.82c-2.47,1.24-5.38,1.24-7.86,0l-15.71-7.86h-243.83c-4.85,0-8.78-3.93-8.78-8.78s3.93-8.78,8.78-8.78h245.91c1.36,0,2.71.32,3.93.93l13.64,6.82,13.64-6.82c2.47-1.24,5.38-1.24,7.86,0l13.64,6.82,13.64-6.82c2.47-1.24,5.38-1.24,7.86,0l13.64,6.82,13.64-6.82c2.47-1.24,5.38-1.24,7.86,0l13.49,6.75,12.33-6.63c4.27-2.29,9.6-.69,11.89,3.59,2.29,4.27.69,9.59-3.57,11.89l-16.35,8.78c-1.28.69-2.71,1.04-4.16,1.05Z"/>
    <path class="cls-5" d="M198.01,382.44c-4.85,0-8.78-3.92-8.78-8.77h0v-70.27c0-4.85,3.93-8.78,8.78-8.78s8.78,3.93,8.78,8.78v70.26c0,4.85-3.92,8.78-8.77,8.78h-.01Z"/>
    <path class="cls-5" d="M127.75,329.74c-4.85,0-8.78-3.92-8.78-8.77,0,0,0,0,0-.01v-87.82c0-4.85,3.93-8.78,8.78-8.78s8.78,3.93,8.78,8.78v87.82c0,4.85-3.92,8.78-8.77,8.78h-.01Z"/>
    <path class="cls-5" d="M198.01,312.18c-4.85,0-8.78-3.93-8.78-8.78s3.93-8.78,8.78-8.78h70.26c4.85,0,8.78,3.92,8.78,8.77s-3.93,8.78-8.78,8.78h-70.26Z"/>
    <path class="cls-5" d="M400,593.21c-4.85,0-8.78-3.93-8.78-8.78s3.93-8.78,8.78-8.78c33.95,0,61.48-27.52,61.48-61.48s-27.52-61.48-61.48-61.48c-4.85,0-8.78-3.93-8.78-8.78s3.93-8.78,8.78-8.78c43.65,0,79.04,35.39,79.04,79.04s-35.39,79.04-79.04,79.04Z"/>
    <path class="cls-5" d="M400,593.21c-4.85,0-8.78-3.92-8.78-8.77h0v-70.27c0-4.85,3.93-8.78,8.78-8.78s8.78,3.93,8.78,8.78v70.26c0,4.85-3.92,8.78-8.77,8.78h-.01Z"/>
    <path class="cls-5" d="M531.73,522.95h-61.48c-4.85,0-8.78-3.93-8.78-8.78s3.93-8.78,8.78-8.78h61.48c4.85,0,8.78,3.93,8.78,8.78s-3.93,8.78-8.78,8.78Z"/>
    <path class="cls-5" d="M382.43,382.43c-4.85,0-8.78-3.92-8.78-8.77h0v-70.27c0-4.85,3.93-8.78,8.78-8.78s8.78,3.93,8.78,8.78v70.26c0,4.85-3.92,8.78-8.77,8.78h-.01Z"/>
    <path class="cls-5" d="M531.73,391.22c-4.85,0-8.78-3.92-8.78-8.77h0v-8.8c0-4.85,3.93-8.78,8.78-8.78s8.78,3.93,8.78,8.78v8.79c0,4.85-3.92,8.78-8.77,8.78h-.01Z"/>
  </g>
  <circle class="cls-3" cx="509.6" cy="592.5" r="38.65"/>
  <circle class="cls-3" cx="255.25" cy="604.95" r="56.04"/>
  <circle class="cls-3" cx="420.6" cy="745.89" r="23.19"/>
  <path class="cls-2" d="M146.74,244.01c-3.58,0-7.23-.74-10.72-2.29-13.28-5.93-19.25-21.51-13.32-34.79,22.09-49.52,83.56-113.49,153.97-134.49,13.99-4.13,28.62,3.78,32.78,17.72,4.16,13.95-3.77,28.62-17.72,32.78-53.34,15.91-103.36,66.11-120.92,105.46-4.37,9.8-13.99,15.62-24.07,15.62Z"/>
  <path class="cls-1" d="M558.18,741.87c-10.77,0-20.88-6.66-24.77-17.38-4.96-13.68,2.11-28.79,15.79-33.75,62.44-22.63,118.12-78.58,152.77-153.51,6.12-13.21,21.8-18.95,34.97-12.86,13.21,6.11,18.96,21.77,12.86,34.97-40.51,87.6-107.08,153.54-182.64,180.93-2.97,1.08-5.99,1.59-8.98,1.59Z"/>
</svg>